<?xml version="1.0" encoding="UTF-8"?><svg id="images" xmlns="http://www.w3.org/2000/svg" viewBox="0 0 340 340"><defs><style>.cls-1{fill:#fcba28;}.cls-2{fill:none;stroke:#fcba28;stroke-miterlimit:10;stroke-width:2px;}</style></defs><g id="foreground"><g><path class="cls-1" d="M120.44,65.89c.07-.28,.17-.56,.3-.83,.13-.27,.28-.53,.45-.77s.36-.45,.56-.63l1,.62c-.2,.34-.36,.7-.49,1.09-.13,.39-.2,.83-.2,1.34v1.38h-1.74v-1.38c0-.27,.04-.54,.11-.82Zm2.66,0c.07-.28,.17-.56,.3-.83,.13-.27,.28-.53,.45-.77s.36-.45,.56-.63l1,.62c-.2,.34-.36,.7-.49,1.09-.13,.39-.2,.83-.2,1.34v1.38h-1.74v-1.38c0-.27,.04-.54,.11-.82Z"/><path class="cls-1" d="M133.79,75.64c-.04-.14-.07-.28-.09-.43-.12,.13-.26,.25-.41,.37s-.33,.21-.52,.3c-.19,.09-.4,.16-.63,.21-.23,.05-.48,.07-.74,.07-.43,0-.83-.06-1.19-.19-.36-.12-.67-.3-.93-.52-.26-.22-.46-.49-.61-.8-.15-.31-.22-.65-.22-1.01,0-.47,.09-.88,.27-1.25,.18-.36,.46-.66,.82-.89,.33-.21,.73-.38,1.21-.49,.48-.11,1.04-.17,1.66-.17h1.21v-.5c0-.2-.03-.38-.09-.54s-.16-.3-.28-.41c-.13-.12-.29-.21-.49-.28s-.42-.1-.68-.1c-.23,0-.43,.03-.59,.08-.17,.05-.3,.13-.41,.23-.09,.09-.16,.2-.21,.32-.04,.12-.07,.26-.07,.41h-2.17c0-.36,.08-.7,.24-1.02,.16-.32,.39-.61,.7-.85,.3-.25,.67-.44,1.11-.58,.44-.14,.94-.21,1.51-.21,.51,0,.99,.06,1.43,.19,.44,.12,.82,.31,1.14,.55,.32,.25,.58,.55,.76,.93,.18,.37,.27,.8,.27,1.29v3.62c0,.45,.03,.83,.09,1.12,.06,.3,.14,.55,.25,.77v.13h-2.2c-.05-.1-.1-.22-.13-.36Zm-1.33-1.24c.19-.05,.36-.12,.51-.2,.15-.08,.28-.18,.39-.29s.2-.21,.26-.32v-1.45h-1.11c-.34,0-.63,.03-.87,.1-.24,.07-.43,.16-.59,.27-.15,.12-.26,.26-.34,.43-.07,.16-.11,.34-.11,.54,0,.15,.03,.29,.08,.42s.13,.24,.24,.32c.1,.08,.23,.15,.39,.2,.15,.05,.33,.07,.54,.07,.22,0,.42-.03,.61-.08Z"/><path class="cls-1" d="M145.94,73.01c-.06,.36-.14,.7-.25,1-.12,.34-.28,.65-.47,.92s-.43,.5-.69,.69c-.24,.17-.51,.3-.81,.39-.3,.09-.63,.14-.99,.14-.33,0-.63-.04-.89-.12-.27-.08-.51-.2-.72-.36-.11-.08-.22-.17-.32-.26-.1-.1-.19-.2-.28-.32l-.1,.9h-1.95v-12h2.17v4.31c.1-.12,.22-.23,.34-.33,.12-.1,.25-.19,.38-.26,.19-.11,.4-.19,.63-.25s.47-.08,.74-.08c.37,0,.7,.05,1,.14s.58,.23,.82,.41c.19,.14,.37,.3,.52,.49s.29,.4,.41,.62c.19,.36,.33,.76,.42,1.21,.09,.45,.14,.93,.14,1.44v.16c0,.41-.03,.79-.09,1.15Zm-2.12-1.96c-.02-.21-.05-.4-.1-.59-.06-.21-.13-.41-.22-.57-.09-.17-.23-.32-.41-.46-.12-.09-.25-.16-.41-.2-.15-.04-.32-.07-.52-.07-.26,0-.49,.04-.69,.11-.2,.07-.37,.18-.51,.32-.07,.07-.13,.14-.19,.23-.06,.09-.11,.18-.16,.28v3.37c.06,.13,.13,.25,.21,.36,.08,.11,.18,.2,.29,.28,.13,.1,.28,.17,.46,.23,.17,.05,.37,.08,.6,.08,.19,0,.37-.02,.52-.07s.29-.11,.41-.2c.16-.11,.29-.26,.39-.45s.18-.39,.23-.63c.04-.17,.07-.36,.09-.56,.02-.2,.03-.41,.03-.63v-.16c0-.22,0-.44-.03-.65Z"/><path class="cls-1" d="M152.52,74.33c.19-.06,.36-.15,.51-.27,.15-.11,.26-.25,.34-.41,.08-.16,.12-.34,.11-.54h2.05c.01,.44-.08,.84-.27,1.22-.19,.38-.45,.7-.78,.97s-.71,.48-1.14,.64c-.43,.15-.89,.23-1.38,.23-.66,0-1.23-.11-1.73-.33-.49-.22-.91-.52-1.23-.91-.33-.39-.58-.84-.75-1.36-.17-.52-.25-1.07-.25-1.67v-.23c0-.59,.08-1.15,.25-1.67,.17-.52,.42-.97,.75-1.36,.33-.39,.75-.69,1.24-.91s1.06-.34,1.71-.34c.52,0,1,.08,1.45,.23,.44,.16,.83,.38,1.15,.66,.32,.29,.57,.63,.74,1.04,.18,.4,.26,.86,.25,1.36h-2.05c.01-.21-.02-.41-.09-.59-.07-.19-.18-.35-.32-.48s-.31-.24-.51-.32c-.2-.08-.41-.12-.65-.12-.34,0-.63,.07-.85,.21-.22,.14-.4,.33-.53,.56-.13,.23-.23,.5-.29,.8s-.08,.61-.08,.94v.23c0,.33,.03,.64,.08,.95,.05,.3,.15,.57,.28,.8,.13,.23,.31,.42,.54,.56s.51,.21,.86,.21c.21,0,.42-.03,.61-.09Z"/><path class="cls-1" d="M161.48,65.99c-.07,.28-.17,.56-.3,.82-.13,.27-.28,.53-.45,.77s-.36,.45-.56,.64l-.99-.62c.2-.34,.36-.7,.49-1.09,.13-.39,.19-.84,.19-1.34v-1.35h1.74v1.35c0,.27-.04,.54-.11,.82Zm2.8,0c-.07,.28-.17,.56-.3,.82-.13,.27-.28,.53-.45,.77s-.36,.45-.56,.64l-.99-.62c.2-.34,.36-.7,.49-1.09,.13-.39,.19-.84,.19-1.34v-1.35h1.74v1.35c0,.27-.04,.54-.11,.82Z"/><path class="cls-1" d="M170.28,73.72c.27-.28,.63-.42,1.11-.42s.84,.14,1.11,.41c.27,.28,.4,.62,.4,1.02s-.14,.74-.41,1.01-.64,.4-1.1,.4-.83-.14-1.1-.41c-.27-.27-.41-.61-.41-1.01s.13-.74,.4-1.02Z"/><path class="cls-1" d="M182.63,64v10.23h2.42v1.77h-7.15v-1.77h2.53v-8.46h-2.53v-1.77h4.73Z"/><path class="cls-1" d="M189.54,75.84c-.53-.21-.99-.5-1.37-.88-.38-.36-.67-.8-.88-1.29-.21-.5-.31-1.03-.31-1.6v-.31c0-.65,.1-1.24,.3-1.77s.49-.99,.85-1.38c.36-.39,.8-.68,1.3-.9s1.04-.32,1.63-.32,1.15,.1,1.63,.3,.88,.48,1.21,.85c.33,.36,.58,.8,.75,1.32s.26,1.08,.26,1.7v.92h-5.73v.02c.07,.34,.17,.61,.28,.82,.11,.21,.27,.39,.46,.56,.2,.17,.42,.3,.68,.4,.25,.09,.53,.14,.84,.14,.43,0,.84-.08,1.24-.24,.4-.16,.73-.4,.98-.73l1.09,1.17c-.28,.39-.71,.75-1.31,1.06-.6,.32-1.31,.48-2.12,.48-.65,0-1.24-.11-1.77-.32Zm.84-6.56c-.2,.09-.38,.21-.53,.37-.16,.16-.29,.35-.39,.58-.1,.22-.18,.47-.23,.75h3.56v-.17c0-.23-.04-.45-.12-.65-.08-.2-.2-.38-.34-.53-.15-.15-.32-.26-.54-.35s-.46-.13-.73-.13c-.25,0-.47,.04-.67,.13Z"/><path class="cls-1" d="M196.97,67.55h1.97l.13,1.17c.11-.16,.23-.3,.36-.43,.13-.13,.27-.25,.41-.35,.25-.18,.52-.31,.82-.41s.61-.14,.95-.14c.43,0,.82,.06,1.17,.19,.35,.12,.66,.32,.92,.59,.25,.28,.45,.63,.6,1.06,.14,.43,.21,.95,.21,1.57v5.2h-2.17v-5.17c0-.33-.04-.61-.11-.82-.08-.22-.18-.39-.32-.51s-.31-.21-.51-.26c-.2-.05-.42-.07-.67-.07-.21,0-.4,.02-.57,.07-.17,.05-.33,.12-.46,.21-.11,.07-.21,.15-.3,.24-.09,.09-.17,.2-.24,.31v6.01h-2.18v-8.45Z"/><path class="cls-1" d="M206.75,69.95c.16-.53,.39-.99,.68-1.37s.66-.67,1.08-.88,.9-.31,1.43-.31c.29,0,.55,.03,.79,.08s.45,.14,.64,.25c.15,.08,.28,.17,.41,.28s.24,.23,.34,.36l.09-.8h1.98v8.18c0,.57-.1,1.08-.29,1.53s-.47,.83-.82,1.13c-.35,.31-.78,.54-1.27,.7s-1.04,.24-1.63,.24c-.25,0-.53-.03-.82-.08s-.58-.13-.87-.24-.56-.25-.81-.42-.47-.37-.66-.61l.98-1.32c.14,.16,.29,.3,.45,.43s.33,.22,.51,.3c.17,.08,.35,.14,.54,.18s.38,.06,.57,.06c.32,0,.6-.04,.85-.13s.45-.22,.62-.39c.15-.16,.27-.35,.35-.58s.12-.49,.12-.77v-.48c-.1,.11-.21,.22-.33,.31s-.24,.18-.37,.25c-.19,.1-.41,.18-.64,.24s-.48,.09-.75,.09c-.53,0-1-.11-1.42-.32s-.78-.51-1.07-.89-.52-.83-.68-1.36-.24-1.09-.24-1.71v-.16c0-.64,.08-1.23,.24-1.76Zm2.05,2.91c.07,.3,.18,.57,.32,.79,.15,.23,.33,.41,.55,.54s.49,.2,.8,.2c.19,0,.36-.02,.51-.05s.29-.09,.42-.16c.13-.07,.25-.16,.34-.27s.18-.22,.26-.35v-3.58c-.08-.15-.17-.27-.28-.38s-.23-.2-.38-.27c-.12-.06-.25-.1-.39-.13s-.3-.05-.46-.05c-.31,0-.57,.07-.8,.2s-.41,.31-.55,.54c-.15,.23-.26,.51-.34,.82s-.11,.64-.11,1v.16c0,.35,.04,.68,.11,.99Z"/><path class="cls-1" d="M220.48,67.55h3.16v1.6h-3.16v3.63c0,.31,.04,.56,.11,.77s.17,.37,.3,.49c.13,.12,.29,.21,.47,.27s.39,.08,.62,.08c.17,0,.34,0,.51-.02s.34-.04,.5-.06c.16-.02,.3-.04,.44-.07s.26-.05,.36-.08l.21,1.49c-.15,.09-.33,.17-.53,.23s-.42,.12-.65,.16-.47,.07-.71,.1-.49,.04-.73,.04c-.46,0-.88-.06-1.26-.18s-.7-.31-.96-.57c-.27-.25-.48-.58-.62-.98s-.22-.88-.22-1.43v-3.84h-1.93v-1.6h1.93v-2.07h2.17v2.07Z"/><path class="cls-1" d="M228.79,68.26c.13-.14,.27-.26,.42-.36,.22-.16,.47-.29,.74-.38s.56-.13,.86-.13c.44,0,.85,.07,1.22,.2s.69,.34,.95,.62,.47,.64,.62,1.08,.22,.97,.22,1.59v5.12h-2.17v-5.13c0-.3-.04-.56-.11-.78s-.18-.4-.32-.53-.31-.24-.51-.3-.42-.1-.67-.1c-.19,0-.37,.02-.54,.05s-.32,.09-.45,.16c-.12,.06-.24,.14-.34,.23s-.19,.19-.28,.3v6.1h-2.17v-12h2.17v4.71c.11-.16,.23-.31,.36-.45Z"/></g><g><path class="cls-1" d="M66.66,164.9h1.97l.13,1.17c.11-.16,.23-.3,.36-.43,.13-.13,.27-.25,.41-.35,.25-.18,.52-.31,.82-.41s.61-.14,.95-.14c.43,0,.82,.06,1.17,.19,.35,.12,.66,.32,.92,.59,.25,.28,.45,.63,.6,1.06,.14,.43,.21,.95,.21,1.57v5.2h-2.17v-5.17c0-.33-.04-.61-.11-.82-.08-.22-.18-.39-.32-.51s-.31-.21-.51-.26c-.2-.05-.42-.07-.67-.07-.21,0-.4,.02-.57,.07-.17,.05-.33,.12-.46,.21-.11,.07-.21,.15-.3,.24-.09,.09-.17,.2-.24,.31v6.01h-2.18v-8.45Z"/><path class="cls-1" d="M78.75,173.18c-.53-.21-.99-.5-1.37-.88-.38-.36-.67-.8-.88-1.29-.21-.5-.31-1.03-.31-1.6v-.31c0-.65,.1-1.24,.3-1.77s.49-.99,.85-1.38c.37-.39,.8-.68,1.3-.9s1.04-.32,1.63-.32,1.15,.1,1.63,.3,.88,.48,1.21,.85c.33,.36,.58,.8,.75,1.32s.26,1.08,.26,1.7v.92h-5.73v.02c.07,.34,.17,.61,.28,.82,.12,.21,.27,.39,.46,.56,.2,.17,.42,.3,.68,.4,.26,.09,.53,.14,.84,.14,.43,0,.84-.08,1.24-.24,.4-.16,.73-.4,.98-.73l1.09,1.17c-.28,.39-.71,.75-1.31,1.06-.6,.32-1.31,.48-2.12,.48-.65,0-1.24-.11-1.77-.32Zm.84-6.56c-.2,.09-.38,.21-.53,.37-.16,.16-.29,.35-.39,.58-.1,.22-.18,.47-.23,.75h3.56v-.17c0-.23-.04-.45-.12-.65-.08-.2-.2-.38-.34-.53-.15-.15-.32-.26-.54-.35s-.45-.13-.73-.13c-.24,0-.47,.04-.67,.13Z"/><path class="cls-1" d="M85.29,164.9h1.98l.63,5.02,.1,.8,.15-.8,.91-5.02h1.45l.91,5,.15,.8,.11-.82,.62-4.98h1.99l-1.52,8.45h-1.91l-.93-4.52-.18-.86-.17,.86-.9,4.52h-1.91l-1.52-8.45Z"/><path class="cls-1" d="M111.43,169.81c-.07-.18-.19-.34-.36-.5-.17-.15-.39-.29-.67-.42s-.61-.25-1.02-.36c-.63-.17-1.18-.38-1.66-.62s-.87-.51-1.17-.8c-.3-.29-.53-.61-.68-.97-.15-.35-.23-.74-.23-1.16,0-.48,.1-.91,.3-1.3s.48-.72,.84-1,.78-.49,1.27-.64c.49-.15,1.02-.22,1.59-.22s1.14,.09,1.63,.26,.92,.41,1.27,.72c.35,.31,.63,.68,.83,1.11,.2,.43,.3,.9,.3,1.41h-2.14c-.01-.25-.06-.49-.14-.7-.08-.21-.2-.4-.36-.55-.16-.15-.36-.27-.6-.36-.24-.09-.51-.13-.83-.13-.29,0-.55,.04-.78,.11s-.42,.17-.57,.29c-.16,.13-.28,.28-.36,.46-.08,.17-.12,.36-.12,.57,0,.21,.05,.41,.16,.58,.11,.17,.26,.33,.46,.46,.2,.14,.45,.27,.74,.38s.62,.22,.98,.32c.39,.11,.76,.24,1.12,.4,.35,.16,.68,.34,.98,.54,.45,.33,.8,.72,1.07,1.16s.4,.95,.4,1.53c0,.5-.1,.94-.3,1.33-.2,.39-.48,.71-.83,.98-.35,.27-.78,.48-1.27,.61-.49,.14-1.02,.21-1.6,.21s-1.13-.08-1.68-.25-1.04-.42-1.45-.75c-.39-.32-.7-.7-.93-1.14s-.34-.95-.34-1.54h2.16c0,.34,.07,.64,.18,.88s.26,.45,.46,.6c.19,.16,.43,.27,.7,.34s.57,.11,.9,.11c.29,0,.55-.03,.78-.1s.42-.16,.57-.28,.28-.26,.36-.43c.08-.17,.12-.36,.12-.56s-.04-.39-.11-.57Z"/><path class="cls-1" d="M119.45,164.9h3.16v1.6h-3.16v3.63c0,.31,.04,.56,.11,.77s.17,.37,.3,.49c.13,.12,.29,.21,.47,.27,.18,.05,.39,.08,.62,.08,.17,0,.34,0,.51-.02,.17-.02,.34-.04,.5-.06,.16-.02,.3-.04,.44-.07,.14-.03,.26-.05,.36-.08l.21,1.49c-.15,.09-.33,.17-.53,.23s-.42,.12-.65,.16c-.23,.04-.47,.07-.71,.1-.25,.02-.49,.04-.73,.04-.46,0-.88-.06-1.26-.18-.38-.12-.7-.31-.96-.57-.27-.25-.48-.58-.62-.98-.15-.4-.22-.88-.22-1.43v-3.84h-1.93v-1.6h1.93v-2.07h2.17v2.07Z"/><path class="cls-1" d="M132.21,164.81c.28,.04,.5,.09,.68,.14l-.32,2.16c-.29-.07-.58-.12-.88-.15-.3-.03-.58-.05-.86-.05s-.54,.02-.76,.07-.43,.12-.61,.22c-.21,.11-.4,.26-.55,.44-.15,.18-.28,.39-.38,.62v5.08h-2.17v-8.45h2.02l.09,1.2,.02,.19c.34-.48,.75-.86,1.23-1.13,.48-.27,1-.41,1.57-.41,.33,0,.63,.02,.91,.07Z"/><path class="cls-1" d="M140.17,164.9v6.69h2.29v1.77h-6.89v-1.77h2.41v-4.91h-2.41v-1.77h4.6Zm-2.26-2.63c.06-.14,.14-.27,.25-.37,.11-.1,.24-.18,.39-.23,.15-.06,.32-.09,.51-.09,.38,0,.69,.11,.92,.32s.34,.49,.34,.83-.11,.62-.34,.83-.53,.32-.92,.32c-.19,0-.36-.03-.51-.09-.15-.06-.29-.14-.39-.24-.11-.1-.19-.22-.25-.36-.06-.14-.09-.3-.09-.46s.03-.32,.09-.46Z"/><path class="cls-1" d="M144.75,164.9h1.97l.13,1.17c.11-.16,.23-.3,.36-.43,.13-.13,.27-.25,.41-.35,.25-.18,.52-.31,.82-.41s.61-.14,.95-.14c.43,0,.82,.06,1.17,.19,.35,.12,.66,.32,.92,.59,.25,.28,.45,.63,.6,1.06,.14,.43,.21,.95,.21,1.57v5.2h-2.17v-5.17c0-.33-.04-.61-.11-.82-.08-.22-.18-.39-.32-.51s-.31-.21-.51-.26c-.2-.05-.42-.07-.67-.07-.21,0-.4,.02-.57,.07-.17,.05-.33,.12-.46,.21-.11,.07-.21,.15-.3,.24-.09,.09-.17,.2-.24,.31v6.01h-2.18v-8.45Z"/><path class="cls-1" d="M154.53,167.3c.16-.53,.39-.99,.68-1.37s.66-.67,1.08-.88,.9-.31,1.43-.31c.29,0,.55,.03,.79,.08s.45,.14,.64,.25c.15,.08,.28,.17,.41,.28s.24,.23,.34,.36l.09-.8h1.98v8.18c0,.57-.1,1.08-.29,1.53s-.47,.83-.82,1.13c-.35,.31-.78,.54-1.27,.7s-1.04,.24-1.63,.24c-.25,0-.53-.03-.82-.08s-.58-.13-.87-.24-.56-.25-.81-.42-.47-.37-.66-.61l.98-1.32c.14,.16,.29,.3,.45,.43s.33,.22,.51,.3c.17,.08,.35,.14,.54,.18s.38,.06,.57,.06c.32,0,.6-.04,.85-.13s.45-.22,.62-.39c.15-.16,.27-.35,.35-.58s.12-.49,.12-.77v-.48c-.1,.11-.21,.22-.33,.31s-.24,.18-.37,.25c-.19,.1-.41,.18-.64,.24s-.48,.09-.75,.09c-.53,0-1-.11-1.42-.32s-.78-.51-1.07-.89-.52-.83-.68-1.36-.24-1.09-.24-1.71v-.16c0-.64,.08-1.23,.24-1.76Zm2.05,2.91c.07,.3,.18,.57,.32,.79,.15,.23,.33,.41,.55,.54s.49,.2,.8,.2c.19,0,.36-.02,.51-.05s.29-.09,.42-.16c.13-.07,.25-.16,.34-.27s.18-.22,.26-.35v-3.58c-.08-.15-.17-.27-.28-.38s-.23-.2-.38-.27c-.12-.06-.25-.1-.39-.13s-.3-.05-.46-.05c-.31,0-.57,.07-.8,.2s-.41,.31-.55,.54c-.15,.23-.26,.51-.34,.82s-.11,.64-.11,1v.16c0,.35,.04,.68,.11,.99Z"/><path class="cls-1" d="M166.04,166.65c.11-.65,.26-1.25,.46-1.8,.19-.55,.42-1.05,.68-1.5s.53-.85,.82-1.2,.58-.64,.89-.89,.6-.43,.89-.56l.42,1.19c-.17,.12-.33,.28-.5,.45s-.33,.38-.49,.61c-.21,.3-.4,.65-.58,1.05s-.34,.85-.47,1.33c-.12,.46-.22,.98-.29,1.54s-.11,1.17-.11,1.84v.2c0,.65,.04,1.25,.11,1.8s.15,.99,.23,1.32c.11,.46,.25,.88,.4,1.27s.32,.73,.5,1.02c.19,.32,.39,.59,.59,.83s.41,.43,.62,.59l-.42,1.17c-.29-.13-.58-.32-.89-.56s-.6-.54-.89-.89c-.29-.34-.56-.74-.82-1.2s-.48-.96-.68-1.51c-.19-.55-.34-1.14-.46-1.79s-.17-1.34-.17-2.08v-.17c0-.73,.06-1.43,.17-2.07Z"/><path class="cls-1" d="M177.59,163.34c-.07,.28-.17,.56-.3,.82-.13,.27-.28,.53-.45,.77s-.36,.45-.56,.64l-.99-.62c.2-.34,.36-.7,.49-1.09s.19-.84,.19-1.34v-1.35h1.74v1.35c0,.27-.04,.54-.11,.82Zm2.8,0c-.07,.28-.17,.56-.3,.82-.13,.27-.28,.53-.45,.77s-.36,.45-.56,.64l-.99-.62c.2-.34,.36-.7,.49-1.09s.19-.84,.19-1.34v-1.35h1.74v1.35c0,.27-.04,.54-.11,.82Z"/><path class="cls-1" d="M188.95,172.99c-.04-.14-.07-.28-.09-.43-.12,.13-.26,.25-.41,.37s-.33,.21-.52,.3c-.19,.09-.4,.16-.63,.21-.23,.05-.48,.07-.74,.07-.43,0-.83-.06-1.19-.19-.36-.12-.67-.3-.93-.52-.26-.22-.46-.49-.61-.8-.15-.31-.22-.65-.22-1.01,0-.47,.09-.88,.27-1.25,.18-.36,.46-.66,.82-.89,.33-.21,.73-.38,1.21-.49,.48-.11,1.04-.17,1.66-.17h1.21v-.5c0-.2-.03-.38-.09-.54s-.16-.3-.28-.41c-.13-.12-.29-.21-.49-.28s-.42-.1-.68-.1c-.23,0-.43,.03-.59,.08-.17,.05-.3,.13-.41,.23-.09,.09-.16,.2-.21,.32-.04,.12-.07,.26-.07,.41h-2.17c0-.36,.08-.7,.24-1.02,.16-.32,.39-.61,.7-.85,.3-.25,.67-.44,1.11-.58,.44-.14,.94-.21,1.51-.21,.51,0,.99,.06,1.43,.19,.44,.12,.82,.31,1.14,.55,.32,.25,.58,.55,.76,.93,.18,.37,.27,.8,.27,1.29v3.62c0,.45,.03,.83,.09,1.12,.06,.3,.14,.55,.25,.77v.13h-2.2c-.05-.1-.1-.22-.13-.36Zm-1.33-1.24c.19-.05,.36-.12,.51-.2,.15-.08,.28-.18,.39-.29s.2-.21,.26-.32v-1.45h-1.11c-.34,0-.63,.03-.87,.1-.24,.07-.44,.16-.59,.27-.15,.12-.26,.26-.34,.43-.07,.16-.11,.34-.11,.54,0,.15,.03,.29,.08,.42s.13,.24,.24,.32c.1,.08,.23,.15,.39,.2,.15,.05,.33,.07,.54,.07,.22,0,.42-.03,.61-.08Z"/><path class="cls-1" d="M201.09,170.36c-.06,.36-.14,.7-.25,1-.12,.34-.28,.65-.47,.92s-.43,.5-.69,.69c-.24,.17-.51,.3-.81,.39-.3,.09-.63,.14-.99,.14-.33,0-.63-.04-.89-.12-.27-.08-.51-.2-.72-.36-.12-.08-.22-.17-.32-.26-.1-.1-.19-.2-.28-.32l-.1,.9h-1.95v-12h2.17v4.31c.1-.12,.22-.23,.34-.33,.12-.1,.25-.19,.38-.26,.19-.11,.4-.19,.63-.25s.47-.08,.74-.08c.36,0,.7,.05,1,.14s.58,.23,.82,.41c.19,.14,.37,.3,.52,.49s.29,.4,.41,.62c.19,.36,.33,.76,.42,1.21,.09,.45,.14,.93,.14,1.44v.16c0,.41-.03,.79-.09,1.15Zm-2.12-1.96c-.02-.21-.05-.4-.1-.59-.06-.21-.13-.41-.22-.57-.09-.17-.23-.32-.41-.46-.12-.09-.26-.16-.41-.2-.15-.04-.32-.07-.52-.07-.26,0-.49,.04-.69,.11-.2,.07-.37,.18-.51,.32-.07,.07-.13,.14-.19,.23-.06,.09-.11,.18-.16,.28v3.37c.06,.13,.13,.25,.21,.36,.08,.11,.18,.2,.29,.28,.13,.1,.28,.17,.46,.23,.17,.05,.37,.08,.6,.08,.19,0,.37-.02,.52-.07s.29-.11,.41-.2c.16-.11,.29-.26,.39-.45s.18-.39,.23-.63c.04-.17,.07-.36,.09-.56,.02-.2,.03-.41,.03-.63v-.16c0-.22-.01-.44-.03-.65Z"/><path class="cls-1" d="M207.67,171.68c.19-.06,.36-.15,.51-.27,.15-.11,.26-.25,.34-.41,.08-.16,.12-.34,.11-.54h2.05c.01,.44-.08,.84-.27,1.22-.19,.38-.45,.7-.78,.97s-.71,.48-1.14,.64c-.43,.15-.89,.23-1.38,.23-.66,0-1.23-.11-1.73-.33-.49-.22-.91-.52-1.23-.91-.33-.39-.58-.84-.75-1.36-.17-.52-.25-1.07-.25-1.67v-.23c0-.59,.08-1.15,.25-1.67,.17-.52,.42-.97,.75-1.36,.33-.39,.75-.69,1.24-.91s1.06-.34,1.71-.34c.52,0,1,.08,1.45,.23,.44,.16,.83,.38,1.15,.66,.32,.29,.57,.63,.74,1.04,.18,.4,.26,.86,.25,1.36h-2.05c.01-.21-.02-.41-.09-.59-.07-.19-.18-.35-.32-.48s-.31-.24-.51-.32c-.2-.08-.41-.12-.65-.12-.34,0-.63,.07-.85,.21-.22,.14-.4,.33-.53,.56-.13,.23-.23,.5-.29,.8s-.08,.61-.08,.94v.23c0,.33,.03,.64,.08,.95,.05,.3,.15,.57,.28,.8,.13,.23,.31,.42,.54,.56s.51,.21,.86,.21c.21,0,.42-.03,.61-.09Z"/><path class="cls-1" d="M216.64,163.34c-.07,.28-.17,.56-.3,.82-.13,.27-.28,.53-.45,.77s-.36,.45-.56,.64l-.99-.62c.2-.34,.36-.7,.49-1.09,.13-.39,.19-.84,.19-1.34v-1.35h1.74v1.35c0,.27-.04,.54-.11,.82Zm2.8,0c-.07,.28-.17,.56-.3,.82-.13,.27-.28,.53-.45,.77s-.36,.45-.56,.64l-.99-.62c.2-.34,.36-.7,.49-1.09,.13-.39,.19-.84,.19-1.34v-1.35h1.74v1.35c0,.27-.04,.54-.11,.82Z"/><path class="cls-1" d="M228.46,170.92c-.11,.64-.27,1.23-.47,1.79-.2,.55-.43,1.06-.69,1.51-.26,.46-.54,.86-.84,1.21-.3,.36-.6,.66-.91,.91s-.62,.44-.91,.57l-.41-1.17c.18-.14,.37-.3,.55-.5,.18-.2,.36-.43,.53-.7,.2-.31,.39-.67,.56-1.06,.17-.4,.32-.84,.45-1.33,.11-.45,.2-.94,.26-1.48,.07-.54,.1-1.13,.1-1.76v-.2c0-.61-.03-1.19-.1-1.72-.06-.53-.15-1.02-.26-1.47-.14-.56-.31-1.06-.51-1.5-.2-.44-.41-.83-.64-1.15-.15-.21-.31-.41-.46-.57-.16-.17-.32-.31-.47-.43l.41-1.16c.3,.13,.6,.32,.91,.57s.62,.55,.91,.91c.3,.36,.58,.77,.84,1.22,.26,.46,.49,.96,.69,1.51,.2,.55,.35,1.15,.47,1.79,.12,.64,.17,1.31,.17,2.03v.17c0,.71-.06,1.39-.17,2.03Z"/><path class="cls-1" d="M235.2,171.07c.27-.28,.63-.42,1.11-.42s.84,.14,1.11,.41c.27,.28,.4,.62,.4,1.02s-.14,.74-.41,1.01-.64,.4-1.1,.4-.83-.14-1.1-.41c-.27-.27-.41-.61-.41-1.01s.13-.74,.4-1.02Z"/><path class="cls-1" d="M247.55,161.35v10.23h2.42v1.77h-7.15v-1.77h2.53v-8.46h-2.53v-1.77h4.73Z"/><path class="cls-1" d="M254.46,173.18c-.53-.21-.99-.5-1.37-.88-.38-.36-.67-.8-.88-1.29-.21-.5-.31-1.03-.31-1.6v-.31c0-.65,.1-1.24,.3-1.77s.49-.99,.85-1.38c.36-.39,.8-.68,1.3-.9s1.04-.32,1.63-.32,1.15,.1,1.63,.3,.88,.48,1.21,.85c.33,.36,.58,.8,.75,1.32s.26,1.08,.26,1.7v.92h-5.73v.02c.07,.34,.17,.61,.28,.82,.11,.21,.27,.39,.46,.56,.2,.17,.42,.3,.68,.4,.25,.09,.53,.14,.84,.14,.43,0,.84-.08,1.24-.24,.4-.16,.73-.4,.98-.73l1.09,1.17c-.28,.39-.71,.75-1.31,1.06-.6,.32-1.31,.48-2.12,.48-.65,0-1.24-.11-1.77-.32Zm.84-6.56c-.2,.09-.38,.21-.53,.37-.16,.16-.29,.35-.39,.58-.1,.22-.18,.47-.23,.75h3.56v-.17c0-.23-.04-.45-.12-.65-.08-.2-.2-.38-.34-.53-.15-.15-.32-.26-.54-.35s-.46-.13-.73-.13c-.25,0-.47,.04-.67,.13Z"/><path class="cls-1" d="M261.89,164.9h1.97l.13,1.17c.11-.16,.23-.3,.36-.43,.13-.13,.27-.25,.41-.35,.25-.18,.52-.31,.82-.41s.61-.14,.95-.14c.43,0,.82,.06,1.17,.19,.35,.12,.66,.32,.92,.59,.25,.28,.45,.63,.6,1.06,.14,.43,.21,.95,.21,1.57v5.2h-2.17v-5.17c0-.33-.04-.61-.11-.82-.08-.22-.18-.39-.32-.51s-.31-.21-.51-.26c-.2-.05-.42-.07-.67-.07-.21,0-.4,.02-.57,.07-.17,.05-.33,.12-.46,.21-.11,.07-.21,.15-.3,.24-.09,.09-.17,.2-.24,.31v6.01h-2.18v-8.45Z"/><path class="cls-1" d="M271.67,167.3c.16-.53,.39-.99,.68-1.37s.66-.67,1.08-.88,.9-.31,1.43-.31c.29,0,.55,.03,.79,.08,.24,.05,.45,.14,.64,.25,.15,.08,.28,.17,.41,.28s.24,.23,.34,.36l.09-.8h1.98v8.18c0,.57-.1,1.08-.29,1.53s-.47,.83-.82,1.13c-.35,.31-.78,.54-1.27,.7s-1.04,.24-1.63,.24c-.26,0-.53-.03-.82-.08-.29-.05-.58-.13-.87-.24-.29-.11-.56-.25-.81-.42-.26-.17-.47-.37-.66-.61l.98-1.32c.14,.16,.29,.3,.45,.43,.16,.12,.33,.22,.51,.3,.17,.08,.35,.14,.54,.18,.18,.04,.38,.06,.57,.06,.32,0,.6-.04,.85-.13,.25-.09,.45-.22,.62-.39,.15-.16,.27-.35,.35-.58,.08-.23,.12-.49,.12-.77v-.48c-.1,.11-.21,.22-.33,.31-.12,.09-.24,.18-.37,.25-.19,.1-.41,.18-.64,.24-.23,.06-.48,.09-.75,.09-.53,0-1-.11-1.42-.32-.42-.22-.78-.51-1.07-.89s-.53-.83-.68-1.36c-.16-.52-.24-1.09-.24-1.71v-.16c0-.64,.08-1.23,.24-1.76Zm2.05,2.91c.07,.3,.18,.57,.32,.79,.15,.23,.33,.41,.55,.54,.22,.13,.49,.2,.8,.2,.19,0,.36-.02,.51-.05,.15-.04,.29-.09,.42-.16,.13-.07,.24-.16,.34-.27,.1-.1,.18-.22,.26-.35v-3.58c-.08-.15-.17-.27-.28-.38s-.23-.2-.38-.27c-.12-.06-.25-.1-.39-.13-.14-.03-.3-.05-.46-.05-.31,0-.57,.07-.8,.2-.22,.13-.41,.31-.55,.54-.15,.23-.26,.51-.34,.82-.07,.31-.11,.64-.11,1v.16c0,.35,.04,.68,.11,.99Z"/><path class="cls-1" d="M285.4,164.9h3.16v1.6h-3.16v3.63c0,.31,.04,.56,.11,.77s.17,.37,.3,.49c.13,.12,.29,.21,.47,.27s.39,.08,.62,.08c.17,0,.34,0,.51-.02s.34-.04,.5-.06c.16-.02,.3-.04,.44-.07s.26-.05,.36-.08l.21,1.49c-.15,.09-.33,.17-.53,.23s-.42,.12-.65,.16-.47,.07-.71,.1-.49,.04-.73,.04c-.46,0-.88-.06-1.26-.18s-.7-.31-.96-.57c-.27-.25-.48-.58-.62-.98s-.22-.88-.22-1.43v-3.84h-1.93v-1.6h1.93v-2.07h2.17v2.07Z"/><path class="cls-1" d="M293.71,165.61c.13-.14,.27-.26,.42-.36,.22-.16,.47-.29,.74-.38s.56-.13,.86-.13c.44,0,.85,.07,1.22,.2s.69,.34,.95,.62,.47,.64,.62,1.08,.22,.97,.22,1.59v5.12h-2.17v-5.13c0-.3-.04-.56-.11-.78s-.18-.4-.32-.53-.31-.24-.51-.3-.42-.1-.67-.1c-.19,0-.37,.02-.54,.05s-.32,.09-.45,.16c-.12,.06-.24,.14-.34,.23s-.19,.19-.28,.3v6.1h-2.17v-12h2.17v4.71c.11-.16,.23-.31,.36-.45Z"/></g><path class="cls-1" d="M170.12,265.7c.31,0,.58-.04,.81-.13s.41-.21,.55-.36c.13-.14,.23-.3,.29-.5,.06-.2,.1-.41,.1-.64s-.03-.43-.1-.61c-.07-.18-.16-.34-.29-.48-.13-.13-.3-.23-.5-.3-.2-.07-.43-.11-.7-.11-.22,0-.42,.03-.61,.09-.19,.06-.36,.15-.5,.27-.15,.12-.26,.26-.34,.43-.08,.17-.12,.35-.12,.56h-2.17c0-.46,.09-.89,.29-1.27,.19-.38,.45-.71,.79-.98,.33-.27,.72-.48,1.18-.63,.45-.15,.94-.23,1.46-.23,.56,0,1.08,.07,1.55,.21s.87,.34,1.2,.61c.33,.28,.59,.62,.78,1.02,.18,.4,.28,.87,.28,1.4,0,.25-.04,.49-.11,.72-.07,.24-.18,.46-.32,.68s-.32,.41-.52,.59c-.21,.18-.45,.33-.72,.46,.32,.11,.59,.26,.82,.44,.23,.18,.42,.38,.57,.6,.15,.23,.26,.48,.34,.75,.07,.27,.11,.56,.11,.86,0,.53-.1,1-.3,1.42s-.48,.77-.84,1.05c-.35,.29-.78,.5-1.26,.65-.49,.15-1.01,.22-1.57,.22-.48,0-.96-.07-1.42-.2s-.87-.33-1.23-.61c-.36-.27-.65-.6-.86-1.01-.22-.41-.32-.89-.32-1.44h2.17c0,.22,.04,.42,.12,.61,.08,.18,.2,.34,.36,.47,.15,.14,.33,.24,.54,.32,.21,.08,.44,.11,.69,.11,.28,0,.53-.04,.76-.12,.22-.08,.41-.19,.56-.34,.15-.14,.26-.3,.33-.5,.08-.2,.11-.42,.11-.66,0-.31-.04-.57-.13-.79-.09-.22-.22-.4-.38-.54-.17-.14-.38-.25-.61-.31-.24-.07-.5-.1-.8-.1h-1.18v-1.69h1.18Z"/><g><line class="cls-2" x1="170" y1="91" x2="170" y2="136.68"/><polygon class="cls-1" points="170 145.34 175 136.68 165 136.68 170 145.34"/></g><g><line class="cls-2" x1="170" y1="193" x2="170" y2="238.68"/><polygon class="cls-1" points="170 247.34 175 238.68 165 238.68 170 247.34"/></g></g></svg>