<?xml version="1.0" encoding="utf-8"?>
<svg version="1.1" id="Layer_1" xmlns="http://www.w3.org/2000/svg" xmlns:xlink="http://www.w3.org/1999/xlink" x="0px" y="0px"
	 viewBox="0 0 998.1 998.3" style="enable-background:new 0 0 998.1 998.3;" xml:space="preserve">
<style type="text/css">
	.st0{fill:#f9f4da;}
	.st1{fill:#fcba28;}
	.st2{fill:#fdd273;enable-background:new    ;}
	.st3{fill:#fdd273;}
	.st4{fill:#fcba28;}
	.st5{fill:url(#SVGID_1_);}
	.st6{enable-background:new    ;}
</style>
<path class="st0" d="M931.7,998.3c36.5,0,66.4-29.4,66.4-65.4V265.8c0-36-29.9-65.4-66.4-65.4H283.6l260.1,797.9L931.7,998.3
	L931.7,998.3z"/>
<path class="st1" d="M931.7,230.4c9.7,0,18.9,3.8,25.8,10.6c6.8,6.7,10.6,15.5,10.6,24.8v667.1c0,9.3-3.7,18.1-10.6,24.8
	c-6.9,6.8-16.1,10.6-25.8,10.6H565.5L324.9,230.4H931.7 M931.7,200.4H283.6l260.1,797.9h388c36.5,0,66.4-29.4,66.4-65.4V265.8
	C998.1,229.8,968.2,200.4,931.7,200.4L931.7,200.4z"/>
<path class="st2" d="M931.7,230.4c9.7,0,18.9,3.8,25.8,10.6c6.8,6.7,10.6,15.5,10.6,24.8v667.1c0,9.3-3.7,18.1-10.6,24.8
	c-6.9,6.8-16.1,10.6-25.8,10.6H565.5L324.9,230.4H931.7 M931.7,200.4H283.6l260.1,797.9h388c36.5,0,66.4-29.4,66.4-65.4V265.8
	C998.1,229.8,968.2,200.4,931.7,200.4L931.7,200.4z"/>
<polygon points="482.3,809.8 543.7,998.3 714.4,809.8 "/>
<path class="st3" d="M936.1,476.1V437H747.6v-63.2h-61.2V437H566.1v39.1h239.4c-12.8,45.1-41.1,87.7-68.7,120.8
	c-48.9-57.9-49.1-76.7-49.1-76.7h-50.8c0,0,2.1,28.2,70.7,108.6c-22.3,22.8-39.2,36.3-39.2,36.3l15.6,48.8c0,0,23.6-20.3,53.1-51.6
	c29.6,32.1,67.8,70.7,117.2,116.7l32.1-32.1c-52.9-48-91.7-86.1-120.2-116.7c38.2-45.2,77-102.1,85.2-154.2H936L936.1,476.1
	L936.1,476.1z"/>
<path class="st4" d="M66.4,0C29.9,0,0,29.9,0,66.5v677c0,36.5,29.9,66.4,66.4,66.4h648.1L454.4,0H66.4z"/>
<radialGradient id="SVGID_1_" cx="65.2078" cy="820.634" r="1398.271" gradientTransform="matrix(1 0 0 -1 0 840)" gradientUnits="userSpaceOnUse">
	<stop  offset="0" style="stop-color:#FFFFFF;stop-opacity:0.1"/>
	<stop  offset="1" style="stop-color:#FFFFFF;stop-opacity:0"/>
</radialGradient>
<path class="st5" d="M931.7,200.4H518.8L454.4,0h-388C29.9,0,0,29.9,0,66.5v677c0,36.5,29.9,66.4,66.4,66.4h415.9l61.4,188.4h388
	c36.5,0,66.4-29.4,66.4-65.4V265.8C998.1,229.8,968.2,200.4,931.7,200.4z"/>
<g class="st6">
	<path class="st0" d="M382.3,576.4L361,518.2H210.3L189,576.4h-78.9L240.6,239h90l130,337.4H382.3z M285.7,301.2L229.5,456h111.8
		L285.7,301.2z"/>
</g>
<polygon points="482.3,809.8 543.7,998.3 714.4,809.8 "/>
</svg>
