<?xml version="1.0" encoding="UTF-8"?><svg id="images" xmlns="http://www.w3.org/2000/svg" viewBox="0 0 340 340"><defs><style>.cls-1{fill:#fcba28;}.Graphic_Style,.cls-2{stroke-dasharray:0 0 2 2;}.Graphic_Style,.cls-2,.cls-3{stroke:#fcba28;stroke-miterlimit:10;}.cls-2,.cls-3{fill:none;}</style></defs><g id="foreground"><rect class="cls-2" x="35" y="220.33" width="269.88" height="27.34"/><rect class="cls-2" x="35" y="112" width="169" height="26.73"/><rect class="cls-2" x="35" y="141" width="269.88" height="26"/><g><path class="cls-1" d="M41.4,124.53h-2.5v-1.8h2.5v-.52c0-.63,.1-1.18,.3-1.66s.48-.88,.85-1.21,.82-.58,1.34-.74c.53-.17,1.12-.25,1.77-.25,.21,0,.4,0,.59,.02s.38,.03,.56,.06,.37,.05,.55,.08c.19,.03,.38,.06,.58,.1l-.16,1.92c-.22-.05-.47-.09-.76-.12s-.61-.05-.99-.05c-.41,0-.76,.05-1.05,.14s-.52,.23-.69,.41c-.15,.15-.27,.34-.34,.56-.07,.22-.11,.47-.11,.76v.52h3.43v1.8h-3.43v7.71h-2.45v-7.71Z"/><path class="cls-1" d="M56.08,130.9c-.32,.47-.71,.85-1.17,1.12s-.95,.4-1.49,.4c-.49,0-.94-.08-1.35-.23s-.76-.4-1.05-.73c-.29-.33-.52-.75-.68-1.26-.16-.51-.24-1.13-.24-1.85v-5.62h2.44v5.64c0,.39,.03,.71,.08,.98,.05,.26,.14,.47,.27,.63,.12,.16,.28,.28,.48,.35s.44,.11,.73,.11c.26,0,.49-.03,.7-.08,.21-.05,.39-.13,.55-.23,.13-.09,.25-.19,.36-.32s.2-.26,.27-.41v-6.67h2.45v9.51h-2.21l-.14-1.34Z"/><path class="cls-1" d="M61,122.73h2.21l.15,1.32c.12-.18,.26-.34,.4-.48s.3-.28,.47-.4c.28-.2,.59-.35,.92-.46s.69-.16,1.06-.16c.48,0,.92,.07,1.32,.21s.74,.36,1.04,.67c.29,.31,.51,.71,.67,1.19,.16,.48,.24,1.07,.24,1.76v5.85h-2.44v-5.82c0-.38-.04-.68-.13-.93-.08-.24-.21-.43-.36-.58s-.35-.24-.57-.29-.47-.08-.76-.08c-.23,0-.45,.03-.65,.08s-.37,.13-.52,.24c-.12,.08-.23,.17-.33,.27s-.19,.22-.27,.35v6.76h-2.45v-9.51Z"/><path class="cls-1" d="M76.88,130.36c.22-.07,.41-.17,.57-.3s.29-.28,.38-.47,.13-.38,.12-.61h2.3c.01,.49-.09,.95-.3,1.37-.21,.42-.51,.79-.88,1.09s-.8,.54-1.29,.72c-.49,.17-1.01,.26-1.55,.26-.74,0-1.39-.12-1.94-.37-.56-.25-1.02-.59-1.39-1.02-.38-.43-.66-.94-.85-1.53-.19-.58-.29-1.21-.29-1.88v-.26c0-.67,.09-1.29,.28-1.88s.47-1.09,.84-1.53,.84-.78,1.39-1.03c.55-.25,1.2-.38,1.93-.38,.59,0,1.13,.09,1.63,.26s.93,.42,1.29,.74c.36,.32,.64,.71,.83,1.16,.2,.46,.29,.96,.28,1.53h-2.3c.01-.23-.02-.46-.11-.67s-.2-.39-.36-.54-.35-.27-.57-.37c-.22-.09-.47-.14-.73-.14-.39,0-.71,.08-.96,.24s-.45,.37-.6,.63c-.15,.26-.26,.57-.32,.91-.06,.34-.09,.69-.09,1.05v.26c0,.37,.03,.73,.09,1.07,.06,.34,.16,.64,.32,.9,.15,.26,.35,.47,.6,.63,.25,.16,.58,.24,.97,.24,.24,0,.47-.04,.69-.11Z"/><path class="cls-1" d="M87.45,122.73h3.55v1.8h-3.55v4.09c0,.35,.04,.63,.12,.87,.08,.23,.19,.42,.34,.55,.15,.14,.32,.24,.53,.3,.21,.06,.44,.09,.7,.09,.19,0,.38,0,.58-.03s.39-.04,.57-.07c.18-.02,.34-.05,.5-.08,.15-.03,.29-.06,.4-.09l.24,1.68c-.17,.1-.37,.19-.6,.26s-.47,.13-.73,.18-.53,.08-.8,.11c-.28,.03-.55,.04-.82,.04-.52,0-1-.07-1.42-.21-.42-.14-.79-.35-1.08-.65-.3-.29-.54-.65-.7-1.1-.16-.45-.25-.99-.25-1.61v-4.32h-2.17v-1.8h2.17v-2.33h2.44v2.33Z"/><path class="cls-1" d="M99.77,122.73v7.52h2.58v1.99h-7.75v-1.99h2.71v-5.53h-2.71v-2h5.18Zm-2.54-2.96c.07-.16,.16-.3,.29-.42,.12-.11,.27-.2,.44-.26,.17-.06,.36-.1,.58-.1,.43,0,.78,.12,1.03,.36,.26,.24,.38,.56,.38,.94s-.13,.69-.38,.94c-.25,.24-.6,.36-1.03,.36-.21,0-.4-.03-.58-.1-.17-.06-.32-.16-.44-.27-.12-.11-.22-.25-.29-.41-.07-.16-.1-.33-.1-.52s.03-.36,.1-.52Z"/><path class="cls-1" d="M104.89,125.47c.2-.59,.49-1.1,.88-1.53,.38-.43,.85-.77,1.4-1.02,.55-.25,1.19-.37,1.9-.37s1.35,.12,1.91,.37,1.03,.59,1.42,1.02c.38,.43,.67,.95,.87,1.53,.2,.59,.3,1.23,.3,1.92v.18c0,.7-.1,1.34-.3,1.93-.2,.59-.49,1.1-.87,1.53s-.85,.77-1.41,1.02c-.56,.24-1.19,.36-1.9,.36s-1.35-.12-1.91-.36c-.56-.24-1.03-.58-1.41-1.02-.39-.43-.68-.95-.88-1.53-.2-.59-.3-1.23-.3-1.93v-.18c0-.69,.1-1.33,.3-1.92Zm2.26,3.23c.08,.35,.2,.65,.36,.91,.16,.26,.38,.47,.64,.62,.26,.15,.58,.23,.94,.23s.67-.08,.92-.23,.47-.36,.63-.62c.16-.26,.28-.56,.35-.91s.11-.72,.11-1.12v-.18c0-.39-.04-.75-.11-1.1s-.19-.65-.35-.91c-.16-.26-.38-.47-.63-.62s-.57-.23-.94-.23-.67,.08-.93,.23-.47,.36-.63,.62-.28,.57-.36,.91-.11,.71-.11,1.1v.18c0,.4,.04,.77,.11,1.12Z"/><path class="cls-1" d="M115.91,122.73h2.21l.15,1.32c.12-.18,.26-.34,.4-.48s.3-.28,.47-.4c.28-.2,.59-.35,.92-.46s.69-.16,1.06-.16c.48,0,.92,.07,1.32,.21s.74,.36,1.04,.67c.29,.31,.51,.71,.67,1.19,.16,.48,.24,1.07,.24,1.76v5.85h-2.44v-5.82c0-.38-.04-.68-.13-.93-.08-.24-.21-.43-.36-.58s-.35-.24-.57-.29-.47-.08-.76-.08c-.23,0-.45,.03-.65,.08s-.37,.13-.52,.24c-.12,.08-.23,.17-.33,.27s-.19,.22-.27,.35v6.76h-2.45v-9.51Z"/><path class="cls-1" d="M139.46,123.88c.18-.41,.43-.73,.75-.97,.32-.24,.71-.36,1.16-.36,.22,0,.42,.03,.6,.08s.33,.13,.46,.25c.1,.08,.19,.18,.26,.29,.07,.12,.14,.25,.19,.39,.08-.14,.17-.27,.28-.38,.1-.12,.22-.21,.34-.29,.15-.11,.33-.19,.52-.25s.4-.09,.63-.09c.29,0,.55,.05,.8,.16,.25,.11,.47,.27,.65,.5,.18,.23,.32,.54,.43,.9s.15,.81,.15,1.34v6.79h-2.22v-6.79c0-.18-.02-.33-.06-.45s-.09-.21-.15-.28c-.06-.06-.14-.11-.22-.14-.09-.03-.17-.04-.26-.04-.09,0-.18,.01-.25,.04-.07,.02-.14,.06-.21,.1-.05,.04-.1,.09-.14,.14-.04,.05-.08,.11-.11,.17v7.26h-2.15v-6.8c0-.18-.02-.33-.05-.45s-.08-.21-.14-.27c-.06-.06-.14-.11-.22-.14-.08-.03-.17-.04-.26-.04-.11,0-.2,.02-.28,.05s-.16,.08-.22,.15c-.05,.05-.09,.1-.12,.17s-.07,.13-.1,.21v7.12h-2.22v-9.51h2.1l.07,1.15Z"/><path class="cls-1" d="M149.75,136.04c-.17-.03-.36-.07-.58-.13l.3-1.86c.1,0,.23,0,.38,.01,.16,0,.28,.01,.37,.01,.19,0,.36-.06,.51-.18,.15-.12,.28-.25,.38-.39s.18-.25,.23-.32c.05-.07,.11-.17,.18-.3l.56-1.05-4.03-9.11h2.67l2.18,5.57,.26,.97,.36-.95,2.17-5.59h2.7l-4.83,10.93c-.11,.24-.24,.5-.41,.78-.17,.28-.38,.54-.63,.78s-.56,.44-.92,.61c-.36,.16-.79,.25-1.28,.25-.23,0-.44-.01-.61-.04Z"/><path class="cls-1" d="M162.38,126.94v5.3h-2.48v-12.8h8.65v2.01h-6.17v3.48h5.48v2h-5.48Z"/><path class="cls-1" d="M176.88,130.9c-.32,.47-.71,.85-1.17,1.12s-.95,.4-1.49,.4c-.49,0-.94-.08-1.35-.23s-.76-.4-1.05-.73c-.29-.33-.52-.75-.68-1.26-.16-.51-.24-1.13-.24-1.85v-5.62h2.44v5.64c0,.39,.03,.71,.08,.98,.05,.26,.14,.47,.27,.63,.12,.16,.28,.28,.48,.35s.44,.11,.73,.11c.26,0,.49-.03,.7-.08,.21-.05,.39-.13,.55-.23,.13-.09,.25-.19,.36-.32s.2-.26,.27-.41v-6.67h2.45v9.51h-2.21l-.14-1.34Z"/><path class="cls-1" d="M181.8,122.73h2.21l.15,1.32c.12-.18,.26-.34,.4-.48s.3-.28,.47-.4c.28-.2,.59-.35,.92-.46s.69-.16,1.06-.16c.48,0,.92,.07,1.32,.21s.74,.36,1.04,.67c.29,.31,.51,.71,.67,1.19,.16,.48,.24,1.07,.24,1.76v5.85h-2.44v-5.82c0-.38-.04-.68-.13-.93-.08-.24-.21-.43-.36-.58s-.35-.24-.57-.29-.47-.08-.76-.08c-.23,0-.45,.03-.65,.08s-.37,.13-.52,.24c-.12,.08-.23,.17-.33,.27s-.19,.22-.27,.35v6.76h-2.45v-9.51Z"/><path class="cls-1" d="M197.68,130.36c.22-.07,.41-.17,.57-.3s.29-.28,.38-.47,.13-.38,.12-.61h2.3c.01,.49-.09,.95-.3,1.37-.21,.42-.51,.79-.88,1.09s-.8,.54-1.29,.72c-.49,.17-1.01,.26-1.55,.26-.74,0-1.39-.12-1.94-.37-.56-.25-1.02-.59-1.39-1.02-.38-.43-.66-.94-.85-1.53-.19-.58-.29-1.21-.29-1.88v-.26c0-.67,.09-1.29,.28-1.88s.47-1.09,.84-1.53,.84-.78,1.39-1.03c.55-.25,1.2-.38,1.93-.38,.59,0,1.13,.09,1.63,.26s.93,.42,1.29,.74c.36,.32,.64,.71,.83,1.16,.2,.46,.29,.96,.28,1.53h-2.3c.01-.23-.02-.46-.11-.67s-.2-.39-.36-.54-.35-.27-.57-.37c-.22-.09-.47-.14-.73-.14-.39,0-.71,.08-.96,.24s-.45,.37-.6,.63c-.15,.26-.26,.57-.32,.91-.06,.34-.09,.69-.09,1.05v.26c0,.37,.03,.73,.09,1.07,.06,.34,.16,.64,.32,.9,.15,.26,.35,.47,.6,.63,.25,.16,.58,.24,.97,.24,.24,0,.47-.04,.69-.11Z"/><path class="cls-1" d="M205.74,124.7c.13-.73,.3-1.4,.51-2.03,.22-.62,.47-1.18,.76-1.69,.29-.51,.6-.96,.92-1.35s.65-.72,1-1c.34-.27,.67-.48,1-.63l.47,1.34c-.19,.14-.38,.31-.56,.51s-.37,.43-.55,.69c-.23,.33-.45,.73-.65,1.19-.2,.46-.38,.96-.53,1.49-.13,.52-.24,1.1-.33,1.73s-.12,1.32-.12,2.07v.23c0,.73,.04,1.41,.12,2.03,.08,.62,.17,1.12,.26,1.49,.13,.52,.28,.99,.45,1.43s.36,.82,.56,1.15c.21,.36,.43,.67,.67,.93s.47,.48,.69,.66l-.47,1.32c-.32-.15-.66-.36-1-.63-.34-.28-.68-.61-1-1-.32-.39-.63-.83-.92-1.34-.29-.51-.54-1.08-.76-1.7-.22-.62-.39-1.29-.51-2.01s-.19-1.51-.19-2.34v-.19c0-.83,.06-1.6,.19-2.33Z"/><path class="cls-1" d="M220.57,122.73v7.52h2.58v1.99h-7.75v-1.99h2.71v-5.53h-2.71v-2h5.18Zm-2.54-2.96c.07-.16,.16-.3,.29-.42,.12-.11,.27-.2,.44-.26,.17-.06,.36-.1,.58-.1,.43,0,.78,.12,1.03,.36,.26,.24,.38,.56,.38,.94s-.13,.69-.38,.94c-.25,.24-.6,.36-1.03,.36-.21,0-.4-.03-.58-.1-.17-.06-.32-.16-.44-.27-.12-.11-.22-.25-.29-.41-.07-.16-.1-.33-.1-.52s.03-.36,.1-.52Z"/><path class="cls-1" d="M225.73,122.73h2.21l.15,1.32c.12-.18,.26-.34,.4-.48s.3-.28,.47-.4c.28-.2,.59-.35,.92-.46s.69-.16,1.06-.16c.48,0,.92,.07,1.32,.21s.74,.36,1.04,.67c.29,.31,.51,.71,.67,1.19,.16,.48,.24,1.07,.24,1.76v5.85h-2.44v-5.82c0-.38-.04-.68-.13-.93-.08-.24-.21-.43-.36-.58s-.35-.24-.57-.29-.47-.08-.76-.08c-.23,0-.45,.03-.65,.08s-.37,.13-.52,.24c-.12,.08-.23,.17-.33,.27s-.19,.22-.27,.35v6.76h-2.45v-9.51Z"/><path class="cls-1" d="M236.74,122.73h2.26l.09,.93c.13-.16,.27-.3,.42-.43s.32-.24,.49-.33c.21-.11,.44-.2,.7-.26,.25-.06,.53-.09,.82-.09,.6,0,1.14,.12,1.6,.35s.85,.56,1.17,.98c.32,.43,.55,.94,.72,1.53,.16,.59,.24,1.25,.24,1.97v.18c0,.69-.08,1.33-.24,1.92-.16,.59-.4,1.1-.71,1.53-.32,.43-.71,.77-1.17,1.02s-.99,.37-1.59,.37c-.32,0-.61-.03-.87-.1-.27-.07-.51-.17-.74-.29-.13-.08-.26-.17-.39-.27s-.24-.21-.35-.33v4.48h-2.44v-13.17Zm5.95,3.54c-.07-.35-.19-.65-.34-.91-.16-.25-.36-.45-.6-.6-.24-.15-.54-.22-.88-.22-.2,0-.38,.02-.54,.06-.16,.04-.31,.09-.45,.16-.15,.08-.29,.18-.4,.31-.11,.12-.21,.27-.29,.43v3.97c.08,.15,.17,.29,.28,.41s.23,.23,.37,.32c.13,.08,.29,.14,.47,.19,.18,.04,.37,.07,.59,.07,.35,0,.64-.08,.88-.23,.24-.15,.44-.36,.59-.62s.26-.57,.33-.92,.11-.72,.11-1.11v-.18c0-.4-.04-.77-.11-1.12Z"/><path class="cls-1" d="M253.75,130.9c-.32,.47-.71,.85-1.17,1.12s-.95,.4-1.49,.4c-.49,0-.94-.08-1.35-.23s-.76-.4-1.05-.73c-.29-.33-.52-.75-.68-1.26-.16-.51-.24-1.13-.24-1.85v-5.62h2.44v5.64c0,.39,.03,.71,.08,.98,.05,.26,.14,.47,.27,.63,.12,.16,.28,.28,.48,.35s.44,.11,.73,.11c.26,0,.49-.03,.7-.08,.21-.05,.39-.13,.55-.23,.13-.09,.25-.19,.36-.32s.2-.26,.27-.41v-6.67h2.45v9.51h-2.21l-.14-1.34Z"/><path class="cls-1" d="M263.15,122.73h3.55v1.8h-3.55v4.09c0,.35,.04,.63,.12,.87,.08,.23,.19,.42,.34,.55,.15,.14,.32,.24,.53,.3,.21,.06,.44,.09,.7,.09,.19,0,.38,0,.58-.03s.39-.04,.57-.07c.18-.02,.34-.05,.5-.08,.15-.03,.29-.06,.4-.09l.24,1.68c-.17,.1-.37,.19-.6,.26s-.47,.13-.73,.18-.53,.08-.8,.11c-.28,.03-.55,.04-.82,.04-.52,0-1-.07-1.42-.21-.42-.14-.79-.35-1.08-.65-.3-.29-.54-.65-.7-1.1-.16-.45-.25-.99-.25-1.61v-4.32h-2.17v-1.8h2.17v-2.33h2.44v2.33Z"/><path class="cls-1" d="M275.96,129.51c-.13,.72-.3,1.39-.53,2.01s-.48,1.19-.78,1.7c-.3,.51-.61,.97-.94,1.37-.33,.4-.68,.75-1.03,1.03s-.69,.5-1.03,.64l-.47-1.32c.21-.15,.41-.34,.62-.57s.4-.49,.6-.79c.23-.35,.44-.75,.63-1.2,.19-.45,.36-.94,.5-1.49,.12-.5,.22-1.06,.29-1.67s.11-1.27,.11-1.98v-.23c0-.69-.04-1.34-.11-1.93s-.17-1.15-.29-1.65c-.16-.63-.35-1.19-.58-1.69-.23-.5-.46-.93-.72-1.29-.17-.24-.34-.46-.52-.65s-.36-.35-.53-.49l.47-1.31c.33,.15,.68,.36,1.03,.64s.69,.62,1.03,1.02c.33,.4,.65,.86,.94,1.38,.3,.51,.56,1.08,.78,1.7s.4,1.29,.53,2.01c.13,.72,.19,1.48,.19,2.28v.19c0,.8-.06,1.56-.19,2.28Z"/><path class="cls-1" d="M297.13,135.02c-.42-.25-.77-.58-1.03-.96-.28-.4-.49-.85-.61-1.33-.13-.48-.19-.96-.19-1.42v-1.43c0-.78-.18-1.34-.54-1.68s-.92-.51-1.66-.51v-1.76c.74,0,1.3-.17,1.66-.51s.54-.91,.54-1.7v-1.43c0-.5,.07-1.01,.21-1.54,.14-.53,.36-.99,.67-1.38,.25-.34,.58-.62,.99-.83s.9-.33,1.47-.33l.3,1.38c-.36-.01-.63,.06-.83,.22s-.33,.37-.42,.64-.14,.56-.15,.88c-.01,.33-.02,.65-.02,.96v1.43c0,.7-.17,1.32-.51,1.85-.34,.54-.88,.95-1.6,1.23,.73,.28,1.26,.69,1.6,1.22s.51,1.15,.51,1.85v1.43c0,.32,.02,.64,.06,.96,.04,.32,.11,.62,.22,.88s.25,.48,.43,.64c.19,.16,.42,.24,.72,.22l-.3,1.39c-.58,0-1.08-.13-1.51-.38Z"/><path class="cls-1" d="M82.89,149.63c.31,.05,.57,.1,.76,.16l-.36,2.43c-.32-.08-.65-.13-.99-.17-.34-.04-.66-.06-.96-.06s-.6,.03-.86,.08c-.25,.06-.48,.14-.68,.25-.24,.13-.45,.29-.62,.49s-.31,.43-.42,.7v5.71h-2.44v-9.51h2.28l.1,1.34,.02,.21c.39-.54,.85-.96,1.39-1.27,.54-.31,1.13-.46,1.77-.46,.37,0,.71,.03,1.02,.07Z"/><path class="cls-1" d="M88.64,159.05c-.6-.24-1.11-.57-1.54-.98-.43-.41-.76-.89-.99-1.45-.23-.56-.35-1.16-.35-1.8v-.35c0-.73,.11-1.39,.34-1.99,.23-.6,.55-1.12,.96-1.55s.9-.77,1.46-1.01,1.17-.36,1.84-.36,1.3,.11,1.83,.34c.54,.23,.99,.54,1.37,.95,.37,.41,.65,.9,.84,1.48s.29,1.21,.29,1.91v1.04h-6.45v.03c.08,.38,.19,.69,.32,.92,.13,.23,.3,.44,.52,.63,.22,.19,.48,.34,.76,.45s.6,.16,.94,.16c.48,0,.95-.09,1.4-.27s.82-.45,1.1-.82l1.22,1.32c-.31,.44-.8,.84-1.48,1.2s-1.47,.54-2.39,.54c-.73,0-1.4-.12-2-.36Zm.95-7.38c-.23,.1-.43,.24-.6,.42-.18,.18-.32,.4-.44,.65s-.21,.53-.26,.84h4.01v-.19c0-.26-.05-.5-.14-.73s-.22-.43-.39-.6c-.16-.16-.36-.29-.6-.39-.24-.1-.51-.15-.82-.15-.28,0-.53,.05-.76,.15Z"/><path class="cls-1" d="M101.48,149.73h3.55v1.8h-3.55v4.09c0,.35,.04,.63,.12,.87,.08,.23,.19,.42,.34,.55,.15,.14,.32,.24,.53,.3,.21,.06,.44,.09,.7,.09,.19,0,.38,0,.58-.03s.39-.04,.57-.07c.18-.02,.34-.05,.5-.08,.15-.03,.29-.06,.4-.09l.24,1.68c-.17,.1-.37,.19-.6,.26s-.47,.13-.73,.18-.53,.08-.8,.11c-.28,.03-.55,.04-.82,.04-.52,0-1-.07-1.42-.21-.42-.14-.79-.35-1.08-.65-.3-.29-.54-.65-.7-1.1-.16-.45-.25-.99-.25-1.61v-4.32h-2.17v-1.8h2.17v-2.33h2.44v2.33Z"/><path class="cls-1" d="M114.05,157.9c-.32,.47-.71,.85-1.17,1.12s-.95,.4-1.49,.4c-.49,0-.94-.08-1.35-.23s-.76-.4-1.05-.73c-.29-.33-.52-.75-.68-1.26-.16-.51-.24-1.13-.24-1.85v-5.62h2.44v5.64c0,.39,.03,.71,.08,.98,.05,.26,.14,.47,.27,.63,.12,.16,.28,.28,.48,.35s.44,.11,.73,.11c.26,0,.49-.03,.7-.08,.21-.05,.39-.13,.55-.23,.13-.09,.25-.19,.36-.32s.2-.26,.27-.41v-6.67h2.45v9.51h-2.21l-.14-1.34Z"/><path class="cls-1" d="M126.82,149.63c.31,.05,.57,.1,.76,.16l-.36,2.43c-.32-.08-.65-.13-.99-.17-.34-.04-.66-.06-.96-.06s-.6,.03-.86,.08c-.25,.06-.48,.14-.68,.25-.24,.13-.45,.29-.62,.49s-.31,.43-.42,.7v5.71h-2.44v-9.51h2.28l.1,1.34,.02,.21c.39-.54,.85-.96,1.39-1.27,.54-.31,1.13-.46,1.77-.46,.37,0,.71,.03,1.02,.07Z"/><path class="cls-1" d="M129.95,149.73h2.21l.15,1.32c.12-.18,.26-.34,.4-.48s.3-.28,.47-.4c.28-.2,.59-.35,.92-.46s.69-.16,1.06-.16c.48,0,.92,.07,1.32,.21s.74,.36,1.04,.67c.29,.31,.51,.71,.67,1.19,.16,.48,.24,1.07,.24,1.76v5.85h-2.44v-5.82c0-.38-.04-.68-.13-.93-.08-.24-.21-.43-.36-.58s-.35-.24-.57-.29-.47-.08-.76-.08c-.23,0-.45,.03-.65,.08s-.37,.13-.52,.24c-.12,.08-.23,.17-.33,.27s-.19,.22-.27,.35v6.76h-2.45v-9.51Z"/><path class="cls-1" d="M157.74,149.73v7.52h2.58v1.99h-7.75v-1.99h2.71v-5.53h-2.71v-2h5.18Zm-2.54-2.96c.07-.16,.16-.3,.29-.42,.12-.11,.27-.2,.44-.26,.17-.06,.36-.1,.58-.1,.43,0,.78,.12,1.03,.36,.26,.24,.38,.56,.38,.94s-.13,.69-.38,.94c-.25,.24-.6,.36-1.03,.36-.21,0-.4-.03-.58-.1-.17-.06-.32-.16-.44-.27-.12-.11-.22-.25-.29-.41-.07-.16-.1-.33-.1-.52s.03-.36,.1-.52Z"/><path class="cls-1" d="M162.89,149.73h2.21l.15,1.32c.12-.18,.26-.34,.4-.48s.3-.28,.47-.4c.28-.2,.59-.35,.92-.46s.69-.16,1.06-.16c.48,0,.92,.07,1.32,.21s.74,.36,1.04,.67c.29,.31,.51,.71,.67,1.19,.16,.48,.24,1.07,.24,1.76v5.85h-2.44v-5.82c0-.38-.04-.68-.13-.93-.08-.24-.21-.43-.36-.58s-.35-.24-.57-.29-.47-.08-.76-.08c-.23,0-.45,.03-.65,.08s-.37,.13-.52,.24c-.12,.08-.23,.17-.33,.27s-.19,.22-.27,.35v6.76h-2.45v-9.51Z"/><path class="cls-1" d="M173.91,149.73h2.26l.09,.93c.13-.16,.27-.3,.42-.43s.32-.24,.49-.33c.21-.11,.44-.2,.7-.26,.25-.06,.53-.09,.82-.09,.6,0,1.14,.12,1.6,.35s.85,.56,1.17,.98c.32,.43,.55,.94,.72,1.53,.16,.59,.24,1.25,.24,1.97v.18c0,.69-.08,1.33-.24,1.92-.16,.59-.4,1.1-.71,1.53-.32,.43-.71,.77-1.17,1.02s-.99,.37-1.59,.37c-.32,0-.61-.03-.87-.1-.27-.07-.51-.17-.74-.29-.13-.08-.26-.17-.39-.27s-.24-.21-.35-.33v4.48h-2.44v-13.17Zm5.95,3.54c-.07-.35-.19-.65-.34-.91-.16-.25-.36-.45-.6-.6-.24-.15-.54-.22-.88-.22-.2,0-.38,.02-.54,.06-.16,.04-.31,.09-.45,.16-.15,.08-.29,.18-.4,.31-.11,.12-.21,.27-.29,.43v3.97c.08,.15,.17,.29,.28,.41s.23,.23,.37,.32c.13,.08,.29,.14,.47,.19,.18,.04,.37,.07,.59,.07,.35,0,.64-.08,.88-.23,.24-.15,.44-.36,.59-.62s.26-.57,.33-.92,.11-.72,.11-1.11v-.18c0-.4-.04-.77-.11-1.12Z"/><path class="cls-1" d="M190.92,157.9c-.32,.47-.71,.85-1.17,1.12s-.95,.4-1.49,.4c-.49,0-.94-.08-1.35-.23s-.76-.4-1.05-.73c-.29-.33-.52-.75-.68-1.26-.16-.51-.24-1.13-.24-1.85v-5.62h2.44v5.64c0,.39,.03,.71,.08,.98,.05,.26,.14,.47,.27,.63,.12,.16,.28,.28,.48,.35s.44,.11,.73,.11c.26,0,.49-.03,.7-.08,.21-.05,.39-.13,.55-.23,.13-.09,.25-.19,.36-.32s.2-.26,.27-.41v-6.67h2.45v9.51h-2.21l-.14-1.34Z"/><path class="cls-1" d="M200.32,149.73h3.55v1.8h-3.55v4.09c0,.35,.04,.63,.12,.87,.08,.23,.19,.42,.34,.55,.15,.14,.32,.24,.53,.3,.21,.06,.44,.09,.7,.09,.19,0,.38,0,.58-.03s.39-.04,.57-.07c.18-.02,.34-.05,.5-.08,.15-.03,.29-.06,.4-.09l.24,1.68c-.17,.1-.37,.19-.6,.26s-.47,.13-.73,.18-.53,.08-.8,.11c-.28,.03-.55,.04-.82,.04-.52,0-1-.07-1.42-.21-.42-.14-.79-.35-1.08-.65-.3-.29-.54-.65-.7-1.1-.16-.45-.25-.99-.25-1.61v-4.32h-2.17v-1.8h2.17v-2.33h2.44v2.33Z"/><path class="cls-1" d="M41.42,187.79c.19-.16,.33-.37,.44-.64s.18-.56,.22-.88c.04-.33,.06-.65,.06-.96v-1.43c0-.34,.04-.66,.12-.97,.08-.3,.2-.59,.36-.85s.37-.5,.62-.71c.25-.21,.55-.39,.89-.53-.28-.12-.53-.26-.75-.42s-.4-.35-.56-.54c-.23-.29-.41-.62-.52-.98-.11-.36-.17-.74-.17-1.15v-1.43c0-.32,0-.64-.02-.96-.02-.32-.07-.62-.15-.88s-.23-.48-.42-.64-.47-.24-.83-.22l.3-1.38c.63,0,1.15,.13,1.58,.38,.43,.26,.78,.6,1.05,1.02,.26,.39,.44,.82,.55,1.3,.11,.48,.16,.94,.16,1.38v1.43c0,.33,.03,.62,.09,.87,.06,.25,.16,.47,.29,.64,.17,.24,.41,.42,.72,.53,.31,.11,.68,.17,1.11,.17v1.76c-.49,0-.89,.07-1.21,.21s-.57,.36-.73,.66c-.09,.16-.15,.36-.2,.58-.04,.22-.07,.47-.07,.74v1.43c0,.46-.07,.93-.2,1.42s-.33,.93-.6,1.32c-.26,.4-.61,.73-1.03,.98-.43,.25-.93,.37-1.51,.37l-.3-1.39c.29,.01,.52-.06,.71-.22Z"/><path class="cls-1" d="M40.63,231.88c.18-.41,.43-.73,.75-.97,.32-.24,.71-.36,1.16-.36,.22,0,.42,.03,.6,.08s.33,.13,.46,.25c.1,.08,.19,.18,.26,.29,.07,.12,.14,.25,.19,.39,.08-.14,.17-.27,.28-.38,.1-.12,.22-.21,.34-.29,.15-.11,.33-.19,.52-.25s.4-.09,.63-.09c.29,0,.55,.05,.8,.16,.25,.11,.47,.27,.65,.5,.18,.23,.32,.54,.43,.9s.15,.81,.15,1.34v6.79h-2.22v-6.79c0-.18-.02-.33-.06-.45s-.09-.21-.15-.28c-.06-.06-.14-.11-.22-.14-.09-.03-.17-.04-.26-.04-.09,0-.18,.01-.25,.04-.07,.02-.14,.06-.21,.1-.05,.04-.1,.09-.14,.14-.04,.05-.08,.11-.11,.17v7.26h-2.15v-6.8c0-.18-.02-.33-.05-.45s-.08-.21-.14-.27c-.06-.06-.14-.11-.22-.14-.08-.03-.17-.04-.26-.04-.11,0-.2,.02-.28,.05s-.16,.08-.22,.15c-.05,.05-.09,.1-.12,.17s-.07,.13-.1,.21v7.12h-2.22v-9.51h2.1l.07,1.15Z"/><path class="cls-1" d="M50.91,244.04c-.17-.03-.36-.07-.58-.13l.3-1.86c.1,0,.23,0,.38,.01,.16,0,.28,.01,.37,.01,.19,0,.36-.06,.51-.18,.15-.12,.28-.25,.38-.39s.18-.25,.23-.32c.05-.07,.11-.17,.18-.3l.56-1.05-4.03-9.11h2.67l2.18,5.57,.26,.97,.36-.95,2.17-5.59h2.7l-4.83,10.93c-.11,.24-.24,.5-.41,.78-.17,.28-.38,.54-.63,.78s-.56,.44-.92,.61c-.36,.16-.79,.25-1.28,.25-.23,0-.44-.01-.61-.04Z"/><path class="cls-1" d="M63.55,234.94v5.3h-2.48v-12.8h8.65v2.01h-6.17v3.48h5.48v2h-5.48Z"/><path class="cls-1" d="M78.05,238.9c-.32,.47-.71,.85-1.17,1.12s-.95,.4-1.49,.4c-.49,0-.94-.08-1.35-.23s-.76-.4-1.05-.73c-.29-.33-.52-.75-.68-1.26-.16-.51-.24-1.13-.24-1.85v-5.62h2.44v5.64c0,.39,.03,.71,.08,.98,.05,.26,.14,.47,.27,.63,.12,.16,.28,.28,.48,.35s.44,.11,.73,.11c.26,0,.49-.03,.7-.08,.21-.05,.39-.13,.55-.23,.13-.09,.25-.19,.36-.32s.2-.26,.27-.41v-6.67h2.45v9.51h-2.21l-.14-1.34Z"/><path class="cls-1" d="M82.96,230.73h2.21l.15,1.32c.12-.18,.26-.34,.4-.48s.3-.28,.47-.4c.28-.2,.59-.35,.92-.46s.69-.16,1.06-.16c.48,0,.92,.07,1.32,.21s.74,.36,1.04,.67c.29,.31,.51,.71,.67,1.19,.16,.48,.24,1.07,.24,1.76v5.85h-2.44v-5.82c0-.38-.04-.68-.13-.93-.08-.24-.21-.43-.36-.58s-.35-.24-.57-.29-.47-.08-.76-.08c-.23,0-.45,.03-.65,.08s-.37,.13-.52,.24c-.12,.08-.23,.17-.33,.27s-.19,.22-.27,.35v6.76h-2.45v-9.51Z"/><path class="cls-1" d="M98.84,238.36c.22-.07,.41-.17,.57-.3s.29-.28,.38-.47,.13-.38,.12-.61h2.3c.01,.49-.09,.95-.3,1.37-.21,.42-.51,.79-.88,1.09s-.8,.54-1.29,.72c-.49,.17-1.01,.26-1.55,.26-.74,0-1.39-.12-1.94-.37-.56-.25-1.02-.59-1.39-1.02-.38-.43-.66-.94-.85-1.53-.19-.58-.29-1.21-.29-1.88v-.26c0-.67,.09-1.29,.28-1.88s.47-1.09,.84-1.53,.84-.78,1.39-1.03c.55-.25,1.2-.38,1.93-.38,.59,0,1.13,.09,1.63,.26s.93,.42,1.29,.74c.36,.32,.64,.71,.83,1.16,.2,.46,.29,.96,.28,1.53h-2.3c.01-.23-.02-.46-.11-.67s-.2-.39-.36-.54-.35-.27-.57-.37c-.22-.09-.47-.14-.73-.14-.39,0-.71,.08-.96,.24s-.45,.37-.6,.63c-.15,.26-.26,.57-.32,.91-.06,.34-.09,.69-.09,1.05v.26c0,.37,.03,.73,.09,1.07,.06,.34,.16,.64,.32,.9,.15,.26,.35,.47,.6,.63,.25,.16,.58,.24,.97,.24,.24,0,.47-.04,.69-.11Z"/><path class="cls-1" d="M106.91,232.7c.13-.73,.3-1.4,.51-2.03,.22-.62,.47-1.18,.76-1.69,.29-.51,.6-.96,.92-1.35s.65-.72,1-1c.34-.27,.67-.48,1-.63l.47,1.34c-.19,.14-.38,.31-.56,.51s-.37,.43-.55,.69c-.23,.33-.45,.73-.65,1.19-.2,.46-.38,.96-.53,1.49-.13,.52-.24,1.1-.33,1.73s-.12,1.32-.12,2.07v.23c0,.73,.04,1.41,.12,2.03,.08,.62,.17,1.12,.26,1.49,.13,.52,.28,.99,.45,1.43s.36,.82,.56,1.15c.21,.36,.43,.67,.67,.93s.47,.48,.69,.66l-.47,1.32c-.32-.15-.66-.36-1-.63-.34-.28-.68-.61-1-1-.32-.39-.63-.83-.92-1.34-.29-.51-.54-1.08-.76-1.7-.22-.62-.39-1.29-.51-2.01s-.19-1.51-.19-2.34v-.19c0-.83,.06-1.6,.19-2.33Z"/><path class="cls-1" d="M119.42,240.24v-9.82l-3.23,1.16v-2.13l5.57-2.01h.13v12.8h-2.47Z"/><path class="cls-1" d="M133.2,237.51c-.13,.72-.3,1.39-.53,2.01s-.48,1.19-.78,1.7c-.3,.51-.61,.97-.94,1.37-.33,.4-.68,.75-1.03,1.03s-.69,.5-1.03,.64l-.47-1.32c.21-.15,.41-.34,.62-.57s.4-.49,.6-.79c.23-.35,.44-.75,.63-1.2,.19-.45,.36-.94,.5-1.49,.12-.5,.22-1.06,.29-1.67s.11-1.27,.11-1.98v-.23c0-.69-.04-1.34-.11-1.93s-.17-1.15-.29-1.65c-.16-.63-.35-1.19-.58-1.69-.23-.5-.46-.93-.72-1.29-.17-.24-.34-.46-.52-.65s-.36-.35-.53-.49l.47-1.31c.33,.15,.68,.36,1.03,.64s.69,.62,1.03,1.02c.33,.4,.65,.86,.94,1.38,.3,.51,.56,1.08,.78,1.7s.4,1.29,.53,2.01c.13,.72,.19,1.48,.19,2.28v.19c0,.8-.06,1.56-.19,2.28Z"/></g><g><path class="cls-1" d="M7.61,65c.16,.24,.41,.45,.75,.63s.74,.27,1.2,.27c.62,0,1.15-.18,1.57-.53s.69-.86,.81-1.51l.12-.72c-.27,.3-.6,.54-.99,.73-.39,.18-.84,.27-1.35,.27-.93,0-1.6-.35-2.04-1.04-.43-.69-.55-1.57-.36-2.64l.04-.22c.18-1.06,.62-1.94,1.29-2.64,.68-.69,1.48-1.04,2.41-1.04,.51,0,.94,.11,1.28,.32s.58,.47,.71,.77h.04l.22-.95h1.17l-1.26,7.17c-.18,1.02-.62,1.8-1.33,2.35-.7,.55-1.54,.82-2.51,.82-.6,0-1.14-.1-1.61-.3s-.86-.45-1.16-.76l.99-.97Zm1.19-2.67c.23,.5,.7,.76,1.39,.76,.46,0,.88-.13,1.25-.38,.37-.25,.66-.54,.85-.87l.52-2.97c-.08-.32-.26-.61-.54-.87s-.65-.38-1.11-.38c-.69,0-1.25,.25-1.66,.76-.41,.5-.68,1.13-.81,1.87l-.04,.22c-.13,.74-.08,1.36,.16,1.87Z"/><path class="cls-1" d="M17.34,53.33h1.29l-1.88,10.67h-1.29l1.88-10.67Z"/><path class="cls-1" d="M19.23,60.24c.19-1.1,.67-2,1.41-2.7,.75-.7,1.64-1.05,2.69-1.05s1.82,.35,2.32,1.05c.5,.7,.66,1.6,.46,2.7l-.04,.22c-.19,1.1-.67,2-1.41,2.7-.75,.7-1.64,1.05-2.69,1.05s-1.82-.35-2.32-1.05c-.5-.7-.66-1.6-.46-2.7l.04-.22Zm1.28,.22c-.13,.75-.07,1.39,.2,1.91,.27,.52,.75,.78,1.45,.78s1.28-.26,1.73-.78c.45-.52,.74-1.16,.87-1.91l.04-.22c.13-.75,.06-1.39-.2-1.91-.26-.52-.75-.78-1.45-.78s-1.28,.26-1.73,.78c-.45,.52-.74,1.16-.87,1.91l-.04,.22Z"/><path class="cls-1" d="M29.1,53.33h1.29l-.74,4.22c.26-.3,.59-.54,.98-.73,.39-.18,.84-.27,1.35-.27,.93,0,1.6,.35,2.04,1.04,.43,.69,.56,1.57,.37,2.64l-.04,.22c-.19,1.06-.62,1.94-1.3,2.64s-1.48,1.04-2.41,1.04c-.51,0-.93-.11-1.28-.32s-.58-.47-.71-.77h-.04l-.22,.95h-1.17l1.88-10.67Zm.34,9.37c.28,.25,.65,.38,1.11,.38,.69,0,1.25-.25,1.66-.76,.41-.5,.69-1.13,.82-1.87l.04-.22c.13-.74,.08-1.36-.16-1.87-.24-.5-.7-.76-1.4-.76-.46,0-.88,.13-1.25,.38s-.65,.54-.86,.87l-.52,2.97c.09,.32,.27,.61,.55,.87Z"/><path class="cls-1" d="M36.64,60.12c.66-.41,1.44-.62,2.35-.62h1.65l.09-.5c.08-.44,.03-.8-.15-1.07-.18-.28-.55-.41-1.1-.41s-.97,.12-1.25,.34c-.28,.23-.45,.49-.5,.79v.04h-1.29v-.04c.11-.58,.46-1.08,1.05-1.52s1.33-.65,2.21-.65,1.52,.21,1.93,.63c.41,.42,.54,1.05,.39,1.88l-.59,3.33c-.05,.3-.08,.58-.08,.85s.02,.5,.07,.7l-.02,.11h-1.25c-.05-.12-.08-.27-.1-.45-.02-.19-.02-.37,0-.56-.23,.3-.55,.57-.98,.8s-.94,.35-1.54,.35c-.69,0-1.25-.2-1.67-.59-.42-.39-.56-.96-.42-1.7,.13-.74,.52-1.32,1.18-1.73Zm.31,2.64c.2,.24,.55,.35,1.06,.35s1-.18,1.47-.53c.47-.35,.74-.72,.81-1.12l.19-1.05h-1.51c-.65,0-1.16,.12-1.54,.37-.38,.25-.6,.58-.68,.99-.07,.42,0,.74,.2,.98Z"/><path class="cls-1" d="M45.24,53.33h1.29l-1.88,10.67h-1.29l1.88-10.67Z"/><path class="cls-1" d="M51.72,61.85v.03c-.08,.42,.02,.74,.29,.95,.27,.21,.66,.32,1.17,.32s.93-.1,1.26-.31c.33-.2,.52-.47,.58-.79,.06-.32-.01-.57-.22-.75-.21-.17-.69-.35-1.44-.54-.75-.19-1.33-.45-1.74-.78-.4-.34-.55-.8-.44-1.41,.1-.6,.44-1.1,1.01-1.5,.57-.4,1.27-.6,2.1-.6s1.47,.2,1.91,.59,.6,.93,.48,1.61v.03h-1.29v-.06c.07-.35,0-.62-.21-.82-.21-.2-.57-.3-1.08-.3s-.9,.09-1.16,.28c-.27,.19-.42,.42-.48,.69-.05,.28,.05,.5,.29,.66s.74,.33,1.49,.52c.75,.18,1.32,.45,1.68,.8,.37,.35,.49,.85,.38,1.49-.12,.65-.45,1.18-1.01,1.6-.56,.42-1.32,.62-2.29,.62s-1.67-.21-2.11-.63c-.44-.42-.59-.99-.46-1.69v-.03h1.3Z"/><path class="cls-1" d="M57.9,60.24c.19-1.1,.65-2,1.38-2.7,.72-.7,1.61-1.05,2.66-1.05,.97,0,1.66,.26,2.08,.79,.41,.53,.56,1.11,.44,1.76v.04h-1.26v-.04c.08-.39,0-.74-.22-1.04s-.63-.45-1.23-.45c-.7,0-1.27,.26-1.69,.78-.43,.52-.7,1.16-.83,1.91l-.04,.22c-.13,.75-.08,1.39,.16,1.91,.24,.52,.72,.78,1.42,.78,.6,0,1.06-.15,1.39-.45,.32-.3,.52-.65,.59-1.04v-.04h1.26v.04c-.12,.65-.47,1.23-1.07,1.76-.6,.53-1.38,.79-2.35,.79-1.05,0-1.81-.35-2.29-1.05-.48-.7-.62-1.6-.42-2.7l.04-.22Z"/><path class="cls-1" d="M65.46,60.24c.19-1.1,.67-2,1.41-2.7,.75-.7,1.64-1.05,2.69-1.05s1.82,.35,2.32,1.05c.5,.7,.66,1.6,.46,2.7l-.04,.22c-.19,1.1-.67,2-1.41,2.7-.75,.7-1.64,1.05-2.69,1.05s-1.82-.35-2.32-1.05c-.5-.7-.66-1.6-.46-2.7l.04-.22Zm1.28,.22c-.13,.75-.07,1.39,.2,1.91,.27,.52,.75,.78,1.45,.78s1.28-.26,1.73-.78c.45-.52,.74-1.16,.87-1.91l.04-.22c.13-.75,.06-1.39-.2-1.91-.26-.52-.75-.78-1.45-.78s-1.28,.26-1.73,.78c-.45,.52-.74,1.16-.87,1.91l-.04,.22Z"/><path class="cls-1" d="M74.72,56.7h1.17l-.11,.95h.04c.24-.3,.57-.56,.99-.77s.88-.32,1.39-.32c.93,0,1.6,.35,2.04,1.04,.43,.69,.56,1.57,.37,2.64l-.04,.22c-.19,1.06-.62,1.94-1.3,2.64s-1.48,1.04-2.41,1.04c-.51,0-.93-.09-1.25-.27-.33-.18-.57-.42-.73-.73l-.66,3.75h-1.29l1.79-10.19Zm.94,6.01c.28,.25,.65,.38,1.11,.38,.69,0,1.25-.25,1.66-.76,.41-.5,.69-1.13,.82-1.87l.04-.22c.13-.74,.08-1.36-.16-1.87-.24-.5-.7-.76-1.4-.76-.46,0-.88,.13-1.25,.38s-.65,.54-.86,.87l-.52,2.97c.09,.32,.27,.61,.55,.87Z"/><path class="cls-1" d="M81.93,60.24c.19-1.1,.66-2,1.38-2.7,.73-.7,1.59-1.05,2.58-1.05s1.7,.33,2.12,.98c.42,.65,.54,1.54,.34,2.65l-.1,.53h-5.62l.18-1.03h4.32l.04-.17c.09-.53,.02-.98-.21-1.35-.24-.37-.64-.55-1.2-.55-.69,0-1.24,.26-1.67,.78-.43,.52-.71,1.16-.84,1.91l-.04,.22c-.13,.75-.07,1.39,.2,1.91,.27,.52,.77,.78,1.52,.78,.46,0,.88-.1,1.25-.31,.37-.2,.68-.44,.94-.72l.71,.66c-.29,.35-.71,.67-1.24,.97-.54,.3-1.15,.45-1.85,.45-1.13,0-1.94-.35-2.42-1.05-.48-.7-.62-1.6-.43-2.7l.04-.22Z"/></g><g><path class="cls-1" d="M229.57,186.7h4.06l-.17,.99h-4.06l.17-.99Zm1.38-1.03c.14-.81,.46-1.42,.98-1.84s1.15-.63,1.91-.63c.15,0,.3,0,.45,.03s.29,.05,.43,.08l-.26,1.04c-.1-.02-.2-.03-.32-.05-.11-.01-.23-.02-.35-.02-.42,0-.76,.12-1.03,.35-.27,.23-.44,.58-.52,1.04l-.26,1.44-.03,.15-1.19,6.74h-1.29l1.47-8.33Z"/><path class="cls-1" d="M234.66,186.7h1.29l-.83,4.73c-.1,.58-.04,1,.17,1.25,.22,.25,.57,.38,1.05,.38,.41,0,.79-.11,1.15-.33,.35-.22,.65-.51,.88-.86l.91-5.17h1.29l-1.28,7.3h-1.17l.11-.94h-.04c-.32,.33-.69,.6-1.11,.79-.42,.19-.86,.29-1.32,.29-.74,0-1.29-.21-1.65-.63s-.46-1.12-.28-2.1l.83-4.71Z"/><path class="cls-1" d="M242.78,186.7h1.17l-.1,.94h.04c.32-.33,.69-.6,1.1-.79,.42-.19,.86-.29,1.32-.29,.74,0,1.29,.21,1.65,.63s.46,1.12,.29,2.1l-.83,4.71h-1.29l.83-4.73c.1-.58,.04-1-.17-1.25-.21-.25-.56-.38-1.04-.38-.41,0-.79,.11-1.15,.33-.35,.22-.65,.51-.89,.86l-.91,5.17h-1.29l1.29-7.3Z"/><path class="cls-1" d="M249.76,190.24c.19-1.1,.65-2,1.38-2.7,.72-.7,1.61-1.05,2.66-1.05,.97,0,1.66,.26,2.08,.79,.41,.53,.56,1.11,.44,1.76v.04h-1.26v-.04c.08-.39,0-.74-.22-1.04s-.63-.45-1.23-.45c-.7,0-1.27,.26-1.69,.78-.43,.52-.7,1.16-.83,1.91l-.04,.22c-.13,.75-.08,1.39,.16,1.91,.24,.52,.72,.78,1.42,.78,.6,0,1.06-.15,1.39-.45,.32-.3,.52-.65,.59-1.04v-.04h1.26v.04c-.12,.65-.47,1.23-1.07,1.76-.6,.53-1.38,.79-2.35,.79-1.05,0-1.81-.35-2.29-1.05-.48-.7-.62-1.6-.42-2.7l.04-.22Z"/><path class="cls-1" d="M257.35,186.7h4.17l-.17,.99h-4.17l.17-.99Zm1.2,.6l.04-.21,.38-2.19h1.29l-1.28,7.3c-.06,.32-.03,.56,.07,.69,.1,.14,.29,.21,.57,.21,.13,0,.26-.01,.39-.04,.13-.03,.26-.06,.4-.11l-.19,1.06c-.13,.06-.29,.1-.5,.15-.2,.04-.42,.06-.65,.06-.53,0-.93-.16-1.19-.49-.26-.32-.33-.83-.2-1.53l.86-4.9Z"/><path class="cls-1" d="M263.09,186.7h1.29l-1.28,7.3h-1.29l1.29-7.3Zm.54-2.76c.16-.15,.38-.22,.63-.22s.45,.07,.56,.22c.11,.15,.15,.33,.12,.55-.04,.22-.14,.4-.31,.55-.16,.15-.38,.22-.63,.22s-.45-.07-.56-.22c-.11-.15-.15-.33-.11-.55,.04-.22,.14-.4,.3-.55Z"/><path class="cls-1" d="M265.59,190.24c.19-1.1,.67-2,1.41-2.7,.75-.7,1.64-1.05,2.69-1.05s1.82,.35,2.32,1.05c.5,.7,.66,1.6,.46,2.7l-.04,.22c-.19,1.1-.67,2-1.41,2.7-.75,.7-1.64,1.05-2.69,1.05s-1.82-.35-2.32-1.05c-.5-.7-.66-1.6-.46-2.7l.04-.22Zm1.28,.22c-.13,.75-.07,1.39,.2,1.91,.27,.52,.75,.78,1.45,.78s1.28-.26,1.73-.78c.45-.52,.74-1.16,.87-1.91l.04-.22c.13-.75,.06-1.39-.2-1.91-.26-.52-.75-.78-1.45-.78s-1.28,.26-1.73,.78c-.45,.52-.74,1.16-.87,1.91l-.04,.22Z"/><path class="cls-1" d="M274.86,186.7h1.17l-.1,.94h.04c.32-.33,.69-.6,1.1-.79,.42-.19,.86-.29,1.32-.29,.74,0,1.29,.21,1.65,.63s.46,1.12,.29,2.1l-.83,4.71h-1.29l.83-4.73c.1-.58,.04-1-.17-1.25-.21-.25-.56-.38-1.04-.38-.41,0-.79,.11-1.15,.33-.35,.22-.65,.51-.89,.86l-.91,5.17h-1.29l1.29-7.3Z"/><path class="cls-1" d="M286.43,191.85v.03c-.08,.42,.02,.74,.29,.95,.27,.21,.66,.32,1.17,.32s.93-.1,1.26-.31c.33-.2,.52-.47,.58-.79,.06-.32-.01-.57-.22-.75-.21-.17-.69-.35-1.44-.54-.75-.19-1.33-.45-1.74-.78-.4-.34-.55-.8-.44-1.41,.1-.6,.44-1.1,1.01-1.5,.57-.4,1.27-.6,2.1-.6s1.47,.2,1.91,.59,.6,.93,.48,1.61v.03h-1.29v-.06c.07-.35,0-.62-.21-.82-.21-.2-.57-.3-1.08-.3s-.9,.09-1.16,.28c-.27,.19-.42,.42-.48,.69-.05,.28,.05,.5,.29,.66s.74,.33,1.49,.52c.75,.18,1.32,.45,1.68,.8,.37,.35,.49,.85,.38,1.49-.12,.65-.45,1.18-1.01,1.6-.56,.42-1.32,.62-2.29,.62s-1.67-.21-2.11-.63c-.44-.42-.59-.99-.46-1.69v-.03h1.3Z"/><path class="cls-1" d="M292.61,190.24c.19-1.1,.65-2,1.38-2.7,.72-.7,1.61-1.05,2.66-1.05,.97,0,1.66,.26,2.08,.79,.41,.53,.56,1.11,.44,1.76v.04h-1.26v-.04c.08-.39,0-.74-.22-1.04s-.63-.45-1.23-.45c-.7,0-1.27,.26-1.69,.78-.43,.52-.7,1.16-.83,1.91l-.04,.22c-.13,.75-.08,1.39,.16,1.91,.24,.52,.72,.78,1.42,.78,.6,0,1.06-.15,1.39-.45,.32-.3,.52-.65,.59-1.04v-.04h1.26v.04c-.12,.65-.47,1.23-1.07,1.76-.6,.53-1.38,.79-2.35,.79-1.05,0-1.81-.35-2.29-1.05-.48-.7-.62-1.6-.42-2.7l.04-.22Z"/><path class="cls-1" d="M300.17,190.24c.19-1.1,.67-2,1.41-2.7,.75-.7,1.64-1.05,2.69-1.05s1.82,.35,2.32,1.05c.5,.7,.66,1.6,.46,2.7l-.04,.22c-.19,1.1-.67,2-1.41,2.7-.75,.7-1.64,1.05-2.69,1.05s-1.82-.35-2.32-1.05c-.5-.7-.66-1.6-.46-2.7l.04-.22Zm1.28,.22c-.13,.75-.07,1.39,.2,1.91,.27,.52,.75,.78,1.45,.78s1.28-.26,1.73-.78c.45-.52,.74-1.16,.87-1.91l.04-.22c.13-.75,.06-1.39-.2-1.91-.26-.52-.75-.78-1.45-.78s-1.28,.26-1.73,.78c-.45,.52-.74,1.16-.87,1.91l-.04,.22Z"/><path class="cls-1" d="M309.44,186.7h1.17l-.11,.95h.04c.24-.3,.57-.56,.99-.77s.88-.32,1.39-.32c.93,0,1.6,.35,2.04,1.04,.43,.69,.56,1.57,.37,2.64l-.04,.22c-.19,1.06-.62,1.94-1.3,2.64s-1.48,1.04-2.41,1.04c-.51,0-.93-.09-1.25-.27-.33-.18-.57-.42-.73-.73l-.66,3.75h-1.29l1.79-10.19Zm.94,6.01c.28,.25,.65,.38,1.11,.38,.69,0,1.25-.25,1.66-.76,.41-.5,.69-1.13,.82-1.87l.04-.22c.13-.74,.08-1.36-.16-1.87-.24-.5-.7-.76-1.4-.76-.46,0-.88,.13-1.25,.38s-.65,.54-.86,.87l-.52,2.97c.09,.32,.27,.61,.55,.87Z"/><path class="cls-1" d="M316.65,190.24c.19-1.1,.66-2,1.38-2.7,.73-.7,1.59-1.05,2.58-1.05s1.7,.33,2.12,.98c.42,.65,.54,1.54,.34,2.65l-.1,.53h-5.62l.18-1.03h4.32l.04-.17c.09-.53,.02-.98-.21-1.35-.24-.37-.64-.55-1.2-.55-.69,0-1.24,.26-1.67,.78-.43,.52-.71,1.16-.84,1.91l-.04,.22c-.13,.75-.07,1.39,.2,1.91,.27,.52,.77,.78,1.52,.78,.46,0,.88-.1,1.25-.31,.37-.2,.68-.44,.94-.72l.71,.66c-.29,.35-.71,.67-1.24,.97-.54,.3-1.15,.45-1.85,.45-1.13,0-1.94-.35-2.42-1.05-.48-.7-.62-1.6-.43-2.7l.04-.22Z"/></g><polyline class="cls-3" points="26 73 26 223 40 223"/><line class="cls-3" x1="40" y1="115" x2="26" y2="115"/><line class="cls-3" x1="279" y1="162" x2="279" y2="178"/></g></svg>