<?xml version="1.0" encoding="UTF-8"?><svg id="images" xmlns="http://www.w3.org/2000/svg" viewBox="0 0 388 320"><defs><style>.cls-1{fill:#fcba28;}</style></defs><g id="foreground"><g><path class="cls-1" d="M27.38,31.69c.87,0,1.54,.36,1.98,1.07,.45,.71,.67,1.77,.67,3.17s-.22,2.45-.67,3.17-1.11,1.07-1.98,1.07-1.54-.36-1.98-1.07-.67-1.77-.67-3.17,.22-2.45,.67-3.17c.45-.71,1.11-1.07,1.98-1.07Zm0,.88c-.52,0-.9,.28-1.16,.83-.25,.55-.38,1.4-.38,2.53,0,.52,.03,1,.1,1.45l2.56-4.08c-.28-.49-.65-.73-1.12-.73Zm0,6.72c.52,0,.91-.28,1.16-.83s.38-1.4,.38-2.53c0-.6-.04-1.15-.11-1.63l-2.61,4.09c.27,.6,.67,.91,1.18,.91Z"/><path class="cls-1" d="M32.36,39.07h1.72v-6.19l-2.06,.99v-1.06l2.05-.98h1.11v7.24h1.7v.93h-4.52v-.93Z"/><path class="cls-1" d="M66.66,39.65c-.3,.18-.62,.31-.94,.4-.32,.09-.65,.13-.99,.13-1.07,0-1.91-.32-2.51-.96-.6-.64-.9-1.53-.9-2.67s.3-2.02,.9-2.67c.6-.64,1.44-.96,2.51-.96,.33,0,.66,.04,.98,.13,.32,.09,.64,.22,.96,.4v1.19c-.3-.27-.6-.46-.9-.58-.3-.12-.65-.18-1.03-.18-.71,0-1.26,.23-1.64,.69-.38,.46-.57,1.12-.57,1.97s.19,1.51,.58,1.97,.93,.69,1.64,.69c.4,0,.75-.06,1.06-.18,.31-.12,.6-.31,.87-.56v1.18Z"/><path class="cls-1" d="M71.65,32.92c.96,0,1.69,.31,2.2,.93,.51,.62,.76,1.52,.76,2.7s-.25,2.08-.76,2.7c-.51,.62-1.24,.93-2.2,.93s-1.69-.31-2.2-.93c-.51-.62-.76-1.52-.76-2.7s.25-2.08,.76-2.7c.51-.62,1.24-.93,2.2-.93Zm0,.96c-.58,0-1.01,.22-1.31,.67-.3,.45-.44,1.11-.44,1.99s.15,1.54,.44,1.99c.3,.45,.73,.68,1.31,.68s1.02-.22,1.31-.68c.3-.45,.44-1.11,.44-1.99s-.15-1.54-.44-1.99c-.3-.45-.73-.67-1.31-.67Z"/><path class="cls-1" d="M82.07,35.72v4.28h-1.14v-4.28c0-.62-.11-1.08-.33-1.37-.22-.29-.56-.44-1.02-.44-.53,0-.94,.19-1.23,.56-.29,.38-.43,.92-.43,1.62v3.91h-1.14v-6.91h1.14v1.04c.2-.39,.48-.69,.82-.9,.35-.2,.75-.31,1.23-.31,.7,0,1.23,.23,1.58,.69,.35,.46,.52,1.16,.52,2.1Z"/><path class="cls-1" d="M89.33,33.33v1.11c-.33-.19-.65-.33-.98-.43s-.66-.14-1.01-.14c-.51,0-.9,.08-1.15,.25-.25,.17-.38,.42-.38,.76,0,.31,.09,.54,.28,.69,.19,.15,.66,.3,1.41,.44l.46,.09c.56,.11,.99,.32,1.28,.64,.29,.32,.44,.74,.44,1.25,0,.68-.24,1.22-.73,1.6-.49,.38-1.16,.58-2.02,.58-.34,0-.7-.04-1.07-.11-.37-.07-.78-.18-1.22-.32v-1.17c.42,.22,.83,.38,1.22,.49,.39,.11,.75,.16,1.1,.16,.5,0,.89-.1,1.17-.31,.28-.2,.41-.49,.41-.85,0-.53-.5-.89-1.51-1.09h-.05l-.43-.1c-.65-.13-1.13-.34-1.43-.64-.3-.3-.45-.71-.45-1.24,0-.66,.22-1.17,.67-1.53,.45-.36,1.09-.54,1.92-.54,.37,0,.73,.03,1.07,.1,.34,.07,.68,.17,1.01,.31Z"/><path class="cls-1" d="M94.86,32.92c.96,0,1.69,.31,2.2,.93,.51,.62,.76,1.52,.76,2.7s-.25,2.08-.76,2.7c-.51,.62-1.24,.93-2.2,.93s-1.69-.31-2.2-.93c-.51-.62-.76-1.52-.76-2.7s.25-2.08,.76-2.7c.51-.62,1.24-.93,2.2-.93Zm0,.96c-.58,0-1.01,.22-1.31,.67-.3,.45-.44,1.11-.44,1.99s.15,1.54,.44,1.99c.3,.45,.73,.68,1.31,.68s1.02-.22,1.31-.68c.3-.45,.44-1.11,.44-1.99s-.15-1.54-.44-1.99c-.3-.45-.73-.67-1.31-.67Z"/><path class="cls-1" d="M103.23,37.5c0,.51,.09,.9,.28,1.15,.19,.26,.46,.39,.83,.39h1.33v.96h-1.44c-.68,0-1.2-.22-1.58-.65-.37-.43-.56-1.05-.56-1.85v-6.25h-1.82v-.89h2.96v7.14Z"/><path class="cls-1" d="M113.44,35.98v.56h-4.92v.04c-.03,.94,.15,1.62,.54,2.03,.39,.41,.95,.62,1.66,.62,.36,0,.74-.06,1.14-.17s.82-.29,1.27-.52v1.13c-.43,.18-.85,.31-1.25,.4-.4,.09-.79,.13-1.16,.13-1.07,0-1.91-.32-2.52-.97-.6-.64-.91-1.53-.91-2.66s.3-1.98,.89-2.64c.59-.66,1.38-.99,2.37-.99,.88,0,1.57,.3,2.08,.89,.51,.6,.78,1.32,.81,2.16Zm-1.14-.33c-.05-.48-.22-.89-.52-1.24s-.73-.52-1.29-.52-1,.18-1.35,.54c-.35,.36-.55,.77-.58,1.22h3.74Z"/><path class="cls-1" d="M116.67,37.51h2.17v2.49h-2.17v-2.49Z"/><path class="cls-1" d="M126.44,37.5c0,.51,.09,.9,.28,1.15,.19,.26,.46,.39,.83,.39h1.33v.96h-1.44c-.68,0-1.2-.22-1.58-.65-.37-.43-.56-1.05-.56-1.85v-6.25h-1.82v-.89h2.96v7.14Z"/><path class="cls-1" d="M133.54,32.92c.96,0,1.69,.31,2.2,.93,.51,.62,.76,1.52,.76,2.7s-.25,2.08-.76,2.7c-.51,.62-1.24,.93-2.2,.93s-1.69-.31-2.2-.93c-.51-.62-.76-1.52-.76-2.7s.25-2.08,.76-2.7c.51-.62,1.24-.93,2.2-.93Zm0,.96c-.58,0-1.01,.22-1.31,.67-.3,.45-.44,1.11-.44,1.99s.15,1.54,.44,1.99c.3,.45,.73,.68,1.31,.68s1.02-.22,1.31-.68c.3-.45,.44-1.11,.44-1.99s-.15-1.54-.44-1.99c-.3-.45-.73-.67-1.31-.67Z"/><path class="cls-1" d="M143.91,39.56c0,1.04-.25,1.82-.73,2.36-.49,.54-1.21,.8-2.16,.8-.31,0-.64-.03-.98-.09-.34-.06-.68-.14-1.02-.25v-1.12c.4,.19,.77,.33,1.1,.42,.33,.09,.63,.14,.91,.14,.61,0,1.06-.17,1.34-.5,.28-.33,.42-.86,.42-1.59v-.82c-.18,.39-.43,.67-.74,.86-.31,.19-.69,.28-1.14,.28-.81,0-1.45-.32-1.93-.97-.48-.65-.72-1.51-.72-2.59s.24-1.95,.72-2.6c.48-.65,1.12-.97,1.93-.97,.44,0,.82,.09,1.13,.27s.56,.45,.75,.82v-.89h1.14v6.44Zm-1.14-3.07c0-.85-.14-1.5-.42-1.94s-.68-.66-1.21-.66-.98,.22-1.27,.66c-.29,.44-.44,1.09-.44,1.94s.15,1.5,.44,1.95c.29,.45,.72,.67,1.28,.67,.52,0,.92-.22,1.2-.67s.42-1.1,.42-1.94Z"/><path class="cls-1" d="M150.49,29.79c-.55,.94-.96,1.87-1.23,2.8s-.4,1.87-.4,2.82,.13,1.88,.4,2.81c.27,.93,.68,1.87,1.23,2.82h-.99c-.62-.98-1.08-1.93-1.39-2.86-.3-.93-.46-1.85-.46-2.77s.15-1.84,.46-2.77c.3-.93,.77-1.88,1.39-2.85h.99Z"/><path class="cls-1" d="M157.12,33.79c.14-.3,.32-.52,.53-.66s.48-.21,.78-.21c.56,0,.95,.21,1.18,.64,.23,.43,.34,1.24,.34,2.43v4.01h-1.04v-3.96c0-.98-.05-1.58-.16-1.82-.11-.24-.31-.36-.6-.36-.33,0-.55,.13-.68,.38s-.18,.85-.18,1.79v3.96h-1.04v-3.96c0-.99-.06-1.6-.18-1.83-.12-.23-.33-.35-.63-.35s-.51,.13-.63,.38-.18,.85-.18,1.79v3.96h-1.03v-6.91h1.03v.59c.14-.25,.31-.43,.51-.56,.2-.13,.44-.19,.69-.19,.31,0,.57,.07,.78,.22,.21,.14,.37,.36,.48,.65Z"/><path class="cls-1" d="M165.98,37.78c-.19,.48-.43,1.12-.72,1.9-.41,1.09-.68,1.75-.82,1.99-.19,.32-.43,.56-.71,.72-.28,.16-.62,.24-.99,.24h-.91v-.95h.67c.33,0,.59-.1,.78-.29,.19-.19,.43-.69,.72-1.5l-2.67-6.8h1.2l2.05,5.41,2.02-5.41h1.2l-1.82,4.69Z"/><path class="cls-1" d="M172.22,38.95l2.17-8.17h1.29l-2.7,9.21h-1.51l-2.7-9.21h1.29l2.16,8.17Z"/><path class="cls-1" d="M182.69,36.06v3.94h-1.14v-1.02c-.24,.41-.55,.71-.92,.91s-.82,.29-1.34,.29c-.7,0-1.27-.2-1.69-.6-.42-.4-.63-.93-.63-1.59,0-.77,.26-1.35,.77-1.75,.52-.4,1.27-.6,2.27-.6h1.52v-.18c0-.55-.14-.95-.42-1.2-.28-.25-.72-.37-1.32-.37-.39,0-.78,.06-1.17,.17-.4,.11-.78,.27-1.15,.49v-1.14c.42-.16,.82-.28,1.21-.36s.76-.12,1.12-.12c.57,0,1.06,.08,1.47,.25s.73,.42,.98,.76c.16,.21,.27,.46,.33,.76,.07,.3,.1,.76,.1,1.36Zm-2.2,.47h-.38c-.66,0-1.16,.12-1.5,.35s-.5,.58-.5,1.04c0,.42,.13,.74,.38,.97s.6,.35,1.04,.35c.63,0,1.12-.22,1.48-.65,.36-.43,.54-1.03,.54-1.8v-.25h-1.06Z"/><path class="cls-1" d="M191.02,34.51c-.24-.19-.49-.33-.74-.41-.25-.09-.53-.13-.83-.13-.71,0-1.25,.22-1.62,.67s-.56,1.09-.56,1.93v3.44h-1.14v-6.91h1.14v1.35c.19-.49,.48-.87,.87-1.13,.39-.26,.86-.39,1.4-.39,.28,0,.54,.04,.78,.1,.24,.07,.48,.18,.7,.33v1.16Z"/><path class="cls-1" d="M193.78,29.79h.99c.62,.97,1.08,1.92,1.39,2.85,.3,.93,.46,1.85,.46,2.77s-.15,1.85-.46,2.78c-.3,.93-.77,1.88-1.39,2.85h-.99c.55-.95,.96-1.9,1.23-2.83,.27-.93,.4-1.87,.4-2.8s-.13-1.87-.4-2.81c-.27-.93-.68-1.87-1.23-2.81Z"/><path class="cls-1" d="M27.38,51.69c.87,0,1.54,.36,1.98,1.07,.45,.71,.67,1.77,.67,3.17s-.22,2.45-.67,3.17-1.11,1.07-1.98,1.07-1.54-.36-1.98-1.07-.67-1.77-.67-3.17,.22-2.45,.67-3.17c.45-.71,1.11-1.07,1.98-1.07Zm0,.88c-.52,0-.9,.28-1.16,.83-.25,.55-.38,1.4-.38,2.53,0,.52,.03,1,.1,1.45l2.56-4.08c-.28-.49-.65-.73-1.12-.73Zm0,6.72c.52,0,.91-.28,1.16-.83s.38-1.4,.38-2.53c0-.6-.04-1.15-.11-1.63l-2.61,4.09c.27,.6,.67,.91,1.18,.91Z"/><path class="cls-1" d="M32.93,59.07h3.76v.93h-4.98v-.93c.68-.72,1.28-1.36,1.79-1.91s.87-.94,1.06-1.17c.37-.45,.61-.81,.74-1.08,.13-.28,.19-.56,.19-.85,0-.46-.13-.82-.4-1.08s-.64-.39-1.11-.39c-.33,0-.68,.06-1.05,.18-.37,.12-.75,.3-1.16,.55v-1.12c.38-.18,.75-.31,1.11-.41,.36-.09,.72-.14,1.08-.14,.8,0,1.45,.21,1.93,.64,.49,.43,.73,.99,.73,1.68,0,.35-.08,.7-.24,1.05-.16,.35-.43,.74-.79,1.16-.2,.24-.5,.57-.89,.99-.39,.42-.98,1.05-1.78,1.89Z"/><path class="cls-1" d="M64.55,57.5c0,.51,.09,.9,.28,1.15,.19,.26,.46,.39,.83,.39h1.33v.96h-1.44c-.68,0-1.2-.22-1.58-.65-.37-.43-.56-1.05-.56-1.85v-6.25h-1.82v-.89h2.96v7.14Z"/><path class="cls-1" d="M74.76,55.98v.56h-4.92v.04c-.03,.94,.15,1.62,.54,2.03,.39,.41,.95,.62,1.66,.62,.36,0,.74-.06,1.14-.17s.82-.29,1.27-.52v1.13c-.43,.18-.85,.31-1.25,.4-.4,.09-.79,.13-1.16,.13-1.07,0-1.91-.32-2.52-.97-.6-.64-.91-1.53-.91-2.66s.3-1.98,.89-2.64c.59-.66,1.38-.99,2.37-.99,.88,0,1.57,.3,2.08,.89,.51,.6,.78,1.32,.81,2.16Zm-1.14-.33c-.05-.48-.22-.89-.52-1.24s-.73-.52-1.29-.52-1,.18-1.35,.54c-.35,.36-.55,.77-.58,1.22h3.74Z"/><path class="cls-1" d="M79.37,51.12v1.96h2.58v.88h-2.58v3.75c0,.51,.1,.87,.29,1.07,.19,.2,.53,.3,1.01,.3h1.28v.91h-1.39c-.85,0-1.45-.17-1.8-.51-.35-.34-.52-.93-.52-1.76v-3.75h-1.85v-.88h1.85v-1.96h1.14Z"/><path class="cls-1" d="M95.23,53.79c.14-.3,.32-.52,.53-.66s.48-.21,.78-.21c.56,0,.95,.21,1.18,.64,.23,.43,.34,1.24,.34,2.43v4.01h-1.04v-3.96c0-.98-.05-1.58-.16-1.82-.11-.24-.31-.36-.6-.36-.33,0-.55,.13-.68,.38s-.18,.85-.18,1.79v3.96h-1.04v-3.96c0-.99-.06-1.6-.18-1.83-.12-.23-.33-.35-.63-.35s-.51,.13-.63,.38-.18,.85-.18,1.79v3.96h-1.03v-6.91h1.03v.59c.14-.25,.31-.43,.51-.56,.2-.13,.44-.19,.69-.19,.31,0,.57,.07,.78,.22,.21,.14,.37,.36,.48,.65Z"/><path class="cls-1" d="M104.09,57.78c-.19,.48-.43,1.12-.72,1.9-.41,1.09-.68,1.75-.82,1.99-.19,.32-.43,.56-.71,.72-.28,.16-.62,.24-.99,.24h-.91v-.95h.67c.33,0,.59-.1,.78-.29,.19-.19,.43-.69,.72-1.5l-2.67-6.8h1.2l2.05,5.41,2.02-5.41h1.2l-1.82,4.69Z"/><path class="cls-1" d="M110.33,58.95l2.17-8.17h1.29l-2.7,9.21h-1.51l-2.7-9.21h1.29l2.16,8.17Z"/><path class="cls-1" d="M120.8,56.06v3.94h-1.14v-1.02c-.24,.41-.55,.71-.92,.91s-.82,.29-1.34,.29c-.7,0-1.27-.2-1.69-.6-.42-.4-.63-.93-.63-1.59,0-.77,.26-1.35,.77-1.75,.52-.4,1.27-.6,2.27-.6h1.52v-.18c0-.55-.14-.95-.42-1.2-.28-.25-.72-.37-1.32-.37-.39,0-.78,.06-1.17,.17-.4,.11-.78,.27-1.15,.49v-1.14c.42-.16,.82-.28,1.21-.36s.76-.12,1.12-.12c.57,0,1.06,.08,1.47,.25s.73,.42,.98,.76c.16,.21,.27,.46,.33,.76,.07,.3,.1,.76,.1,1.36Zm-2.2,.47h-.38c-.66,0-1.16,.12-1.5,.35s-.5,.58-.5,1.04c0,.42,.13,.74,.38,.97s.6,.35,1.04,.35c.63,0,1.12-.22,1.48-.65,.36-.43,.54-1.03,.54-1.8v-.25h-1.06Z"/><path class="cls-1" d="M129.13,54.51c-.24-.19-.49-.33-.74-.41-.25-.09-.53-.13-.83-.13-.71,0-1.25,.22-1.62,.67s-.56,1.09-.56,1.93v3.44h-1.14v-6.91h1.14v1.35c.19-.49,.48-.87,.87-1.13,.39-.26,.86-.39,1.4-.39,.28,0,.54,.04,.78,.1,.24,.07,.48,.18,.7,.33v1.16Z"/><path class="cls-1" d="M138.02,54.01h6.52v1.04h-6.52v-1.04Zm0,2.91h6.52v1.04h-6.52v-1.04Z"/><path class="cls-1" d="M154.61,58.96h1.94v-6.96l-2.32,1.12v-1.2l2.31-1.1h1.25v8.14h1.91v1.04h-5.09v-1.04Z"/></g><g><path class="cls-1" d="M64.44,145.5c0,.51,.09,.9,.28,1.15,.19,.26,.46,.39,.83,.39h1.33v.96h-1.44c-.68,0-1.2-.22-1.58-.65-.37-.43-.56-1.05-.56-1.85v-6.25h-1.82v-.89h2.96v7.14Z"/><path class="cls-1" d="M74.65,143.98v.56h-4.92v.04c-.03,.94,.15,1.62,.54,2.03,.39,.41,.95,.62,1.66,.62,.36,0,.74-.06,1.14-.17s.82-.29,1.27-.52v1.13c-.43,.18-.85,.31-1.25,.4-.4,.09-.79,.13-1.16,.13-1.07,0-1.91-.32-2.52-.97-.6-.64-.91-1.53-.91-2.66s.3-1.98,.89-2.64c.59-.66,1.38-.99,2.37-.99,.88,0,1.57,.3,2.08,.89,.51,.6,.78,1.32,.81,2.16Zm-1.14-.33c-.05-.48-.22-.89-.52-1.24s-.73-.52-1.29-.52-1,.18-1.35,.54c-.35,.36-.55,.77-.58,1.22h3.74Z"/><path class="cls-1" d="M79.26,139.12v1.96h2.58v.88h-2.58v3.75c0,.51,.1,.87,.29,1.07,.19,.2,.53,.3,1.01,.3h1.28v.91h-1.39c-.85,0-1.45-.17-1.8-.51-.35-.34-.52-.93-.52-1.76v-3.75h-1.85v-.88h1.85v-1.96h1.14Z"/><path class="cls-1" d="M95.12,141.79c.14-.3,.32-.52,.53-.66s.48-.21,.78-.21c.56,0,.95,.21,1.18,.64,.23,.43,.34,1.24,.34,2.43v4.01h-1.04v-3.96c0-.98-.05-1.58-.16-1.82-.11-.24-.31-.36-.6-.36-.33,0-.55,.13-.68,.38s-.18,.85-.18,1.79v3.96h-1.04v-3.96c0-.99-.06-1.6-.18-1.83-.12-.23-.33-.35-.63-.35s-.51,.13-.63,.38-.18,.85-.18,1.79v3.96h-1.03v-6.91h1.03v.59c.14-.25,.31-.43,.51-.56,.2-.13,.44-.19,.69-.19,.31,0,.57,.07,.78,.22,.21,.14,.37,.36,.48,.65Z"/><path class="cls-1" d="M103.98,145.78c-.19,.48-.43,1.12-.72,1.9-.41,1.09-.68,1.75-.82,1.99-.19,.32-.43,.56-.71,.72-.28,.16-.62,.24-.99,.24h-.91v-.95h.67c.33,0,.59-.1,.78-.29,.19-.19,.43-.69,.72-1.5l-2.67-6.8h1.2l2.05,5.41,2.02-5.41h1.2l-1.82,4.69Z"/><path class="cls-1" d="M110.22,146.95l2.17-8.17h1.29l-2.7,9.21h-1.51l-2.7-9.21h1.29l2.16,8.17Z"/><path class="cls-1" d="M120.69,144.06v3.94h-1.14v-1.02c-.24,.41-.55,.71-.92,.91s-.82,.29-1.34,.29c-.7,0-1.27-.2-1.69-.6-.42-.4-.63-.93-.63-1.59,0-.77,.26-1.35,.77-1.75,.52-.4,1.27-.6,2.27-.6h1.52v-.18c0-.55-.14-.95-.42-1.2-.28-.25-.72-.37-1.32-.37-.39,0-.78,.06-1.17,.17-.4,.11-.78,.27-1.15,.49v-1.14c.42-.16,.82-.28,1.21-.36s.76-.12,1.12-.12c.57,0,1.06,.08,1.47,.25s.73,.42,.98,.76c.16,.21,.27,.46,.33,.76,.07,.3,.1,.76,.1,1.36Zm-2.2,.47h-.38c-.66,0-1.16,.12-1.5,.35s-.5,.58-.5,1.04c0,.42,.13,.74,.38,.97s.6,.35,1.04,.35c.63,0,1.12-.22,1.48-.65,.36-.43,.54-1.03,.54-1.8v-.25h-1.06Z"/><path class="cls-1" d="M129.02,142.51c-.24-.19-.49-.33-.74-.41-.25-.09-.53-.13-.83-.13-.71,0-1.25,.22-1.62,.67s-.56,1.09-.56,1.93v3.44h-1.14v-6.91h1.14v1.35c.19-.49,.48-.87,.87-1.13,.39-.26,.86-.39,1.4-.39,.28,0,.54,.04,.78,.1,.24,.07,.48,.18,.7,.33v1.16Z"/><path class="cls-1" d="M137.91,142.01h6.52v1.04h-6.52v-1.04Zm0,2.91h6.52v1.04h-6.52v-1.04Z"/><path class="cls-1" d="M154.04,145.38v-4.28h1.14v4.28c0,.62,.11,1.08,.33,1.37,.22,.29,.56,.44,1.02,.44,.53,0,.94-.19,1.23-.56,.28-.38,.43-.92,.43-1.62v-3.91h1.14v6.9h-1.14v-1.04c-.2,.4-.48,.7-.82,.91-.35,.21-.75,.31-1.22,.31-.71,0-1.23-.23-1.58-.69-.35-.46-.52-1.16-.52-2.1Z"/><path class="cls-1" d="M167.06,143.72v4.28h-1.14v-4.28c0-.62-.11-1.08-.33-1.37-.22-.29-.56-.44-1.02-.44-.53,0-.94,.19-1.23,.56-.29,.38-.43,.92-.43,1.62v3.91h-1.14v-6.91h1.14v1.04c.2-.39,.48-.69,.82-.9,.35-.2,.75-.31,1.23-.31,.7,0,1.23,.23,1.58,.69,.35,.46,.52,1.16,.52,2.1Z"/><path class="cls-1" d="M170.26,141.11h2.91v6h2.25v.88h-5.64v-.88h2.25v-5.12h-1.77v-.88Zm1.77-2.68h1.14v1.43h-1.14v-1.43Z"/><path class="cls-1" d="M182.53,143.72v4.28h-1.14v-4.28c0-.62-.11-1.08-.33-1.37-.22-.29-.56-.44-1.02-.44-.53,0-.94,.19-1.23,.56-.29,.38-.43,.92-.43,1.62v3.91h-1.14v-6.91h1.14v1.04c.2-.39,.48-.69,.82-.9,.35-.2,.75-.31,1.23-.31,.7,0,1.23,.23,1.58,.69,.35,.46,.52,1.16,.52,2.1Z"/><path class="cls-1" d="M185.73,141.11h2.91v6h2.25v.88h-5.64v-.88h2.25v-5.12h-1.77v-.88Zm1.77-2.68h1.14v1.43h-1.14v-1.43Z"/><path class="cls-1" d="M195.31,139.12v1.96h2.58v.88h-2.58v3.75c0,.51,.1,.87,.29,1.07,.19,.2,.53,.3,1.01,.3h1.28v.91h-1.39c-.85,0-1.45-.17-1.8-.51-.35-.34-.52-.93-.52-1.76v-3.75h-1.85v-.88h1.85v-1.96h1.14Z"/><path class="cls-1" d="M205.79,144.06v3.94h-1.14v-1.02c-.24,.41-.55,.71-.92,.91s-.82,.29-1.34,.29c-.7,0-1.27-.2-1.69-.6-.42-.4-.63-.93-.63-1.59,0-.77,.26-1.35,.77-1.75,.52-.4,1.27-.6,2.27-.6h1.52v-.18c0-.55-.14-.95-.42-1.2-.28-.25-.72-.37-1.32-.37-.39,0-.78,.06-1.17,.17-.4,.11-.78,.27-1.15,.49v-1.14c.42-.16,.82-.28,1.21-.36s.76-.12,1.12-.12c.57,0,1.06,.08,1.47,.25s.73,.42,.98,.76c.16,.21,.27,.46,.33,.76,.07,.3,.1,.76,.1,1.36Zm-2.2,.47h-.38c-.66,0-1.16,.12-1.5,.35s-.5,.58-.5,1.04c0,.42,.13,.74,.38,.97s.6,.35,1.04,.35c.63,0,1.12-.22,1.48-.65,.36-.43,.54-1.03,.54-1.8v-.25h-1.06Z"/><path class="cls-1" d="M211.43,145.5c0,.51,.09,.9,.28,1.15,.19,.26,.46,.39,.83,.39h1.33v.96h-1.44c-.68,0-1.2-.22-1.58-.65-.37-.43-.56-1.05-.56-1.85v-6.25h-1.82v-.89h2.96v7.14Z"/><path class="cls-1" d="M216.68,141.11h2.91v6h2.25v.88h-5.64v-.88h2.25v-5.12h-1.77v-.88Zm1.77-2.68h1.14v1.43h-1.14v-1.43Z"/><path class="cls-1" d="M223.86,141.08h5.02v1.04l-3.97,4.96h3.97v.93h-5.17v-1.05l3.97-4.97h-3.82v-.91Z"/><path class="cls-1" d="M237.11,143.98v.56h-4.92v.04c-.03,.94,.15,1.62,.54,2.03,.39,.41,.95,.62,1.66,.62,.36,0,.74-.06,1.14-.17s.82-.29,1.27-.52v1.13c-.43,.18-.85,.31-1.25,.4-.4,.09-.79,.13-1.16,.13-1.07,0-1.91-.32-2.52-.97-.6-.64-.91-1.53-.91-2.66s.3-1.98,.89-2.64c.59-.66,1.38-.99,2.37-.99,.88,0,1.57,.3,2.08,.89,.51,.6,.78,1.32,.81,2.16Zm-1.14-.33c-.05-.48-.22-.89-.52-1.24s-.73-.52-1.29-.52-1,.18-1.35,.54c-.35,.36-.55,.77-.58,1.22h3.74Z"/><path class="cls-1" d="M243.23,141.97v-3.57h1.14v9.6h-1.14v-.87c-.19,.34-.44,.6-.76,.78-.31,.18-.68,.27-1.09,.27-.84,0-1.49-.32-1.97-.97-.48-.65-.72-1.54-.72-2.68s.24-2,.72-2.64,1.14-.96,1.97-.96c.42,0,.78,.09,1.1,.27,.32,.18,.57,.44,.75,.78Zm-3.34,2.58c0,.88,.14,1.54,.42,1.99,.28,.45,.69,.67,1.24,.67s.96-.23,1.25-.68c.29-.45,.43-1.12,.43-1.99s-.14-1.54-.43-1.99c-.29-.45-.7-.68-1.25-.68s-.96,.22-1.24,.67-.42,1.11-.42,1.99Z"/><path class="cls-1" d="M27.38,159.69c.87,0,1.54,.36,1.98,1.07,.45,.71,.67,1.77,.67,3.17s-.22,2.45-.67,3.17-1.11,1.07-1.98,1.07-1.54-.36-1.98-1.07-.67-1.77-.67-3.17,.22-2.45,.67-3.17c.45-.71,1.11-1.07,1.98-1.07Zm0,.88c-.52,0-.9,.28-1.16,.83-.25,.55-.38,1.4-.38,2.53,0,.52,.03,1,.1,1.45l2.56-4.08c-.28-.49-.65-.73-1.12-.73Zm0,6.72c.52,0,.91-.28,1.16-.83s.38-1.4,.38-2.53c0-.6-.04-1.15-.11-1.63l-2.61,4.09c.27,.6,.67,.91,1.18,.91Z"/><path class="cls-1" d="M32.36,167.07h1.72v-6.19l-2.06,.99v-1.06l2.05-.98h1.11v7.24h1.7v.93h-4.52v-.93Z"/><path class="cls-1" d="M66.66,167.65c-.3,.18-.62,.31-.94,.4-.32,.09-.65,.13-.99,.13-1.07,0-1.91-.32-2.51-.96-.6-.64-.9-1.53-.9-2.67s.3-2.02,.9-2.67c.6-.64,1.44-.96,2.51-.96,.33,0,.66,.04,.98,.13,.32,.09,.64,.22,.96,.4v1.19c-.3-.27-.6-.46-.9-.58-.3-.12-.65-.18-1.03-.18-.71,0-1.26,.23-1.64,.69-.38,.46-.57,1.12-.57,1.97s.19,1.51,.58,1.97,.93,.69,1.64,.69c.4,0,.75-.06,1.06-.18,.31-.12,.6-.31,.87-.56v1.18Z"/><path class="cls-1" d="M71.65,160.92c.96,0,1.69,.31,2.2,.93,.51,.62,.76,1.52,.76,2.7s-.25,2.08-.76,2.7c-.51,.62-1.24,.93-2.2,.93s-1.69-.31-2.2-.93c-.51-.62-.76-1.52-.76-2.7s.25-2.08,.76-2.7c.51-.62,1.24-.93,2.2-.93Zm0,.96c-.58,0-1.01,.22-1.31,.67-.3,.45-.44,1.11-.44,1.99s.15,1.54,.44,1.99c.3,.45,.73,.68,1.31,.68s1.02-.22,1.31-.68c.3-.45,.44-1.11,.44-1.99s-.15-1.54-.44-1.99c-.3-.45-.73-.67-1.31-.67Z"/><path class="cls-1" d="M82.07,163.72v4.28h-1.14v-4.28c0-.62-.11-1.08-.33-1.37-.22-.29-.56-.44-1.02-.44-.53,0-.94,.19-1.23,.56-.29,.38-.43,.92-.43,1.62v3.91h-1.14v-6.91h1.14v1.04c.2-.39,.48-.69,.82-.9,.35-.2,.75-.31,1.23-.31,.7,0,1.23,.23,1.58,.69,.35,.46,.52,1.16,.52,2.1Z"/><path class="cls-1" d="M89.33,161.33v1.11c-.33-.19-.65-.33-.98-.43s-.66-.14-1.01-.14c-.51,0-.9,.08-1.15,.25-.25,.17-.38,.42-.38,.76,0,.31,.09,.54,.28,.69,.19,.15,.66,.3,1.41,.44l.46,.09c.56,.11,.99,.32,1.28,.64,.29,.32,.44,.74,.44,1.25,0,.68-.24,1.22-.73,1.6-.49,.38-1.16,.58-2.02,.58-.34,0-.7-.04-1.07-.11-.37-.07-.78-.18-1.22-.32v-1.17c.42,.22,.83,.38,1.22,.49,.39,.11,.75,.16,1.1,.16,.5,0,.89-.1,1.17-.31,.28-.2,.41-.49,.41-.85,0-.53-.5-.89-1.51-1.09h-.05l-.43-.1c-.65-.13-1.13-.34-1.43-.64-.3-.3-.45-.71-.45-1.24,0-.66,.22-1.17,.67-1.53,.45-.36,1.09-.54,1.92-.54,.37,0,.73,.03,1.07,.1,.34,.07,.68,.17,1.01,.31Z"/><path class="cls-1" d="M94.86,160.92c.96,0,1.69,.31,2.2,.93,.51,.62,.76,1.52,.76,2.7s-.25,2.08-.76,2.7c-.51,.62-1.24,.93-2.2,.93s-1.69-.31-2.2-.93c-.51-.62-.76-1.52-.76-2.7s.25-2.08,.76-2.7c.51-.62,1.24-.93,2.2-.93Zm0,.96c-.58,0-1.01,.22-1.31,.67-.3,.45-.44,1.11-.44,1.99s.15,1.54,.44,1.99c.3,.45,.73,.68,1.31,.68s1.02-.22,1.31-.68c.3-.45,.44-1.11,.44-1.99s-.15-1.54-.44-1.99c-.3-.45-.73-.67-1.31-.67Z"/><path class="cls-1" d="M103.23,165.5c0,.51,.09,.9,.28,1.15,.19,.26,.46,.39,.83,.39h1.33v.96h-1.44c-.68,0-1.2-.22-1.58-.65-.37-.43-.56-1.05-.56-1.85v-6.25h-1.82v-.89h2.96v7.14Z"/><path class="cls-1" d="M113.44,163.98v.56h-4.92v.04c-.03,.94,.15,1.62,.54,2.03,.39,.41,.95,.62,1.66,.62,.36,0,.74-.06,1.14-.17s.82-.29,1.27-.52v1.13c-.43,.18-.85,.31-1.25,.4-.4,.09-.79,.13-1.16,.13-1.07,0-1.91-.32-2.52-.97-.6-.64-.91-1.53-.91-2.66s.3-1.98,.89-2.64c.59-.66,1.38-.99,2.37-.99,.88,0,1.57,.3,2.08,.89,.51,.6,.78,1.32,.81,2.16Zm-1.14-.33c-.05-.48-.22-.89-.52-1.24s-.73-.52-1.29-.52-1,.18-1.35,.54c-.35,.36-.55,.77-.58,1.22h3.74Z"/><path class="cls-1" d="M116.67,165.51h2.17v2.49h-2.17v-2.49Z"/><path class="cls-1" d="M126.44,165.5c0,.51,.09,.9,.28,1.15,.19,.26,.46,.39,.83,.39h1.33v.96h-1.44c-.68,0-1.2-.22-1.58-.65-.37-.43-.56-1.05-.56-1.85v-6.25h-1.82v-.89h2.96v7.14Z"/><path class="cls-1" d="M133.54,160.92c.96,0,1.69,.31,2.2,.93,.51,.62,.76,1.52,.76,2.7s-.25,2.08-.76,2.7c-.51,.62-1.24,.93-2.2,.93s-1.69-.31-2.2-.93c-.51-.62-.76-1.52-.76-2.7s.25-2.08,.76-2.7c.51-.62,1.24-.93,2.2-.93Zm0,.96c-.58,0-1.01,.22-1.31,.67-.3,.45-.44,1.11-.44,1.99s.15,1.54,.44,1.99c.3,.45,.73,.68,1.31,.68s1.02-.22,1.31-.68c.3-.45,.44-1.11,.44-1.99s-.15-1.54-.44-1.99c-.3-.45-.73-.67-1.31-.67Z"/><path class="cls-1" d="M143.91,167.56c0,1.04-.25,1.82-.73,2.36-.49,.54-1.21,.8-2.16,.8-.31,0-.64-.03-.98-.09-.34-.06-.68-.14-1.02-.25v-1.12c.4,.19,.77,.33,1.1,.42,.33,.09,.63,.14,.91,.14,.61,0,1.06-.17,1.34-.5,.28-.33,.42-.86,.42-1.59v-.82c-.18,.39-.43,.67-.74,.86-.31,.19-.69,.28-1.14,.28-.81,0-1.45-.32-1.93-.97-.48-.65-.72-1.51-.72-2.59s.24-1.95,.72-2.6c.48-.65,1.12-.97,1.93-.97,.44,0,.82,.09,1.13,.27s.56,.45,.75,.82v-.89h1.14v6.44Zm-1.14-3.07c0-.85-.14-1.5-.42-1.94s-.68-.66-1.21-.66-.98,.22-1.27,.66c-.29,.44-.44,1.09-.44,1.94s.15,1.5,.44,1.95c.29,.45,.72,.67,1.28,.67,.52,0,.92-.22,1.2-.67s.42-1.1,.42-1.94Z"/><path class="cls-1" d="M150.49,157.79c-.55,.94-.96,1.87-1.23,2.8s-.4,1.87-.4,2.82,.13,1.88,.4,2.81c.27,.93,.68,1.87,1.23,2.82h-.99c-.62-.98-1.08-1.93-1.39-2.86-.3-.93-.46-1.85-.46-2.77s.15-1.84,.46-2.77c.3-.93,.77-1.88,1.39-2.85h.99Z"/><path class="cls-1" d="M157.12,161.79c.14-.3,.32-.52,.53-.66s.48-.21,.78-.21c.56,0,.95,.21,1.18,.64,.23,.43,.34,1.24,.34,2.43v4.01h-1.04v-3.96c0-.98-.05-1.58-.16-1.82-.11-.24-.31-.36-.6-.36-.33,0-.55,.13-.68,.38s-.18,.85-.18,1.79v3.96h-1.04v-3.96c0-.99-.06-1.6-.18-1.83-.12-.23-.33-.35-.63-.35s-.51,.13-.63,.38-.18,.85-.18,1.79v3.96h-1.03v-6.91h1.03v.59c.14-.25,.31-.43,.51-.56,.2-.13,.44-.19,.69-.19,.31,0,.57,.07,.78,.22,.21,.14,.37,.36,.48,.65Z"/><path class="cls-1" d="M165.98,165.78c-.19,.48-.43,1.12-.72,1.9-.41,1.09-.68,1.75-.82,1.99-.19,.32-.43,.56-.71,.72-.28,.16-.62,.24-.99,.24h-.91v-.95h.67c.33,0,.59-.1,.78-.29,.19-.19,.43-.69,.72-1.5l-2.67-6.8h1.2l2.05,5.41,2.02-5.41h1.2l-1.82,4.69Z"/><path class="cls-1" d="M172.22,166.95l2.17-8.17h1.29l-2.7,9.21h-1.51l-2.7-9.21h1.29l2.16,8.17Z"/><path class="cls-1" d="M182.69,164.06v3.94h-1.14v-1.02c-.24,.41-.55,.71-.92,.91s-.82,.29-1.34,.29c-.7,0-1.27-.2-1.69-.6-.42-.4-.63-.93-.63-1.59,0-.77,.26-1.35,.77-1.75,.52-.4,1.27-.6,2.27-.6h1.52v-.18c0-.55-.14-.95-.42-1.2-.28-.25-.72-.37-1.32-.37-.39,0-.78,.06-1.17,.17-.4,.11-.78,.27-1.15,.49v-1.14c.42-.16,.82-.28,1.21-.36s.76-.12,1.12-.12c.57,0,1.06,.08,1.47,.25s.73,.42,.98,.76c.16,.21,.27,.46,.33,.76,.07,.3,.1,.76,.1,1.36Zm-2.2,.47h-.38c-.66,0-1.16,.12-1.5,.35s-.5,.58-.5,1.04c0,.42,.13,.74,.38,.97s.6,.35,1.04,.35c.63,0,1.12-.22,1.48-.65,.36-.43,.54-1.03,.54-1.8v-.25h-1.06Z"/><path class="cls-1" d="M191.02,162.51c-.24-.19-.49-.33-.74-.41-.25-.09-.53-.13-.83-.13-.71,0-1.25,.22-1.62,.67s-.56,1.09-.56,1.93v3.44h-1.14v-6.91h1.14v1.35c.19-.49,.48-.87,.87-1.13,.39-.26,.86-.39,1.4-.39,.28,0,.54,.04,.78,.1,.24,.07,.48,.18,.7,.33v1.16Z"/><path class="cls-1" d="M193.78,157.79h.99c.62,.97,1.08,1.92,1.39,2.85,.3,.93,.46,1.85,.46,2.77s-.15,1.85-.46,2.78c-.3,.93-.77,1.88-1.39,2.85h-.99c.55-.95,.96-1.9,1.23-2.83,.27-.93,.4-1.87,.4-2.8s-.13-1.87-.4-2.81c-.27-.93-.68-1.87-1.23-2.81Z"/><path class="cls-1" d="M27.38,179.69c.87,0,1.54,.36,1.98,1.07,.45,.71,.67,1.77,.67,3.17s-.22,2.45-.67,3.17-1.11,1.07-1.98,1.07-1.54-.36-1.98-1.07-.67-1.77-.67-3.17,.22-2.45,.67-3.17c.45-.71,1.11-1.07,1.98-1.07Zm0,.88c-.52,0-.9,.28-1.16,.83-.25,.55-.38,1.4-.38,2.53,0,.52,.03,1,.1,1.45l2.56-4.08c-.28-.49-.65-.73-1.12-.73Zm0,6.72c.52,0,.91-.28,1.16-.83s.38-1.4,.38-2.53c0-.6-.04-1.15-.11-1.63l-2.61,4.09c.27,.6,.67,.91,1.18,.91Z"/><path class="cls-1" d="M32.93,187.07h3.76v.93h-4.98v-.93c.68-.72,1.28-1.36,1.79-1.91s.87-.94,1.06-1.17c.37-.45,.61-.81,.74-1.08,.13-.28,.19-.56,.19-.85,0-.46-.13-.82-.4-1.08s-.64-.39-1.11-.39c-.33,0-.68,.06-1.05,.18-.37,.12-.75,.3-1.16,.55v-1.12c.38-.18,.75-.31,1.11-.41,.36-.09,.72-.14,1.08-.14,.8,0,1.45,.21,1.93,.64,.49,.43,.73,.99,.73,1.68,0,.35-.08,.7-.24,1.05-.16,.35-.43,.74-.79,1.16-.2,.24-.5,.57-.89,.99-.39,.42-.98,1.05-1.78,1.89Z"/><path class="cls-1" d="M64.28,181.79c.14-.3,.32-.52,.53-.66s.48-.21,.78-.21c.56,0,.95,.21,1.18,.64,.23,.43,.34,1.24,.34,2.43v4.01h-1.04v-3.96c0-.98-.05-1.58-.16-1.82-.11-.24-.31-.36-.6-.36-.33,0-.55,.13-.68,.38s-.18,.85-.18,1.79v3.96h-1.04v-3.96c0-.99-.06-1.6-.18-1.83-.12-.23-.33-.35-.63-.35s-.51,.13-.63,.38-.18,.85-.18,1.79v3.96h-1.03v-6.91h1.03v.59c.14-.25,.31-.43,.51-.56,.2-.13,.44-.19,.69-.19,.31,0,.57,.07,.78,.22,.21,.14,.37,.36,.48,.65Z"/><path class="cls-1" d="M73.14,185.78c-.19,.48-.43,1.12-.72,1.9-.41,1.09-.68,1.75-.82,1.99-.19,.32-.43,.56-.71,.72-.28,.16-.62,.24-.99,.24h-.91v-.95h.67c.33,0,.59-.1,.78-.29,.19-.19,.43-.69,.72-1.5l-2.67-6.8h1.2l2.05,5.41,2.02-5.41h1.2l-1.82,4.69Z"/><path class="cls-1" d="M79.39,186.95l2.17-8.17h1.29l-2.7,9.21h-1.51l-2.7-9.21h1.29l2.16,8.17Z"/><path class="cls-1" d="M89.86,184.06v3.94h-1.14v-1.02c-.24,.41-.55,.71-.92,.91s-.82,.29-1.34,.29c-.7,0-1.27-.2-1.69-.6-.42-.4-.63-.93-.63-1.59,0-.77,.26-1.35,.77-1.75,.52-.4,1.27-.6,2.27-.6h1.52v-.18c0-.55-.14-.95-.42-1.2-.28-.25-.72-.37-1.32-.37-.39,0-.78,.06-1.17,.17-.4,.11-.78,.27-1.15,.49v-1.14c.42-.16,.82-.28,1.21-.36s.76-.12,1.12-.12c.57,0,1.06,.08,1.47,.25s.73,.42,.98,.76c.16,.21,.27,.46,.33,.76,.07,.3,.1,.76,.1,1.36Zm-2.2,.47h-.38c-.66,0-1.16,.12-1.5,.35s-.5,.58-.5,1.04c0,.42,.13,.74,.38,.97s.6,.35,1.04,.35c.63,0,1.12-.22,1.48-.65,.36-.43,.54-1.03,.54-1.8v-.25h-1.06Z"/><path class="cls-1" d="M98.19,182.51c-.24-.19-.49-.33-.74-.41-.25-.09-.53-.13-.83-.13-.71,0-1.25,.22-1.62,.67s-.56,1.09-.56,1.93v3.44h-1.14v-6.91h1.14v1.35c.19-.49,.48-.87,.87-1.13,.39-.26,.86-.39,1.4-.39,.28,0,.54,.04,.78,.1,.24,.07,.48,.18,.7,.33v1.16Z"/><path class="cls-1" d="M107.07,182.01h6.52v1.04h-6.52v-1.04Zm0,2.91h6.52v1.04h-6.52v-1.04Z"/><path class="cls-1" d="M123.67,186.96h1.94v-6.96l-2.32,1.12v-1.2l2.31-1.1h1.25v8.14h1.91v1.04h-5.09v-1.04Z"/></g><g><path class="cls-1" d="M65.08,273.5c0,.51,.09,.9,.28,1.15,.19,.26,.46,.39,.83,.39h1.33v.96h-1.44c-.68,0-1.2-.22-1.58-.65-.37-.43-.56-1.05-.56-1.85v-6.25h-1.82v-.89h2.96v7.14Z"/><path class="cls-1" d="M75.29,271.98v.56h-4.92v.04c-.03,.94,.15,1.62,.54,2.03,.39,.41,.95,.62,1.66,.62,.36,0,.74-.06,1.14-.17s.82-.29,1.27-.52v1.13c-.43,.18-.85,.31-1.25,.4-.4,.09-.79,.13-1.16,.13-1.07,0-1.91-.32-2.52-.97-.6-.64-.91-1.53-.91-2.66s.3-1.98,.89-2.64c.59-.66,1.38-.99,2.37-.99,.88,0,1.57,.3,2.08,.89,.51,.6,.78,1.32,.81,2.16Zm-1.14-.33c-.05-.48-.22-.89-.52-1.24s-.73-.52-1.29-.52-1,.18-1.35,.54c-.35,.36-.55,.77-.58,1.22h3.74Z"/><path class="cls-1" d="M79.9,267.12v1.96h2.58v.88h-2.58v3.75c0,.51,.1,.87,.29,1.07,.19,.2,.53,.3,1.01,.3h1.28v.91h-1.39c-.85,0-1.45-.17-1.8-.51-.35-.34-.52-.93-.52-1.76v-3.75h-1.85v-.88h1.85v-1.96h1.14Z"/><path class="cls-1" d="M95.76,269.79c.14-.3,.32-.52,.53-.66s.48-.21,.78-.21c.56,0,.95,.21,1.18,.64,.23,.43,.34,1.24,.34,2.43v4.01h-1.04v-3.96c0-.98-.05-1.58-.16-1.82-.11-.24-.31-.36-.6-.36-.33,0-.55,.13-.68,.38s-.18,.85-.18,1.79v3.96h-1.04v-3.96c0-.99-.06-1.6-.18-1.83-.12-.23-.33-.35-.63-.35s-.51,.13-.63,.38-.18,.85-.18,1.79v3.96h-1.03v-6.91h1.03v.59c.14-.25,.31-.43,.51-.56,.2-.13,.44-.19,.69-.19,.31,0,.57,.07,.78,.22,.21,.14,.37,.36,.48,.65Z"/><path class="cls-1" d="M104.62,273.78c-.19,.48-.43,1.12-.72,1.9-.41,1.09-.68,1.75-.82,1.99-.19,.32-.43,.56-.71,.72-.28,.16-.62,.24-.99,.24h-.91v-.95h.67c.33,0,.59-.1,.78-.29,.19-.19,.43-.69,.72-1.5l-2.67-6.8h1.2l2.05,5.41,2.02-5.41h1.2l-1.82,4.69Z"/><path class="cls-1" d="M110.86,274.95l2.17-8.17h1.29l-2.7,9.21h-1.51l-2.7-9.21h1.29l2.16,8.17Z"/><path class="cls-1" d="M121.33,272.06v3.94h-1.14v-1.02c-.24,.41-.55,.71-.92,.91s-.82,.29-1.34,.29c-.7,0-1.27-.2-1.69-.6-.42-.4-.63-.93-.63-1.59,0-.77,.26-1.35,.77-1.75,.52-.4,1.27-.6,2.27-.6h1.52v-.18c0-.55-.14-.95-.42-1.2-.28-.25-.72-.37-1.32-.37-.39,0-.78,.06-1.17,.17-.4,.11-.78,.27-1.15,.49v-1.14c.42-.16,.82-.28,1.21-.36s.76-.12,1.12-.12c.57,0,1.06,.08,1.47,.25s.73,.42,.98,.76c.16,.21,.27,.46,.33,.76,.07,.3,.1,.76,.1,1.36Zm-2.2,.47h-.38c-.66,0-1.16,.12-1.5,.35s-.5,.58-.5,1.04c0,.42,.13,.74,.38,.97s.6,.35,1.04,.35c.63,0,1.12-.22,1.48-.65,.36-.43,.54-1.03,.54-1.8v-.25h-1.06Z"/><path class="cls-1" d="M129.66,270.51c-.24-.19-.49-.33-.74-.41-.25-.09-.53-.13-.83-.13-.71,0-1.25,.22-1.62,.67s-.56,1.09-.56,1.93v3.44h-1.14v-6.91h1.14v1.35c.19-.49,.48-.87,.87-1.13,.39-.26,.86-.39,1.4-.39,.28,0,.54,.04,.78,.1,.24,.07,.48,.18,.7,.33v1.16Z"/><path class="cls-1" d="M138.54,270.01h6.52v1.04h-6.52v-1.04Zm0,2.91h6.52v1.04h-6.52v-1.04Z"/><path class="cls-1" d="M154.68,273.38v-4.28h1.14v4.28c0,.62,.11,1.08,.33,1.37,.22,.29,.56,.44,1.02,.44,.53,0,.94-.19,1.23-.56,.28-.38,.43-.92,.43-1.62v-3.91h1.14v6.9h-1.14v-1.04c-.2,.4-.48,.7-.82,.91-.35,.21-.75,.31-1.22,.31-.71,0-1.23-.23-1.58-.69-.35-.46-.52-1.16-.52-2.1Z"/><path class="cls-1" d="M167.7,271.72v4.28h-1.14v-4.28c0-.62-.11-1.08-.33-1.37-.22-.29-.56-.44-1.02-.44-.53,0-.94,.19-1.23,.56-.29,.38-.43,.92-.43,1.62v3.91h-1.14v-6.91h1.14v1.04c.2-.39,.48-.69,.82-.9,.35-.2,.75-.31,1.23-.31,.7,0,1.23,.23,1.58,.69,.35,.46,.52,1.16,.52,2.1Z"/><path class="cls-1" d="M170.9,269.11h2.91v6h2.25v.88h-5.64v-.88h2.25v-5.12h-1.77v-.88Zm1.77-2.68h1.14v1.43h-1.14v-1.43Z"/><path class="cls-1" d="M183.17,271.72v4.28h-1.14v-4.28c0-.62-.11-1.08-.33-1.37-.22-.29-.56-.44-1.02-.44-.53,0-.94,.19-1.23,.56-.29,.38-.43,.92-.43,1.62v3.91h-1.14v-6.91h1.14v1.04c.2-.39,.48-.69,.82-.9,.35-.2,.75-.31,1.23-.31,.7,0,1.23,.23,1.58,.69,.35,.46,.52,1.16,.52,2.1Z"/><path class="cls-1" d="M186.37,269.11h2.91v6h2.25v.88h-5.64v-.88h2.25v-5.12h-1.77v-.88Zm1.77-2.68h1.14v1.43h-1.14v-1.43Z"/><path class="cls-1" d="M195.94,267.12v1.96h2.58v.88h-2.58v3.75c0,.51,.1,.87,.29,1.07,.19,.2,.53,.3,1.01,.3h1.28v.91h-1.39c-.85,0-1.45-.17-1.8-.51-.35-.34-.52-.93-.52-1.76v-3.75h-1.85v-.88h1.85v-1.96h1.14Z"/><path class="cls-1" d="M206.43,272.06v3.94h-1.14v-1.02c-.24,.41-.55,.71-.92,.91s-.82,.29-1.34,.29c-.7,0-1.27-.2-1.69-.6-.42-.4-.63-.93-.63-1.59,0-.77,.26-1.35,.77-1.75,.52-.4,1.27-.6,2.27-.6h1.52v-.18c0-.55-.14-.95-.42-1.2-.28-.25-.72-.37-1.32-.37-.39,0-.78,.06-1.17,.17-.4,.11-.78,.27-1.15,.49v-1.14c.42-.16,.82-.28,1.21-.36s.76-.12,1.12-.12c.57,0,1.06,.08,1.47,.25s.73,.42,.98,.76c.16,.21,.27,.46,.33,.76,.07,.3,.1,.76,.1,1.36Zm-2.2,.47h-.38c-.66,0-1.16,.12-1.5,.35s-.5,.58-.5,1.04c0,.42,.13,.74,.38,.97s.6,.35,1.04,.35c.63,0,1.12-.22,1.48-.65,.36-.43,.54-1.03,.54-1.8v-.25h-1.06Z"/><path class="cls-1" d="M212.06,273.5c0,.51,.09,.9,.28,1.15,.19,.26,.46,.39,.83,.39h1.33v.96h-1.44c-.68,0-1.2-.22-1.58-.65-.37-.43-.56-1.05-.56-1.85v-6.25h-1.82v-.89h2.96v7.14Z"/><path class="cls-1" d="M217.31,269.11h2.91v6h2.25v.88h-5.64v-.88h2.25v-5.12h-1.77v-.88Zm1.77-2.68h1.14v1.43h-1.14v-1.43Z"/><path class="cls-1" d="M224.5,269.08h5.02v1.04l-3.97,4.96h3.97v.93h-5.17v-1.05l3.97-4.97h-3.82v-.91Z"/><path class="cls-1" d="M237.75,271.98v.56h-4.92v.04c-.03,.94,.15,1.62,.54,2.03,.39,.41,.95,.62,1.66,.62,.36,0,.74-.06,1.14-.17s.82-.29,1.27-.52v1.13c-.43,.18-.85,.31-1.25,.4-.4,.09-.79,.13-1.16,.13-1.07,0-1.91-.32-2.52-.97-.6-.64-.91-1.53-.91-2.66s.3-1.98,.89-2.64c.59-.66,1.38-.99,2.37-.99,.88,0,1.57,.3,2.08,.89,.51,.6,.78,1.32,.81,2.16Zm-1.14-.33c-.05-.48-.22-.89-.52-1.24s-.73-.52-1.29-.52-1,.18-1.35,.54c-.35,.36-.55,.77-.58,1.22h3.74Z"/><path class="cls-1" d="M243.87,269.97v-3.57h1.14v9.6h-1.14v-.87c-.19,.34-.44,.6-.76,.78-.31,.18-.68,.27-1.09,.27-.84,0-1.49-.32-1.97-.97-.48-.65-.72-1.54-.72-2.68s.24-2,.72-2.64,1.14-.96,1.97-.96c.42,0,.78,.09,1.1,.27,.32,.18,.57,.44,.75,.78Zm-3.34,2.58c0,.88,.14,1.54,.42,1.99,.28,.45,.69,.67,1.24,.67s.96-.23,1.25-.68c.29-.45,.43-1.12,.43-1.99s-.14-1.54-.43-1.99c-.29-.45-.7-.68-1.25-.68s-.96,.22-1.24,.67-.42,1.11-.42,1.99Z"/><path class="cls-1" d="M4.56,292.03h5.82v.93H4.56v-.93Z"/><path class="cls-1" d="M11.36,290.73v-1l5.8,2.29v.91l-5.8,2.29v-1l4.67-1.74-4.67-1.76Z"/><path class="cls-1" d="M28.02,287.69c.87,0,1.54,.36,1.98,1.07,.45,.71,.67,1.77,.67,3.17s-.22,2.45-.67,3.17-1.11,1.07-1.98,1.07-1.54-.36-1.98-1.07-.67-1.77-.67-3.17,.22-2.45,.67-3.17c.45-.71,1.11-1.07,1.98-1.07Zm0,.88c-.52,0-.9,.28-1.16,.83-.25,.55-.38,1.4-.38,2.53,0,.52,.03,1,.1,1.45l2.56-4.08c-.28-.49-.65-.73-1.12-.73Zm0,6.72c.52,0,.91-.28,1.16-.83s.38-1.4,.38-2.53c0-.6-.04-1.15-.11-1.63l-2.61,4.09c.27,.6,.67,.91,1.18,.91Z"/><path class="cls-1" d="M33,295.07h1.72v-6.19l-2.06,.99v-1.06l2.05-.98h1.11v7.24h1.7v.93h-4.52v-.93Z"/><path class="cls-1" d="M67.3,295.65c-.3,.18-.62,.31-.94,.4-.32,.09-.65,.13-.99,.13-1.07,0-1.91-.32-2.51-.96-.6-.64-.9-1.53-.9-2.67s.3-2.02,.9-2.67c.6-.64,1.44-.96,2.51-.96,.33,0,.66,.04,.98,.13,.32,.09,.64,.22,.96,.4v1.19c-.3-.27-.6-.46-.9-.58-.3-.12-.65-.18-1.03-.18-.71,0-1.26,.23-1.64,.69-.38,.46-.57,1.12-.57,1.97s.19,1.51,.58,1.97,.93,.69,1.64,.69c.4,0,.75-.06,1.06-.18,.31-.12,.6-.31,.87-.56v1.18Z"/><path class="cls-1" d="M72.29,288.92c.96,0,1.69,.31,2.2,.93,.51,.62,.76,1.52,.76,2.7s-.25,2.08-.76,2.7c-.51,.62-1.24,.93-2.2,.93s-1.69-.31-2.2-.93c-.51-.62-.76-1.52-.76-2.7s.25-2.08,.76-2.7c.51-.62,1.24-.93,2.2-.93Zm0,.96c-.58,0-1.01,.22-1.31,.67-.3,.45-.44,1.11-.44,1.99s.15,1.54,.44,1.99c.3,.45,.73,.68,1.31,.68s1.02-.22,1.31-.68c.3-.45,.44-1.11,.44-1.99s-.15-1.54-.44-1.99c-.3-.45-.73-.67-1.31-.67Z"/><path class="cls-1" d="M82.71,291.72v4.28h-1.14v-4.28c0-.62-.11-1.08-.33-1.37-.22-.29-.56-.44-1.02-.44-.53,0-.94,.19-1.23,.56-.29,.38-.43,.92-.43,1.62v3.91h-1.14v-6.91h1.14v1.04c.2-.39,.48-.69,.82-.9,.35-.2,.75-.31,1.23-.31,.7,0,1.23,.23,1.58,.69,.35,.46,.52,1.16,.52,2.1Z"/><path class="cls-1" d="M89.97,289.33v1.11c-.33-.19-.65-.33-.98-.43s-.66-.14-1.01-.14c-.51,0-.9,.08-1.15,.25-.25,.17-.38,.42-.38,.76,0,.31,.09,.54,.28,.69,.19,.15,.66,.3,1.41,.44l.46,.09c.56,.11,.99,.32,1.28,.64,.29,.32,.44,.74,.44,1.25,0,.68-.24,1.22-.73,1.6-.49,.38-1.16,.58-2.02,.58-.34,0-.7-.04-1.07-.11-.37-.07-.78-.18-1.22-.32v-1.17c.42,.22,.83,.38,1.22,.49,.39,.11,.75,.16,1.1,.16,.5,0,.89-.1,1.17-.31,.28-.2,.41-.49,.41-.85,0-.53-.5-.89-1.51-1.09h-.05l-.43-.1c-.65-.13-1.13-.34-1.43-.64-.3-.3-.45-.71-.45-1.24,0-.66,.22-1.17,.67-1.53,.45-.36,1.09-.54,1.92-.54,.37,0,.73,.03,1.07,.1,.34,.07,.68,.17,1.01,.31Z"/><path class="cls-1" d="M95.5,288.92c.96,0,1.69,.31,2.2,.93,.51,.62,.76,1.52,.76,2.7s-.25,2.08-.76,2.7c-.51,.62-1.24,.93-2.2,.93s-1.69-.31-2.2-.93c-.51-.62-.76-1.52-.76-2.7s.25-2.08,.76-2.7c.51-.62,1.24-.93,2.2-.93Zm0,.96c-.58,0-1.01,.22-1.31,.67-.3,.45-.44,1.11-.44,1.99s.15,1.54,.44,1.99c.3,.45,.73,.68,1.31,.68s1.02-.22,1.31-.68c.3-.45,.44-1.11,.44-1.99s-.15-1.54-.44-1.99c-.3-.45-.73-.67-1.31-.67Z"/><path class="cls-1" d="M103.87,293.5c0,.51,.09,.9,.28,1.15,.19,.26,.46,.39,.83,.39h1.33v.96h-1.44c-.68,0-1.2-.22-1.58-.65-.37-.43-.56-1.05-.56-1.85v-6.25h-1.82v-.89h2.96v7.14Z"/><path class="cls-1" d="M114.08,291.98v.56h-4.92v.04c-.03,.94,.15,1.62,.54,2.03,.39,.41,.95,.62,1.66,.62,.36,0,.74-.06,1.14-.17s.82-.29,1.27-.52v1.13c-.43,.18-.85,.31-1.25,.4-.4,.09-.79,.13-1.16,.13-1.07,0-1.91-.32-2.52-.97-.6-.64-.91-1.53-.91-2.66s.3-1.98,.89-2.64c.59-.66,1.38-.99,2.37-.99,.88,0,1.57,.3,2.08,.89,.51,.6,.78,1.32,.81,2.16Zm-1.14-.33c-.05-.48-.22-.89-.52-1.24s-.73-.52-1.29-.52-1,.18-1.35,.54c-.35,.36-.55,.77-.58,1.22h3.74Z"/><path class="cls-1" d="M117.31,293.51h2.17v2.49h-2.17v-2.49Z"/><path class="cls-1" d="M127.08,293.5c0,.51,.09,.9,.28,1.15,.19,.26,.46,.39,.83,.39h1.33v.96h-1.44c-.68,0-1.2-.22-1.58-.65-.37-.43-.56-1.05-.56-1.85v-6.25h-1.82v-.89h2.96v7.14Z"/><path class="cls-1" d="M134.18,288.92c.96,0,1.69,.31,2.2,.93,.51,.62,.76,1.52,.76,2.7s-.25,2.08-.76,2.7c-.51,.62-1.24,.93-2.2,.93s-1.69-.31-2.2-.93c-.51-.62-.76-1.52-.76-2.7s.25-2.08,.76-2.7c.51-.62,1.24-.93,2.2-.93Zm0,.96c-.58,0-1.01,.22-1.31,.67-.3,.45-.44,1.11-.44,1.99s.15,1.54,.44,1.99c.3,.45,.73,.68,1.31,.68s1.02-.22,1.31-.68c.3-.45,.44-1.11,.44-1.99s-.15-1.54-.44-1.99c-.3-.45-.73-.67-1.31-.67Z"/><path class="cls-1" d="M144.54,295.56c0,1.04-.25,1.82-.73,2.36-.49,.54-1.21,.8-2.16,.8-.31,0-.64-.03-.98-.09-.34-.06-.68-.14-1.02-.25v-1.12c.4,.19,.77,.33,1.1,.42,.33,.09,.63,.14,.91,.14,.61,0,1.06-.17,1.34-.5,.28-.33,.42-.86,.42-1.59v-.82c-.18,.39-.43,.67-.74,.86-.31,.19-.69,.28-1.14,.28-.81,0-1.45-.32-1.93-.97-.48-.65-.72-1.51-.72-2.59s.24-1.95,.72-2.6c.48-.65,1.12-.97,1.93-.97,.44,0,.82,.09,1.13,.27s.56,.45,.75,.82v-.89h1.14v6.44Zm-1.14-3.07c0-.85-.14-1.5-.42-1.94s-.68-.66-1.21-.66-.98,.22-1.27,.66c-.29,.44-.44,1.09-.44,1.94s.15,1.5,.44,1.95c.29,.45,.72,.67,1.28,.67,.52,0,.92-.22,1.2-.67s.42-1.1,.42-1.94Z"/><path class="cls-1" d="M151.13,285.79c-.55,.94-.96,1.87-1.23,2.8s-.4,1.87-.4,2.82,.13,1.88,.4,2.81c.27,.93,.68,1.87,1.23,2.82h-.99c-.62-.98-1.08-1.93-1.39-2.86-.3-.93-.46-1.85-.46-2.77s.15-1.84,.46-2.77c.3-.93,.77-1.88,1.39-2.85h.99Z"/><path class="cls-1" d="M157.76,289.79c.14-.3,.32-.52,.53-.66s.48-.21,.78-.21c.56,0,.95,.21,1.18,.64,.23,.43,.34,1.24,.34,2.43v4.01h-1.04v-3.96c0-.98-.05-1.58-.16-1.82-.11-.24-.31-.36-.6-.36-.33,0-.55,.13-.68,.38s-.18,.85-.18,1.79v3.96h-1.04v-3.96c0-.99-.06-1.6-.18-1.83-.12-.23-.33-.35-.63-.35s-.51,.13-.63,.38-.18,.85-.18,1.79v3.96h-1.03v-6.91h1.03v.59c.14-.25,.31-.43,.51-.56,.2-.13,.44-.19,.69-.19,.31,0,.57,.07,.78,.22,.21,.14,.37,.36,.48,.65Z"/><path class="cls-1" d="M166.62,293.78c-.19,.48-.43,1.12-.72,1.9-.41,1.09-.68,1.75-.82,1.99-.19,.32-.43,.56-.71,.72-.28,.16-.62,.24-.99,.24h-.91v-.95h.67c.33,0,.59-.1,.78-.29,.19-.19,.43-.69,.72-1.5l-2.67-6.8h1.2l2.05,5.41,2.02-5.41h1.2l-1.82,4.69Z"/><path class="cls-1" d="M172.86,294.95l2.17-8.17h1.29l-2.7,9.21h-1.51l-2.7-9.21h1.29l2.16,8.17Z"/><path class="cls-1" d="M183.33,292.06v3.94h-1.14v-1.02c-.24,.41-.55,.71-.92,.91s-.82,.29-1.34,.29c-.7,0-1.27-.2-1.69-.6-.42-.4-.63-.93-.63-1.59,0-.77,.26-1.35,.77-1.75,.52-.4,1.27-.6,2.27-.6h1.52v-.18c0-.55-.14-.95-.42-1.2-.28-.25-.72-.37-1.32-.37-.39,0-.78,.06-1.17,.17-.4,.11-.78,.27-1.15,.49v-1.14c.42-.16,.82-.28,1.21-.36s.76-.12,1.12-.12c.57,0,1.06,.08,1.47,.25s.73,.42,.98,.76c.16,.21,.27,.46,.33,.76,.07,.3,.1,.76,.1,1.36Zm-2.2,.47h-.38c-.66,0-1.16,.12-1.5,.35s-.5,.58-.5,1.04c0,.42,.13,.74,.38,.97s.6,.35,1.04,.35c.63,0,1.12-.22,1.48-.65,.36-.43,.54-1.03,.54-1.8v-.25h-1.06Z"/><path class="cls-1" d="M191.66,290.51c-.24-.19-.49-.33-.74-.41-.25-.09-.53-.13-.83-.13-.71,0-1.25,.22-1.62,.67s-.56,1.09-.56,1.93v3.44h-1.14v-6.91h1.14v1.35c.19-.49,.48-.87,.87-1.13,.39-.26,.86-.39,1.4-.39,.28,0,.54,.04,.78,.1,.24,.07,.48,.18,.7,.33v1.16Z"/><path class="cls-1" d="M194.42,285.79h.99c.62,.97,1.08,1.92,1.39,2.85,.3,.93,.46,1.85,.46,2.77s-.15,1.85-.46,2.78c-.3,.93-.77,1.88-1.39,2.85h-.99c.55-.95,.96-1.9,1.23-2.83,.27-.93,.4-1.87,.4-2.8s-.13-1.87-.4-2.81c-.27-.93-.68-1.87-1.23-2.81Z"/><path class="cls-1" d="M261.49,286.79h1.17l-4.85,10.39h-1.18l4.86-10.39Z"/><path class="cls-1" d="M269.22,286.79h1.17l-4.85,10.39h-1.18l4.86-10.39Z"/><path class="cls-1" d="M286.12,291.98v.56h-4.92v.04c-.03,.94,.15,1.62,.54,2.03,.39,.41,.95,.62,1.66,.62,.36,0,.74-.06,1.14-.17s.82-.29,1.27-.52v1.13c-.43,.18-.85,.31-1.25,.4-.4,.09-.79,.13-1.16,.13-1.07,0-1.91-.32-2.52-.97-.6-.64-.91-1.53-.91-2.66s.3-1.98,.89-2.64c.59-.66,1.38-.99,2.37-.99,.88,0,1.57,.3,2.08,.89,.51,.6,.78,1.32,.81,2.16Zm-1.14-.33c-.05-.48-.22-.89-.52-1.24s-.73-.52-1.29-.52-1,.18-1.35,.54c-.35,.36-.55,.77-.58,1.22h3.74Z"/><path class="cls-1" d="M294.07,290.51c-.24-.19-.49-.33-.74-.41-.25-.09-.53-.13-.83-.13-.71,0-1.25,.22-1.62,.67s-.56,1.09-.56,1.93v3.44h-1.14v-6.91h1.14v1.35c.19-.49,.48-.87,.87-1.13,.39-.26,.86-.39,1.4-.39,.28,0,.54,.04,.78,.1,.24,.07,.48,.18,.7,.33v1.16Z"/><path class="cls-1" d="M301.81,290.51c-.24-.19-.49-.33-.74-.41-.25-.09-.53-.13-.83-.13-.71,0-1.25,.22-1.62,.67s-.56,1.09-.56,1.93v3.44h-1.14v-6.91h1.14v1.35c.19-.49,.48-.87,.87-1.13,.39-.26,.86-.39,1.4-.39,.28,0,.54,.04,.78,.1,.24,.07,.48,.18,.7,.33v1.16Z"/><path class="cls-1" d="M306.22,288.92c.96,0,1.69,.31,2.2,.93,.51,.62,.76,1.52,.76,2.7s-.25,2.08-.76,2.7c-.51,.62-1.24,.93-2.2,.93s-1.69-.31-2.2-.93c-.51-.62-.76-1.52-.76-2.7s.25-2.08,.76-2.7c.51-.62,1.24-.93,2.2-.93Zm0,.96c-.58,0-1.01,.22-1.31,.67-.3,.45-.44,1.11-.44,1.99s.15,1.54,.44,1.99c.3,.45,.73,.68,1.31,.68s1.02-.22,1.31-.68c.3-.45,.44-1.11,.44-1.99s-.15-1.54-.44-1.99c-.3-.45-.73-.67-1.31-.67Z"/><path class="cls-1" d="M317.28,290.51c-.24-.19-.49-.33-.74-.41-.25-.09-.53-.13-.83-.13-.71,0-1.25,.22-1.62,.67s-.56,1.09-.56,1.93v3.44h-1.14v-6.91h1.14v1.35c.19-.49,.48-.87,.87-1.13,.39-.26,.86-.39,1.4-.39,.28,0,.54,.04,.78,.1,.24,.07,.48,.18,.7,.33v1.16Z"/><path class="cls-1" d="M28.02,307.69c.87,0,1.54,.36,1.98,1.07,.45,.71,.67,1.77,.67,3.17s-.22,2.45-.67,3.17-1.11,1.07-1.98,1.07-1.54-.36-1.98-1.07-.67-1.77-.67-3.17,.22-2.45,.67-3.17c.45-.71,1.11-1.07,1.98-1.07Zm0,.88c-.52,0-.9,.28-1.16,.83-.25,.55-.38,1.4-.38,2.53,0,.52,.03,1,.1,1.45l2.56-4.08c-.28-.49-.65-.73-1.12-.73Zm0,6.72c.52,0,.91-.28,1.16-.83s.38-1.4,.38-2.53c0-.6-.04-1.15-.11-1.63l-2.61,4.09c.27,.6,.67,.91,1.18,.91Z"/><path class="cls-1" d="M33.57,315.07h3.76v.93h-4.98v-.93c.68-.72,1.28-1.36,1.79-1.91s.87-.94,1.06-1.17c.37-.45,.61-.81,.74-1.08,.13-.28,.19-.56,.19-.85,0-.46-.13-.82-.4-1.08s-.64-.39-1.11-.39c-.33,0-.68,.06-1.05,.18-.37,.12-.75,.3-1.16,.55v-1.12c.38-.18,.75-.31,1.11-.41,.36-.09,.72-.14,1.08-.14,.8,0,1.45,.21,1.93,.64,.49,.43,.73,.99,.73,1.68,0,.35-.08,.7-.24,1.05-.16,.35-.43,.74-.79,1.16-.2,.24-.5,.57-.89,.99-.39,.42-.98,1.05-1.78,1.89Z"/><path class="cls-1" d="M64.92,309.79c.14-.3,.32-.52,.53-.66s.48-.21,.78-.21c.56,0,.95,.21,1.18,.64,.23,.43,.34,1.24,.34,2.43v4.01h-1.04v-3.96c0-.98-.05-1.58-.16-1.82-.11-.24-.31-.36-.6-.36-.33,0-.55,.13-.68,.38s-.18,.85-.18,1.79v3.96h-1.04v-3.96c0-.99-.06-1.6-.18-1.83-.12-.23-.33-.35-.63-.35s-.51,.13-.63,.38-.18,.85-.18,1.79v3.96h-1.03v-6.91h1.03v.59c.14-.25,.31-.43,.51-.56,.2-.13,.44-.19,.69-.19,.31,0,.57,.07,.78,.22,.21,.14,.37,.36,.48,.65Z"/><path class="cls-1" d="M73.78,313.78c-.19,.48-.43,1.12-.72,1.9-.41,1.09-.68,1.75-.82,1.99-.19,.32-.43,.56-.71,.72-.28,.16-.62,.24-.99,.24h-.91v-.95h.67c.33,0,.59-.1,.78-.29,.19-.19,.43-.69,.72-1.5l-2.67-6.8h1.2l2.05,5.41,2.02-5.41h1.2l-1.82,4.69Z"/><path class="cls-1" d="M80.03,314.95l2.17-8.17h1.29l-2.7,9.21h-1.51l-2.7-9.21h1.29l2.16,8.17Z"/><path class="cls-1" d="M90.5,312.06v3.94h-1.14v-1.02c-.24,.41-.55,.71-.92,.91s-.82,.29-1.34,.29c-.7,0-1.27-.2-1.69-.6-.42-.4-.63-.93-.63-1.59,0-.77,.26-1.35,.77-1.75,.52-.4,1.27-.6,2.27-.6h1.52v-.18c0-.55-.14-.95-.42-1.2-.28-.25-.72-.37-1.32-.37-.39,0-.78,.06-1.17,.17-.4,.11-.78,.27-1.15,.49v-1.14c.42-.16,.82-.28,1.21-.36s.76-.12,1.12-.12c.57,0,1.06,.08,1.47,.25s.73,.42,.98,.76c.16,.21,.27,.46,.33,.76,.07,.3,.1,.76,.1,1.36Zm-2.2,.47h-.38c-.66,0-1.16,.12-1.5,.35s-.5,.58-.5,1.04c0,.42,.13,.74,.38,.97s.6,.35,1.04,.35c.63,0,1.12-.22,1.48-.65,.36-.43,.54-1.03,.54-1.8v-.25h-1.06Z"/><path class="cls-1" d="M98.82,310.51c-.24-.19-.49-.33-.74-.41-.25-.09-.53-.13-.83-.13-.71,0-1.25,.22-1.62,.67s-.56,1.09-.56,1.93v3.44h-1.14v-6.91h1.14v1.35c.19-.49,.48-.87,.87-1.13,.39-.26,.86-.39,1.4-.39,.28,0,.54,.04,.78,.1,.24,.07,.48,.18,.7,.33v1.16Z"/><path class="cls-1" d="M107.71,310.01h6.52v1.04h-6.52v-1.04Zm0,2.91h6.52v1.04h-6.52v-1.04Z"/><path class="cls-1" d="M124.31,314.96h1.94v-6.96l-2.32,1.12v-1.2l2.31-1.1h1.25v8.14h1.91v1.04h-5.09v-1.04Z"/><path class="cls-1" d="M261.49,306.79h1.17l-4.85,10.39h-1.18l4.86-10.39Z"/><path class="cls-1" d="M269.22,306.79h1.17l-4.85,10.39h-1.18l4.86-10.39Z"/><path class="cls-1" d="M282.68,305.78h2.62v.88h-1.48v9.5h1.48v.88h-2.62v-11.27Z"/><path class="cls-1" d="M293.86,311.98v.56h-4.92v.04c-.03,.94,.15,1.62,.54,2.03,.39,.41,.95,.62,1.66,.62,.36,0,.74-.06,1.14-.17s.82-.29,1.27-.52v1.13c-.43,.18-.85,.31-1.25,.4-.4,.09-.79,.13-1.16,.13-1.07,0-1.91-.32-2.52-.97-.6-.64-.91-1.53-.91-2.66s.3-1.98,.89-2.64c.59-.66,1.38-.99,2.37-.99,.88,0,1.57,.3,2.08,.89,.51,.6,.78,1.32,.81,2.16Zm-1.14-.33c-.05-.48-.22-.89-.52-1.24s-.73-.52-1.29-.52-1,.18-1.35,.54c-.35,.36-.55,.77-.58,1.22h3.74Z"/><path class="cls-1" d="M301.58,309.09l-2.48,3.31,2.72,3.6h-1.31l-2.02-2.77-2.02,2.77h-1.31l2.72-3.6-2.47-3.31h1.26l1.83,2.5,1.82-2.5h1.28Z"/><path class="cls-1" d="M304.37,309.11h2.91v6h2.25v.88h-5.64v-.88h2.25v-5.12h-1.77v-.88Zm1.77-2.68h1.14v1.43h-1.14v-1.43Z"/><path class="cls-1" d="M313.94,307.12v1.96h2.58v.88h-2.58v3.75c0,.51,.1,.87,.29,1.07,.19,.2,.53,.3,1.01,.3h1.28v.91h-1.39c-.85,0-1.45-.17-1.8-.51-.35-.34-.52-.93-.52-1.76v-3.75h-1.85v-.88h1.85v-1.96h1.14Z"/><path class="cls-1" d="M329.42,307.12v1.96h2.58v.88h-2.58v3.75c0,.51,.1,.87,.29,1.07,.19,.2,.53,.3,1.01,.3h1.28v.91h-1.39c-.85,0-1.45-.17-1.8-.51-.35-.34-.52-.93-.52-1.76v-3.75h-1.85v-.88h1.85v-1.96h1.14Z"/><path class="cls-1" d="M339.85,311.72v4.28h-1.14v-4.28c0-.62-.11-1.08-.33-1.37-.22-.29-.56-.44-1.02-.44-.53,0-.94,.19-1.23,.56-.29,.38-.43,.92-.43,1.62v3.91h-1.14v-9.6h1.14v3.73c.2-.39,.48-.69,.82-.9,.35-.2,.75-.31,1.23-.31,.7,0,1.23,.23,1.58,.69,.35,.46,.52,1.16,.52,2.1Z"/><path class="cls-1" d="M348.01,311.98v.56h-4.92v.04c-.03,.94,.15,1.62,.54,2.03,.39,.41,.95,.62,1.66,.62,.36,0,.74-.06,1.14-.17s.82-.29,1.27-.52v1.13c-.43,.18-.85,.31-1.25,.4-.4,.09-.79,.13-1.16,.13-1.07,0-1.91-.32-2.52-.97-.6-.64-.91-1.53-.91-2.66s.3-1.98,.89-2.64c.59-.66,1.38-.99,2.37-.99,.88,0,1.57,.3,2.08,.89,.51,.6,.78,1.32,.81,2.16Zm-1.14-.33c-.05-.48-.22-.89-.52-1.24s-.73-.52-1.29-.52-1,.18-1.35,.54c-.35,.36-.55,.77-.58,1.22h3.74Z"/><path class="cls-1" d="M356.86,306.79h7.03v1.05h-2.88v8.17h-1.25v-8.17h-2.89v-1.05Z"/><path class="cls-1" d="M367.02,306.79c1.41,0,2.44,.38,3.11,1.12,.67,.75,1,1.91,1,3.49s-.33,2.73-1,3.48-1.7,1.12-3.11,1.12h-1.87v-9.21h1.87Zm-.02,8.19c1.05,0,1.78-.26,2.2-.77s.62-1.45,.62-2.8-.21-2.3-.62-2.82c-.41-.52-1.15-.78-2.2-.78h-.59v7.17h.59Z"/><path class="cls-1" d="M373.14,306.79h5.98v.95l-4.81,7.21h4.95v1.05h-6.25v-.95l4.68-7.21h-4.55v-1.05Z"/><path class="cls-1" d="M384.22,305.78v11.27h-2.62v-.88h1.48v-9.5h-1.48v-.88h2.62Z"/></g><g><path class="cls-1" d="M1.16,10.4H3.2V4.42l-1.9,.47v-1.64l1.91-.46h1.76v7.61h2.04v1.6H1.16v-1.6Z"/><path class="cls-1" d="M10.51,9.74h2.06v2.26h-2.06v-2.26Z"/><path class="cls-1" d="M29.88,11.73c-.29,.15-.59,.26-.91,.33-.32,.07-.65,.11-1,.11-1.24,0-2.19-.41-2.85-1.23-.65-.82-.98-2-.98-3.55s.33-2.74,.98-3.56c.65-.82,1.6-1.23,2.85-1.23,.35,0,.69,.04,1.01,.11,.32,.07,.62,.19,.9,.33v2.02c-.31-.29-.62-.5-.91-.63-.29-.13-.6-.2-.91-.2-.67,0-1.17,.26-1.51,.79-.34,.53-.51,1.31-.51,2.35s.17,1.82,.51,2.35c.34,.53,.84,.79,1.51,.79,.31,0,.62-.07,.91-.2,.29-.13,.6-.34,.91-.63v2.02Z"/><path class="cls-1" d="M31.55,8.55c0-1.12,.29-2,.87-2.65,.58-.65,1.35-.98,2.33-.98s1.76,.33,2.34,.98,.87,1.54,.87,2.65-.29,2-.87,2.65c-.58,.65-1.36,.98-2.34,.98s-1.75-.33-2.33-.98c-.58-.65-.87-1.54-.87-2.65Zm3.2-2.16c-.43,0-.77,.19-1.02,.57-.25,.38-.37,.91-.37,1.59s.12,1.21,.37,1.59c.25,.38,.59,.57,1.02,.57s.78-.19,1.02-.57c.25-.38,.37-.91,.37-1.59s-.12-1.21-.37-1.59c-.25-.38-.59-.57-1.02-.57Z"/><path class="cls-1" d="M42.94,5.78c.14-.29,.31-.51,.52-.65,.21-.14,.47-.21,.77-.21,.6,0,1.01,.21,1.24,.62,.23,.41,.34,1.27,.34,2.57v3.89h-1.48V7.56c0-.51-.04-.86-.12-1.03-.08-.17-.22-.26-.43-.26s-.35,.09-.43,.27c-.08,.18-.12,.52-.12,1.02v4.44h-1.46V7.56c0-.51-.04-.85-.12-1.02-.08-.18-.23-.27-.43-.27s-.35,.09-.43,.26c-.08,.17-.12,.52-.12,1.03v4.44h-1.48V5.09h1.31v.72c.1-.27,.27-.49,.49-.65,.23-.16,.48-.24,.76-.24s.53,.08,.77,.25,.37,.37,.42,.61Z"/><path class="cls-1" d="M49.15,11.02v3.6h-1.8V5.09h1.8v1.04c.19-.4,.44-.7,.75-.9,.31-.2,.67-.3,1.09-.3,.79,0,1.4,.32,1.84,.95,.44,.63,.65,1.53,.65,2.68s-.22,2.07-.66,2.69c-.44,.62-1.07,.94-1.89,.94-.37,0-.7-.1-1-.29-.29-.19-.55-.48-.77-.87Zm2.52-2.49c0-.67-.11-1.19-.33-1.57-.22-.38-.53-.57-.92-.57s-.7,.19-.93,.57c-.23,.38-.34,.9-.34,1.57s.11,1.19,.34,1.57c.23,.38,.53,.57,.93,.57s.7-.19,.92-.57c.22-.38,.33-.9,.33-1.57Z"/><path class="cls-1" d="M55.52,5.09h3.58v5.52h2.25v1.39h-6.31v-1.39h2.25V6.48h-1.77v-1.39Zm1.77-3.36h1.81V3.83h-1.81V1.72Z"/><path class="cls-1" d="M64.28,9.12V3.79h-1.83v-1.39h3.64v6.72c0,.54,.08,.93,.25,1.15,.17,.23,.45,.34,.86,.34h1.44v1.39h-1.95c-.86,0-1.48-.22-1.85-.67s-.56-1.18-.56-2.21Z"/><path class="cls-1" d="M76.43,11.66c-.42,.17-.85,.3-1.28,.39-.44,.09-.9,.13-1.38,.13-1.16,0-2.04-.31-2.65-.93s-.92-1.51-.92-2.68,.29-2.02,.88-2.67,1.39-.98,2.41-.98,1.82,.3,2.39,.91c.57,.61,.85,1.46,.85,2.56v.73h-4.68c0,.54,.16,.95,.48,1.22,.32,.27,.79,.4,1.42,.4,.42,0,.82-.06,1.23-.18s.82-.31,1.27-.57v1.66Zm-1.53-3.89c0-.48-.13-.84-.37-1.08-.24-.25-.58-.37-1.05-.37-.42,0-.75,.13-.99,.38s-.39,.61-.44,1.08h2.85Z"/><path class="cls-1" d="M84.47,6.99c-.2-.18-.43-.32-.69-.41-.27-.09-.56-.14-.87-.14-.38,0-.72,.07-1,.2s-.51,.33-.66,.58c-.1,.16-.17,.35-.21,.57-.04,.22-.06,.56-.06,1.01v3.18h-1.81V5.09h1.81v1.07c.18-.39,.45-.7,.81-.92s.79-.32,1.28-.32c.25,0,.49,.03,.73,.09,.24,.06,.46,.15,.68,.26v1.72Z"/><path class="cls-1" d="M99.64,11.66c-.42,.17-.85,.3-1.28,.39-.44,.09-.9,.13-1.38,.13-1.16,0-2.04-.31-2.65-.93s-.92-1.51-.92-2.68,.29-2.02,.88-2.67,1.39-.98,2.41-.98,1.82,.3,2.39,.91c.57,.61,.85,1.46,.85,2.56v.73h-4.68c0,.54,.16,.95,.48,1.22,.32,.27,.79,.4,1.42,.4,.42,0,.82-.06,1.23-.18s.82-.31,1.27-.57v1.66Zm-1.53-3.89c0-.48-.13-.84-.37-1.08-.24-.25-.58-.37-1.05-.37-.42,0-.75,.13-.99,.38s-.39,.61-.44,1.08h2.85Z"/><path class="cls-1" d="M107.18,7.51v4.49h-1.8V7.79c0-.5-.07-.86-.21-1.08s-.37-.32-.69-.32-.58,.15-.77,.44c-.19,.29-.28,.7-.28,1.22v3.96h-1.8V5.09h1.8v1.04c.13-.38,.35-.68,.65-.89s.68-.31,1.12-.31c.65,0,1.15,.22,1.48,.65,.33,.43,.5,1.08,.5,1.94Z"/><path class="cls-1" d="M112.57,3.12v1.96h2.36v1.39h-2.36v3.27c0,.31,.07,.53,.23,.66,.15,.13,.4,.2,.75,.2h1.39v1.39h-1.52c-1.04,0-1.74-.17-2.1-.5s-.55-.95-.55-1.84v-3.18h-1.77v-1.39h1.77v-1.96h1.81Z"/><path class="cls-1" d="M122.85,11.66c-.42,.17-.85,.3-1.28,.39-.44,.09-.9,.13-1.38,.13-1.16,0-2.04-.31-2.65-.93s-.92-1.51-.92-2.68,.29-2.02,.88-2.67,1.39-.98,2.41-.98,1.82,.3,2.39,.91c.57,.61,.85,1.46,.85,2.56v.73h-4.68c0,.54,.16,.95,.48,1.22,.32,.27,.79,.4,1.42,.4,.42,0,.82-.06,1.23-.18s.82-.31,1.27-.57v1.66Zm-1.53-3.89c0-.48-.13-.84-.37-1.08-.24-.25-.58-.37-1.05-.37-.42,0-.75,.13-.99,.38s-.39,.61-.44,1.08h2.85Z"/><path class="cls-1" d="M130.88,6.99c-.2-.18-.43-.32-.69-.41-.27-.09-.56-.14-.87-.14-.38,0-.72,.07-1,.2s-.51,.33-.66,.58c-.1,.16-.17,.35-.21,.57-.04,.22-.06,.56-.06,1.01v3.18h-1.81V5.09h1.81v1.07c.18-.39,.45-.7,.81-.92s.79-.32,1.28-.32c.25,0,.49,.03,.73,.09,.24,.06,.46,.15,.68,.26v1.72Z"/><path class="cls-1" d="M137.63,5.3v1.58c-.33-.21-.68-.38-1.04-.48-.36-.11-.72-.16-1.08-.16-.4,0-.71,.06-.91,.18-.21,.12-.31,.29-.31,.52,0,.33,.44,.6,1.32,.8l.07,.02,.52,.12c.66,.16,1.14,.41,1.45,.76,.31,.35,.46,.82,.46,1.41,0,.71-.23,1.25-.7,1.6-.47,.36-1.17,.53-2.11,.53-.42,0-.84-.04-1.28-.11-.44-.07-.88-.18-1.33-.32v-1.58c.4,.23,.81,.4,1.22,.52s.81,.18,1.2,.18c.42,0,.75-.06,.96-.18,.22-.12,.33-.3,.33-.54s-.08-.41-.23-.53c-.15-.12-.52-.25-1.1-.39l-.5-.11c-.69-.16-1.2-.4-1.51-.73s-.48-.78-.48-1.34c0-.67,.24-1.18,.72-1.55s1.16-.56,2.03-.56c.39,0,.78,.03,1.17,.1,.39,.06,.77,.16,1.13,.29Z"/><path class="cls-1" d="M153.75,11.48c0,1.11-.25,1.91-.75,2.4-.5,.49-1.31,.74-2.44,.74-.38,0-.75-.03-1.12-.08-.37-.06-.75-.14-1.13-.26v-1.66c.34,.19,.69,.33,1.04,.42,.35,.09,.72,.14,1.09,.14,.51,0,.89-.12,1.13-.36,.24-.24,.36-.62,.36-1.13v-.75c-.18,.33-.41,.57-.7,.73s-.65,.24-1.07,.24c-.79,0-1.42-.31-1.88-.93s-.7-1.46-.7-2.51,.23-1.96,.7-2.6c.46-.64,1.09-.96,1.87-.96,.4,0,.75,.09,1.06,.28,.31,.18,.55,.45,.73,.78v-.88h1.81v6.39Zm-1.81-3.05c0-.62-.12-1.11-.35-1.48-.23-.37-.54-.56-.93-.56s-.68,.19-.92,.56-.35,.87-.35,1.49,.12,1.12,.35,1.49c.23,.37,.54,.56,.92,.56s.69-.19,.93-.56c.23-.37,.35-.87,.35-1.49Z"/><path class="cls-1" d="M157.11,9.12V3.79h-1.83v-1.39h3.64v6.72c0,.54,.08,.93,.25,1.15,.17,.23,.45,.34,.86,.34h1.44v1.39h-1.95c-.86,0-1.48-.22-1.85-.67s-.56-1.18-.56-2.21Z"/><path class="cls-1" d="M163.07,8.55c0-1.12,.29-2,.87-2.65,.58-.65,1.35-.98,2.33-.98s1.76,.33,2.34,.98,.87,1.54,.87,2.65-.29,2-.87,2.65c-.58,.65-1.36,.98-2.34,.98s-1.75-.33-2.33-.98c-.58-.65-.87-1.54-.87-2.65Zm3.2-2.16c-.43,0-.77,.19-1.02,.57-.25,.38-.37,.91-.37,1.59s.12,1.21,.37,1.59c.25,.38,.59,.57,1.02,.57s.78-.19,1.02-.57c.25-.38,.37-.91,.37-1.59s-.12-1.21-.37-1.59c-.25-.38-.59-.57-1.02-.57Z"/><path class="cls-1" d="M172.93,6.07c.22-.38,.48-.67,.77-.86,.29-.19,.63-.29,1-.29,.82,0,1.45,.31,1.89,.94,.44,.62,.66,1.52,.66,2.69s-.22,2.04-.65,2.68c-.44,.63-1.05,.95-1.84,.95-.42,0-.78-.1-1.09-.3-.31-.2-.56-.5-.75-.9v1.02h-1.8V2.4h1.8v3.67Zm2.52,2.49c0-.67-.11-1.19-.33-1.57-.22-.38-.53-.57-.92-.57s-.7,.19-.93,.57c-.23,.38-.34,.9-.34,1.57s.11,1.19,.34,1.57,.53,.57,.93,.57,.7-.19,.92-.57,.33-.9,.33-1.57Z"/><path class="cls-1" d="M184.77,8.06v3.94h-1.8v-.77c-.22,.3-.5,.54-.84,.7-.34,.17-.72,.25-1.13,.25-.79,0-1.4-.21-1.84-.62-.44-.42-.66-1-.66-1.74,0-.81,.26-1.4,.78-1.79s1.33-.58,2.43-.58h1.25v-.3c0-.29-.11-.51-.32-.66s-.52-.23-.94-.23c-.43,0-.85,.05-1.26,.16s-.83,.28-1.27,.52v-1.54c.4-.17,.8-.29,1.22-.36,.41-.08,.85-.12,1.31-.12,1.12,0,1.91,.23,2.37,.68,.45,.46,.68,1.27,.68,2.45Zm-2.52,.7c-.67,0-1.15,.09-1.41,.26-.27,.17-.4,.47-.4,.89,0,.31,.09,.56,.28,.75,.19,.19,.44,.28,.75,.28,.48,0,.85-.18,1.11-.54,.26-.36,.4-.86,.4-1.51v-.12h-.72Z"/><path class="cls-1" d="M188.06,9.12V3.79h-1.83v-1.39h3.64v6.72c0,.54,.08,.93,.25,1.15,.17,.23,.45,.34,.86,.34h1.44v1.39h-1.95c-.86,0-1.48-.22-1.85-.67s-.56-1.18-.56-2.21Z"/><path class="cls-1" d="M207.26,5.3v1.58c-.33-.21-.68-.38-1.04-.48-.36-.11-.72-.16-1.08-.16-.4,0-.71,.06-.91,.18-.21,.12-.31,.29-.31,.52,0,.33,.44,.6,1.32,.8l.07,.02,.52,.12c.66,.16,1.14,.41,1.45,.76,.31,.35,.46,.82,.46,1.41,0,.71-.23,1.25-.7,1.6-.47,.36-1.17,.53-2.11,.53-.42,0-.84-.04-1.28-.11-.44-.07-.88-.18-1.33-.32v-1.58c.4,.23,.81,.4,1.22,.52s.81,.18,1.2,.18c.42,0,.75-.06,.96-.18,.22-.12,.33-.3,.33-.54s-.08-.41-.23-.53c-.15-.12-.52-.25-1.1-.39l-.5-.11c-.69-.16-1.2-.4-1.51-.73s-.48-.78-.48-1.34c0-.67,.24-1.18,.72-1.55s1.16-.56,2.03-.56c.39,0,.78,.03,1.17,.1,.39,.06,.77,.16,1.13,.29Z"/><path class="cls-1" d="M215.43,11.65c-.3,.18-.63,.31-.98,.4-.35,.09-.73,.13-1.13,.13-1.07,0-1.9-.32-2.5-.96-.6-.64-.9-1.53-.9-2.67s.3-2.03,.91-2.68c.6-.64,1.44-.97,2.51-.97,.37,0,.73,.04,1.07,.13,.34,.09,.69,.22,1.03,.4v1.65c-.26-.23-.55-.4-.87-.52-.31-.12-.64-.18-.98-.18-.59,0-1.04,.19-1.36,.56-.32,.38-.48,.91-.48,1.6s.16,1.22,.48,1.59c.32,.37,.77,.55,1.36,.55,.35,0,.68-.06,.98-.18,.3-.12,.59-.29,.86-.53v1.66Z"/><path class="cls-1" d="M217.22,8.55c0-1.12,.29-2,.87-2.65,.58-.65,1.35-.98,2.33-.98s1.76,.33,2.34,.98,.87,1.54,.87,2.65-.29,2-.87,2.65c-.58,.65-1.36,.98-2.34,.98s-1.75-.33-2.33-.98c-.58-.65-.87-1.54-.87-2.65Zm3.2-2.16c-.43,0-.77,.19-1.02,.57-.25,.38-.37,.91-.37,1.59s.12,1.21,.37,1.59c.25,.38,.59,.57,1.02,.57s.78-.19,1.02-.57c.25-.38,.37-.91,.37-1.59s-.12-1.21-.37-1.59c-.25-.38-.59-.57-1.02-.57Z"/><path class="cls-1" d="M227.08,11.02v3.6h-1.8V5.09h1.8v1.04c.19-.4,.44-.7,.75-.9,.31-.2,.67-.3,1.09-.3,.79,0,1.4,.32,1.84,.95,.44,.63,.65,1.53,.65,2.68s-.22,2.07-.66,2.69c-.44,.62-1.07,.94-1.89,.94-.37,0-.7-.1-1-.29-.29-.19-.55-.48-.77-.87Zm2.52-2.49c0-.67-.11-1.19-.33-1.57-.22-.38-.53-.57-.92-.57s-.7,.19-.93,.57c-.23,.38-.34,.9-.34,1.57s.11,1.19,.34,1.57c.23,.38,.53,.57,.93,.57s.7-.19,.92-.57c.22-.38,.33-.9,.33-1.57Z"/><path class="cls-1" d="M238.89,11.66c-.42,.17-.85,.3-1.28,.39-.44,.09-.9,.13-1.38,.13-1.16,0-2.04-.31-2.65-.93s-.92-1.51-.92-2.68,.29-2.02,.88-2.67,1.39-.98,2.41-.98,1.82,.3,2.39,.91c.57,.61,.85,1.46,.85,2.56v.73h-4.68c0,.54,.16,.95,.48,1.22,.32,.27,.79,.4,1.42,.4,.42,0,.82-.06,1.23-.18s.82-.31,1.27-.57v1.66Zm-1.53-3.89c0-.48-.13-.84-.37-1.08-.24-.25-.58-.37-1.05-.37-.42,0-.75,.13-.99,.38s-.39,.61-.44,1.08h2.85Z"/></g><g><path class="cls-1" d="M2.68,118.4h3.88v1.6H.71v-1.56l.99-1.05c1.17-1.25,1.88-2.01,2.14-2.3,.31-.35,.53-.67,.67-.94,.14-.27,.2-.54,.2-.81,0-.41-.12-.73-.37-.95-.25-.22-.6-.34-1.06-.34-.33,0-.69,.06-1.1,.19-.41,.13-.83,.32-1.27,.56v-1.7c.44-.16,.87-.28,1.29-.37,.42-.08,.83-.13,1.21-.13,.98,0,1.74,.23,2.3,.68s.84,1.08,.84,1.86c0,.36-.06,.7-.18,1.02-.12,.32-.33,.67-.63,1.06-.22,.28-.82,.91-1.8,1.89-.53,.53-.95,.95-1.27,1.27Z"/><path class="cls-1" d="M10.51,117.74h2.06v2.26h-2.06v-2.26Z"/><path class="cls-1" d="M29.88,119.73c-.29,.15-.59,.26-.91,.33-.32,.07-.65,.11-1,.11-1.24,0-2.19-.41-2.85-1.23-.65-.82-.98-2-.98-3.55s.33-2.74,.98-3.56c.65-.82,1.6-1.23,2.85-1.23,.35,0,.69,.04,1.01,.11,.32,.07,.62,.19,.9,.33v2.02c-.31-.29-.62-.5-.91-.63-.29-.13-.6-.2-.91-.2-.67,0-1.17,.26-1.51,.79-.34,.53-.51,1.31-.51,2.35s.17,1.82,.51,2.35c.34,.53,.84,.79,1.51,.79,.31,0,.62-.07,.91-.2,.29-.13,.6-.34,.91-.63v2.02Z"/><path class="cls-1" d="M31.55,116.55c0-1.12,.29-2,.87-2.65,.58-.65,1.35-.98,2.33-.98s1.76,.33,2.34,.98,.87,1.54,.87,2.65-.29,2-.87,2.65c-.58,.65-1.36,.98-2.34,.98s-1.75-.33-2.33-.98c-.58-.65-.87-1.54-.87-2.65Zm3.2-2.16c-.43,0-.77,.19-1.02,.57-.25,.38-.37,.91-.37,1.59s.12,1.21,.37,1.59c.25,.38,.59,.57,1.02,.57s.78-.19,1.02-.57c.25-.38,.37-.91,.37-1.59s-.12-1.21-.37-1.59c-.25-.38-.59-.57-1.02-.57Z"/><path class="cls-1" d="M42.94,113.78c.14-.29,.31-.51,.52-.65,.21-.14,.47-.21,.77-.21,.6,0,1.01,.21,1.24,.62,.23,.41,.34,1.27,.34,2.57v3.89h-1.48v-4.44c0-.51-.04-.86-.12-1.03-.08-.17-.22-.26-.43-.26s-.35,.09-.43,.27c-.08,.18-.12,.52-.12,1.02v4.44h-1.46v-4.44c0-.51-.04-.85-.12-1.02-.08-.18-.23-.27-.43-.27s-.35,.09-.43,.26c-.08,.17-.12,.52-.12,1.03v4.44h-1.48v-6.91h1.31v.72c.1-.27,.27-.49,.49-.65,.23-.16,.48-.24,.76-.24s.53,.08,.77,.25,.37,.37,.42,.61Z"/><path class="cls-1" d="M49.15,119.02v3.6h-1.8v-9.54h1.8v1.04c.19-.4,.44-.7,.75-.9,.31-.2,.67-.3,1.09-.3,.79,0,1.4,.32,1.84,.95,.44,.63,.65,1.53,.65,2.68s-.22,2.07-.66,2.69c-.44,.62-1.07,.94-1.89,.94-.37,0-.7-.1-1-.29-.29-.19-.55-.48-.77-.87Zm2.52-2.49c0-.67-.11-1.19-.33-1.57-.22-.38-.53-.57-.92-.57s-.7,.19-.93,.57c-.23,.38-.34,.9-.34,1.57s.11,1.19,.34,1.57c.23,.38,.53,.57,.93,.57s.7-.19,.92-.57c.22-.38,.33-.9,.33-1.57Z"/><path class="cls-1" d="M55.52,113.09h3.58v5.52h2.25v1.39h-6.31v-1.39h2.25v-4.13h-1.77v-1.39Zm1.77-3.36h1.81v2.11h-1.81v-2.11Z"/><path class="cls-1" d="M64.28,117.12v-5.33h-1.83v-1.39h3.64v6.72c0,.54,.08,.93,.25,1.15,.17,.23,.45,.34,.86,.34h1.44v1.39h-1.95c-.86,0-1.48-.22-1.85-.67s-.56-1.18-.56-2.21Z"/><path class="cls-1" d="M76.43,119.66c-.42,.17-.85,.3-1.28,.39-.44,.09-.9,.13-1.38,.13-1.16,0-2.04-.31-2.65-.93s-.92-1.51-.92-2.68,.29-2.02,.88-2.67,1.39-.98,2.41-.98,1.82,.3,2.39,.91c.57,.61,.85,1.46,.85,2.56v.73h-4.68c0,.54,.16,.95,.48,1.22,.32,.27,.79,.4,1.42,.4,.42,0,.82-.06,1.23-.18s.82-.31,1.27-.57v1.66Zm-1.53-3.89c0-.48-.13-.84-.37-1.08-.24-.25-.58-.37-1.05-.37-.42,0-.75,.13-.99,.38s-.39,.61-.44,1.08h2.85Z"/><path class="cls-1" d="M84.47,114.99c-.2-.18-.43-.32-.69-.41-.27-.09-.56-.14-.87-.14-.38,0-.72,.07-1,.2s-.51,.33-.66,.58c-.1,.16-.17,.35-.21,.57-.04,.22-.06,.56-.06,1.01v3.18h-1.81v-6.91h1.81v1.07c.18-.39,.45-.7,.81-.92s.79-.32,1.28-.32c.25,0,.49,.03,.73,.09,.24,.06,.46,.15,.68,.26v1.72Z"/><path class="cls-1" d="M99.45,115.51v4.49h-1.8v-4.21c0-.5-.07-.85-.21-1.07-.14-.21-.37-.32-.69-.32s-.59,.14-.77,.43-.28,.69-.28,1.21v3.96h-1.8v-9.6h1.8v3.73c.13-.38,.35-.68,.65-.89s.68-.31,1.12-.31c.65,0,1.15,.22,1.48,.65,.33,.43,.5,1.08,.5,1.94Z"/><path class="cls-1" d="M101.18,116.55c0-1.12,.29-2,.87-2.65,.58-.65,1.35-.98,2.33-.98s1.76,.33,2.34,.98,.87,1.54,.87,2.65-.29,2-.87,2.65c-.58,.65-1.36,.98-2.34,.98s-1.75-.33-2.33-.98c-.58-.65-.87-1.54-.87-2.65Zm3.2-2.16c-.43,0-.77,.19-1.02,.57-.25,.38-.37,.91-.37,1.59s.12,1.21,.37,1.59c.25,.38,.59,.57,1.02,.57s.78-.19,1.02-.57c.25-.38,.37-.91,.37-1.59s-.12-1.21-.37-1.59c-.25-.38-.59-.57-1.02-.57Z"/><path class="cls-1" d="M109.67,113.09h3.58v5.52h2.25v1.39h-6.31v-1.39h2.25v-4.13h-1.77v-1.39Zm1.77-3.36h1.81v2.11h-1.81v-2.11Z"/><path class="cls-1" d="M122.16,113.3v1.58c-.33-.21-.68-.38-1.04-.48-.36-.11-.72-.16-1.08-.16-.4,0-.71,.06-.91,.18-.21,.12-.31,.29-.31,.52,0,.33,.44,.6,1.32,.8l.07,.02,.52,.12c.66,.16,1.14,.41,1.45,.76,.31,.35,.46,.82,.46,1.41,0,.71-.23,1.25-.7,1.6-.47,.36-1.17,.53-2.11,.53-.42,0-.84-.04-1.28-.11-.44-.07-.88-.18-1.33-.32v-1.58c.4,.23,.81,.4,1.22,.52s.81,.18,1.2,.18c.42,0,.75-.06,.96-.18,.22-.12,.33-.3,.33-.54s-.08-.41-.23-.53c-.15-.12-.52-.25-1.1-.39l-.5-.11c-.69-.16-1.2-.4-1.51-.73s-.48-.78-.48-1.34c0-.67,.24-1.18,.72-1.55s1.16-.56,2.03-.56c.39,0,.78,.03,1.17,.1,.39,.06,.77,.16,1.13,.29Z"/><path class="cls-1" d="M128.04,111.12v1.96h2.36v1.39h-2.36v3.27c0,.31,.07,.53,.23,.66,.15,.13,.4,.2,.75,.2h1.39v1.39h-1.52c-1.04,0-1.74-.17-2.1-.5s-.55-.95-.55-1.84v-3.18h-1.77v-1.39h1.77v-1.96h1.81Z"/><path class="cls-1" d="M137.63,113.3v1.58c-.33-.21-.68-.38-1.04-.48-.36-.11-.72-.16-1.08-.16-.4,0-.71,.06-.91,.18-.21,.12-.31,.29-.31,.52,0,.33,.44,.6,1.32,.8l.07,.02,.52,.12c.66,.16,1.14,.41,1.45,.76,.31,.35,.46,.82,.46,1.41,0,.71-.23,1.25-.7,1.6-.47,.36-1.17,.53-2.11,.53-.42,0-.84-.04-1.28-.11-.44-.07-.88-.18-1.33-.32v-1.58c.4,.23,.81,.4,1.22,.52s.81,.18,1.2,.18c.42,0,.75-.06,.96-.18,.22-.12,.33-.3,.33-.54s-.08-.41-.23-.53c-.15-.12-.52-.25-1.1-.39l-.5-.11c-.69-.16-1.2-.4-1.51-.73s-.48-.78-.48-1.34c0-.67,.24-1.18,.72-1.55s1.16-.56,2.03-.56c.39,0,.78,.03,1.17,.1,.39,.06,.77,.16,1.13,.29Z"/><path class="cls-1" d="M151.25,113.78c.14-.29,.31-.51,.52-.65,.21-.14,.47-.21,.77-.21,.6,0,1.01,.21,1.24,.62,.23,.41,.34,1.27,.34,2.57v3.89h-1.48v-4.44c0-.51-.04-.86-.12-1.03-.08-.17-.22-.26-.43-.26s-.35,.09-.43,.27c-.08,.18-.12,.52-.12,1.02v4.44h-1.46v-4.44c0-.51-.04-.85-.12-1.02-.08-.18-.23-.27-.43-.27s-.35,.09-.43,.26c-.08,.17-.12,.52-.12,1.03v4.44h-1.48v-6.91h1.31v.72c.1-.27,.27-.49,.49-.65,.23-.16,.48-.24,.76-.24s.53,.08,.77,.25,.37,.37,.42,.61Z"/><path class="cls-1" d="M159.11,120.75c-.24,.65-.53,1.12-.87,1.42-.34,.3-.75,.45-1.24,.45h-1.49v-1.38h.73c.37,0,.64-.06,.81-.19,.17-.13,.35-.42,.52-.87l.14-.37-2.63-6.72h1.9l1.58,4.49,1.51-4.49h1.9l-2.87,7.66Z"/><path class="cls-1" d="M166.26,118.48l1.62-7.7h1.83l-2.19,9.21h-2.52l-2.19-9.21h1.83l1.62,7.7Z"/><path class="cls-1" d="M177.04,116.06v3.94h-1.8v-.77c-.22,.3-.5,.54-.84,.7-.34,.17-.72,.25-1.13,.25-.79,0-1.4-.21-1.84-.62-.44-.42-.66-1-.66-1.74,0-.81,.26-1.4,.78-1.79s1.33-.58,2.43-.58h1.25v-.3c0-.29-.11-.51-.32-.66s-.52-.23-.94-.23c-.43,0-.85,.05-1.26,.16s-.83,.28-1.27,.52v-1.54c.4-.17,.8-.29,1.22-.36,.41-.08,.85-.12,1.31-.12,1.12,0,1.91,.23,2.37,.68,.45,.46,.68,1.27,.68,2.45Zm-2.52,.7c-.67,0-1.15,.09-1.41,.26-.27,.17-.4,.47-.4,.89,0,.31,.09,.56,.28,.75,.19,.19,.44,.28,.75,.28,.48,0,.85-.18,1.11-.54,.26-.36,.4-.86,.4-1.51v-.12h-.72Z"/><path class="cls-1" d="M185.04,114.99c-.2-.18-.43-.32-.69-.41-.27-.09-.56-.14-.87-.14-.38,0-.72,.07-1,.2s-.51,.33-.66,.58c-.1,.16-.17,.35-.21,.57-.04,.22-.06,.56-.06,1.01v3.18h-1.81v-6.91h1.81v1.07c.18-.39,.45-.7,.81-.92s.79-.32,1.28-.32c.25,0,.49,.03,.73,.09,.24,.06,.46,.15,.68,.26v1.72Z"/><path class="cls-1" d="M196.01,110.4h3.14v1.17h-1.49v8.93h1.49v1.17h-3.14v-11.28Z"/><path class="cls-1" d="M207.95,119.66c-.42,.17-.85,.3-1.28,.39-.44,.09-.9,.13-1.38,.13-1.16,0-2.04-.31-2.65-.93s-.92-1.51-.92-2.68,.29-2.02,.88-2.67,1.39-.98,2.41-.98,1.82,.3,2.39,.91c.57,.61,.85,1.46,.85,2.56v.73h-4.68c0,.54,.16,.95,.48,1.22,.32,.27,.79,.4,1.42,.4,.42,0,.82-.06,1.23-.18s.82-.31,1.27-.57v1.66Zm-1.53-3.89c0-.48-.13-.84-.37-1.08-.24-.25-.58-.37-1.05-.37-.42,0-.75,.13-.99,.38s-.39,.61-.44,1.08h2.85Z"/><path class="cls-1" d="M215.49,115.51v4.49h-1.8v-4.21c0-.5-.07-.86-.21-1.08s-.37-.32-.69-.32-.58,.15-.77,.44c-.19,.29-.28,.7-.28,1.22v3.96h-1.8v-6.91h1.8v1.04c.13-.38,.35-.68,.65-.89s.68-.31,1.12-.31c.65,0,1.15,.22,1.48,.65,.33,.43,.5,1.08,.5,1.94Z"/><path class="cls-1" d="M220.88,111.12v1.96h2.36v1.39h-2.36v3.27c0,.31,.07,.53,.23,.66,.15,.13,.4,.2,.75,.2h1.39v1.39h-1.52c-1.04,0-1.74-.17-2.1-.5s-.55-.95-.55-1.84v-3.18h-1.77v-1.39h1.77v-1.96h1.81Z"/><path class="cls-1" d="M231.15,119.66c-.42,.17-.85,.3-1.28,.39-.44,.09-.9,.13-1.38,.13-1.16,0-2.04-.31-2.65-.93s-.92-1.51-.92-2.68,.29-2.02,.88-2.67,1.39-.98,2.41-.98,1.82,.3,2.39,.91c.57,.61,.85,1.46,.85,2.56v.73h-4.68c0,.54,.16,.95,.48,1.22,.32,.27,.79,.4,1.42,.4,.42,0,.82-.06,1.23-.18s.82-.31,1.27-.57v1.66Zm-1.53-3.89c0-.48-.13-.84-.37-1.08-.24-.25-.58-.37-1.05-.37-.42,0-.75,.13-.99,.38s-.39,.61-.44,1.08h2.85Z"/><path class="cls-1" d="M239.19,114.99c-.2-.18-.43-.32-.69-.41-.27-.09-.56-.14-.87-.14-.38,0-.72,.07-1,.2s-.51,.33-.66,.58c-.1,.16-.17,.35-.21,.57-.04,.22-.06,.56-.06,1.01v3.18h-1.81v-6.91h1.81v1.07c.18-.39,.45-.7,.81-.92s.79-.32,1.28-.32c.25,0,.49,.03,.73,.09,.24,.06,.46,.15,.68,.26v1.72Z"/><path class="cls-1" d="M246.63,119.66c-.42,.17-.85,.3-1.28,.39-.44,.09-.9,.13-1.38,.13-1.16,0-2.04-.31-2.65-.93s-.92-1.51-.92-2.68,.29-2.02,.88-2.67,1.39-.98,2.41-.98,1.82,.3,2.39,.91c.57,.61,.85,1.46,.85,2.56v.73h-4.68c0,.54,.16,.95,.48,1.22,.32,.27,.79,.4,1.42,.4,.42,0,.82-.06,1.23-.18s.82-.31,1.27-.57v1.66Zm-1.53-3.89c0-.48-.13-.84-.37-1.08-.24-.25-.58-.37-1.05-.37-.42,0-.75,.13-.99,.38s-.39,.61-.44,1.08h2.85Z"/><path class="cls-1" d="M252.44,114.07v-3.67h1.8v9.6h-1.8v-1.02c-.19,.4-.44,.7-.75,.9-.31,.2-.67,.3-1.08,.3-.79,0-1.4-.32-1.84-.95-.44-.63-.65-1.53-.65-2.68s.22-2.07,.66-2.69c.44-.63,1.07-.94,1.89-.94,.37,0,.7,.1,1,.29,.29,.19,.55,.48,.77,.86Zm-2.52,2.49c0,.67,.11,1.19,.33,1.57s.53,.57,.92,.57,.7-.19,.93-.57,.34-.9,.34-1.57-.11-1.19-.34-1.57c-.23-.38-.53-.57-.93-.57s-.7,.19-.92,.57c-.22,.38-.33,.9-.33,1.57Z"/><path class="cls-1" d="M267.29,111.12v1.96h2.36v1.39h-2.36v3.27c0,.31,.07,.53,.23,.66,.15,.13,.4,.2,.75,.2h1.39v1.39h-1.52c-1.04,0-1.74-.17-2.1-.5s-.55-.95-.55-1.84v-3.18h-1.77v-1.39h1.77v-1.96h1.81Z"/><path class="cls-1" d="M277.38,115.51v4.49h-1.8v-4.21c0-.5-.07-.85-.21-1.07-.14-.21-.37-.32-.69-.32s-.59,.14-.77,.43-.28,.69-.28,1.21v3.96h-1.8v-9.6h1.8v3.73c.13-.38,.35-.68,.65-.89s.68-.31,1.12-.31c.65,0,1.15,.22,1.48,.65,.33,.43,.5,1.08,.5,1.94Z"/><path class="cls-1" d="M285.31,119.66c-.42,.17-.85,.3-1.28,.39-.44,.09-.9,.13-1.38,.13-1.16,0-2.04-.31-2.65-.93s-.92-1.51-.92-2.68,.29-2.02,.88-2.67,1.39-.98,2.41-.98,1.82,.3,2.39,.91c.57,.61,.85,1.46,.85,2.56v.73h-4.68c0,.54,.16,.95,.48,1.22,.32,.27,.79,.4,1.42,.4,.42,0,.82-.06,1.23-.18s.82-.31,1.27-.57v1.66Zm-1.53-3.89c0-.48-.13-.84-.37-1.08-.24-.25-.58-.37-1.05-.37-.42,0-.75,.13-.99,.38s-.39,.61-.44,1.08h2.85Z"/><path class="cls-1" d="M298.7,120h-1.82v-7.62h-2.34v-1.59h6.5v1.59h-2.34v7.62Z"/><path class="cls-1" d="M302.56,110.79h1.95c1.51,0,2.59,.36,3.25,1.08s.99,1.89,.99,3.52-.33,2.81-.99,3.53c-.66,.72-1.75,1.08-3.25,1.08h-1.95v-9.21Zm1.82,1.64v5.93h.49c.72,0,1.23-.23,1.53-.68,.3-.45,.46-1.22,.46-2.3s-.15-1.83-.46-2.28c-.3-.45-.81-.67-1.53-.67h-.49Z"/><path class="cls-1" d="M310.3,110.79h6.23v1.51l-4.27,6.1h4.36v1.6h-6.46v-1.51l4.14-6.1h-4.01v-1.6Z"/><path class="cls-1" d="M322.41,110.4v11.27h-3.14v-1.17h1.49v-8.92h-1.49v-1.17h3.14Z"/></g><g><path class="cls-1" d="M3.39,243.88h-.98v-1.6h.98c.45,0,.8-.09,1.05-.27,.25-.18,.37-.43,.37-.76,0-.34-.12-.61-.37-.8-.25-.19-.6-.29-1.05-.29-.35,0-.72,.04-1.11,.13-.4,.09-.8,.21-1.23,.38v-1.65c.42-.13,.84-.23,1.25-.29,.41-.07,.81-.1,1.19-.1,.97,0,1.73,.21,2.27,.64s.81,1.01,.81,1.75c0,.55-.16,1-.47,1.34-.31,.35-.76,.58-1.34,.68,.66,.12,1.16,.38,1.51,.79s.52,.95,.52,1.61c0,.89-.29,1.57-.86,2.04-.57,.47-1.4,.7-2.49,.7-.46,0-.92-.04-1.37-.12s-.88-.19-1.29-.34v-1.69c.39,.19,.8,.34,1.25,.44,.45,.1,.92,.15,1.41,.15s.88-.11,1.17-.34,.43-.54,.43-.92c0-.47-.14-.84-.43-1.1-.29-.26-.7-.39-1.22-.39Z"/><path class="cls-1" d="M10.51,245.74h2.06v2.26h-2.06v-2.26Z"/><path class="cls-1" d="M29.88,247.73c-.29,.15-.59,.26-.91,.33-.32,.07-.65,.11-1,.11-1.24,0-2.19-.41-2.85-1.23-.65-.82-.98-2-.98-3.55s.33-2.74,.98-3.56c.65-.82,1.6-1.23,2.85-1.23,.35,0,.69,.04,1.01,.11,.32,.07,.62,.19,.9,.33v2.02c-.31-.29-.62-.5-.91-.63-.29-.13-.6-.2-.91-.2-.67,0-1.17,.26-1.51,.79-.34,.53-.51,1.31-.51,2.35s.17,1.82,.51,2.35c.34,.53,.84,.79,1.51,.79,.31,0,.62-.07,.91-.2,.29-.13,.6-.34,.91-.63v2.02Z"/><path class="cls-1" d="M31.55,244.55c0-1.12,.29-2,.87-2.65,.58-.65,1.35-.98,2.33-.98s1.76,.33,2.34,.98,.87,1.54,.87,2.65-.29,2-.87,2.65c-.58,.65-1.36,.98-2.34,.98s-1.75-.33-2.33-.98c-.58-.65-.87-1.54-.87-2.65Zm3.2-2.16c-.43,0-.77,.19-1.02,.57-.25,.38-.37,.91-.37,1.59s.12,1.21,.37,1.59c.25,.38,.59,.57,1.02,.57s.78-.19,1.02-.57c.25-.38,.37-.91,.37-1.59s-.12-1.21-.37-1.59c-.25-.38-.59-.57-1.02-.57Z"/><path class="cls-1" d="M42.94,241.78c.14-.29,.31-.51,.52-.65,.21-.14,.47-.21,.77-.21,.6,0,1.01,.21,1.24,.62,.23,.41,.34,1.27,.34,2.57v3.89h-1.48v-4.44c0-.51-.04-.86-.12-1.03-.08-.17-.22-.26-.43-.26s-.35,.09-.43,.27c-.08,.18-.12,.52-.12,1.02v4.44h-1.46v-4.44c0-.51-.04-.85-.12-1.02-.08-.18-.23-.27-.43-.27s-.35,.09-.43,.26c-.08,.17-.12,.52-.12,1.03v4.44h-1.48v-6.91h1.31v.72c.1-.27,.27-.49,.49-.65,.23-.16,.48-.24,.76-.24s.53,.08,.77,.25,.37,.37,.42,.61Z"/><path class="cls-1" d="M49.15,247.02v3.6h-1.8v-9.54h1.8v1.04c.19-.4,.44-.7,.75-.9,.31-.2,.67-.3,1.09-.3,.79,0,1.4,.32,1.84,.95,.44,.63,.65,1.53,.65,2.68s-.22,2.07-.66,2.69c-.44,.62-1.07,.94-1.89,.94-.37,0-.7-.1-1-.29-.29-.19-.55-.48-.77-.87Zm2.52-2.49c0-.67-.11-1.19-.33-1.57-.22-.38-.53-.57-.92-.57s-.7,.19-.93,.57c-.23,.38-.34,.9-.34,1.57s.11,1.19,.34,1.57c.23,.38,.53,.57,.93,.57s.7-.19,.92-.57c.22-.38,.33-.9,.33-1.57Z"/><path class="cls-1" d="M55.52,241.09h3.58v5.52h2.25v1.39h-6.31v-1.39h2.25v-4.13h-1.77v-1.39Zm1.77-3.36h1.81v2.11h-1.81v-2.11Z"/><path class="cls-1" d="M64.28,245.12v-5.33h-1.83v-1.39h3.64v6.72c0,.54,.08,.93,.25,1.15,.17,.23,.45,.34,.86,.34h1.44v1.39h-1.95c-.86,0-1.48-.22-1.85-.67s-.56-1.18-.56-2.21Z"/><path class="cls-1" d="M76.43,247.66c-.42,.17-.85,.3-1.28,.39-.44,.09-.9,.13-1.38,.13-1.16,0-2.04-.31-2.65-.93s-.92-1.51-.92-2.68,.29-2.02,.88-2.67,1.39-.98,2.41-.98,1.82,.3,2.39,.91c.57,.61,.85,1.46,.85,2.56v.73h-4.68c0,.54,.16,.95,.48,1.22,.32,.27,.79,.4,1.42,.4,.42,0,.82-.06,1.23-.18s.82-.31,1.27-.57v1.66Zm-1.53-3.89c0-.48-.13-.84-.37-1.08-.24-.25-.58-.37-1.05-.37-.42,0-.75,.13-.99,.38s-.39,.61-.44,1.08h2.85Z"/><path class="cls-1" d="M84.47,242.99c-.2-.18-.43-.32-.69-.41-.27-.09-.56-.14-.87-.14-.38,0-.72,.07-1,.2s-.51,.33-.66,.58c-.1,.16-.17,.35-.21,.57-.04,.22-.06,.56-.06,1.01v3.18h-1.81v-6.91h1.81v1.07c.18-.39,.45-.7,.81-.92s.79-.32,1.28-.32c.25,0,.49,.03,.73,.09,.24,.06,.46,.15,.68,.26v1.72Z"/><path class="cls-1" d="M99.64,247.66c-.42,.17-.85,.3-1.28,.39-.44,.09-.9,.13-1.38,.13-1.16,0-2.04-.31-2.65-.93s-.92-1.51-.92-2.68,.29-2.02,.88-2.67,1.39-.98,2.41-.98,1.82,.3,2.39,.91c.57,.61,.85,1.46,.85,2.56v.73h-4.68c0,.54,.16,.95,.48,1.22,.32,.27,.79,.4,1.42,.4,.42,0,.82-.06,1.23-.18s.82-.31,1.27-.57v1.66Zm-1.53-3.89c0-.48-.13-.84-.37-1.08-.24-.25-.58-.37-1.05-.37-.42,0-.75,.13-.99,.38s-.39,.61-.44,1.08h2.85Z"/><path class="cls-1" d="M107.64,241.09l-2.33,3.31,2.53,3.6h-2.11l-1.36-2.33-1.35,2.33h-2.11l2.56-3.6-2.35-3.31h2.11l1.15,2.06,1.15-2.06h2.11Z"/><path class="cls-1" d="M115.11,247.66c-.42,.17-.85,.3-1.28,.39-.44,.09-.9,.13-1.38,.13-1.16,0-2.04-.31-2.65-.93s-.92-1.51-.92-2.68,.29-2.02,.88-2.67,1.39-.98,2.41-.98,1.82,.3,2.39,.91c.57,.61,.85,1.46,.85,2.56v.73h-4.68c0,.54,.16,.95,.48,1.22,.32,.27,.79,.4,1.42,.4,.42,0,.82-.06,1.23-.18s.82-.31,1.27-.57v1.66Zm-1.53-3.89c0-.48-.13-.84-.37-1.08-.24-.25-.58-.37-1.05-.37-.42,0-.75,.13-.99,.38s-.39,.61-.44,1.08h2.85Z"/><path class="cls-1" d="M122.59,247.65c-.3,.18-.63,.31-.98,.4-.35,.09-.73,.13-1.13,.13-1.07,0-1.9-.32-2.5-.96-.6-.64-.9-1.53-.9-2.67s.3-2.03,.91-2.68c.6-.64,1.44-.97,2.51-.97,.37,0,.73,.04,1.07,.13,.34,.09,.69,.22,1.03,.4v1.65c-.26-.23-.55-.4-.87-.52-.31-.12-.64-.18-.98-.18-.59,0-1.04,.19-1.36,.56-.32,.38-.48,.91-.48,1.6s.16,1.22,.48,1.59c.32,.37,.77,.55,1.36,.55,.35,0,.68-.06,.98-.18,.3-.12,.59-.29,.86-.53v1.66Z"/><path class="cls-1" d="M124.77,245.59v-4.5h1.81v4.22c0,.5,.07,.85,.21,1.07,.14,.21,.37,.32,.7,.32s.58-.14,.76-.43,.27-.69,.27-1.21v-3.97h1.81v6.91h-1.81v-1.02c-.13,.38-.34,.68-.65,.89s-.68,.31-1.11,.31c-.66,0-1.16-.22-1.49-.65-.34-.44-.5-1.08-.5-1.94Z"/><path class="cls-1" d="M135.78,239.12v1.96h2.36v1.39h-2.36v3.27c0,.31,.07,.53,.23,.66,.15,.13,.4,.2,.75,.2h1.39v1.39h-1.52c-1.04,0-1.74-.17-2.1-.5s-.55-.95-.55-1.84v-3.18h-1.77v-1.39h1.77v-1.96h1.81Z"/><path class="cls-1" d="M146.05,247.66c-.42,.17-.85,.3-1.28,.39-.44,.09-.9,.13-1.38,.13-1.16,0-2.04-.31-2.65-.93s-.92-1.51-.92-2.68,.29-2.02,.88-2.67,1.39-.98,2.41-.98,1.82,.3,2.39,.91c.57,.61,.85,1.46,.85,2.56v.73h-4.68c0,.54,.16,.95,.48,1.22,.32,.27,.79,.4,1.42,.4,.42,0,.82-.06,1.23-.18s.82-.31,1.27-.57v1.66Zm-1.53-3.89c0-.48-.13-.84-.37-1.08-.24-.25-.58-.37-1.05-.37-.42,0-.75,.13-.99,.38s-.39,.61-.44,1.08h2.85Z"/><path class="cls-1" d="M153.11,241.3v1.58c-.33-.21-.68-.38-1.04-.48-.36-.11-.72-.16-1.08-.16-.4,0-.71,.06-.91,.18-.21,.12-.31,.29-.31,.52,0,.33,.44,.6,1.32,.8l.07,.02,.52,.12c.66,.16,1.14,.41,1.45,.76,.31,.35,.46,.82,.46,1.41,0,.71-.23,1.25-.7,1.6-.47,.36-1.17,.53-2.11,.53-.42,0-.84-.04-1.28-.11-.44-.07-.88-.18-1.33-.32v-1.58c.4,.23,.81,.4,1.22,.52s.81,.18,1.2,.18c.42,0,.75-.06,.96-.18,.22-.12,.33-.3,.33-.54s-.08-.41-.23-.53c-.15-.12-.52-.25-1.1-.39l-.5-.11c-.69-.16-1.2-.4-1.51-.73s-.48-.78-.48-1.34c0-.67,.24-1.18,.72-1.55s1.16-.56,2.03-.56c.39,0,.78,.03,1.17,.1,.39,.06,.77,.16,1.13,.29Z"/><path class="cls-1" d="M164.85,245.12v-5.33h-1.83v-1.39h3.64v6.72c0,.54,.08,.93,.25,1.15,.17,.23,.45,.34,.86,.34h1.44v1.39h-1.95c-.86,0-1.48-.22-1.85-.67s-.56-1.18-.56-2.21Z"/><path class="cls-1" d="M171.56,241.09h3.58v5.52h2.25v1.39h-6.31v-1.39h2.25v-4.13h-1.77v-1.39Zm1.77-3.36h1.81v2.11h-1.81v-2.11Z"/><path class="cls-1" d="M184.54,243.51v4.49h-1.8v-4.21c0-.5-.07-.86-.21-1.08s-.37-.32-.69-.32-.58,.15-.77,.44c-.19,.29-.28,.7-.28,1.22v3.96h-1.8v-6.91h1.8v1.04c.13-.38,.35-.68,.65-.89s.68-.31,1.12-.31c.65,0,1.15,.22,1.48,.65,.33,.43,.5,1.08,.5,1.94Z"/><path class="cls-1" d="M192.47,247.66c-.42,.17-.85,.3-1.28,.39-.44,.09-.9,.13-1.38,.13-1.16,0-2.04-.31-2.65-.93s-.92-1.51-.92-2.68,.29-2.02,.88-2.67,1.39-.98,2.41-.98,1.82,.3,2.39,.91c.57,.61,.85,1.46,.85,2.56v.73h-4.68c0,.54,.16,.95,.48,1.22,.32,.27,.79,.4,1.42,.4,.42,0,.82-.06,1.23-.18s.82-.31,1.27-.57v1.66Zm-1.53-3.89c0-.48-.13-.84-.37-1.08-.24-.25-.58-.37-1.05-.37-.42,0-.75,.13-.99,.38s-.39,.61-.44,1.08h2.85Z"/><path class="cls-1" d="M202.3,246.4h2.04v-5.98l-1.9,.47v-1.64l1.91-.46h1.76v7.61h2.04v1.6h-5.84v-1.6Z"/></g></g></svg>