<?xml version="1.0" standalone="no"?>
<!DOCTYPE svg PUBLIC "-//W3C//DTD SVG 20010904//EN"
 "http://www.w3.org/TR/2001/REC-SVG-20010904/DTD/svg10.dtd">
<svg version="1.0" xmlns="http://www.w3.org/2000/svg"
 width="342.000000pt" height="342.000000pt" viewBox="0 0 342.000000 342.000000"
 preserveAspectRatio="xMidYMid meet">
<metadata>
Created by potrace 1.14, written by Peter Selinger 2001-2017
</metadata>
<g transform="translate(0.000000,342.000000) scale(0.100000,-0.100000)"
fill="#000000" stroke="none">
<path d="M2185 3341 c-2 -2 -37 -5 -77 -6 -40 -2 -102 -6 -138 -10 -36 -3 -87
-8 -115 -10 -27 -3 -63 -7 -80 -9 -16 -3 -66 -8 -110 -11 -44 -4 -83 -9 -87
-11 -4 -3 -40 -7 -80 -9 -40 -3 -84 -7 -98 -10 -30 -7 -69 -11 -170 -20 -41
-4 -88 -8 -105 -11 -86 -10 -269 -16 -566 -18 -324 -1 -331 -1 -348 -22 -15
-19 -17 -52 -18 -285 -1 -147 -6 -272 -11 -283 -12 -24 -24 -56 -27 -71 -2 -5
-7 -28 -13 -50 -23 -84 -34 -169 -48 -360 -12 -157 -7 -1170 6 -1170 1 0 3
-16 4 -35 4 -53 17 -110 27 -116 5 -3 7 -9 4 -14 -3 -5 9 -35 26 -67 l31 -58
2 -230 c2 -235 6 -269 31 -279 8 -3 204 -6 437 -7 238 -1 438 -6 458 -12 101
-28 584 -42 795 -24 156 14 176 17 188 24 17 10 9 10 584 12 l523 1 15 24 c14
21 16 91 17 575 1 304 5 577 10 609 4 31 10 75 13 97 3 22 8 90 10 150 3 61 5
110 6 110 0 0 2 66 3 148 1 97 -2 147 -9 147 -6 0 -7 3 0 8 8 6 12 71 6 92 -1
3 -4 49 -6 102 -4 102 -10 159 -24 246 -4 29 -9 184 -9 345 -1 161 -1 306 -2
323 0 16 -6 39 -14 50 -13 17 -28 19 -180 20 -134 1 -170 4 -184 16 -48 43
-193 91 -312 103 -63 7 -360 12 -365 6z m-1639 -254 c4 -3 -7 -9 -22 -13 -38
-9 -146 -90 -174 -131 -13 -18 -25 -33 -29 -33 -5 0 -7 183 -2 186 8 4 223 -4
227 -9z m2567 4 c4 -1 7 -25 7 -53 l0 -53 -34 50 c-33 49 -32 66 3 60 9 -2 19
-4 24 -4z m9 -2723 l-4 -78 -246 0 -247 0 75 38 c42 20 98 53 125 74 49 35
115 101 115 114 0 4 9 15 21 25 11 9 21 21 21 26 1 4 12 25 25 46 13 20 33 58
46 85 12 26 25 49 28 52 3 3 12 23 20 44 13 36 14 26 19 -155 3 -107 4 -229 2
-271z m-2782 122 c0 -5 16 -18 35 -30 20 -12 41 -27 48 -33 26 -24 78 -58 134
-87 99 -51 101 -50 -78 -50 l-166 0 1 109 c1 82 4 107 14 104 6 -3 12 -9 12
-13z"/>
</g>
</svg>
