<svg xmlns="http://www.w3.org/2000/svg" width="817.5" height="177.2">
  <path fill="#c9c9c9" d="M42.4 130.3c-24 0-32.4-14.3-32.4-40.6 0-25.7 8.4-41.6 32.4-41.6 7.2 0 12.4.8 15.5 2 .5.1.6.4.6 1l-.6 9c0 .4-.3.8-1 .5-2.8-1-8.1-1.8-13-1.8-14.7 0-18.7 8-18.7 31 0 21.8 4.4 29.4 18.7 29.4 4.2 0 9.4-.7 12.5-1.4.5-.2 1.3-.4 1.5.4l.9 8.7c.1.8-.1 1-.5 1.3-4 1.1-10 2-16 2m50-14.6c2.4 2.5 5.6 3.6 13.6 3.6 8.2 0 11.3-1.1 13.6-3.6 3.8-4 5.7-15 5.7-27.1 0-12.3-1.9-21.9-5.7-25.9-2.3-2.6-5.4-3.6-13.4-3.6-8.2 0-11.4 1.1-13.8 3.6-3.8 4-5.6 13.6-5.6 25.9 0 12 1.8 23 5.6 27m38.5 6.7c-5.2 5.6-13 8-25 8-12.2 0-19.3-2.4-24.5-8a54.3 54.3 0 01-9.6-33.7c0-15 4-26.7 9.6-32.8 5.2-5.7 13-7.6 24.8-7.6 12.2 0 19.5 2 24.7 7.6a52 52 0 019.3 32.8c0 14.7-4 27.5-9.3 33.7m78.4-60.1c0-.7-.4-1.3-1.2-1.7-2.1-.8-7.2-1.4-11.5-1.4-16.8 0-22.1 4.4-22.1 29.2.1 24.4 2.8 31.1 22.8 31.1 3.2 0 8-.1 10.7-1 1.3-.5 1.3-1.1 1.3-1.7zm-50 26.1c0-28.1 11-40.1 37-40.1 5.3 0 10 1 12 1 .7 0 .9-.6.9-1.3V21.4c0-.9.6-1.4 1.6-1.4h11.4c1 0 1.6.5 1.6 1.4v104c0 .8-.6 1.4-1.6 1.6a102 102 0 01-25.2 3.2c-30.1 0-37.7-11.7-37.7-42m102.4-4.8h33.7c1.4 0 1.9-.2 1.9-5.2 0-13.3-4-19.4-17.3-19.4-15.5 0-19.2 10-19.2 23.6 0 .6.1 1 .9 1m21.3 46.7c-30.1 0-37.3-18.4-37.3-41 0-23.4 8.8-41 34.3-41 25 0 30.8 14.7 30.8 34.3v4.1c0 6-1.4 7.3-4 7.3h-45.1c-.8 0-1 .3-1 1.1 0 19.6 9.4 24.4 25.4 24.4 7.2 0 15-2 19.7-4h.8c.7 0 1.2.3 1.4.8l.6 8v.3c0 .6-.2 1.3-.9 1.6a65.8 65.8 0 01-24.5 4.2m138.6-1.6H402c-.7 0-1-.2-1.3-1A2556 2556 0 01386 62.9c-.3-.8-.5-1-1.6-1-1.3 0-1.6.2-1.9 1-4.2 19.5-12.6 52-16.2 64.7-.3.8-.8 1.2-1.8 1.2h-19.3c-.5 0-1-.7-1.2-1.4a1537.3 1537.3 0 01-20.1-76.5c0-1 .2-1.3 1-1.3h13.4c.8 0 .9.5 1 1.3a1383 1383 0 0014.7 65c0 .9.7 1 1.7 1 1.4 0 1.8-.1 1.9-1a2252 2252 0 0014.7-65c.2-1 .6-1.3 1.3-1.3h21c.7 0 1.3.5 1.3 1.3 3.8 18.7 11.3 50.7 14.6 65 .3.9 1 1 2 1 1.2 0 1.5-.1 1.8-1 4-14.5 12-46.2 15.8-65 .3-1 .8-1.3 1.5-1.3h12.5c.6 0 1 .6 1 1.4-2 9.6-16.4 61.1-21.5 76.6-.3.8-.7 1.2-1.7 1.2M502 93.6c0-.7-.4-1-1-1h-13.8c-12.8 0-16.1 2.7-16.1 14.6 0 11.6 2.6 13 17.7 13a68 68 0 0011.7-.8c1.4-.2 1.4-.6 1.4-1zm-35.6-33c-1 .2-2.1.2-2.3-.6l-1-7.4c-.3-.8 0-1.7.8-2a89 89 0 0123.6-2.6c18.9 0 28.6 6.6 28.6 24v53.3c0 1-.4 1.6-2 2.3a96 96 0 01-24 2.5c-26.4 0-34-5.3-34-21.3 0-14.3 3.5-21.9 25.9-24.6l19.2-2.2c.5-.2 1-.3 1-1v-7.4c0-11.5-5-14.3-18-14.3-5.5 0-12.9.7-17.7 1.3m76-9.3a113.9 113.9 0 0138-2.5c.8.1 1 .5 1 1.3l-.7 9.3c0 .6-.4.8-1 .7-4-.7-8-1-13-1-2.7 0-8 .3-10.3 1.5-.9.4-1 1.1-1 1.8v64.9c0 1-.7 1.6-1.8 1.3h-11.3c-1 0-1.5-.5-1.5-1.3V52.6c0-.8.6-1.3 1.5-1.3m46.1 77.3c-.5 0-.9-.2-.9-.9l.7-9.5c0-.4.5-.8 1.2-.6a92 92 0 0016.5 1.6c13 0 15.2-1.4 15.2-10.7 0-5.5-3.2-8.4-15.6-17-12.5-8.9-17.3-12.5-17.3-22 0-15.4 7-21.4 27-21.4 7.1 0 13.2.4 17.4 1.2.4 0 .8.3.8 1l-.6 9.4c0 .5-.6.8-1.3.7-3.9-.7-9.6-1.4-14.7-1.4-11.2 0-15 .7-15 9 0 6.4 3.3 8.6 15.8 16.6 13.1 8.4 17.4 14.2 17.4 23.1 0 17.5-8 22.5-26.7 22.5a124 124 0 01-20-1.4"/>
  <path fill="#b1361e" d="M736 136.8a4.5 4.5 0 016.5 1.6 5.2 5.2 0 017.2-.3 5.7 5.7 0 017.8-3.7c0-3.4 2.8-6 6.1-6.2a7.7 7.7 0 013.5-10.2 6.4 6.4 0 01-.4-8.3 5.9 5.9 0 01-2.7-7.3 5.3 5.3 0 01-4.7-6.2h-.8c-2 0-3.7-1.3-4-3.2v-.1a3.9 3.9 0 01-6-2.3 2.4 2.4 0 01-2.2 0 7.5 7.5 0 01-2 3.5 2.4 2.4 0 011 3.5 3.9 3.9 0 011.9 6.4 4.3 4.3 0 01.3 7.6c.4.5.8.9 1 1.6a5.3 5.3 0 01-3.6 7.6 5.9 5.9 0 01-5.7 8.5 6.4 6.4 0 01-3.7 6.3l.5 1.3"/>
  <path fill="#b1361e" d="M795.5 104c-.8 1.3-2 2.2-3.5 2.6a5.3 5.3 0 01-4.7 8.4v-.2a4.5 4.5 0 01-6.1 5.2 3.7 3.7 0 01-3 3.2 6 6 0 010 2.6 7.7 7.7 0 01-8.3 6.7 6.4 6.4 0 01-9 7.7 5.7 5.7 0 01-9.7 3.4 5.3 5.3 0 01-9.7.5 4.5 4.5 0 01-7.4-2.8l-1.7.3a3.7 3.7 0 01-3.6-3.4c-.8 1.4-2 2.4-3.6 3-4 1.6-8.3-.3-9.9-4a6.4 6.4 0 01-11-4.2 5.7 5.7 0 01-7.6-7 5.3 5.3 0 01-5.1-8.3 4.5 4.5 0 01-1-7.9 3.7 3.7 0 01-1.1-4.8h.1a6 6 0 01-2.8-1.3 7.8 7.8 0 01-1.6-10.7 6.4 6.4 0 01-2-11.6 5.7 5.7 0 012.3-10.1 5.3 5.3 0 014.6-8.5v.1a4.5 4.5 0 016.2-5 3.7 3.7 0 013-3.3l.2.3a7.7 7.7 0 018-9.7l-.3-2.2a6.4 6.4 0 019.3-5.4 5.7 5.7 0 019.8-3.4 5.3 5.3 0 019.7-.5 4.5 4.5 0 017.3 3 3.7 3.7 0 015.4 2.9c.8-1.4 2-2.4 3.6-3.1 4-1.5 8.2.4 9.8 4.1a6.4 6.4 0 0111.1 4.2 5.7 5.7 0 017.6 7 5.3 5.3 0 015 8.3c1.1.4 2 1.2 2.5 2.1.9 2 .4 4.4-1.4 5.8a3.7 3.7 0 011.1 4.8 7.7 7.7 0 014.3 12 5 5 0 012 .9 6.4 6.4 0 010 10.7 5.7 5.7 0 011.3 7.6m5.6-83.9H674.9a6.1 6.1 0 00-6.1 6.1v124.7c0 3.5 2.7 6.3 6.1 6.3h126.3c3.5 0 6.3-2.8 6.3-6.3V26.2c0-3.3-2.8-6.1-6.3-6.1"/>
  <path fill="#b1361e" d="M734.9 39.4a5.2 5.2 0 01-7.2.3 5.7 5.7 0 01-7.7 3.7 6.4 6.4 0 01-6.1 6.2 7.7 7.7 0 01-3.5 10.2 6.4 6.4 0 01.4 8.3 5.9 5.9 0 012.7 7.3 5.3 5.3 0 014.6 6.2h.8c2 0 3.8 1.3 4 3.2a3.9 3.9 0 016 2.4 2.4 2.4 0 012.2-.2 8 8 0 011.7-3.6l-.7-.9c-.4-.7-.2-1.6 0-2.3a3.9 3.9 0 01-1.8-6.4 4.3 4.3 0 01-.2-7.7 5.3 5.3 0 012.4-9 5.9 5.9 0 015.8-8.6 6.4 6.4 0 013.7-6.3l-.5-1.3a4 4 0 01-2.7 1c-1.7 0-3-1.1-3.9-2.5m46.3 47a7.7 7.7 0 01-3-6.7 6.4 6.4 0 01-7.3-4 5.9 5.9 0 01-7.4-1.5 5.3 5.3 0 01-7.8.8l-.4.8a4.3 4.3 0 01-4.9 1.8c0 .8-.3 1.6-.7 2.2a3.8 3.8 0 01-4.4 1.6 2.4 2.4 0 01-.8 1.8c.8.9 1.5 2 1.9 3.2l1-.3c.9 0 1.7.5 2 1.2a3.9 3.9 0 016.6 1.3 4 4 0 012.7-.8 4.3 4.3 0 014.1 4.3 5.3 5.3 0 017 6.7 5.9 5.9 0 014.7 9 6.4 6.4 0 013.2 8h.7a4.5 4.5 0 014.5-4.6 5.2 5.2 0 013.6-6.3 5.7 5.7 0 01.8-8.7 6.4 6.4 0 01-2-8.4 7 7 0 01-4-1.4"/>
  <path fill="#b1361e" d="M781.6 68.9l.5-.5a4.5 4.5 0 01-1.8-6.4 5.3 5.3 0 01-3.6-6.3 5.7 5.7 0 01-7.1-5c-3 1.4-6.7.3-8.3-2.5a7.7 7.7 0 01-10.6 1.9 6.4 6.4 0 01-7.1 4.3 5.9 5.9 0 01-5 5.8 5.3 5.3 0 01-3.3 7.1l.4.7c1 1.8.6 4-.9 5.2h-.1a3.9 3.9 0 01.9 6.2 2.4 2.4 0 011 1.5 7.7 7.7 0 014 0 2.4 2.4 0 012.2-2 3.9 3.9 0 014.7-5c-.2-.9 0-1.8.6-2.6 1.4-2 3.9-2.7 5.9-1.3a5.3 5.3 0 019-2.6 5.9 5.9 0 0110.3.7 6.4 6.4 0 018.3.8m-40.7 28.5c-.1-.4-.2-.9-.1-1.3a7.9 7.9 0 01-3.9 0c0 .5 0 1.2-.4 1.7-.4.7-1.2 1.1-1.8 1.1a3.9 3.9 0 01-4.7 5 4.3 4.3 0 01-6.5 4c0 .6-.4 1.3-.7 1.7a5.3 5.3 0 01-8.4.8 5.9 5.9 0 01-10.3-.7 6.4 6.4 0 01-8.2-.8 4 4 0 01-.6.5c.8.4 1.6 1.1 2 2 .8 1.4.7 3.1-.1 4.4a5.3 5.3 0 013.6 6.3 5.7 5.7 0 017 5c3-1.4 6.7-.3 8.3 2.5a7.6 7.6 0 0110.7-1.9 6.4 6.4 0 017-4.3 5.9 5.9 0 015.1-5.8 5.3 5.3 0 013.2-7.1l-.4-.7c-.9-1.8-.5-4 1-5.2-.7-.4-1.4-.9-1.6-1.6a4 4 0 01.8-4.6c-.4-.2-.7-.6-1-1"/>
  <path fill="#b1361e" d="M731.5 91.3a2.4 2.4 0 01-3.5-.8 3.9 3.9 0 01-6.5-1.3c-.7.5-1.8.9-2.7.8a4.3 4.3 0 01-4.1-4.3 5.3 5.3 0 01-6.8-6.5 5.9 5.9 0 01-5-9.2 6.4 6.4 0 01-3.2-8 4 4 0 01-.6 0 4.5 4.5 0 01-4.6 4.6 5.3 5.3 0 01-3.6 6.3 5.7 5.7 0 01-.8 8.7 6.4 6.4 0 012 8.4c1.4 0 2.8.5 4 1.4a7.7 7.7 0 013.1 6.7 6.4 6.4 0 017.3 4 5.9 5.9 0 017.5 1.5 5.3 5.3 0 017.7-.8l.4-.8a4.3 4.3 0 015-1.8c0-.8.2-1.6.6-2.2 1-1.5 2.7-2.2 4.4-1.6a2.4 2.4 0 011.4-2.2 8.2 8.2 0 01-2-3"/>
</svg>
