<?xml version="1.0" encoding="UTF-8"?>
<svg version="1.1" xmlns="http://www.w3.org/2000/svg" width="464" height="77">
<path d="M0 0 C4.62 0 9.24 0 14 0 C14 18.48 14 36.96 14 56 C9.05 56 4.1 56 -1 56 C-1.99 56.49 -1.99 56.49 -3 57 C-9.87 57.74 -15.68 57.75 -21.38 53.55 C-25.62 49.49 -27.43 44.84 -28 39 C-28.33 39.99 -28.66 40.98 -29 42 C-41.38 42.49 -41.38 42.49 -54 43 C-51.46 46.1 -51.46 46.1 -49.06 46.36 C-48.38 46.35 -47.7 46.33 -47 46.31 C-46.32 46.31 -45.64 46.3 -44.94 46.3 C-42.68 46.09 -42.68 46.09 -40 44 C-38.12 44 -38.12 44 -36 45 C-34.16 46.9 -32.62 48.89 -31 51 C-37.54 56.67 -41.72 57.36 -50.48 57.28 C-56.61 56.79 -60.71 54.66 -64.88 50.19 C-68.79 44.31 -69.43 39.23 -68.54 32.36 C-67.24 26.68 -63.63 23.24 -59 20 C-53.8 16.8 -47.88 17.45 -42 18 C-36.9 19.28 -33.97 21.59 -31.06 25.94 C-29.41 28.91 -28.32 31.58 -28 35 C-27.84 34.41 -27.68 33.82 -27.52 33.21 C-25.63 26.79 -23.26 23.31 -17.72 19.38 C-14.51 17.75 -12.4 17.66 -8.81 17.75 C-7.77 17.77 -6.72 17.78 -5.64 17.8 C-3 18 -3 18 -1 19 C-0.67 12.73 -0.34 6.46 0 0 Z M-53.38 29.94 C-55.1 31.69 -55.1 31.69 -55 33 C-50.71 33 -46.42 33 -42 33 C-43.58 29.32 -43.58 29.32 -45 28 C-48.77 27.58 -50.38 27.5 -53.38 29.94 Z M-12 32 C-14.36 34.89 -14.36 34.89 -13.81 38.5 C-12.92 42.5 -12.92 42.5 -10 45 C-8.15 46 -8.15 46 -6 46 C-2.5 44.58 -1.26 43.52 0.44 40.12 C1.09 36.51 0.93 35.11 -1 32 C-6.04 28.44 -6.93 28.66 -12 32 Z " fill="#FCB928" transform="translate(448,3)"/>
<path d="M0 0 C4.71 1.69 7.85 4.29 10.44 8.56 C13.29 14.84 14.07 20.44 11.75 27.12 C9.84 31.72 7.56 34.87 3.5 37.81 C-1.62 39.55 -6.64 39.42 -12 39 C-12.66 38.67 -13.32 38.34 -14 38 C-14.33 43.28 -14.66 48.56 -15 54 C-19.29 54 -23.58 54 -28 54 C-28 36.51 -28 19.02 -28 1 C-23.38 1 -18.76 1 -14 1 C-9.78 -1.11 -4.59 -0.5 0 0 Z M-14 14 C-15.53 17.06 -15.23 19.63 -15 23 C-13.53 25.94 -12.65 26.77 -9.56 27.88 C-6.64 28.02 -5.39 27.65 -3 26 C-0.52 22.28 -0.54 20.4 -1 16 C-2.8 13.56 -4.23 12.37 -6.94 11.06 C-9.98 10.97 -11.59 12.24 -14 14 Z " fill="#FCB927" transform="translate(335,21)"/>
<path d="M0 0 C1.78 1.64 1.78 1.64 3 3 C1.44 6.83 -0.84 9.36 -4 12 C-6.83 12 -8.4 10.77 -10.88 9.38 C-14.49 7.79 -16.25 8.02 -20 9 C-20.33 9.99 -20.66 10.98 -21 12 C-17.6 16.2 -12.33 17.41 -7.45 19.3 C-2.65 21.66 1.19 24.85 3 30 C3.68 35.21 3.64 39.65 1.38 44.44 C-2.95 49.1 -7.14 51.84 -13.55 52.2 C-14.95 52.22 -16.35 52.24 -17.75 52.25 C-18.44 52.27 -19.13 52.29 -19.84 52.31 C-27.88 52.37 -33.12 49.3 -39 44 C-37.44 40.17 -35.16 37.64 -32 35 C-28.59 35 -26.61 36.98 -24 39 C-20.5 40.17 -17.67 40.13 -14 40 C-13.01 39.51 -13.01 39.51 -12 39 C-11.58 36.63 -11.58 36.63 -12 34 C-15.57 31.48 -19.49 29.89 -23.5 28.19 C-28.81 25.74 -32.13 24.13 -35 19 C-36.6 13.68 -36.14 9.15 -34 4 C-25.47 -6.72 -11.25 -6.39 0 0 Z " fill="#FCBA27" transform="translate(210,8)"/>
<path d="M0 0 C0.56 0.32 1.12 0.64 1.7 0.98 C2.03 0.65 2.36 0.32 2.7 -0.02 C6.99 -0.02 11.28 -0.02 15.7 -0.02 C15.7 12.19 15.7 24.4 15.7 36.98 C10.75 36.98 5.8 36.98 0.7 36.98 C-0.29 37.47 -0.29 37.47 -1.3 37.98 C-7.89 38.75 -13.19 38.51 -18.64 34.52 C-23.25 30.23 -24.9 25.45 -25.34 19.24 C-25.24 12.94 -23.39 7.84 -19.3 2.98 C-13.61 -1.35 -6.82 -3.03 0 0 Z M-10.3 12.98 C-12.66 15.86 -12.66 15.86 -12.11 19.48 C-11.25 23.5 -11.25 23.5 -8.3 25.98 C-5.13 27.14 -3.78 27.16 -0.61 25.91 C2.34 23.44 3.02 21.74 3.7 17.98 C2.96 14.43 2.15 13.3 -0.8 11.16 C-5 9.17 -6.58 10.46 -10.3 12.98 Z " fill="#F9F4DA" transform="translate(151.30078125,22.0234375)"/>
<path d="M0 0 C0.56 0.32 1.12 0.64 1.7 0.98 C2.03 0.65 2.36 0.32 2.7 -0.02 C6.99 -0.02 11.28 -0.02 15.7 -0.02 C15.7 12.19 15.7 24.4 15.7 36.98 C10.75 36.98 5.8 36.98 0.7 36.98 C-0.29 37.47 -0.29 37.47 -1.3 37.98 C-7.89 38.75 -13.19 38.51 -18.64 34.52 C-23.25 30.23 -24.9 25.45 -25.34 19.24 C-25.24 12.94 -23.39 7.84 -19.3 2.98 C-13.61 -1.35 -6.82 -3.03 0 0 Z M-10.3 12.98 C-12.66 15.86 -12.66 15.86 -12.11 19.48 C-11.25 23.5 -11.25 23.5 -8.3 25.98 C-5.13 27.14 -3.78 27.16 -0.61 25.91 C2.34 23.44 3.02 21.74 3.7 17.98 C2.96 14.43 2.15 13.3 -0.8 11.16 C-5 9.17 -6.58 10.46 -10.3 12.98 Z " fill="#F9F4DA" transform="translate(66.30078125,22.0234375)"/>
<path d="M0 0 C4.29 0 8.58 0 13 0 C13.05 4.96 13.09 9.92 13.11 14.89 C13.12 16.57 13.13 18.26 13.15 19.94 C13.18 22.38 13.19 24.81 13.2 27.25 C13.21 27.99 13.22 28.73 13.23 29.49 C13.23 37.28 12.31 44.99 7 51 C1.58 55.29 -4.2 55.6 -10.93 55.4 C-16.12 54.72 -19.3 52.7 -23 49 C-23 47.19 -23 47.19 -22 45 C-20.1 43.15 -18.11 41.62 -16 40 C-15.32 40.33 -14.64 40.66 -13.94 41 C-10.44 42.19 -7.67 42.28 -4 42 C-0.12 38.12 -0.8 32.95 -0.68 27.73 C-0.66 26.94 -0.64 26.15 -0.62 25.33 C-0.56 22.8 -0.5 20.28 -0.44 17.75 C-0.39 16.03 -0.35 14.32 -0.31 12.6 C-0.2 8.4 -0.1 4.2 0 0 Z " fill="#F8F4DA" transform="translate(24,5)"/>
<path d="M0 0 C0.78 0.54 1.57 1.07 2.38 1.62 C3.37 2.29 4.35 2.95 5.38 3.62 C3.81 7.46 1.58 10.02 -1.62 12.62 C-4.28 12.5 -6.16 11.8 -8.62 10.88 C-10.78 10.45 -10.78 10.45 -13.31 11.62 C-15.93 13.53 -15.93 13.53 -16.62 17.06 C-16.89 20.54 -16.89 20.54 -15.44 23 C-13.37 24.85 -12.39 25.46 -9.62 25.62 C-8.8 25.3 -7.97 24.97 -7.12 24.62 C-4.25 23.47 -3.47 23.59 -0.62 24.62 C1.08 25.96 1.08 25.96 2.62 27.56 C3.15 28.09 3.67 28.61 4.2 29.15 C5.38 30.62 5.38 30.62 5.38 32.62 C-1.86 37.93 -7.83 38.36 -16.62 37.62 C-22.56 35.97 -26.26 32.68 -29.62 27.62 C-32.03 21.94 -32.19 16.55 -30.62 10.62 C-28.06 5.45 -24.36 1.55 -19.04 -0.75 C-12.7 -2.39 -6.1 -2.31 0 0 Z " fill="#FCBA27" transform="translate(246.625,22.375)"/>
<path d="M0 0 C4.29 0 8.58 0 13 0 C13 5.28 13 10.56 13 16 C15.97 16 18.94 16 22 16 C22 19.3 22 22.6 22 26 C19.03 26 16.06 26 13 26 C13 34.91 13 43.82 13 53 C8.71 53 4.42 53 0 53 C0 44.09 0 35.18 0 26 C-2.97 26 -5.94 26 -9 26 C-9 22.7 -9 19.4 -9 16 C-6.03 16 -3.06 16 0 16 C0 10.72 0 5.44 0 0 Z " fill="#FBB927" transform="translate(357,6)"/>
<path d="M0 0 C4.29 0 8.58 0 13 0 C18.09 12.05 18.09 12.05 20 18 C22.16 14.76 23.32 11.52 24.56 7.88 C26.87 1.13 26.87 1.13 28 0 C30.19 -0.07 32.38 -0.08 34.56 -0.06 C36.36 -0.05 36.36 -0.05 38.19 -0.04 C39.12 -0.02 40.05 -0.01 41 0 C38.49 8.09 35.18 15.8 31.81 23.56 C31.25 24.87 30.68 26.18 30.12 27.49 C28.75 30.66 27.38 33.83 26 37 C22.37 37 18.74 37 15 37 C11.23 29.02 7.64 20.97 4.12 12.88 C3.72 11.95 3.31 11.03 2.9 10.07 C2.52 9.2 2.15 8.33 1.76 7.43 C1.25 6.26 1.25 6.26 0.73 5.06 C0 3 0 3 0 0 Z " fill="#F9F4DA" transform="translate(85,22)"/>
<path d="M0 0 C0.96 -0.04 1.91 -0.07 2.9 -0.11 C5.62 0.31 5.62 0.31 9.62 4.31 C7.31 7.28 5 10.25 2.62 13.31 C1.51 13.13 0.4 12.94 -0.75 12.75 C-4.2 12 -4.2 12 -6.38 13.31 C-7.35 16.23 -7.57 18.37 -7.69 21.42 C-7.73 22.4 -7.78 23.38 -7.82 24.4 C-7.86 25.42 -7.9 26.44 -7.94 27.5 C-7.98 28.54 -8.02 29.57 -8.07 30.64 C-8.17 33.2 -8.28 35.75 -8.38 38.31 C-12.67 38.31 -16.95 38.31 -21.38 38.31 C-21.38 26.1 -21.38 13.89 -21.38 1.31 C-16.75 1.31 -12.13 1.31 -7.38 1.31 C-4.82 0.03 -2.86 0.07 0 0 Z " fill="#FCBA27" transform="translate(276.375,20.6875)"/>
<path d="M0 0 C4.29 0 8.58 0 13 0 C13 12.21 13 24.42 13 37 C8.71 37 4.42 37 0 37 C0 24.79 0 12.58 0 0 Z " fill="#FBBA27" transform="translate(288,22)"/>
<path d="M0 0 C2.42 1.53 2.89 2.69 3.88 5.38 C4 8 4 8 3.12 10.81 C0.65 13.36 -0.07 13.41 -3.5 13.56 C-6.49 13.38 -7.68 13.23 -10.12 11.44 C-11.38 7.95 -10.92 5.55 -10 2 C-6.31 -0.46 -4.37 -0.39 0 0 Z " fill="#FCB927" transform="translate(298,4)"/>
</svg>
