<?xml version="1.0" encoding="utf-8"?>
<svg width="800px" height="800px" viewBox="0 0 128 128" fill="none" xmlns="http://www.w3.org/2000/svg">
<path fill-rule="evenodd" clip-rule="evenodd" d="M7.5 43C7.5 41.067 9.067 39.5 11 39.5H117C118.933 39.5 120.5 41.067 120.5 43V85C120.5 86.933 118.933 88.5 117 88.5H11C9.06701 88.5 7.5 86.933 7.5 85V43ZM11 40.5C9.61929 40.5 8.5 41.6193 8.5 43V85C8.5 86.3807 9.61929 87.5 11 87.5H117C118.381 87.5 119.5 86.3807 119.5 85V43C119.5 41.6193 118.381 40.5 117 40.5H11Z" fill="#fcba28"/>
<path fill-rule="evenodd" clip-rule="evenodd" d="M10.5 49C10.5 47.6193 11.6193 46.5 13 46.5H115C116.381 46.5 117.5 47.6193 117.5 49V83C117.5 84.3807 116.381 85.5 115 85.5H13C11.6193 85.5 10.5 84.3807 10.5 83V49ZM13 47.5C12.1716 47.5 11.5 48.1716 11.5 49V83C11.5 83.8284 12.1716 84.5 13 84.5H115C115.828 84.5 116.5 83.8284 116.5 83V49C116.5 48.1716 115.828 47.5 115 47.5H13Z" fill="#fcba28"/>
<path fill-rule="evenodd" clip-rule="evenodd" d="M31 58.5L25 58.5C24.7239 58.5 24.5 58.7239 24.5 59V64C24.5 64.2761 24.2761 64.5 24 64.5H19C18.7239 64.5 18.5 64.7239 18.5 65L18.5 71C18.5 71.2761 18.7239 71.5 19 71.5L24 71.5C24.2761 71.5 24.5 71.7239 24.5 72V77C24.5 77.2775 24.7232 77.5 24.998 77.5H31.0026C31.2771 77.5 31.5 77.2779 31.5 77V72C31.5 71.7239 31.7239 71.5 32 71.5H37C37.2761 71.5 37.5 71.2761 37.5 71V65C37.5 64.7239 37.2761 64.5 37 64.5L32 64.5C31.7239 64.5 31.5 64.2761 31.5 64V59C31.5 58.7239 31.2761 58.5 31 58.5ZM25 57.5L31 57.5C31.8284 57.5 32.5 58.1716 32.5 59V63.5L37 63.5C37.8284 63.5 38.5 64.1716 38.5 65V71C38.5 71.8284 37.8284 72.5 37 72.5H32.5V77C32.5 77.8267 31.8328 78.5 31.0026 78.5H24.998C24.1682 78.5 23.5 77.8271 23.5 77V72.5L19 72.5C18.1716 72.5 17.5 71.8284 17.5 71L17.5 65C17.5 64.1716 18.1716 63.5 19 63.5H23.5V59C23.5 58.1716 24.1716 57.5 25 57.5Z" fill="#fcba28"/>
<path fill-rule="evenodd" clip-rule="evenodd" d="M44.5 69C44.5 68.1716 45.1716 67.5 46 67.5H74C74.8284 67.5 75.5 68.1716 75.5 69V77C75.5 77.8284 74.8284 78.5 74 78.5H46C45.1716 78.5 44.5 77.8284 44.5 77V69ZM46 68.5C45.7239 68.5 45.5 68.7239 45.5 69V77C45.5 77.2761 45.7239 77.5 46 77.5H74C74.2761 77.5 74.5 77.2761 74.5 77V69C74.5 68.7239 74.2761 68.5 74 68.5H46Z" fill="#fcba28"/>
<path fill-rule="evenodd" clip-rule="evenodd" d="M80.5 68C80.5 67.1716 81.1716 66.5 82 66.5H92C92.8284 66.5 93.5 67.1716 93.5 68V78C93.5 78.8284 92.8284 79.5 92 79.5H82C81.1716 79.5 80.5 78.8284 80.5 78V68ZM82 67.5C81.7239 67.5 81.5 67.7239 81.5 68V78C81.5 78.2761 81.7239 78.5 82 78.5H92C92.2761 78.5 92.5 78.2761 92.5 78V68C92.5 67.7239 92.2761 67.5 92 67.5H82Z" fill="#fcba28"/>
<path fill-rule="evenodd" clip-rule="evenodd" d="M95.5 68C95.5 67.1716 96.1716 66.5 97 66.5H107C107.828 66.5 108.5 67.1716 108.5 68V78C108.5 78.8284 107.828 79.5 107 79.5H97C96.1716 79.5 95.5 78.8284 95.5 78V68ZM97 67.5C96.7239 67.5 96.5 67.7239 96.5 68V78C96.5 78.2761 96.7239 78.5 97 78.5H107C107.276 78.5 107.5 78.2761 107.5 78V68C107.5 67.7239 107.276 67.5 107 67.5H97Z" fill="#fcba28"/>
<path fill-rule="evenodd" clip-rule="evenodd" d="M44.5 55C44.5 54.1716 45.1716 53.5 46 53.5H74C74.8284 53.5 75.5 54.1716 75.5 55V58C75.5 58.8284 74.8284 59.5 74 59.5H46C45.1716 59.5 44.5 58.8284 44.5 58V55ZM46 54.5C45.7239 54.5 45.5 54.7239 45.5 55V58C45.5 58.2761 45.7239 58.5 46 58.5H74C74.2761 58.5 74.5 58.2761 74.5 58V55C74.5 54.7239 74.2761 54.5 74 54.5H46Z" fill="#fcba28"/>
<path fill-rule="evenodd" clip-rule="evenodd" d="M44.5 62C44.5 61.1716 45.1716 60.5 46 60.5H74C74.8284 60.5 75.5 61.1716 75.5 62V65C75.5 65.8284 74.8284 66.5 74 66.5H46C45.1716 66.5 44.5 65.8284 44.5 65V62ZM46 61.5C45.7239 61.5 45.5 61.7239 45.5 62V65C45.5 65.2761 45.7239 65.5 46 65.5H74C74.2761 65.5 74.5 65.2761 74.5 65V62C74.5 61.7239 74.2761 61.5 74 61.5H46Z" fill="#fcba28"/>
<path fill-rule="evenodd" clip-rule="evenodd" d="M48.5 73C48.5 72.1716 49.1716 71.5 50 71.5H56C56.8284 71.5 57.5 72.1716 57.5 73C57.5 73.8284 56.8284 74.5 56 74.5H50C49.1716 74.5 48.5 73.8284 48.5 73ZM50 72.5C49.7239 72.5 49.5 72.7239 49.5 73C49.5 73.2761 49.7239 73.5 50 73.5H56C56.2761 73.5 56.5 73.2761 56.5 73C56.5 72.7239 56.2761 72.5 56 72.5H50Z" fill="#fcba28"/>
<path fill-rule="evenodd" clip-rule="evenodd" d="M62.5 73C62.5 72.1716 63.1716 71.5 64 71.5H70C70.8284 71.5 71.5 72.1716 71.5 73C71.5 73.8284 70.8284 74.5 70 74.5H64C63.1716 74.5 62.5 73.8284 62.5 73ZM64 72.5C63.7239 72.5 63.5 72.7239 63.5 73C63.5 73.2761 63.7239 73.5 64 73.5H70C70.2761 73.5 70.5 73.2761 70.5 73C70.5 72.7239 70.2761 72.5 70 72.5H64Z" fill="#fcba28"/>
<path fill-rule="evenodd" clip-rule="evenodd" d="M44.5 83C44.5 82.1716 45.1716 81.5 46 81.5H74C74.8284 81.5 75.5 82.1716 75.5 83V85C75.5 85.2761 75.2761 85.5 75 85.5H45C44.7239 85.5 44.5 85.2761 44.5 85V83ZM46 82.5C45.7239 82.5 45.5 82.7239 45.5 83V84.5H74.5V83C74.5 82.7239 74.2761 82.5 74 82.5H46Z" fill="#fcba28"/>
<path fill-rule="evenodd" clip-rule="evenodd" d="M75.5 51C75.5 51.8284 74.8284 52.5 74 52.5L46 52.5C45.1716 52.5 44.5 51.8284 44.5 51L44.5 47C44.5 46.7239 44.7239 46.5 45 46.5L75 46.5C75.2761 46.5 75.5 46.7239 75.5 47L75.5 51ZM74 51.5C74.2761 51.5 74.5 51.2761 74.5 51L74.5 47.5L45.5 47.5L45.5 51C45.5 51.2761 45.7239 51.5 46 51.5L74 51.5Z" fill="#fcba28"/>
<path fill-rule="evenodd" clip-rule="evenodd" d="M87 69.5C85.067 69.5 83.5 71.067 83.5 73C83.5 74.933 85.067 76.5 87 76.5C88.933 76.5 90.5 74.933 90.5 73C90.5 71.067 88.933 69.5 87 69.5ZM82.5 73C82.5 70.5147 84.5147 68.5 87 68.5C89.4853 68.5 91.5 70.5147 91.5 73C91.5 75.4853 89.4853 77.5 87 77.5C84.5147 77.5 82.5 75.4853 82.5 73Z" fill="#fcba28"/>
<path fill-rule="evenodd" clip-rule="evenodd" d="M102 69.5C100.067 69.5 98.5 71.067 98.5 73C98.5 74.933 100.067 76.5 102 76.5C103.933 76.5 105.5 74.933 105.5 73C105.5 71.067 103.933 69.5 102 69.5ZM97.5 73C97.5 70.5147 99.5147 68.5 102 68.5C104.485 68.5 106.5 70.5147 106.5 73C106.5 75.4853 104.485 77.5 102 77.5C99.5147 77.5 97.5 75.4853 97.5 73Z" fill="#fcba28"/>
</svg>