<?xml version="1.0" encoding="UTF-8"?><svg id="images" xmlns="http://www.w3.org/2000/svg" viewBox="0 0 340 340"><defs><style>.cls-1{fill:#fcba28;}</style></defs><g id="foreground"><g><path class="cls-1" d="M13.63,165.99c.26-.25,.54-.38,.82-.38,.32,0,.57,.11,.78,.34,.2,.23,.31,.6,.31,1.12v1.42c0,.53-.1,.91-.31,1.13-.21,.22-.47,.33-.8,.33-.3,0-.55-.09-.76-.26-.15-.13-.27-.39-.35-.79-.09-.4-.29-.69-.62-.89-.58-.34-1.32-.52-2.22-.52-1.04,0-1.87,.3-2.5,.91-.63,.61-.94,1.38-.94,2.31,0,.86,.3,1.54,.9,2.04,.6,.5,1.6,.75,3,.75,.92,0,1.67-.09,2.25-.28,.34-.11,.67-.31,.98-.58,.31-.28,.59-.41,.84-.41,.3,0,.56,.11,.78,.33,.22,.22,.33,.48,.33,.78,0,.49-.33,.95-1,1.39-.99,.65-2.43,.98-4.34,.98-1.71,0-3.04-.35-4-1.06-1.29-.95-1.93-2.26-1.93-3.91,0-1.57,.52-2.87,1.57-3.89,1.05-1.03,2.41-1.54,4.09-1.54,.61,0,1.17,.06,1.7,.17s1.01,.29,1.45,.52Z"/><path class="cls-1" d="M29.34,170.65c0,.84-.23,1.66-.7,2.45-.47,.79-1.17,1.42-2.09,1.89-.93,.47-1.9,.7-2.91,.7s-1.96-.23-2.88-.69c-.92-.46-1.62-1.09-2.09-1.89s-.72-1.63-.72-2.49,.24-1.75,.73-2.59c.49-.85,1.19-1.52,2.1-2,.91-.49,1.87-.73,2.86-.73s1.97,.25,2.89,.75c.93,.5,1.63,1.17,2.1,2.01,.47,.84,.71,1.71,.71,2.59Zm-2.2,.01c0-.71-.25-1.36-.76-1.96-.69-.8-1.61-1.2-2.74-1.2-1,0-1.83,.32-2.49,.96s-1,1.38-1,2.21c0,.69,.34,1.33,1.01,1.93,.67,.6,1.5,.9,2.48,.9s1.82-.3,2.49-.9c.67-.6,1.01-1.25,1.01-1.94Z"/><path class="cls-1" d="M34.81,165.59v.74c.4-.34,.84-.6,1.33-.77,.48-.17,1.01-.26,1.57-.26,1.3,0,2.33,.4,3.09,1.21,.6,.64,.9,1.49,.9,2.54v4.09c.47,0,.81,.1,1.03,.31,.22,.21,.33,.47,.33,.8s-.11,.59-.34,.79c-.23,.21-.6,.31-1.13,.31h-1.99c-.53,0-.91-.1-1.13-.31-.23-.2-.34-.47-.34-.8s.11-.58,.33-.79c.22-.2,.57-.31,1.03-.31v-4.16c0-.48-.13-.83-.39-1.05-.34-.29-.84-.43-1.51-.43-.51,0-.95,.1-1.34,.29-.38,.2-.87,.61-1.46,1.25v4.09c.57,0,.93,.05,1.1,.16,.35,.21,.53,.53,.53,.95,0,.32-.11,.59-.34,.79-.23,.21-.6,.31-1.13,.31h-2.5c-.53,0-.91-.1-1.13-.31-.23-.2-.34-.47-.34-.8,0-.4,.17-.71,.52-.93,.17-.11,.54-.16,1.11-.16v-5.35c-.47,0-.81-.1-1.03-.31s-.33-.47-.33-.79,.11-.59,.34-.79c.22-.21,.6-.31,1.13-.31h2.09Z"/><path class="cls-1" d="M52.84,168.17c-.36-.22-.73-.39-1.13-.5-.39-.11-.81-.17-1.24-.17-.85,0-1.53,.14-2.03,.42-.22,.12-.33,.25-.33,.4,0,.17,.15,.33,.45,.48,.23,.11,.74,.23,1.54,.33,1.46,.2,2.48,.4,3.05,.6,.75,.26,1.33,.66,1.74,1.18s.61,1.07,.61,1.65c0,.79-.35,1.45-1.04,1.98-1,.77-2.29,1.15-3.88,1.15-.64,0-1.23-.06-1.77-.17-.54-.11-1.04-.27-1.49-.49-.11,.09-.22,.17-.34,.21s-.25,.08-.38,.08c-.34,0-.62-.11-.82-.34-.2-.22-.31-.6-.31-1.13v-.74c0-.53,.1-.91,.31-1.13,.21-.22,.47-.34,.8-.34,.26,0,.49,.07,.67,.22,.18,.15,.32,.4,.42,.76,.34,.29,.74,.5,1.21,.65,.47,.15,1.02,.22,1.63,.22,1.01,0,1.79-.16,2.35-.47,.26-.16,.4-.32,.4-.49,0-.29-.19-.52-.57-.71s-1.16-.34-2.35-.47c-1.77-.19-2.95-.54-3.54-1.07-.59-.52-.89-1.17-.89-1.93s.33-1.44,1-1.97c.9-.72,2.08-1.07,3.54-1.07,.51,0,1,.05,1.47,.15,.47,.1,.92,.25,1.35,.45,.14-.1,.26-.18,.38-.23,.12-.05,.23-.08,.33-.08,.3,0,.55,.11,.75,.34,.2,.23,.3,.6,.3,1.13v.54c0,.48-.06,.81-.17,.98-.23,.33-.54,.49-.93,.49-.26,0-.5-.08-.7-.25s-.33-.38-.39-.66Z"/><path class="cls-1" d="M63.34,167.79v4.42c0,.47,.1,.78,.29,.93,.3,.24,.84,.35,1.61,.35,1.12,0,2.16-.24,3.12-.72,.37-.19,.65-.28,.86-.28,.29,0,.54,.11,.75,.32,.21,.21,.32,.48,.32,.78,0,.29-.11,.53-.34,.74-.35,.34-1.04,.65-2.08,.93-1.04,.28-1.91,.42-2.62,.42-1.37,0-2.39-.3-3.08-.89-.68-.59-1.03-1.32-1.03-2.18v-4.84h-.79c-.53,0-.91-.1-1.13-.31-.22-.21-.34-.47-.34-.8s.11-.59,.34-.79c.23-.21,.6-.31,1.13-.31h.79v-1.99c0-.53,.1-.91,.31-1.13,.21-.22,.47-.34,.8-.34s.59,.11,.79,.34c.21,.23,.31,.6,.31,1.13v1.99h4.07c.53,0,.91,.1,1.13,.31,.22,.2,.34,.47,.34,.8s-.11,.58-.34,.79c-.23,.2-.6,.31-1.13,.31h-4.07Z"/><path class="cls-1" d="M90.71,167.79v5.35h3.14c.53,0,.91,.1,1.13,.31,.22,.21,.34,.47,.34,.8s-.11,.59-.34,.79c-.23,.21-.6,.31-1.13,.31h-6.65c-.53,0-.91-.1-1.13-.31-.23-.2-.34-.47-.34-.8s.11-.58,.34-.79c.22-.2,.6-.31,1.13-.31h1.31v-5.35h-1.05c-.53,0-.91-.1-1.13-.31-.23-.21-.34-.47-.34-.8s.11-.59,.34-.79c.22-.21,.6-.31,1.13-.31h1.05v-.84c0-.96,.36-1.76,1.08-2.39,.72-.63,1.76-.95,3.13-.95,.61,0,1.31,.06,2.11,.17,.8,.11,1.31,.27,1.54,.47,.23,.2,.34,.46,.34,.77,0,.34-.1,.61-.3,.82-.2,.21-.45,.32-.74,.32-.14,0-.34-.03-.61-.08-.91-.18-1.71-.27-2.42-.27s-1.23,.11-1.51,.33c-.28,.22-.41,.49-.41,.81v.84h3.39c.53,0,.91,.1,1.13,.31,.22,.2,.34,.47,.34,.8s-.11,.58-.34,.79c-.23,.2-.6,.31-1.13,.31h-3.39Z"/><path class="cls-1" d="M108.83,165.59v7.55c.47,0,.81,.1,1.03,.31s.33,.47,.33,.79-.11,.59-.34,.79c-.22,.21-.6,.31-1.13,.31h-2.09v-.5c-.63,.29-1.23,.5-1.8,.64s-1.12,.21-1.63,.21c-.72,0-1.35-.15-1.88-.46-.53-.3-.95-.73-1.26-1.26-.22-.39-.33-.87-.33-1.45v-4.74h-.38c-.53,0-.91-.1-1.13-.31-.22-.21-.34-.47-.34-.8s.11-.59,.34-.79c.23-.21,.6-.31,1.13-.31h2.58v6.55c0,.47,.11,.81,.34,1.03,.22,.22,.57,.33,1.04,.33s.92-.09,1.43-.26c.51-.17,1.14-.49,1.9-.95v-4.49h-.79c-.53,0-.91-.1-1.13-.31-.22-.21-.34-.47-.34-.8s.11-.59,.34-.79c.23-.21,.6-.31,1.13-.31h3Z"/><path class="cls-1" d="M115.34,165.59v.74c.4-.34,.84-.6,1.33-.77,.48-.17,1.01-.26,1.57-.26,1.3,0,2.33,.4,3.09,1.21,.6,.64,.9,1.49,.9,2.54v4.09c.47,0,.81,.1,1.03,.31,.22,.21,.33,.47,.33,.8s-.11,.59-.34,.79c-.23,.21-.6,.31-1.13,.31h-1.99c-.53,0-.91-.1-1.13-.31-.23-.2-.34-.47-.34-.8s.11-.58,.33-.79c.22-.2,.57-.31,1.03-.31v-4.16c0-.48-.13-.83-.39-1.05-.34-.29-.84-.43-1.51-.43-.51,0-.95,.1-1.34,.29-.38,.2-.87,.61-1.46,1.25v4.09c.57,0,.93,.05,1.1,.16,.35,.21,.53,.53,.53,.95,0,.32-.11,.59-.34,.79-.23,.21-.6,.31-1.13,.31h-2.5c-.53,0-.91-.1-1.13-.31-.23-.2-.34-.47-.34-.8,0-.4,.17-.71,.52-.93,.17-.11,.54-.16,1.11-.16v-5.35c-.47,0-.81-.1-1.03-.31s-.33-.47-.33-.79,.11-.59,.34-.79c.22-.21,.6-.31,1.13-.31h2.09Z"/><path class="cls-1" d="M134.43,165.99c.26-.25,.54-.38,.82-.38,.32,0,.57,.11,.78,.34,.2,.23,.31,.6,.31,1.12v1.42c0,.53-.1,.91-.31,1.13-.21,.22-.47,.33-.8,.33-.3,0-.55-.09-.76-.26-.15-.13-.27-.39-.35-.79-.09-.4-.29-.69-.62-.89-.58-.34-1.32-.52-2.22-.52-1.04,0-1.87,.3-2.5,.91-.63,.61-.94,1.38-.94,2.31,0,.86,.3,1.54,.9,2.04,.6,.5,1.6,.75,3,.75,.92,0,1.67-.09,2.25-.28,.34-.11,.67-.31,.98-.58,.31-.28,.59-.41,.84-.41,.3,0,.56,.11,.78,.33,.22,.22,.33,.48,.33,.78,0,.49-.33,.95-1,1.39-.99,.65-2.43,.98-4.34,.98-1.71,0-3.04-.35-4-1.06-1.29-.95-1.93-2.26-1.93-3.91,0-1.57,.52-2.87,1.57-3.89,1.05-1.03,2.41-1.54,4.09-1.54,.61,0,1.17,.06,1.7,.17s1.01,.29,1.45,.52Z"/><path class="cls-1" d="M162.56,168.1h-9.41c-.53,0-.91-.1-1.13-.31-.23-.2-.34-.47-.34-.8s.11-.58,.34-.79c.22-.2,.6-.31,1.13-.31h9.41c.53,0,.91,.1,1.13,.31,.23,.21,.34,.47,.34,.8s-.11,.59-.34,.79c-.22,.21-.6,.31-1.13,.31Zm0,4.15h-9.41c-.53,0-.91-.1-1.13-.3-.23-.2-.34-.47-.34-.79s.11-.6,.34-.8c.22-.2,.6-.31,1.13-.31h9.41c.53,0,.91,.1,1.13,.31,.23,.21,.34,.47,.34,.8s-.11,.59-.34,.79c-.22,.2-.6,.3-1.13,.3Z"/><path class="cls-1" d="M183.9,169.99c0-1.25,.21-2.52,.62-3.8,.31-.95,.78-2,1.43-3.16,.47-.83,.81-1.34,1.03-1.53,.22-.19,.47-.28,.74-.28,.32,0,.58,.11,.79,.32s.32,.47,.32,.77c0,.21-.09,.46-.26,.74-.77,1.27-1.34,2.46-1.69,3.57-.35,1.11-.53,2.23-.53,3.37s.18,2.27,.53,3.38c.36,1.11,.92,2.3,1.69,3.57,.17,.28,.26,.53,.26,.74,0,.3-.11,.56-.32,.77s-.48,.32-.79,.32c-.26,0-.5-.09-.7-.26-.29-.25-.67-.81-1.14-1.69-.68-1.27-1.15-2.31-1.4-3.14-.39-1.26-.59-2.5-.59-3.71Z"/><path class="cls-1" d="M199.05,169.99c0,1.25-.21,2.52-.62,3.81-.31,.95-.78,1.99-1.43,3.15-.47,.83-.81,1.34-1.03,1.54s-.47,.29-.74,.29c-.32,0-.58-.11-.79-.32s-.32-.47-.32-.77c0-.21,.09-.46,.26-.74,.77-1.27,1.34-2.46,1.69-3.57,.36-1.11,.53-2.24,.53-3.38s-.18-2.26-.53-3.37c-.35-1.11-.92-2.3-1.69-3.57-.17-.29-.26-.53-.26-.74,0-.3,.11-.56,.32-.77s.48-.32,.79-.32c.26,0,.5,.09,.7,.26,.29,.24,.67,.81,1.14,1.69,.68,1.27,1.15,2.31,1.4,3.13,.39,1.27,.59,2.5,.59,3.71Z"/><path class="cls-1" d="M229.67,168.1h-9.41c-.53,0-.91-.1-1.13-.31-.23-.2-.34-.47-.34-.8s.11-.58,.34-.79c.22-.2,.6-.31,1.13-.31h9.41c.53,0,.91,.1,1.13,.31,.23,.21,.34,.47,.34,.8s-.11,.59-.34,.79c-.22,.21-.6,.31-1.13,.31Zm0,4.15h-9.41c-.53,0-.91-.1-1.13-.3-.23-.2-.34-.47-.34-.79s.11-.6,.34-.8c.22-.2,.6-.31,1.13-.31h9.41c.53,0,.91,.1,1.13,.31,.23,.21,.34,.47,.34,.8s-.11,.59-.34,.79c-.22,.2-.6,.3-1.13,.3Z"/><path class="cls-1" d="M240.7,169.07l-7.13-3.95c-.36-.2-.6-.38-.71-.54-.12-.16-.18-.36-.18-.6,0-.31,.11-.57,.33-.79s.48-.33,.78-.33c.19,0,.47,.1,.86,.31l10.62,5.91-10.62,5.91c-.39,.21-.67,.32-.86,.32-.3,0-.56-.11-.78-.33s-.33-.49-.33-.81c0-.24,.06-.44,.18-.6,.12-.16,.36-.34,.71-.54l7.13-3.95Z"/><path class="cls-1" d="M265.66,170.01c.26,.29,.43,.58,.53,.85,.09,.28,.14,.72,.14,1.34v3.5c0,.29,.06,.5,.17,.63,.11,.13,.32,.2,.62,.23,.3,.02,.55,.14,.74,.35s.29,.46,.29,.76-.11,.58-.33,.79c-.22,.21-.5,.32-.83,.32-.48,0-.94-.13-1.39-.38-.44-.25-.83-.67-1.16-1.24-.21-.37-.31-.81-.31-1.3v-3.88c0-.31-.05-.52-.15-.63s-.32-.19-.64-.23c-.33-.04-.58-.16-.76-.35-.18-.19-.26-.45-.26-.76s.09-.58,.26-.77c.17-.19,.43-.31,.76-.35,.33-.04,.54-.11,.61-.2,.12-.14,.18-.37,.18-.67v-3.67c0-.79,.29-1.47,.86-2.05,.57-.58,1.24-.86,1.99-.86,.34,0,.62,.11,.84,.32,.22,.21,.33,.48,.33,.79,0,.29-.1,.54-.29,.75s-.44,.33-.75,.35-.5,.09-.58,.19c-.13,.15-.19,.37-.19,.67v3.5c0,.49-.05,.88-.14,1.14-.1,.27-.27,.55-.52,.84Z"/><path class="cls-1" d="M293.74,174.24c0,.42-.15,.76-.44,1.04s-.7,.42-1.21,.42-.92-.14-1.21-.42-.44-.63-.44-1.04,.15-.76,.44-1.04,.7-.42,1.21-.42,.92,.14,1.21,.42,.44,.63,.44,1.04Z"/><path class="cls-1" d="M307.16,174.24c0,.42-.15,.76-.44,1.04s-.7,.42-1.21,.42-.92-.14-1.21-.42-.44-.63-.44-1.04,.15-.76,.44-1.04,.7-.42,1.21-.42,.92,.14,1.21,.42,.44,.63,.44,1.04Z"/><path class="cls-1" d="M331.83,170.01c-.25-.29-.42-.58-.52-.85-.1-.28-.14-.65-.14-1.13v-3.5c0-.29-.06-.5-.17-.63-.11-.12-.32-.2-.62-.23s-.55-.15-.74-.35-.29-.46-.29-.75c0-.32,.11-.58,.33-.79,.22-.21,.5-.32,.83-.32,.48,0,.94,.13,1.39,.38,.44,.25,.83,.67,1.16,1.24,.21,.37,.31,.8,.31,1.29v3.67c0,.31,.05,.52,.15,.64,.1,.12,.32,.2,.64,.23s.58,.15,.76,.34c.18,.19,.26,.45,.26,.77s-.09,.57-.26,.76c-.17,.19-.43,.31-.76,.35-.33,.04-.54,.11-.61,.2-.12,.14-.18,.37-.18,.67v3.88c0,.79-.29,1.48-.86,2.06-.57,.58-1.24,.87-1.99,.87-.34,0-.62-.11-.84-.32-.22-.21-.33-.48-.33-.79,0-.29,.1-.54,.29-.75s.44-.33,.75-.35,.5-.09,.58-.19c.13-.15,.19-.37,.19-.67v-3.5c0-.62,.04-1.06,.13-1.33,.09-.27,.27-.56,.53-.86Z"/></g></g></svg>