<?xml version="1.0" standalone="no"?>
<!DOCTYPE svg PUBLIC "-//W3C//DTD SVG 20010904//EN"
 "http://www.w3.org/TR/2001/REC-SVG-20010904/DTD/svg10.dtd">
<svg version="1.0" xmlns="http://www.w3.org/2000/svg"
 width="200.000000pt" height="200.000000pt" viewBox="0 0 200.000000 200.000000"
 preserveAspectRatio="xMidYMid meet">

<g transform="translate(0.000000,200.000000) scale(0.100000,-0.100000)"
fill="#fcba28" stroke="none">
<path d="M840 1776 c0 -8 5 -18 10 -21 17 -11 11 -74 -11 -118 -12 -23 -22
-58 -22 -77 0 -38 27 -100 44 -100 15 0 23 29 11 43 -22 28 -21 63 3 116 29
61 32 117 9 149 -17 25 -44 30 -44 8z"/>
<path d="M710 1670 c0 -6 7 -22 16 -35 15 -23 15 -27 -10 -69 -32 -55 -34
-104 -5 -135 27 -28 51 -13 31 19 -18 29 -15 53 15 110 26 49 26 52 10 85 -11
23 -24 35 -37 35 -11 0 -20 -5 -20 -10z"/>
<path d="M956 1671 c-4 -5 1 -22 11 -38 16 -28 15 -31 -10 -74 -15 -25 -27
-59 -27 -75 0 -34 25 -74 46 -74 16 0 19 36 4 45 -17 10 -11 41 15 91 30 57
31 74 4 108 -21 27 -34 32 -43 17z"/>
<path d="M480 1256 c0 -117 74 -270 165 -340 l48 -36 -164 0 c-185 0 -216 -8
-256 -69 -17 -26 -23 -48 -23 -93 0 -65 16 -106 54 -136 l25 -19 -25 -24 c-42
-39 -54 -73 -54 -147 0 -79 20 -120 79 -159 l34 -23 693 0 c628 0 694 2 694
16 0 9 -9 18 -20 21 -19 5 -20 14 -20 154 0 144 1 149 21 149 14 0 19 5 17 18
-3 15 -18 17 -116 20 l-112 3 0 123 c0 117 1 124 21 129 12 3 19 12 17 19 -4
10 -63 14 -278 16 l-273 2 49 35 c27 19 72 42 99 51 150 49 204 119 160 204
-9 18 -26 32 -43 36 -15 3 -31 7 -37 8 -5 2 -10 23 -10 47 l0 44 -372 3 -373
2 0 -54z m703 -23 c-33 -237 -220 -393 -406 -339 -131 38 -236 173 -254 328
l-6 48 336 0 336 0 -6 -37z m95 -75 c16 -16 15 -59 -2 -84 -15 -21 -112 -71
-121 -62 -3 3 3 21 14 39 10 19 25 53 32 77 10 36 16 42 39 42 14 0 31 -5 38
-12z m202 -443 l0 -125 -556 0 c-389 0 -562 3 -577 11 -42 21 -57 51 -57 113
0 53 3 61 34 92 l34 34 561 0 561 0 0 -125z m190 -315 l0 -150 -651 0 -651 0
-39 39 c-37 37 -39 42 -39 100 0 80 19 117 73 142 40 18 75 19 675 19 l632 0
0 -150z"/>
<path d="M555 1178 c11 -57 62 -152 104 -192 54 -53 65 -38 13 18 -45 48 -73
99 -92 164 -15 49 -35 57 -25 10z"/>
<path d="M1294 787 c-3 -8 -4 -45 -2 -83 l3 -69 43 -2 42 -1 0 84 0 84 -40 0
c-25 0 -43 -5 -46 -13z"/>
<path d="M1390 397 l0 -85 43 2 42 2 0 80 0 79 -42 3 -43 3 0 -84z"/>
</g>
</svg>
