<?xml version="1.0" encoding="UTF-8"?><svg id="images" xmlns="http://www.w3.org/2000/svg" viewBox="0 0 428 264"><defs><style>.cls-1{fill:#fcba28;}.Graphic_Style,.cls-2{stroke-dasharray:0 0 2 2;}.Graphic_Style,.cls-2,.cls-3{stroke:#fcba28;stroke-miterlimit:10;}.cls-2,.cls-3{fill:none;}</style></defs><g id="foreground"><g><path class="cls-1" d="M.62,36.49h1.52l2.01,5.56,.11,.48,.12-.48,1.97-5.56h1.51l-3,7.51h-1.22l-3.03-7.51Z"/><path class="cls-1" d="M14.56,43.65c-.03-.14-.06-.28-.07-.43-.12,.12-.26,.24-.42,.35s-.32,.21-.51,.29c-.19,.09-.39,.16-.6,.21-.22,.05-.44,.07-.68,.07-.39,0-.75-.06-1.07-.17s-.6-.27-.82-.47c-.23-.2-.4-.43-.53-.71-.12-.27-.19-.57-.19-.88,0-.41,.08-.78,.25-1.09,.16-.32,.4-.58,.71-.79,.3-.2,.66-.35,1.09-.45,.42-.1,.9-.15,1.43-.15h1.31v-.55c0-.21-.04-.4-.11-.57-.08-.17-.18-.31-.32-.43-.14-.12-.32-.21-.52-.28s-.44-.1-.71-.1c-.24,0-.45,.03-.64,.09-.19,.06-.34,.14-.47,.24-.12,.1-.21,.21-.28,.35-.07,.14-.1,.28-.1,.43h-1.47c0-.29,.07-.57,.21-.83,.14-.27,.34-.51,.6-.73,.26-.21,.58-.38,.95-.51,.37-.13,.8-.19,1.28-.19,.44,0,.84,.05,1.21,.16s.7,.26,.97,.47c.27,.22,.48,.49,.64,.81,.16,.32,.24,.69,.24,1.12v3.41c0,.3,.02,.58,.07,.86s.11,.52,.2,.72v.11h-1.52c-.05-.1-.09-.21-.12-.35Zm-1.37-.82c.2-.06,.39-.14,.55-.23,.17-.1,.31-.21,.43-.33,.12-.12,.22-.25,.28-.39v-1.45h-1.14c-.4,0-.75,.04-1.05,.1s-.53,.18-.71,.32c-.14,.11-.24,.24-.31,.39-.07,.15-.1,.32-.1,.5,0,.17,.03,.33,.09,.48,.06,.15,.14,.27,.26,.37,.12,.1,.26,.18,.44,.24s.38,.09,.6,.09,.46-.03,.66-.09Z"/><path class="cls-1" d="M24.31,36.4c.25,.04,.45,.08,.59,.13l-.21,1.45c-.25-.06-.49-.1-.73-.12-.24-.03-.48-.04-.72-.04-.3,0-.56,.03-.8,.1s-.45,.17-.63,.29c-.18,.12-.33,.28-.46,.46-.13,.18-.24,.38-.32,.61v4.73h-1.48v-7.51h1.39l.06,1.02v.18c.31-.41,.68-.74,1.11-.98,.43-.24,.91-.36,1.44-.36,.25,0,.51,.02,.76,.05Z"/><path class="cls-1" d="M36.65,37.25c.15-.28,.35-.5,.6-.66,.25-.16,.55-.24,.9-.25,.19,0,.37,.02,.52,.07s.29,.11,.4,.19c.09,.06,.17,.14,.23,.24,.07,.09,.12,.2,.17,.31,.06-.11,.14-.21,.23-.3,.09-.09,.18-.17,.28-.24,.13-.08,.27-.14,.43-.19s.33-.07,.51-.08c.25,0,.48,.04,.68,.12,.21,.08,.38,.2,.52,.35,.15,.17,.27,.39,.35,.67,.08,.27,.12,.6,.12,.97v5.54h-1.38v-5.55c0-.15-.02-.29-.05-.4s-.08-.2-.15-.27c-.06-.07-.15-.12-.24-.15s-.21-.05-.33-.05c-.13,0-.24,.02-.34,.05-.1,.03-.18,.08-.24,.14-.06,.06-.12,.13-.16,.21s-.07,.17-.09,.26v5.76h-1.36v-5.55c0-.15-.02-.29-.05-.4-.03-.11-.08-.21-.15-.27s-.14-.12-.24-.15c-.09-.03-.2-.04-.32-.04-.13,0-.24,.02-.34,.05-.1,.03-.19,.08-.26,.14-.05,.05-.1,.1-.14,.16s-.07,.13-.1,.2v5.87h-1.38v-7.51h1.3l.04,.76Z"/><path class="cls-1" d="M44.85,47c-.16-.03-.29-.05-.39-.08l.22-1.17c.11,0,.22,.02,.33,.02,.12,0,.21,.01,.27,.01,.17,0,.33-.05,.46-.15,.14-.1,.26-.21,.36-.34,.11-.12,.19-.25,.26-.36,.07-.12,.13-.23,.18-.32l.49-.95-3.22-7.17h1.63l1.96,4.71,.3,.87,.33-.84,1.87-4.74h1.64l-3.81,8.67c-.09,.19-.2,.39-.33,.61-.13,.22-.3,.42-.5,.61-.19,.18-.42,.34-.69,.47-.27,.13-.58,.19-.93,.19-.14,0-.29-.01-.44-.04Z"/><path class="cls-1" d="M52.46,33.89h1.6l2.08,7.28,.15,.54,.16-.56,2.09-7.26h1.6l-3.15,10.11h-1.37l-3.16-10.11Z"/><path class="cls-1" d="M66.62,43.65c-.03-.14-.06-.28-.07-.43-.12,.12-.26,.24-.42,.35s-.32,.21-.51,.29c-.19,.09-.39,.16-.6,.21-.22,.05-.44,.07-.68,.07-.39,0-.75-.06-1.07-.17s-.6-.27-.82-.47c-.23-.2-.4-.43-.53-.71-.12-.27-.19-.57-.19-.88,0-.41,.08-.78,.25-1.09,.16-.32,.4-.58,.71-.79,.3-.2,.66-.35,1.09-.45,.42-.1,.9-.15,1.43-.15h1.31v-.55c0-.21-.04-.4-.11-.57-.08-.17-.18-.31-.32-.43-.14-.12-.32-.21-.52-.28s-.44-.1-.71-.1c-.24,0-.45,.03-.64,.09-.19,.06-.34,.14-.47,.24-.12,.1-.21,.21-.28,.35-.07,.14-.1,.28-.1,.43h-1.47c0-.29,.07-.57,.21-.83,.14-.27,.34-.51,.6-.73,.26-.21,.58-.38,.95-.51,.37-.13,.8-.19,1.28-.19,.44,0,.84,.05,1.21,.16s.7,.26,.97,.47c.27,.22,.48,.49,.64,.81,.16,.32,.24,.69,.24,1.12v3.41c0,.3,.02,.58,.07,.86s.11,.52,.2,.72v.11h-1.52c-.05-.1-.09-.21-.12-.35Zm-1.37-.82c.2-.06,.39-.14,.55-.23,.17-.1,.31-.21,.43-.33,.12-.12,.22-.25,.28-.39v-1.45h-1.14c-.4,0-.75,.04-1.05,.1s-.53,.18-.71,.32c-.14,.11-.24,.24-.31,.39-.07,.15-.1,.32-.1,.5,0,.17,.03,.33,.09,.48,.06,.15,.14,.27,.26,.37,.12,.1,.26,.18,.44,.24s.38,.09,.6,.09,.46-.03,.66-.09Z"/><path class="cls-1" d="M76.37,36.4c.25,.04,.45,.08,.59,.13l-.21,1.45c-.25-.06-.49-.1-.73-.12-.24-.03-.48-.04-.72-.04-.3,0-.56,.03-.8,.1s-.45,.17-.63,.29c-.18,.12-.33,.28-.46,.46-.13,.18-.24,.38-.32,.61v4.73h-1.48v-7.51h1.39l.06,1.02v.18c.31-.41,.68-.74,1.11-.98,.43-.24,.91-.36,1.44-.36,.25,0,.51,.02,.76,.05Z"/><path class="cls-1" d="M87.93,38.71v-1.25h6.3v1.25h-6.3Zm0,2.92v-1.25h6.3v1.25h-6.3Z"/><path class="cls-1" d="M109.65,46.22c-.33-.2-.6-.45-.82-.77-.21-.31-.37-.65-.48-1.03-.1-.38-.16-.75-.16-1.12v-1.16c0-.65-.15-1.12-.46-1.42-.31-.29-.78-.44-1.41-.44v-1.12c.63,0,1.1-.14,1.41-.43,.31-.29,.46-.76,.46-1.42v-1.17c0-.38,.05-.77,.16-1.17,.1-.4,.27-.75,.49-1.07,.2-.29,.47-.52,.79-.71,.33-.18,.72-.28,1.18-.29l.17,.88c-.32,0-.57,.08-.76,.22-.19,.14-.32,.32-.41,.54-.09,.23-.15,.48-.17,.76-.02,.28-.03,.55-.03,.83v1.17c0,.56-.13,1.04-.39,1.46-.26,.42-.66,.74-1.21,.96,.55,.21,.96,.53,1.21,.95,.26,.42,.39,.91,.39,1.46v1.16c0,.28,.02,.55,.06,.83,.04,.27,.12,.52,.22,.75,.1,.23,.24,.41,.42,.55s.4,.21,.67,.22l-.17,.88c-.45,0-.84-.11-1.17-.31Z"/><path class="cls-1" d="M127.35,43.65c-.03-.14-.06-.28-.07-.43-.12,.12-.26,.24-.42,.35s-.32,.21-.51,.29c-.19,.09-.39,.16-.6,.21-.22,.05-.44,.07-.68,.07-.39,0-.75-.06-1.07-.17s-.6-.27-.82-.47c-.23-.2-.4-.43-.53-.71-.12-.27-.19-.57-.19-.88,0-.41,.08-.78,.25-1.09,.16-.32,.4-.58,.71-.79,.3-.2,.66-.35,1.09-.45,.42-.1,.9-.15,1.43-.15h1.31v-.55c0-.21-.04-.4-.11-.57-.08-.17-.18-.31-.32-.43-.14-.12-.32-.21-.52-.28s-.44-.1-.71-.1c-.24,0-.45,.03-.64,.09-.19,.06-.34,.14-.47,.24-.12,.1-.21,.21-.28,.35-.07,.14-.1,.28-.1,.43h-1.47c0-.29,.07-.57,.21-.83,.14-.27,.34-.51,.6-.73,.26-.21,.58-.38,.95-.51,.37-.13,.8-.19,1.28-.19,.44,0,.84,.05,1.21,.16s.7,.26,.97,.47c.27,.22,.48,.49,.64,.81,.16,.32,.24,.69,.24,1.12v3.41c0,.3,.02,.58,.07,.86s.11,.52,.2,.72v.11h-1.52c-.05-.1-.09-.21-.12-.35Zm-1.37-.82c.2-.06,.39-.14,.55-.23,.17-.1,.31-.21,.43-.33,.12-.12,.22-.25,.28-.39v-1.45h-1.14c-.4,0-.75,.04-1.05,.1s-.53,.18-.71,.32c-.14,.11-.24,.24-.31,.39-.07,.15-.1,.32-.1,.5,0,.17,.03,.33,.09,.48,.06,.15,.14,.27,.26,.37,.12,.1,.26,.18,.44,.24s.38,.09,.6,.09,.46-.03,.66-.09Z"/><path class="cls-1" d="M133.99,36.34c.19-.21,.46-.32,.82-.32s.64,.1,.83,.31c.19,.21,.29,.46,.29,.76s-.1,.55-.29,.75-.47,.3-.82,.3-.62-.1-.81-.3-.28-.45-.28-.75,.09-.55,.28-.76Zm0,5.98c.19-.21,.46-.32,.82-.32s.64,.1,.83,.31c.19,.21,.29,.46,.29,.76s-.1,.55-.29,.75c-.2,.2-.47,.3-.82,.3s-.62-.1-.81-.3-.28-.45-.28-.75,.09-.55,.28-.76Z"/><path class="cls-1" d="M151.48,44v-8.26l-2.62,.98v-1.32l3.99-1.51h.1v10.11h-1.48Z"/><path class="cls-1" d="M167.76,45.43c.18-.14,.32-.33,.43-.55,.1-.22,.17-.47,.22-.75,.04-.28,.07-.55,.07-.83v-1.16c0-.34,.05-.65,.14-.94,.09-.29,.24-.54,.44-.77,.12-.15,.27-.28,.43-.4,.16-.12,.35-.22,.56-.31-.19-.08-.37-.17-.53-.28s-.3-.23-.42-.37c-.21-.23-.37-.5-.47-.8-.1-.3-.15-.62-.15-.97v-1.17c0-.27-.01-.55-.04-.83-.03-.28-.08-.53-.17-.76-.09-.22-.23-.4-.41-.54-.18-.14-.43-.21-.75-.22l.17-.88c.46,0,.86,.11,1.18,.29,.33,.18,.6,.42,.81,.73,.23,.32,.39,.67,.49,1.06,.1,.39,.15,.78,.15,1.16v1.17c0,.27,.03,.51,.08,.72s.13,.38,.23,.53c.15,.21,.35,.37,.62,.46,.26,.09,.58,.14,.94,.14v1.12c-.35,0-.65,.05-.9,.14-.25,.08-.45,.22-.6,.41-.13,.15-.23,.33-.29,.55-.06,.22-.09,.47-.09,.77v1.16c0,.37-.05,.74-.15,1.12-.1,.38-.26,.73-.47,1.04s-.48,.56-.82,.76c-.33,.2-.73,.3-1.18,.31l-.17-.88c.26,0,.48-.08,.66-.22Z"/><path class="cls-1" d="M178.57,45.21c-.23,.5-.54,.92-.92,1.26l-.86-.46c.21-.33,.36-.68,.46-1.04,.1-.37,.15-.76,.15-1.19v-1.35h1.52v1.31c0,.48-.12,.97-.35,1.47Zm-1.18-8.87c.19-.21,.46-.32,.82-.32s.64,.1,.83,.31c.19,.21,.29,.46,.29,.76s-.1,.55-.29,.75-.47,.3-.82,.3-.62-.1-.81-.3-.28-.45-.28-.75,.09-.55,.28-.76Z"/></g><rect class="cls-3" x="300" y="165" width="118" height="29"/><rect class="cls-3" x="300" y="194" width="118" height="29"/><rect class="cls-2" x="300" y="223" width="118" height="29"/><rect class="cls-3" x="300" y="136" width="118" height="29"/><g><path class="cls-1" d="M231.16,156v-6.53l-2.07,.77v-1.04l3.16-1.19h.08v7.99h-1.17Z"/><path class="cls-1" d="M240.65,154.3c-.12,.39-.29,.72-.5,.99-.22,.27-.49,.47-.81,.61-.32,.14-.68,.21-1.09,.21s-.76-.07-1.09-.2c-.32-.13-.59-.34-.82-.61-.22-.27-.39-.6-.51-.99-.12-.39-.18-.84-.18-1.35v-1.88c0-.51,.06-.97,.18-1.36,.12-.39,.29-.72,.52-.99,.22-.27,.49-.48,.81-.61,.32-.14,.68-.21,1.08-.21s.77,.07,1.09,.21c.32,.14,.59,.34,.81,.61,.22,.27,.39,.6,.51,.99,.12,.39,.18,.85,.18,1.36v1.88c0,.51-.06,.96-.18,1.35Zm-1.01-3.84c-.02-.27-.07-.51-.14-.72-.07-.21-.17-.38-.29-.51-.11-.13-.25-.22-.41-.29-.16-.06-.35-.1-.57-.1s-.41,.04-.58,.11-.31,.18-.43,.32c-.14,.17-.24,.38-.31,.65-.07,.26-.1,.57-.1,.92v1.78l2.83-2.16Zm.02,1.64v-.64l-2.82,2.15c.03,.26,.07,.49,.15,.69,.07,.2,.17,.36,.28,.49,.11,.13,.25,.23,.42,.3,.16,.07,.35,.1,.56,.1s.41-.03,.57-.1c.16-.07,.3-.17,.42-.3,.15-.17,.25-.39,.32-.66,.07-.27,.1-.58,.1-.95v-1.08Z"/><path class="cls-1" d="M247.51,154.3c-.12,.39-.29,.72-.5,.99-.22,.27-.49,.47-.81,.61-.32,.14-.68,.21-1.09,.21s-.76-.07-1.09-.2c-.32-.13-.59-.34-.82-.61-.22-.27-.39-.6-.51-.99-.12-.39-.18-.84-.18-1.35v-1.88c0-.51,.06-.97,.18-1.36,.12-.39,.29-.72,.52-.99,.22-.27,.49-.48,.81-.61,.32-.14,.68-.21,1.08-.21s.77,.07,1.09,.21c.32,.14,.59,.34,.81,.61,.22,.27,.39,.6,.51,.99,.12,.39,.18,.85,.18,1.36v1.88c0,.51-.06,.96-.18,1.35Zm-1.01-3.84c-.02-.27-.07-.51-.14-.72-.07-.21-.17-.38-.29-.51-.11-.13-.25-.22-.41-.29-.16-.06-.35-.1-.57-.1s-.41,.04-.58,.11-.31,.18-.43,.32c-.14,.17-.24,.38-.31,.65-.07,.26-.1,.57-.1,.92v1.78l2.83-2.16Zm.02,1.64v-.64l-2.82,2.15c.03,.26,.07,.49,.15,.69,.07,.2,.17,.36,.28,.49,.11,.13,.25,.23,.42,.3,.16,.07,.35,.1,.56,.1s.41-.03,.57-.1c.16-.07,.3-.17,.42-.3,.15-.17,.25-.39,.32-.66,.07-.27,.1-.58,.1-.95v-1.08Z"/><path class="cls-1" d="M254.37,154.3c-.12,.39-.29,.72-.5,.99-.22,.27-.49,.47-.81,.61-.32,.14-.68,.21-1.09,.21s-.76-.07-1.09-.2c-.32-.13-.59-.34-.82-.61-.22-.27-.39-.6-.51-.99-.12-.39-.18-.84-.18-1.35v-1.88c0-.51,.06-.97,.18-1.36,.12-.39,.29-.72,.52-.99,.22-.27,.49-.48,.81-.61,.32-.14,.68-.21,1.08-.21s.77,.07,1.09,.21c.32,.14,.59,.34,.81,.61,.22,.27,.39,.6,.51,.99,.12,.39,.18,.85,.18,1.36v1.88c0,.51-.06,.96-.18,1.35Zm-1.01-3.84c-.02-.27-.07-.51-.14-.72-.07-.21-.17-.38-.29-.51-.11-.13-.25-.22-.41-.29-.16-.06-.35-.1-.57-.1s-.41,.04-.58,.11-.31,.18-.43,.32c-.14,.17-.24,.38-.31,.65-.07,.26-.1,.57-.1,.92v1.78l2.83-2.16Zm.02,1.64v-.64l-2.82,2.15c.03,.26,.07,.49,.15,.69,.07,.2,.17,.36,.28,.49,.11,.13,.25,.23,.42,.3,.16,.07,.35,.1,.56,.1s.41-.03,.57-.1c.16-.07,.3-.17,.42-.3,.15-.17,.25-.39,.32-.66,.07-.27,.1-.58,.1-.95v-1.08Z"/><path class="cls-1" d="M261.23,154.3c-.12,.39-.29,.72-.5,.99-.22,.27-.49,.47-.81,.61-.32,.14-.68,.21-1.09,.21s-.76-.07-1.09-.2c-.32-.13-.59-.34-.82-.61-.22-.27-.39-.6-.51-.99-.12-.39-.18-.84-.18-1.35v-1.88c0-.51,.06-.97,.18-1.36,.12-.39,.29-.72,.52-.99,.22-.27,.49-.48,.81-.61,.32-.14,.68-.21,1.08-.21s.77,.07,1.09,.21c.32,.14,.59,.34,.81,.61,.22,.27,.39,.6,.51,.99,.12,.39,.18,.85,.18,1.36v1.88c0,.51-.06,.96-.18,1.35Zm-1.01-3.84c-.02-.27-.07-.51-.14-.72-.07-.21-.17-.38-.29-.51-.11-.13-.25-.22-.41-.29-.16-.06-.35-.1-.57-.1s-.41,.04-.58,.11-.31,.18-.43,.32c-.14,.17-.24,.38-.31,.65-.07,.26-.1,.57-.1,.92v1.78l2.83-2.16Zm.02,1.64v-.64l-2.82,2.15c.03,.26,.07,.49,.15,.69,.07,.2,.17,.36,.28,.49,.11,.13,.25,.23,.42,.3,.16,.07,.35,.1,.56,.1s.41-.03,.57-.1c.16-.07,.3-.17,.42-.3,.15-.17,.25-.39,.32-.66,.07-.27,.1-.58,.1-.95v-1.08Z"/><path class="cls-1" d="M268.08,154.3c-.12,.39-.29,.72-.5,.99-.22,.27-.49,.47-.81,.61-.32,.14-.68,.21-1.09,.21s-.76-.07-1.09-.2c-.32-.13-.59-.34-.82-.61-.22-.27-.39-.6-.51-.99-.12-.39-.18-.84-.18-1.35v-1.88c0-.51,.06-.97,.18-1.36,.12-.39,.29-.72,.52-.99,.22-.27,.49-.48,.81-.61,.32-.14,.68-.21,1.08-.21s.77,.07,1.09,.21c.32,.14,.59,.34,.81,.61,.22,.27,.39,.6,.51,.99,.12,.39,.18,.85,.18,1.36v1.88c0,.51-.06,.96-.18,1.35Zm-1.01-3.84c-.02-.27-.07-.51-.14-.72-.07-.21-.17-.38-.29-.51-.11-.13-.25-.22-.41-.29-.16-.06-.35-.1-.57-.1s-.41,.04-.58,.11-.31,.18-.43,.32c-.14,.17-.24,.38-.31,.65-.07,.26-.1,.57-.1,.92v1.78l2.83-2.16Zm.02,1.64v-.64l-2.82,2.15c.03,.26,.07,.49,.15,.69,.07,.2,.17,.36,.28,.49,.11,.13,.25,.23,.42,.3,.16,.07,.35,.1,.56,.1s.41-.03,.57-.1c.16-.07,.3-.17,.42-.3,.15-.17,.25-.39,.32-.66,.07-.27,.1-.58,.1-.95v-1.08Z"/><path class="cls-1" d="M272.3,156v-6.53l-2.07,.77v-1.04l3.16-1.19h.08v7.99h-1.17Z"/><path class="cls-1" d="M231.16,184v-6.53l-2.07,.77v-1.04l3.16-1.19h.08v7.99h-1.17Z"/><path class="cls-1" d="M240.65,182.3c-.12,.39-.29,.72-.5,.99-.22,.27-.49,.47-.81,.61-.32,.14-.68,.21-1.09,.21s-.76-.07-1.09-.2c-.32-.13-.59-.34-.82-.61-.22-.27-.39-.6-.51-.99-.12-.39-.18-.84-.18-1.35v-1.88c0-.51,.06-.97,.18-1.36,.12-.39,.29-.72,.52-.99,.22-.27,.49-.48,.81-.61,.32-.14,.68-.21,1.08-.21s.77,.07,1.09,.21c.32,.14,.59,.34,.81,.61,.22,.27,.39,.6,.51,.99,.12,.39,.18,.85,.18,1.36v1.88c0,.51-.06,.96-.18,1.35Zm-1.01-3.84c-.02-.27-.07-.51-.14-.72-.07-.21-.17-.38-.29-.51-.11-.13-.25-.22-.41-.29-.16-.06-.35-.1-.57-.1s-.41,.04-.58,.11-.31,.18-.43,.32c-.14,.17-.24,.38-.31,.65-.07,.26-.1,.57-.1,.92v1.78l2.83-2.16Zm.02,1.64v-.64l-2.82,2.15c.03,.26,.07,.49,.15,.69,.07,.2,.17,.36,.28,.49,.11,.13,.25,.23,.42,.3,.16,.07,.35,.1,.56,.1s.41-.03,.57-.1c.16-.07,.3-.17,.42-.3,.15-.17,.25-.39,.32-.66,.07-.27,.1-.58,.1-.95v-1.08Z"/><path class="cls-1" d="M247.51,182.3c-.12,.39-.29,.72-.5,.99-.22,.27-.49,.47-.81,.61-.32,.14-.68,.21-1.09,.21s-.76-.07-1.09-.2c-.32-.13-.59-.34-.82-.61-.22-.27-.39-.6-.51-.99-.12-.39-.18-.84-.18-1.35v-1.88c0-.51,.06-.97,.18-1.36,.12-.39,.29-.72,.52-.99,.22-.27,.49-.48,.81-.61,.32-.14,.68-.21,1.08-.21s.77,.07,1.09,.21c.32,.14,.59,.34,.81,.61,.22,.27,.39,.6,.51,.99,.12,.39,.18,.85,.18,1.36v1.88c0,.51-.06,.96-.18,1.35Zm-1.01-3.84c-.02-.27-.07-.51-.14-.72-.07-.21-.17-.38-.29-.51-.11-.13-.25-.22-.41-.29-.16-.06-.35-.1-.57-.1s-.41,.04-.58,.11-.31,.18-.43,.32c-.14,.17-.24,.38-.31,.65-.07,.26-.1,.57-.1,.92v1.78l2.83-2.16Zm.02,1.64v-.64l-2.82,2.15c.03,.26,.07,.49,.15,.69,.07,.2,.17,.36,.28,.49,.11,.13,.25,.23,.42,.3,.16,.07,.35,.1,.56,.1s.41-.03,.57-.1c.16-.07,.3-.17,.42-.3,.15-.17,.25-.39,.32-.66,.07-.27,.1-.58,.1-.95v-1.08Z"/><path class="cls-1" d="M254.37,182.3c-.12,.39-.29,.72-.5,.99-.22,.27-.49,.47-.81,.61-.32,.14-.68,.21-1.09,.21s-.76-.07-1.09-.2c-.32-.13-.59-.34-.82-.61-.22-.27-.39-.6-.51-.99-.12-.39-.18-.84-.18-1.35v-1.88c0-.51,.06-.97,.18-1.36,.12-.39,.29-.72,.52-.99,.22-.27,.49-.48,.81-.61,.32-.14,.68-.21,1.08-.21s.77,.07,1.09,.21c.32,.14,.59,.34,.81,.61,.22,.27,.39,.6,.51,.99,.12,.39,.18,.85,.18,1.36v1.88c0,.51-.06,.96-.18,1.35Zm-1.01-3.84c-.02-.27-.07-.51-.14-.72-.07-.21-.17-.38-.29-.51-.11-.13-.25-.22-.41-.29-.16-.06-.35-.1-.57-.1s-.41,.04-.58,.11-.31,.18-.43,.32c-.14,.17-.24,.38-.31,.65-.07,.26-.1,.57-.1,.92v1.78l2.83-2.16Zm.02,1.64v-.64l-2.82,2.15c.03,.26,.07,.49,.15,.69,.07,.2,.17,.36,.28,.49,.11,.13,.25,.23,.42,.3,.16,.07,.35,.1,.56,.1s.41-.03,.57-.1c.16-.07,.3-.17,.42-.3,.15-.17,.25-.39,.32-.66,.07-.27,.1-.58,.1-.95v-1.08Z"/><path class="cls-1" d="M261.23,182.3c-.12,.39-.29,.72-.5,.99-.22,.27-.49,.47-.81,.61-.32,.14-.68,.21-1.09,.21s-.76-.07-1.09-.2c-.32-.13-.59-.34-.82-.61-.22-.27-.39-.6-.51-.99-.12-.39-.18-.84-.18-1.35v-1.88c0-.51,.06-.97,.18-1.36,.12-.39,.29-.72,.52-.99,.22-.27,.49-.48,.81-.61,.32-.14,.68-.21,1.08-.21s.77,.07,1.09,.21c.32,.14,.59,.34,.81,.61,.22,.27,.39,.6,.51,.99,.12,.39,.18,.85,.18,1.36v1.88c0,.51-.06,.96-.18,1.35Zm-1.01-3.84c-.02-.27-.07-.51-.14-.72-.07-.21-.17-.38-.29-.51-.11-.13-.25-.22-.41-.29-.16-.06-.35-.1-.57-.1s-.41,.04-.58,.11-.31,.18-.43,.32c-.14,.17-.24,.38-.31,.65-.07,.26-.1,.57-.1,.92v1.78l2.83-2.16Zm.02,1.64v-.64l-2.82,2.15c.03,.26,.07,.49,.15,.69,.07,.2,.17,.36,.28,.49,.11,.13,.25,.23,.42,.3,.16,.07,.35,.1,.56,.1s.41-.03,.57-.1c.16-.07,.3-.17,.42-.3,.15-.17,.25-.39,.32-.66,.07-.27,.1-.58,.1-.95v-1.08Z"/><path class="cls-1" d="M268.08,182.3c-.12,.39-.29,.72-.5,.99-.22,.27-.49,.47-.81,.61-.32,.14-.68,.21-1.09,.21s-.76-.07-1.09-.2c-.32-.13-.59-.34-.82-.61-.22-.27-.39-.6-.51-.99-.12-.39-.18-.84-.18-1.35v-1.88c0-.51,.06-.97,.18-1.36,.12-.39,.29-.72,.52-.99,.22-.27,.49-.48,.81-.61,.32-.14,.68-.21,1.08-.21s.77,.07,1.09,.21c.32,.14,.59,.34,.81,.61,.22,.27,.39,.6,.51,.99,.12,.39,.18,.85,.18,1.36v1.88c0,.51-.06,.96-.18,1.35Zm-1.01-3.84c-.02-.27-.07-.51-.14-.72-.07-.21-.17-.38-.29-.51-.11-.13-.25-.22-.41-.29-.16-.06-.35-.1-.57-.1s-.41,.04-.58,.11-.31,.18-.43,.32c-.14,.17-.24,.38-.31,.65-.07,.26-.1,.57-.1,.92v1.78l2.83-2.16Zm.02,1.64v-.64l-2.82,2.15c.03,.26,.07,.49,.15,.69,.07,.2,.17,.36,.28,.49,.11,.13,.25,.23,.42,.3,.16,.07,.35,.1,.56,.1s.41-.03,.57-.1c.16-.07,.3-.17,.42-.3,.15-.17,.25-.39,.32-.66,.07-.27,.1-.58,.1-.95v-1.08Z"/><path class="cls-1" d="M269.74,184v-.82l2.61-2.87c.23-.25,.42-.47,.57-.66,.15-.2,.27-.38,.36-.54,.1-.16,.16-.31,.2-.46,.04-.15,.06-.29,.06-.44,0-.19-.03-.37-.09-.54-.06-.16-.15-.3-.26-.42-.12-.12-.26-.21-.42-.28-.16-.07-.34-.1-.54-.1-.25,0-.47,.04-.65,.11s-.34,.17-.46,.3c-.12,.13-.22,.29-.28,.49-.06,.19-.09,.41-.09,.65h-1.17c0-.34,.06-.67,.18-.97,.12-.3,.3-.57,.53-.79,.23-.23,.5-.41,.83-.54,.33-.13,.7-.2,1.11-.2,.39,0,.73,.06,1.04,.17,.3,.11,.56,.27,.77,.47,.21,.2,.37,.43,.48,.71,.11,.28,.16,.58,.16,.9,0,.25-.04,.49-.12,.72-.08,.24-.19,.47-.33,.69-.14,.23-.31,.46-.5,.69-.19,.23-.4,.46-.61,.69l-1.96,2.11h3.87v.94h-5.3Z"/><path class="cls-1" d="M231.16,212v-6.53l-2.07,.77v-1.04l3.16-1.19h.08v7.99h-1.17Z"/><path class="cls-1" d="M240.65,210.3c-.12,.39-.29,.72-.5,.99-.22,.27-.49,.47-.81,.61-.32,.14-.68,.21-1.09,.21s-.76-.07-1.09-.2c-.32-.13-.59-.34-.82-.61-.22-.27-.39-.6-.51-.99-.12-.39-.18-.84-.18-1.35v-1.88c0-.51,.06-.97,.18-1.36,.12-.39,.29-.72,.52-.99,.22-.27,.49-.48,.81-.61,.32-.14,.68-.21,1.08-.21s.77,.07,1.09,.21c.32,.14,.59,.34,.81,.61,.22,.27,.39,.6,.51,.99,.12,.39,.18,.85,.18,1.36v1.88c0,.51-.06,.96-.18,1.35Zm-1.01-3.84c-.02-.27-.07-.51-.14-.72-.07-.21-.17-.38-.29-.51-.11-.13-.25-.22-.41-.29-.16-.06-.35-.1-.57-.1s-.41,.04-.58,.11-.31,.18-.43,.32c-.14,.17-.24,.38-.31,.65-.07,.26-.1,.57-.1,.92v1.78l2.83-2.16Zm.02,1.64v-.64l-2.82,2.15c.03,.26,.07,.49,.15,.69,.07,.2,.17,.36,.28,.49,.11,.13,.25,.23,.42,.3,.16,.07,.35,.1,.56,.1s.41-.03,.57-.1c.16-.07,.3-.17,.42-.3,.15-.17,.25-.39,.32-.66,.07-.27,.1-.58,.1-.95v-1.08Z"/><path class="cls-1" d="M247.51,210.3c-.12,.39-.29,.72-.5,.99-.22,.27-.49,.47-.81,.61-.32,.14-.68,.21-1.09,.21s-.76-.07-1.09-.2c-.32-.13-.59-.34-.82-.61-.22-.27-.39-.6-.51-.99-.12-.39-.18-.84-.18-1.35v-1.88c0-.51,.06-.97,.18-1.36,.12-.39,.29-.72,.52-.99,.22-.27,.49-.48,.81-.61,.32-.14,.68-.21,1.08-.21s.77,.07,1.09,.21c.32,.14,.59,.34,.81,.61,.22,.27,.39,.6,.51,.99,.12,.39,.18,.85,.18,1.36v1.88c0,.51-.06,.96-.18,1.35Zm-1.01-3.84c-.02-.27-.07-.51-.14-.72-.07-.21-.17-.38-.29-.51-.11-.13-.25-.22-.41-.29-.16-.06-.35-.1-.57-.1s-.41,.04-.58,.11-.31,.18-.43,.32c-.14,.17-.24,.38-.31,.65-.07,.26-.1,.57-.1,.92v1.78l2.83-2.16Zm.02,1.64v-.64l-2.82,2.15c.03,.26,.07,.49,.15,.69,.07,.2,.17,.36,.28,.49,.11,.13,.25,.23,.42,.3,.16,.07,.35,.1,.56,.1s.41-.03,.57-.1c.16-.07,.3-.17,.42-.3,.15-.17,.25-.39,.32-.66,.07-.27,.1-.58,.1-.95v-1.08Z"/><path class="cls-1" d="M254.37,210.3c-.12,.39-.29,.72-.5,.99-.22,.27-.49,.47-.81,.61-.32,.14-.68,.21-1.09,.21s-.76-.07-1.09-.2c-.32-.13-.59-.34-.82-.61-.22-.27-.39-.6-.51-.99-.12-.39-.18-.84-.18-1.35v-1.88c0-.51,.06-.97,.18-1.36,.12-.39,.29-.72,.52-.99,.22-.27,.49-.48,.81-.61,.32-.14,.68-.21,1.08-.21s.77,.07,1.09,.21c.32,.14,.59,.34,.81,.61,.22,.27,.39,.6,.51,.99,.12,.39,.18,.85,.18,1.36v1.88c0,.51-.06,.96-.18,1.35Zm-1.01-3.84c-.02-.27-.07-.51-.14-.72-.07-.21-.17-.38-.29-.51-.11-.13-.25-.22-.41-.29-.16-.06-.35-.1-.57-.1s-.41,.04-.58,.11-.31,.18-.43,.32c-.14,.17-.24,.38-.31,.65-.07,.26-.1,.57-.1,.92v1.78l2.83-2.16Zm.02,1.64v-.64l-2.82,2.15c.03,.26,.07,.49,.15,.69,.07,.2,.17,.36,.28,.49,.11,.13,.25,.23,.42,.3,.16,.07,.35,.1,.56,.1s.41-.03,.57-.1c.16-.07,.3-.17,.42-.3,.15-.17,.25-.39,.32-.66,.07-.27,.1-.58,.1-.95v-1.08Z"/><path class="cls-1" d="M261.23,210.3c-.12,.39-.29,.72-.5,.99-.22,.27-.49,.47-.81,.61-.32,.14-.68,.21-1.09,.21s-.76-.07-1.09-.2c-.32-.13-.59-.34-.82-.61-.22-.27-.39-.6-.51-.99-.12-.39-.18-.84-.18-1.35v-1.88c0-.51,.06-.97,.18-1.36,.12-.39,.29-.72,.52-.99,.22-.27,.49-.48,.81-.61,.32-.14,.68-.21,1.08-.21s.77,.07,1.09,.21c.32,.14,.59,.34,.81,.61,.22,.27,.39,.6,.51,.99,.12,.39,.18,.85,.18,1.36v1.88c0,.51-.06,.96-.18,1.35Zm-1.01-3.84c-.02-.27-.07-.51-.14-.72-.07-.21-.17-.38-.29-.51-.11-.13-.25-.22-.41-.29-.16-.06-.35-.1-.57-.1s-.41,.04-.58,.11-.31,.18-.43,.32c-.14,.17-.24,.38-.31,.65-.07,.26-.1,.57-.1,.92v1.78l2.83-2.16Zm.02,1.64v-.64l-2.82,2.15c.03,.26,.07,.49,.15,.69,.07,.2,.17,.36,.28,.49,.11,.13,.25,.23,.42,.3,.16,.07,.35,.1,.56,.1s.41-.03,.57-.1c.16-.07,.3-.17,.42-.3,.15-.17,.25-.39,.32-.66,.07-.27,.1-.58,.1-.95v-1.08Z"/><path class="cls-1" d="M268.08,210.3c-.12,.39-.29,.72-.5,.99-.22,.27-.49,.47-.81,.61-.32,.14-.68,.21-1.09,.21s-.76-.07-1.09-.2c-.32-.13-.59-.34-.82-.61-.22-.27-.39-.6-.51-.99-.12-.39-.18-.84-.18-1.35v-1.88c0-.51,.06-.97,.18-1.36,.12-.39,.29-.72,.52-.99,.22-.27,.49-.48,.81-.61,.32-.14,.68-.21,1.08-.21s.77,.07,1.09,.21c.32,.14,.59,.34,.81,.61,.22,.27,.39,.6,.51,.99,.12,.39,.18,.85,.18,1.36v1.88c0,.51-.06,.96-.18,1.35Zm-1.01-3.84c-.02-.27-.07-.51-.14-.72-.07-.21-.17-.38-.29-.51-.11-.13-.25-.22-.41-.29-.16-.06-.35-.1-.57-.1s-.41,.04-.58,.11-.31,.18-.43,.32c-.14,.17-.24,.38-.31,.65-.07,.26-.1,.57-.1,.92v1.78l2.83-2.16Zm.02,1.64v-.64l-2.82,2.15c.03,.26,.07,.49,.15,.69,.07,.2,.17,.36,.28,.49,.11,.13,.25,.23,.42,.3,.16,.07,.35,.1,.56,.1s.41-.03,.57-.1c.16-.07,.3-.17,.42-.3,.15-.17,.25-.39,.32-.66,.07-.27,.1-.58,.1-.95v-1.08Z"/><path class="cls-1" d="M272.09,207.46c.25,0,.46-.03,.65-.1,.18-.07,.34-.16,.46-.27,.12-.11,.21-.25,.27-.41,.06-.16,.09-.33,.09-.52,0-.22-.03-.41-.08-.57s-.14-.3-.25-.41c-.11-.11-.25-.19-.41-.25-.17-.05-.35-.08-.57-.08-.2,0-.38,.03-.54,.09s-.31,.14-.42,.25c-.12,.11-.21,.24-.28,.39-.07,.15-.1,.33-.1,.52h-1.17c0-.31,.06-.6,.18-.87,.12-.27,.3-.5,.52-.7,.22-.19,.48-.35,.79-.46,.31-.11,.64-.17,1.01-.17s.71,.05,1.01,.15,.57,.24,.79,.43,.39,.43,.51,.71c.12,.28,.18,.61,.18,.98,0,.16-.02,.32-.07,.49-.05,.17-.12,.33-.22,.47-.1,.16-.22,.3-.38,.44-.15,.13-.33,.25-.54,.34,.25,.08,.46,.19,.63,.32,.17,.13,.31,.28,.41,.45,.1,.17,.18,.35,.22,.53s.07,.38,.07,.57c0,.37-.07,.71-.2,1s-.31,.54-.55,.73c-.23,.2-.51,.35-.83,.46s-.66,.16-1.03,.16c-.35,0-.68-.05-.99-.15-.31-.1-.59-.24-.82-.43-.24-.19-.43-.42-.56-.7s-.21-.6-.21-.96h1.16c0,.19,.03,.37,.1,.52,.07,.16,.16,.29,.29,.41,.12,.11,.27,.2,.45,.26,.18,.06,.37,.09,.59,.09s.42-.03,.6-.09c.18-.06,.33-.15,.45-.27,.12-.11,.22-.26,.29-.43,.07-.17,.1-.37,.1-.6s-.04-.44-.12-.62c-.08-.17-.18-.32-.32-.43-.14-.11-.31-.2-.51-.25-.2-.05-.42-.08-.65-.08h-.76v-.93h.76Z"/><path class="cls-1" d="M230.83,238.67c.15-.17,.36-.25,.65-.25s.5,.08,.66,.25,.23,.37,.23,.6-.08,.44-.23,.59c-.16,.16-.37,.24-.65,.24s-.49-.08-.64-.24c-.15-.16-.23-.36-.23-.59s.07-.43,.22-.6Z"/><path class="cls-1" d="M237.68,238.67c.15-.17,.36-.25,.65-.25s.5,.08,.66,.25,.23,.37,.23,.6-.08,.44-.23,.59c-.16,.16-.37,.24-.65,.24s-.49-.08-.64-.24c-.15-.16-.23-.36-.23-.59s.07-.43,.22-.6Z"/><path class="cls-1" d="M244.54,238.67c.15-.17,.36-.25,.65-.25s.5,.08,.66,.25,.23,.37,.23,.6-.08,.44-.23,.59c-.16,.16-.37,.24-.65,.24s-.49-.08-.64-.24c-.15-.16-.23-.36-.23-.59s.07-.43,.22-.6Z"/></g><g><path class="cls-1" d="M312.38,185.75c-.26-.16-.48-.36-.65-.61-.17-.25-.29-.52-.38-.82-.08-.3-.12-.59-.12-.89v-.92c0-.52-.12-.89-.36-1.12-.24-.23-.62-.35-1.12-.35v-.88c.5,0,.87-.11,1.12-.34,.24-.23,.36-.6,.36-1.12v-.92c0-.3,.04-.61,.12-.92,.08-.32,.21-.6,.39-.84,.16-.23,.37-.41,.63-.56,.26-.14,.57-.22,.94-.23l.14,.7c-.25,0-.45,.06-.6,.17-.15,.11-.25,.25-.32,.43-.07,.18-.12,.38-.14,.6-.02,.22-.03,.44-.03,.65v.92c0,.44-.1,.83-.31,1.16s-.52,.59-.96,.76c.44,.17,.76,.42,.96,.75s.31,.72,.31,1.15v.92c0,.22,.02,.44,.05,.66,.03,.22,.09,.41,.18,.59,.08,.18,.19,.33,.33,.44,.14,.11,.32,.17,.53,.17l-.14,.7c-.36,0-.67-.09-.93-.24Z"/><path class="cls-1" d="M326.37,183.72c-.03-.11-.04-.22-.06-.34-.1,.1-.21,.19-.33,.28-.12,.09-.25,.16-.4,.23-.15,.07-.3,.12-.47,.16-.17,.04-.35,.06-.54,.06-.31,0-.59-.04-.85-.13-.25-.09-.47-.21-.65-.37s-.32-.34-.42-.56-.15-.45-.15-.7c0-.33,.06-.61,.19-.86,.13-.25,.32-.46,.56-.62,.24-.16,.52-.28,.86-.35,.33-.08,.71-.12,1.13-.12h1.04v-.43c0-.17-.03-.32-.09-.45-.06-.13-.15-.25-.25-.34-.11-.1-.25-.17-.41-.22-.16-.05-.35-.08-.56-.08-.19,0-.35,.02-.5,.07-.15,.05-.27,.11-.37,.19-.1,.08-.17,.17-.22,.28-.05,.11-.08,.22-.08,.34h-1.16c0-.23,.05-.45,.16-.66,.11-.21,.27-.4,.48-.58,.21-.16,.46-.3,.75-.4s.63-.15,1.01-.15c.34,0,.66,.04,.96,.13,.29,.08,.55,.21,.77,.37,.21,.17,.38,.38,.5,.64,.12,.25,.19,.55,.19,.88v2.69c0,.23,.02,.46,.05,.68,.04,.22,.09,.41,.16,.57v.09h-1.2c-.04-.08-.07-.17-.09-.28Zm-1.08-.65c.16-.04,.3-.11,.44-.18s.25-.16,.34-.26c.1-.1,.17-.2,.23-.31v-1.15h-.9c-.32,0-.59,.03-.83,.08-.23,.06-.42,.14-.56,.25-.11,.09-.19,.19-.25,.31-.05,.12-.08,.25-.08,.4,0,.14,.02,.26,.07,.38s.11,.21,.21,.29c.09,.08,.21,.14,.35,.19,.14,.05,.3,.07,.48,.07s.36-.02,.52-.07Z"/><path class="cls-1" d="M331.62,177.95c.15-.17,.36-.25,.65-.25s.5,.08,.66,.25c.15,.17,.23,.37,.23,.6s-.08,.44-.23,.59c-.16,.16-.37,.24-.65,.24s-.49-.08-.64-.24c-.15-.16-.22-.36-.22-.59s.07-.43,.22-.6Zm0,4.73c.15-.17,.36-.25,.65-.25s.5,.08,.66,.25,.23,.37,.23,.6-.08,.44-.23,.59c-.16,.16-.37,.24-.65,.24s-.49-.08-.64-.24c-.15-.16-.22-.36-.22-.59s.07-.43,.22-.6Z"/><path class="cls-1" d="M345.44,184v-6.53l-2.07,.77v-1.04l3.16-1.19h.08v7.99h-1.17Z"/><path class="cls-1" d="M358.32,185.13c.14-.11,.25-.26,.34-.44,.08-.18,.14-.37,.17-.59s.05-.44,.05-.66v-.92c0-.27,.04-.51,.11-.74,.08-.23,.19-.43,.35-.61,.1-.12,.21-.22,.34-.31,.13-.09,.27-.17,.44-.24-.15-.06-.29-.14-.42-.23-.13-.09-.24-.18-.33-.29-.17-.18-.29-.39-.37-.63-.08-.24-.12-.49-.12-.77v-.92c0-.22-.01-.43-.03-.65-.02-.22-.06-.42-.13-.6-.07-.18-.18-.32-.33-.43-.14-.11-.34-.17-.6-.17l.13-.7c.37,0,.68,.08,.94,.23,.26,.14,.47,.34,.64,.57,.18,.25,.31,.53,.38,.84,.08,.31,.12,.61,.12,.91v.92c0,.22,.02,.41,.06,.57s.1,.3,.18,.42c.12,.17,.28,.29,.49,.37,.21,.07,.46,.11,.75,.11v.88c-.27,0-.51,.04-.71,.11-.2,.07-.35,.17-.47,.32-.1,.12-.18,.26-.23,.43-.05,.17-.07,.38-.07,.61v.92c0,.29-.04,.58-.12,.89-.08,.3-.2,.58-.37,.82s-.38,.45-.65,.6c-.26,.16-.57,.24-.94,.24l-.13-.7c.21,0,.38-.06,.52-.17Z"/></g><g><path class="cls-1" d="M230.53,126.12l-.53,1.88h-1.83l2.94-8.99h1.57l2.89,8.99h-1.83l-.52-1.88h-2.7Zm2.29-1.48l-.92-3.31-.94,3.31h1.86Z"/><path class="cls-1" d="M236.58,123.22c.12-.42,.29-.78,.52-1.08,.23-.3,.5-.53,.82-.7,.32-.16,.69-.25,1.11-.25,.35,0,.66,.06,.92,.19,.27,.13,.5,.3,.71,.53v-3.4h1.72v9.48h-1.55l-.09-.7c-.21,.26-.46,.46-.74,.6-.28,.14-.61,.22-.99,.22-.41,0-.77-.08-1.1-.26-.32-.17-.6-.41-.82-.71-.23-.3-.4-.66-.52-1.07-.12-.41-.18-.86-.18-1.35v-.13c0-.51,.06-.97,.18-1.39Zm1.61,2.3c.05,.24,.12,.45,.23,.63,.11,.18,.24,.32,.41,.43,.17,.1,.37,.15,.62,.15,.3,0,.54-.06,.74-.19,.2-.13,.35-.3,.47-.52v-2.7c-.12-.23-.27-.4-.46-.53-.19-.12-.44-.19-.73-.19-.24,0-.45,.05-.62,.16-.17,.1-.31,.25-.42,.43-.11,.19-.19,.4-.23,.65-.05,.24-.07,.51-.07,.79v.13c0,.28,.02,.54,.07,.78Z"/><path class="cls-1" d="M244.29,123.22c.12-.42,.29-.78,.52-1.08,.23-.3,.5-.53,.82-.7,.32-.16,.69-.25,1.11-.25,.35,0,.66,.06,.92,.19,.27,.13,.5,.3,.71,.53v-3.4h1.72v9.48h-1.55l-.09-.7c-.21,.26-.46,.46-.74,.6-.28,.14-.61,.22-.99,.22-.41,0-.77-.08-1.1-.26-.32-.17-.6-.41-.82-.71-.23-.3-.4-.66-.52-1.07-.12-.41-.18-.86-.18-1.35v-.13c0-.51,.06-.97,.18-1.39Zm1.61,2.3c.05,.24,.12,.45,.23,.63,.11,.18,.24,.32,.41,.43,.17,.1,.37,.15,.62,.15,.3,0,.54-.06,.74-.19,.2-.13,.35-.3,.47-.52v-2.7c-.12-.23-.27-.4-.46-.53-.19-.12-.44-.19-.73-.19-.24,0-.45,.05-.62,.16-.17,.1-.31,.25-.42,.43-.11,.19-.19,.4-.23,.65-.05,.24-.07,.51-.07,.79v.13c0,.28,.02,.54,.07,.78Z"/><path class="cls-1" d="M257.52,121.25c.22,.04,.4,.07,.53,.11l-.25,1.71c-.23-.05-.46-.09-.69-.12-.24-.03-.46-.04-.68-.04s-.42,.02-.6,.06c-.18,.04-.34,.1-.48,.18-.17,.09-.31,.21-.43,.35-.12,.14-.22,.3-.3,.49v4.01h-1.72v-6.68h1.6l.07,.94v.15c.28-.38,.61-.68,.99-.89,.38-.22,.79-.32,1.24-.32,.26,0,.5,.02,.72,.05Z"/><path class="cls-1" d="M261.56,127.87c-.42-.17-.78-.4-1.08-.69-.3-.29-.53-.63-.69-1.02-.16-.39-.24-.81-.24-1.26v-.25c0-.51,.08-.98,.24-1.4,.16-.42,.38-.79,.67-1.09,.29-.3,.63-.54,1.02-.71,.4-.17,.82-.25,1.29-.25s.91,.08,1.29,.24,.7,.38,.96,.67c.26,.29,.46,.63,.59,1.04s.2,.85,.2,1.34v.73h-4.53v.02c.06,.27,.13,.48,.22,.64,.09,.16,.21,.31,.36,.44,.16,.14,.34,.24,.54,.31,.2,.07,.42,.11,.66,.11,.34,0,.66-.06,.98-.19,.32-.13,.57-.32,.77-.57l.86,.93c-.22,.31-.56,.59-1.04,.84s-1.03,.38-1.68,.38c-.51,0-.98-.08-1.4-.25Zm.67-5.18c-.16,.07-.3,.17-.42,.29-.12,.13-.23,.28-.31,.46-.08,.18-.14,.37-.19,.59h2.81v-.14c0-.18-.03-.35-.1-.51-.07-.16-.16-.3-.27-.42-.12-.12-.26-.21-.42-.27-.17-.07-.36-.1-.58-.1-.19,0-.37,.03-.53,.1Z"/><path class="cls-1" d="M271.67,125.9c-.05-.08-.13-.15-.25-.22-.12-.07-.29-.13-.49-.18s-.46-.12-.77-.17c-.39-.08-.75-.18-1.07-.29-.32-.12-.6-.26-.83-.43-.23-.16-.41-.36-.54-.57-.13-.22-.19-.47-.19-.75s.07-.54,.2-.79,.32-.47,.57-.66c.25-.19,.55-.34,.9-.45s.75-.17,1.2-.17,.88,.05,1.25,.16c.37,.11,.69,.26,.94,.45,.26,.19,.45,.42,.59,.69,.14,.26,.2,.55,.2,.86h-1.72c0-.11-.02-.21-.06-.31-.04-.1-.09-.18-.17-.26-.1-.1-.24-.18-.42-.25-.17-.06-.39-.09-.63-.09-.21,0-.39,.02-.55,.06-.16,.04-.28,.1-.38,.17-.09,.07-.16,.14-.21,.23-.05,.09-.07,.18-.07,.28s.02,.19,.06,.28c.04,.08,.12,.16,.22,.22,.1,.07,.25,.13,.43,.19,.18,.06,.41,.1,.69,.15,.4,.07,.78,.15,1.12,.25,.35,.1,.64,.23,.9,.39,.25,.17,.45,.36,.59,.6,.14,.23,.21,.51,.21,.83,0,.3-.07,.57-.21,.82-.14,.25-.34,.46-.6,.64-.26,.18-.58,.32-.95,.42-.37,.1-.78,.15-1.24,.15-.5,0-.95-.07-1.33-.2-.38-.13-.71-.3-.97-.52-.26-.21-.46-.45-.59-.72s-.2-.54-.2-.81h1.64c.01,.18,.06,.34,.15,.47,.09,.13,.2,.23,.33,.31,.14,.08,.29,.14,.47,.18s.35,.06,.54,.06c.22,0,.42-.02,.58-.06,.17-.04,.3-.09,.41-.16,.1-.07,.18-.14,.23-.23,.05-.09,.08-.18,.08-.28s-.02-.19-.07-.27Z"/><path class="cls-1" d="M279.38,125.9c-.05-.08-.13-.15-.25-.22-.12-.07-.29-.13-.49-.18s-.46-.12-.77-.17c-.39-.08-.75-.18-1.07-.29-.32-.12-.6-.26-.83-.43-.23-.16-.41-.36-.54-.57-.13-.22-.19-.47-.19-.75s.07-.54,.2-.79,.32-.47,.57-.66c.25-.19,.55-.34,.9-.45s.75-.17,1.2-.17,.88,.05,1.25,.16c.37,.11,.69,.26,.94,.45,.26,.19,.45,.42,.59,.69,.14,.26,.2,.55,.2,.86h-1.72c0-.11-.02-.21-.06-.31-.04-.1-.09-.18-.17-.26-.1-.1-.24-.18-.42-.25-.17-.06-.39-.09-.63-.09-.21,0-.39,.02-.55,.06-.16,.04-.28,.1-.38,.17-.09,.07-.16,.14-.21,.23-.05,.09-.07,.18-.07,.28s.02,.19,.06,.28c.04,.08,.12,.16,.22,.22,.1,.07,.25,.13,.43,.19,.18,.06,.41,.1,.69,.15,.4,.07,.78,.15,1.12,.25,.35,.1,.64,.23,.9,.39,.25,.17,.45,.36,.59,.6,.14,.23,.21,.51,.21,.83,0,.3-.07,.57-.21,.82-.14,.25-.34,.46-.6,.64-.26,.18-.58,.32-.95,.42-.37,.1-.78,.15-1.24,.15-.5,0-.95-.07-1.33-.2-.38-.13-.71-.3-.97-.52-.26-.21-.46-.45-.59-.72s-.2-.54-.2-.81h1.64c.01,.18,.06,.34,.15,.47,.09,.13,.2,.23,.33,.31,.14,.08,.29,.14,.47,.18s.35,.06,.54,.06c.22,0,.42-.02,.58-.06,.17-.04,.3-.09,.41-.16,.1-.07,.18-.14,.23-.23,.05-.09,.08-.18,.08-.28s-.02-.19-.07-.27Z"/></g><g><path class="cls-1" d="M221.08,81.89h2.72l2.42,6.55c.06,.16,.11,.3,.15,.44,.04,.14,.07,.29,.1,.46h.05c.03-.17,.06-.33,.1-.47,.04-.14,.09-.28,.15-.44l2.42-6.55h2.77v10.11h-2.11v-6.45c0-.16,0-.33,.01-.52,0-.19,.02-.36,.03-.51h-.06c-.02,.15-.06,.32-.1,.51s-.09,.36-.15,.52l-2.38,6.45h-1.74l-2.36-6.45c-.06-.16-.11-.33-.15-.52s-.08-.36-.1-.51h-.06c.01,.15,.02,.32,.03,.51s.01,.36,.01,.52v6.45h-1.75v-10.11Z"/><path class="cls-1" d="M233.9,88.22c0-1.13,.34-2.04,1.02-2.73,.68-.69,1.55-1.03,2.61-1.03s1.9,.32,2.51,.97c.61,.65,.91,1.54,.91,2.67v.74h-5.65v-1.28h3.61v-.16c0-.4-.12-.74-.36-1.02-.24-.28-.58-.42-1.03-.42-.51,0-.9,.19-1.17,.58s-.4,.91-.4,1.58v.44c0,.65,.14,1.17,.43,1.55,.29,.38,.72,.58,1.28,.58,.39,0,.73-.1,1.01-.29,.29-.19,.52-.42,.69-.67l1.45,.95c-.23,.44-.62,.81-1.17,1.1-.55,.29-1.2,.44-1.95,.44-1.19,0-2.12-.34-2.79-1.03s-1.01-1.6-1.01-2.74v-.22Z"/><path class="cls-1" d="M242.62,84.67h1.96l.04,.83h.04c.22-.31,.51-.56,.87-.73s.75-.25,1.16-.25c.51,0,.95,.11,1.33,.32,.38,.22,.65,.53,.83,.95h.03c.25-.42,.58-.73,1.01-.95,.43-.21,.88-.32,1.35-.32,.74,0,1.33,.23,1.78,.69,.45,.46,.68,1.23,.68,2.31v4.46h-2.07v-4.59c0-.44-.09-.76-.27-.98-.18-.21-.45-.32-.81-.32-.31,0-.58,.08-.82,.25-.23,.17-.42,.41-.55,.72v4.91h-2.07v-4.57c0-.45-.09-.78-.27-.99-.18-.21-.46-.32-.82-.32-.31,0-.58,.08-.81,.25-.23,.17-.41,.41-.54,.72v4.91h-2.06v-7.33Z"/><path class="cls-1" d="M255.42,88.22c0-1.15,.35-2.07,1.05-2.75,.7-.68,1.61-1.02,2.72-1.02s2.03,.34,2.73,1.02c.7,.68,1.04,1.59,1.04,2.75v.22c0,1.15-.35,2.07-1.04,2.75-.7,.68-1.6,1.02-2.73,1.02s-2.02-.34-2.72-1.02c-.7-.68-1.05-1.59-1.05-2.75v-.22Zm2.11,.34c0,.68,.14,1.2,.43,1.55,.29,.35,.7,.53,1.23,.53s.93-.18,1.22-.53,.43-.87,.43-1.55v-.46c0-.68-.15-1.2-.44-1.55s-.7-.53-1.21-.53-.92,.18-1.22,.53-.44,.87-.44,1.55v.46Z"/><path class="cls-1" d="M264.72,84.67h1.96l.05,.8h.04c.14-.27,.34-.51,.6-.71,.26-.2,.55-.29,.87-.29,.09,0,.19,.01,.29,.03,.1,.02,.17,.04,.21,.06v1.79c-.08-.02-.17-.03-.26-.05-.09-.01-.19-.02-.3-.02-.31,0-.6,.09-.85,.28-.25,.19-.43,.42-.55,.71v4.71h-2.07v-7.33Z"/><path class="cls-1" d="M270.15,93.36c.12,.04,.24,.07,.39,.09,.14,.02,.28,.03,.41,.03,.31,0,.59-.1,.82-.29,.23-.2,.43-.6,.6-1.22h-.08l-2.84-7.29h2.09l1.49,4.26c.06,.18,.11,.34,.14,.48,.03,.15,.06,.3,.1,.45h.04c.03-.16,.07-.31,.1-.45,.03-.15,.08-.31,.14-.48l1.43-4.26h1.85l-3.01,8.19c-.26,.71-.62,1.25-1.07,1.61-.45,.37-1,.55-1.65,.55-.21,0-.39-.01-.54-.03s-.29-.06-.42-.11l.02-1.52Z"/></g><g><path class="cls-1" d="M.51,16.95H2.69v.16c0,.5,.16,.87,.48,1.11,.32,.25,.77,.37,1.34,.37s1.01-.12,1.31-.35c.31-.23,.46-.54,.46-.92s-.15-.71-.43-.92c-.29-.21-.93-.45-1.91-.7-1.06-.27-1.87-.65-2.42-1.12-.56-.47-.84-1.12-.84-1.95,0-.89,.34-1.61,1.02-2.14,.68-.53,1.6-.8,2.75-.8s2.07,.28,2.76,.83,1.04,1.28,1.04,2.2v.17h-2.14v-.15c0-.43-.14-.78-.42-1.04-.28-.26-.69-.4-1.24-.4s-.96,.1-1.21,.31c-.26,.21-.39,.49-.39,.85s.14,.61,.42,.79c.28,.18,.91,.4,1.9,.66,1.04,.28,1.85,.66,2.42,1.15,.57,.49,.86,1.19,.87,2.1,0,.96-.36,1.7-1.08,2.24-.72,.53-1.67,.8-2.86,.8s-2.14-.26-2.88-.78c-.74-.52-1.11-1.29-1.11-2.29v-.18Z"/><path class="cls-1" d="M9.76,16.22c0-1.15,.35-2.07,1.05-2.75,.7-.68,1.61-1.02,2.72-1.02s2.03,.34,2.73,1.02c.7,.68,1.04,1.59,1.04,2.75v.22c0,1.15-.35,2.07-1.04,2.75-.7,.68-1.6,1.02-2.73,1.02s-2.02-.34-2.72-1.02c-.7-.68-1.05-1.59-1.05-2.75v-.22Zm2.11,.34c0,.68,.14,1.2,.43,1.55,.29,.35,.7,.53,1.23,.53s.93-.18,1.22-.53,.43-.87,.43-1.55v-.46c0-.68-.15-1.2-.44-1.55s-.7-.53-1.21-.53-.92,.18-1.22,.53-.44,.87-.44,1.55v.46Z"/><path class="cls-1" d="M18.99,12.67h2.07v4.54c0,.5,.1,.85,.31,1.05,.2,.2,.48,.29,.83,.29,.31,0,.6-.09,.84-.27,.25-.18,.43-.41,.56-.68v-4.92h2.06v7.33h-1.96l-.05-.82h-.03c-.21,.3-.51,.53-.88,.71-.38,.17-.79,.26-1.25,.26-.73,0-1.33-.23-1.8-.69-.47-.46-.7-1.23-.7-2.31v-4.47Z"/><path class="cls-1" d="M27.83,12.67h1.96l.05,.8h.04c.14-.27,.34-.51,.6-.71,.26-.2,.55-.29,.87-.29,.09,0,.19,.01,.29,.03,.1,.02,.17,.04,.21,.06v1.79c-.08-.02-.17-.03-.26-.05-.09-.01-.19-.02-.3-.02-.31,0-.6,.09-.85,.28-.25,.19-.43,.42-.55,.71v4.71h-2.07v-7.33Z"/><path class="cls-1" d="M32.82,16.22c0-1.16,.34-2.07,1.02-2.75,.68-.68,1.58-1.01,2.7-1.01s1.88,.27,2.43,.8,.85,1.16,.89,1.89v.12s-2,0-2,0v-.09c0-.34-.11-.62-.33-.85-.22-.23-.56-.34-1.01-.34-.53,0-.93,.19-1.19,.57-.27,.38-.4,.9-.4,1.54v.46c0,.64,.13,1.16,.39,1.54s.66,.58,1.2,.58c.5,0,.84-.12,1.04-.36,.2-.24,.3-.52,.3-.84v-.08h2.01v.08c0,.73-.29,1.36-.87,1.91s-1.4,.82-2.46,.82c-1.12,0-2.02-.34-2.7-1.01-.68-.68-1.02-1.59-1.02-2.75v-.22Z"/><path class="cls-1" d="M41.07,16.22c0-1.13,.34-2.04,1.02-2.73,.68-.69,1.55-1.03,2.61-1.03s1.9,.32,2.51,.97c.61,.65,.91,1.54,.91,2.67v.74h-5.65v-1.28h3.61v-.16c0-.4-.12-.74-.36-1.02-.24-.28-.58-.42-1.03-.42-.51,0-.9,.19-1.17,.58s-.4,.91-.4,1.58v.44c0,.65,.14,1.17,.43,1.55,.29,.38,.72,.58,1.28,.58,.39,0,.73-.1,1.01-.29,.29-.19,.52-.42,.69-.67l1.45,.95c-.23,.44-.62,.81-1.17,1.1-.55,.29-1.2,.44-1.95,.44-1.19,0-2.12-.34-2.79-1.03s-1.01-1.6-1.01-2.74v-.22Z"/><path class="cls-1" d="M53.41,14.63c0-1.62,.42-2.85,1.25-3.69,.84-.84,1.92-1.26,3.27-1.26,1.27,0,2.28,.33,3.03,1,.75,.67,1.12,1.52,1.12,2.56v.17h-2.15v-.19c0-.61-.17-1.07-.5-1.4-.33-.33-.84-.49-1.51-.49s-1.25,.24-1.67,.71c-.42,.47-.64,1.26-.64,2.36v1.1c0,1.01,.21,1.78,.62,2.3,.41,.52,.98,.78,1.71,.78,.64,0,1.13-.17,1.45-.52,.32-.35,.5-.81,.53-1.39v-.18h2.15v.18c-.05,1.03-.43,1.88-1.15,2.54-.72,.67-1.72,1-2.99,1-1.35,0-2.44-.42-3.27-1.27-.83-.84-1.25-2.07-1.25-3.68v-.62Z"/><path class="cls-1" d="M63.31,16.22c0-1.15,.35-2.07,1.05-2.75,.7-.68,1.61-1.02,2.72-1.02s2.03,.34,2.73,1.02c.7,.68,1.04,1.59,1.04,2.75v.22c0,1.15-.35,2.07-1.04,2.75-.7,.68-1.6,1.02-2.73,1.02s-2.02-.34-2.72-1.02c-.7-.68-1.05-1.59-1.05-2.75v-.22Zm2.11,.34c0,.68,.14,1.2,.43,1.55,.29,.35,.7,.53,1.23,.53s.93-.18,1.22-.53,.43-.87,.43-1.55v-.46c0-.68-.15-1.2-.44-1.55s-.7-.53-1.21-.53-.92,.18-1.22,.53-.44,.87-.44,1.55v.46Z"/><path class="cls-1" d="M72.22,16.22c0-1.09,.29-1.98,.89-2.66,.59-.68,1.36-1.02,2.3-1.02,.45,0,.85,.08,1.18,.24,.34,.16,.59,.38,.77,.64v-4.05h2.06v10.63h-1.96l-.04-.84h-.03c-.15,.28-.41,.52-.76,.7-.35,.18-.76,.28-1.21,.28-1,0-1.78-.34-2.34-1.03-.57-.69-.85-1.57-.85-2.67v-.22Zm2.5,1.79c.26,.37,.65,.56,1.17,.56,.36,0,.67-.1,.91-.29,.25-.19,.43-.42,.55-.7v-2.51c-.12-.27-.29-.51-.53-.7-.24-.19-.55-.29-.93-.29-.51,0-.9,.19-1.17,.57-.27,.38-.4,.87-.4,1.47v.42c0,.6,.13,1.09,.39,1.47Z"/><path class="cls-1" d="M81.19,16.22c0-1.13,.34-2.04,1.02-2.73,.68-.69,1.55-1.03,2.61-1.03s1.9,.32,2.51,.97c.61,.65,.91,1.54,.91,2.67v.74h-5.65v-1.28h3.61v-.16c0-.4-.12-.74-.36-1.02-.24-.28-.58-.42-1.03-.42-.51,0-.9,.19-1.17,.58s-.4,.91-.4,1.58v.44c0,.65,.14,1.17,.43,1.55,.29,.38,.72,.58,1.28,.58,.39,0,.73-.1,1.01-.29,.29-.19,.52-.42,.69-.67l1.45,.95c-.23,.44-.62,.81-1.17,1.1-.55,.29-1.2,.44-1.95,.44-1.19,0-2.12-.34-2.79-1.03s-1.01-1.6-1.01-2.74v-.22Z"/></g><g><path class="cls-1" d="M220.69,14.63c0-1.62,.42-2.85,1.25-3.69,.84-.84,1.92-1.26,3.27-1.26,1.27,0,2.28,.33,3.03,1,.75,.67,1.12,1.52,1.12,2.56v.17h-2.15v-.19c0-.61-.17-1.07-.5-1.4-.33-.33-.84-.49-1.51-.49s-1.25,.24-1.67,.71c-.42,.47-.64,1.26-.64,2.36v1.1c0,1.01,.21,1.78,.62,2.3,.41,.52,.98,.78,1.71,.78,.64,0,1.13-.17,1.45-.52,.32-.35,.5-.81,.53-1.39v-.18h2.15v.18c-.05,1.03-.43,1.88-1.15,2.54-.72,.67-1.72,1-2.99,1-1.35,0-2.44-.42-3.27-1.27-.83-.84-1.25-2.07-1.25-3.68v-.62Z"/><path class="cls-1" d="M230.59,16.22c0-1.15,.35-2.07,1.05-2.75,.7-.68,1.61-1.02,2.72-1.02s2.03,.34,2.73,1.02c.7,.68,1.04,1.59,1.04,2.75v.22c0,1.15-.35,2.07-1.04,2.75-.7,.68-1.6,1.02-2.73,1.02s-2.02-.34-2.72-1.02c-.7-.68-1.05-1.59-1.05-2.75v-.22Zm2.11,.34c0,.68,.14,1.2,.43,1.55,.29,.35,.7,.53,1.23,.53s.93-.18,1.22-.53,.43-.87,.43-1.55v-.46c0-.68-.15-1.2-.44-1.55s-.7-.53-1.21-.53-.92,.18-1.22,.53-.44,.87-.44,1.55v.46Z"/><path class="cls-1" d="M239.9,12.67h1.96l.04,.83h.04c.22-.31,.51-.56,.87-.73s.75-.25,1.16-.25c.51,0,.95,.11,1.33,.32,.38,.22,.65,.53,.83,.95h.03c.25-.42,.58-.73,1.01-.95,.43-.21,.88-.32,1.35-.32,.74,0,1.33,.23,1.78,.69,.45,.46,.68,1.23,.68,2.31v4.46h-2.07v-4.59c0-.44-.09-.76-.27-.98-.18-.21-.45-.32-.81-.32-.31,0-.58,.08-.82,.25-.23,.17-.42,.41-.55,.72v4.91h-2.07v-4.57c0-.45-.09-.78-.27-.99-.18-.21-.46-.32-.82-.32-.31,0-.58,.08-.81,.25-.23,.17-.41,.41-.54,.72v4.91h-2.06v-7.33Z"/><path class="cls-1" d="M253.08,12.67h1.93l.05,.83h.03c.15-.28,.42-.51,.79-.7,.38-.18,.79-.27,1.25-.27,.94,0,1.7,.33,2.28,1s.87,1.57,.87,2.69v.22c0,1.12-.28,2.02-.85,2.69-.57,.67-1.31,1.01-2.23,1.01-.45,0-.86-.08-1.23-.23-.37-.15-.64-.37-.82-.64v3.62h-2.06V12.67Zm2.63,5.6c.27,.2,.59,.3,.95,.3,.51,0,.89-.18,1.14-.53s.38-.85,.38-1.49v-.45c0-.64-.12-1.13-.38-1.49-.25-.35-.63-.53-1.15-.53-.37,0-.69,.1-.94,.3-.25,.2-.44,.43-.56,.69v2.49c.11,.27,.29,.51,.57,.71Z"/><path class="cls-1" d="M262.21,9.86c.21-.21,.51-.32,.9-.32s.69,.11,.9,.32c.21,.21,.31,.48,.31,.79s-.11,.58-.32,.79c-.21,.21-.51,.32-.9,.32s-.69-.11-.9-.32c-.21-.21-.31-.48-.31-.79s.1-.58,.32-.79Zm-.14,2.82h2.08v7.33h-2.08v-7.33Z"/><path class="cls-1" d="M266.34,9.37h2.07v10.63h-2.07V9.37Z"/><path class="cls-1" d="M270.19,16.22c0-1.13,.34-2.04,1.02-2.73,.68-.69,1.55-1.03,2.61-1.03s1.9,.32,2.51,.97c.61,.65,.91,1.54,.91,2.67v.74h-5.65v-1.28h3.61v-.16c0-.4-.12-.74-.36-1.02-.24-.28-.58-.42-1.03-.42-.51,0-.9,.19-1.17,.58s-.4,.91-.4,1.58v.44c0,.65,.14,1.17,.43,1.55,.29,.38,.72,.58,1.28,.58,.39,0,.73-.1,1.01-.29,.29-.19,.52-.42,.69-.67l1.45,.95c-.23,.44-.62,.81-1.17,1.1-.55,.29-1.2,.44-1.95,.44-1.19,0-2.12-.34-2.79-1.03s-1.01-1.6-1.01-2.74v-.22Z"/><path class="cls-1" d="M278.53,16.22c0-1.09,.29-1.98,.89-2.66,.59-.68,1.36-1.02,2.3-1.02,.45,0,.85,.08,1.18,.24,.34,.16,.59,.38,.77,.64v-4.05h2.06v10.63h-1.96l-.04-.84h-.03c-.15,.28-.41,.52-.76,.7-.35,.18-.76,.28-1.21,.28-1,0-1.78-.34-2.34-1.03-.57-.69-.85-1.57-.85-2.67v-.22Zm2.5,1.79c.26,.37,.65,.56,1.17,.56,.36,0,.67-.1,.91-.29,.25-.19,.43-.42,.55-.7v-2.51c-.12-.27-.29-.51-.53-.7-.24-.19-.55-.29-.93-.29-.51,0-.9,.19-1.17,.57-.27,.38-.4,.87-.4,1.47v.42c0,.6,.13,1.09,.39,1.47Z"/><path class="cls-1" d="M291.5,14.63c0-1.62,.42-2.85,1.25-3.69,.84-.84,1.92-1.26,3.27-1.26,1.27,0,2.28,.33,3.03,1,.75,.67,1.12,1.52,1.12,2.56v.17h-2.15v-.19c0-.61-.17-1.07-.5-1.4-.33-.33-.84-.49-1.51-.49s-1.25,.24-1.67,.71c-.42,.47-.64,1.26-.64,2.36v1.1c0,1.01,.21,1.78,.62,2.3,.41,.52,.98,.78,1.71,.78,.64,0,1.13-.17,1.45-.52,.32-.35,.5-.81,.53-1.39v-.18h2.15v.18c-.05,1.03-.43,1.88-1.15,2.54-.72,.67-1.72,1-2.99,1-1.35,0-2.44-.42-3.27-1.27-.83-.84-1.25-2.07-1.25-3.68v-.62Z"/><path class="cls-1" d="M301.4,16.22c0-1.15,.35-2.07,1.05-2.75,.7-.68,1.61-1.02,2.72-1.02s2.03,.34,2.73,1.02c.7,.68,1.04,1.59,1.04,2.75v.22c0,1.15-.35,2.07-1.04,2.75-.7,.68-1.6,1.02-2.73,1.02s-2.02-.34-2.72-1.02c-.7-.68-1.05-1.59-1.05-2.75v-.22Zm2.11,.34c0,.68,.14,1.2,.43,1.55,.29,.35,.7,.53,1.23,.53s.93-.18,1.22-.53,.43-.87,.43-1.55v-.46c0-.68-.15-1.2-.44-1.55s-.7-.53-1.21-.53-.92,.18-1.22,.53-.44,.87-.44,1.55v.46Z"/><path class="cls-1" d="M310.31,16.22c0-1.09,.29-1.98,.89-2.66,.59-.68,1.36-1.02,2.3-1.02,.45,0,.85,.08,1.18,.24,.34,.16,.59,.38,.77,.64v-4.05h2.06v10.63h-1.96l-.04-.84h-.03c-.15,.28-.41,.52-.76,.7-.35,.18-.76,.28-1.21,.28-1,0-1.78-.34-2.34-1.03-.57-.69-.85-1.57-.85-2.67v-.22Zm2.5,1.79c.26,.37,.65,.56,1.17,.56,.36,0,.67-.1,.91-.29,.25-.19,.43-.42,.55-.7v-2.51c-.12-.27-.29-.51-.53-.7-.24-.19-.55-.29-.93-.29-.51,0-.9,.19-1.17,.57-.27,.38-.4,.87-.4,1.47v.42c0,.6,.13,1.09,.39,1.47Z"/><path class="cls-1" d="M319.28,16.22c0-1.13,.34-2.04,1.02-2.73,.68-.69,1.55-1.03,2.61-1.03s1.9,.32,2.51,.97c.61,.65,.91,1.54,.91,2.67v.74h-5.65v-1.28h3.61v-.16c0-.4-.12-.74-.36-1.02-.24-.28-.58-.42-1.03-.42-.51,0-.9,.19-1.17,.58s-.4,.91-.4,1.58v.44c0,.65,.14,1.17,.43,1.55,.29,.38,.72,.58,1.28,.58,.39,0,.73-.1,1.01-.29,.29-.19,.52-.42,.69-.67l1.45,.95c-.23,.44-.62,.81-1.17,1.1-.55,.29-1.2,.44-1.95,.44-1.19,0-2.12-.34-2.79-1.03s-1.01-1.6-1.01-2.74v-.22Z"/></g><g><path class="cls-1" d="M306.75,126.41c-.17,.36-.39,.67-.67,.93-.28,.26-.61,.45-1,.59s-.81,.21-1.28,.21c-.37,0-.71-.05-1.03-.15-.31-.1-.6-.24-.85-.42-.23-.17-.44-.37-.61-.61s-.33-.5-.45-.79c-.12-.29-.21-.6-.27-.95-.06-.35-.1-.71-.1-1.1v-1.21c0-.36,.03-.71,.09-1.03,.06-.33,.14-.63,.26-.91,.13-.34,.3-.65,.52-.91s.46-.49,.73-.68c.24-.16,.51-.28,.8-.36,.29-.08,.6-.13,.94-.13,.49,0,.93,.07,1.32,.21,.38,.14,.71,.34,.98,.6,.27,.26,.49,.58,.64,.95,.16,.37,.25,.8,.3,1.26h-1.73c-.02-.27-.06-.5-.12-.7-.06-.2-.16-.37-.27-.51-.12-.13-.28-.23-.46-.3-.18-.07-.4-.1-.66-.1-.14,0-.26,.01-.38,.04-.12,.03-.23,.07-.32,.13-.17,.1-.31,.24-.43,.42-.12,.18-.21,.4-.28,.64-.05,.19-.09,.4-.12,.63-.02,.23-.04,.47-.04,.74v1.22c0,.36,.02,.68,.06,.96,.04,.28,.1,.53,.18,.74,.06,.14,.13,.27,.21,.38,.08,.11,.17,.2,.27,.28,.11,.08,.24,.14,.37,.18,.14,.04,.29,.06,.46,.06,.23,0,.43-.03,.61-.09,.18-.06,.33-.15,.46-.27,.13-.12,.23-.28,.3-.48s.12-.43,.14-.7h1.73c-.03,.45-.13,.86-.29,1.22Z"/><path class="cls-1" d="M308.56,123.25c.14-.41,.35-.77,.62-1.08,.27-.3,.6-.54,.98-.72,.39-.17,.83-.26,1.34-.26s.95,.09,1.34,.26c.39,.17,.72,.41,.99,.72,.27,.3,.47,.66,.61,1.08,.14,.41,.21,.86,.21,1.35v.13c0,.49-.07,.94-.21,1.36-.14,.41-.34,.77-.61,1.08-.27,.3-.6,.54-.99,.71-.39,.17-.84,.26-1.33,.26s-.95-.09-1.34-.26c-.39-.17-.72-.41-.99-.71-.27-.3-.48-.66-.62-1.08-.14-.41-.21-.87-.21-1.36v-.13c0-.49,.07-.94,.21-1.35Zm1.59,2.26c.05,.25,.14,.46,.25,.64,.12,.19,.26,.33,.45,.44,.18,.11,.4,.16,.66,.16s.47-.05,.65-.16c.18-.11,.33-.25,.44-.44,.11-.18,.19-.39,.25-.64,.05-.24,.08-.51,.08-.79v-.13c0-.27-.03-.53-.08-.77-.05-.24-.14-.46-.25-.64-.12-.18-.26-.33-.44-.44-.18-.11-.4-.16-.66-.16s-.47,.05-.65,.16c-.18,.11-.33,.25-.44,.44-.12,.19-.2,.4-.25,.64-.05,.24-.08,.5-.08,.77v.13c0,.28,.03,.54,.08,.79Z"/><path class="cls-1" d="M316.29,121.32h1.56l.1,.93c.09-.12,.18-.24,.28-.34,.1-.1,.21-.2,.33-.28,.2-.14,.41-.25,.65-.32s.48-.11,.75-.11c.34,0,.65,.05,.93,.15s.52,.25,.73,.47c.2,.22,.36,.5,.47,.84,.11,.34,.17,.75,.17,1.24v4.11h-1.72v-4.09c0-.26-.03-.48-.09-.65-.06-.17-.15-.3-.26-.4-.11-.1-.25-.17-.4-.21s-.33-.06-.53-.06c-.16,0-.32,.02-.45,.06-.14,.04-.26,.09-.37,.17-.09,.05-.16,.12-.23,.19-.07,.07-.13,.16-.19,.25v4.75h-1.72v-6.68Z"/><path class="cls-1" d="M327.15,121.32h2.49v1.26h-2.49v2.87c0,.24,.03,.45,.08,.61,.06,.16,.13,.29,.24,.39,.1,.1,.23,.17,.37,.21,.15,.04,.31,.06,.49,.06,.13,0,.27,0,.4-.02,.14-.01,.27-.03,.4-.05,.12-.02,.24-.04,.35-.06s.2-.04,.28-.06l.17,1.18c-.12,.07-.26,.13-.42,.18-.16,.05-.33,.09-.51,.13-.18,.03-.37,.06-.56,.08s-.39,.03-.58,.03c-.37,0-.7-.05-1-.15s-.55-.25-.76-.45c-.21-.2-.38-.46-.49-.77-.12-.32-.17-.69-.17-1.13v-3.04h-1.52v-1.26h1.52v-1.64h1.72v1.64Z"/><path class="cls-1" d="M333.56,127.87c-.42-.17-.78-.4-1.08-.69-.3-.29-.53-.63-.69-1.02-.16-.39-.24-.81-.24-1.26v-.25c0-.51,.08-.98,.24-1.4,.16-.42,.38-.79,.67-1.09,.29-.3,.63-.54,1.02-.71,.4-.17,.82-.25,1.29-.25s.91,.08,1.29,.24,.7,.38,.96,.67c.26,.29,.46,.63,.59,1.04s.2,.85,.2,1.34v.73h-4.53v.02c.06,.27,.13,.48,.22,.64,.09,.16,.21,.31,.36,.44,.16,.14,.34,.24,.54,.31,.2,.07,.42,.11,.66,.11,.34,0,.66-.06,.98-.19,.32-.13,.57-.32,.77-.57l.86,.93c-.22,.31-.56,.59-1.04,.84s-1.03,.38-1.68,.38c-.51,0-.98-.08-1.4-.25Zm.67-5.18c-.16,.07-.3,.17-.42,.29-.12,.13-.23,.28-.31,.46-.08,.18-.14,.37-.19,.59h2.81v-.14c0-.18-.03-.35-.1-.51-.07-.16-.16-.3-.27-.42-.12-.12-.26-.21-.42-.27-.17-.07-.36-.1-.58-.1-.19,0-.37,.03-.53,.1Z"/><path class="cls-1" d="M339.43,121.32h1.56l.1,.93c.09-.12,.18-.24,.28-.34,.1-.1,.21-.2,.33-.28,.2-.14,.41-.25,.65-.32s.48-.11,.75-.11c.34,0,.65,.05,.93,.15s.52,.25,.73,.47c.2,.22,.36,.5,.47,.84,.11,.34,.17,.75,.17,1.24v4.11h-1.72v-4.09c0-.26-.03-.48-.09-.65-.06-.17-.15-.3-.26-.4-.11-.1-.25-.17-.4-.21s-.33-.06-.53-.06c-.16,0-.32,.02-.45,.06-.14,.04-.26,.09-.37,.17-.09,.05-.16,.12-.23,.19-.07,.07-.13,.16-.19,.25v4.75h-1.72v-6.68Z"/><path class="cls-1" d="M350.29,121.32h2.49v1.26h-2.49v2.87c0,.24,.03,.45,.08,.61,.06,.16,.13,.29,.24,.39,.1,.1,.23,.17,.37,.21,.15,.04,.31,.06,.49,.06,.13,0,.27,0,.4-.02,.14-.01,.27-.03,.4-.05,.12-.02,.24-.04,.35-.06s.2-.04,.28-.06l.17,1.18c-.12,.07-.26,.13-.42,.18-.16,.05-.33,.09-.51,.13-.18,.03-.37,.06-.56,.08s-.39,.03-.58,.03c-.37,0-.7-.05-1-.15s-.55-.25-.76-.45c-.21-.2-.38-.46-.49-.77-.12-.32-.17-.69-.17-1.13v-3.04h-1.52v-1.26h1.52v-1.64h1.72v1.64Z"/></g><rect class="cls-3" x="220" y="108" width="207" height="152"/><g><path class="cls-1" d="M220.62,36.49h1.52l2.01,5.56,.11,.48,.12-.48,1.97-5.56h1.51l-3,7.51h-1.22l-3.03-7.51Z"/><path class="cls-1" d="M234.56,43.65c-.03-.14-.06-.28-.07-.43-.12,.12-.26,.24-.42,.35s-.32,.21-.51,.29c-.19,.09-.39,.16-.6,.21-.22,.05-.44,.07-.68,.07-.39,0-.75-.06-1.07-.17s-.6-.27-.82-.47c-.23-.2-.4-.43-.53-.71-.12-.27-.19-.57-.19-.88,0-.41,.08-.78,.25-1.09,.16-.32,.4-.58,.71-.79,.3-.2,.66-.35,1.09-.45,.42-.1,.9-.15,1.43-.15h1.31v-.55c0-.21-.04-.4-.11-.57-.08-.17-.18-.31-.32-.43-.14-.12-.32-.21-.52-.28s-.44-.1-.71-.1c-.24,0-.45,.03-.64,.09-.19,.06-.34,.14-.47,.24-.12,.1-.21,.21-.28,.35-.07,.14-.1,.28-.1,.43h-1.47c0-.29,.07-.57,.21-.83,.14-.27,.34-.51,.6-.73,.26-.21,.58-.38,.95-.51,.37-.13,.8-.19,1.28-.19,.44,0,.84,.05,1.21,.16s.7,.26,.97,.47c.27,.22,.48,.49,.64,.81,.16,.32,.24,.69,.24,1.12v3.41c0,.3,.02,.58,.07,.86s.11,.52,.2,.72v.11h-1.52c-.05-.1-.09-.21-.12-.35Zm-1.37-.82c.2-.06,.39-.14,.55-.23,.17-.1,.31-.21,.43-.33,.12-.12,.22-.25,.28-.39v-1.45h-1.14c-.4,0-.75,.04-1.05,.1s-.53,.18-.71,.32c-.14,.11-.24,.24-.31,.39-.07,.15-.1,.32-.1,.5,0,.17,.03,.33,.09,.48,.06,.15,.14,.27,.26,.37,.12,.1,.26,.18,.44,.24s.38,.09,.6,.09,.46-.03,.66-.09Z"/><path class="cls-1" d="M244.31,36.4c.25,.04,.45,.08,.59,.13l-.21,1.45c-.25-.06-.49-.1-.73-.12-.24-.03-.48-.04-.72-.04-.3,0-.56,.03-.8,.1s-.45,.17-.63,.29c-.18,.12-.33,.28-.46,.46-.13,.18-.24,.38-.32,.61v4.73h-1.48v-7.51h1.39l.06,1.02v.18c.31-.41,.68-.74,1.11-.98,.43-.24,.91-.36,1.44-.36,.25,0,.51,.02,.76,.05Z"/><path class="cls-1" d="M256.65,37.25c.15-.28,.35-.5,.6-.66,.25-.16,.55-.24,.9-.25,.19,0,.37,.02,.52,.07s.29,.11,.4,.19c.09,.06,.17,.14,.23,.24,.07,.09,.12,.2,.17,.31,.06-.11,.14-.21,.23-.3,.09-.09,.18-.17,.28-.24,.13-.08,.27-.14,.43-.19s.33-.07,.51-.08c.25,0,.48,.04,.68,.12,.21,.08,.38,.2,.52,.35,.15,.17,.27,.39,.35,.67,.08,.27,.12,.6,.12,.97v5.54h-1.38v-5.55c0-.15-.02-.29-.05-.4s-.08-.2-.15-.27c-.06-.07-.15-.12-.24-.15s-.21-.05-.33-.05c-.13,0-.24,.02-.34,.05-.1,.03-.18,.08-.24,.14-.06,.06-.12,.13-.16,.21s-.07,.17-.09,.26v5.76h-1.36v-5.55c0-.15-.02-.29-.05-.4-.03-.11-.08-.21-.15-.27s-.14-.12-.24-.15c-.09-.03-.2-.04-.32-.04-.13,0-.24,.02-.34,.05-.1,.03-.19,.08-.26,.14-.05,.05-.1,.1-.14,.16s-.07,.13-.1,.2v5.87h-1.38v-7.51h1.3l.04,.76Z"/><path class="cls-1" d="M264.85,47c-.16-.03-.29-.05-.39-.08l.22-1.17c.11,0,.22,.02,.33,.02,.12,0,.21,.01,.27,.01,.17,0,.33-.05,.46-.15,.14-.1,.26-.21,.36-.34,.11-.12,.19-.25,.26-.36,.07-.12,.13-.23,.18-.32l.49-.95-3.22-7.17h1.63l1.96,4.71,.3,.87,.33-.84,1.87-4.74h1.64l-3.81,8.67c-.09,.19-.2,.39-.33,.61-.13,.22-.3,.42-.5,.61-.19,.18-.42,.34-.69,.47-.27,.13-.58,.19-.93,.19-.14,0-.29-.01-.44-.04Z"/><path class="cls-1" d="M272.46,33.89h1.6l2.08,7.28,.15,.54,.16-.56,2.09-7.26h1.6l-3.15,10.11h-1.37l-3.16-10.11Z"/><path class="cls-1" d="M286.62,43.65c-.03-.14-.06-.28-.07-.43-.12,.12-.26,.24-.42,.35s-.32,.21-.51,.29c-.19,.09-.39,.16-.6,.21-.22,.05-.44,.07-.68,.07-.39,0-.75-.06-1.07-.17s-.6-.27-.82-.47c-.23-.2-.4-.43-.53-.71-.12-.27-.19-.57-.19-.88,0-.41,.08-.78,.25-1.09,.16-.32,.4-.58,.71-.79,.3-.2,.66-.35,1.09-.45,.42-.1,.9-.15,1.43-.15h1.31v-.55c0-.21-.04-.4-.11-.57-.08-.17-.18-.31-.32-.43-.14-.12-.32-.21-.52-.28s-.44-.1-.71-.1c-.24,0-.45,.03-.64,.09-.19,.06-.34,.14-.47,.24-.12,.1-.21,.21-.28,.35-.07,.14-.1,.28-.1,.43h-1.47c0-.29,.07-.57,.21-.83,.14-.27,.34-.51,.6-.73,.26-.21,.58-.38,.95-.51,.37-.13,.8-.19,1.28-.19,.44,0,.84,.05,1.21,.16s.7,.26,.97,.47c.27,.22,.48,.49,.64,.81,.16,.32,.24,.69,.24,1.12v3.41c0,.3,.02,.58,.07,.86s.11,.52,.2,.72v.11h-1.52c-.05-.1-.09-.21-.12-.35Zm-1.37-.82c.2-.06,.39-.14,.55-.23,.17-.1,.31-.21,.43-.33,.12-.12,.22-.25,.28-.39v-1.45h-1.14c-.4,0-.75,.04-1.05,.1s-.53,.18-.71,.32c-.14,.11-.24,.24-.31,.39-.07,.15-.1,.32-.1,.5,0,.17,.03,.33,.09,.48,.06,.15,.14,.27,.26,.37,.12,.1,.26,.18,.44,.24s.38,.09,.6,.09,.46-.03,.66-.09Z"/><path class="cls-1" d="M296.37,36.4c.25,.04,.45,.08,.59,.13l-.21,1.45c-.25-.06-.49-.1-.73-.12-.24-.03-.48-.04-.72-.04-.3,0-.56,.03-.8,.1s-.45,.17-.63,.29c-.18,.12-.33,.28-.46,.46-.13,.18-.24,.38-.32,.61v4.73h-1.48v-7.51h1.39l.06,1.02v.18c.31-.41,.68-.74,1.11-.98,.43-.24,.91-.36,1.44-.36,.25,0,.51,.02,.76,.05Z"/><path class="cls-1" d="M307.93,38.71v-1.25h6.3v1.25h-6.3Zm0,2.92v-1.25h6.3v1.25h-6.3Z"/><path class="cls-1" d="M328.1,44v-8.26l-2.62,.98v-1.32l3.99-1.51h.1v10.11h-1.48Z"/><path class="cls-1" d="M340.11,41.85c-.15,.5-.36,.92-.64,1.25-.28,.34-.62,.6-1.03,.77-.4,.17-.86,.26-1.38,.26s-.97-.09-1.38-.26-.75-.43-1.03-.78c-.28-.34-.5-.76-.65-1.25-.15-.5-.23-1.07-.23-1.71v-2.38c0-.65,.07-1.22,.22-1.72,.15-.5,.37-.92,.65-1.25,.28-.34,.62-.6,1.02-.78,.4-.18,.86-.26,1.37-.26s.98,.09,1.39,.26c.41,.18,.75,.43,1.03,.78,.28,.34,.5,.76,.65,1.25,.15,.5,.22,1.07,.22,1.72v2.38c0,.64-.07,1.21-.22,1.71Zm-1.28-4.86c-.03-.35-.09-.65-.17-.91-.09-.26-.21-.47-.37-.65-.14-.16-.32-.28-.52-.36s-.45-.12-.72-.12-.52,.04-.74,.13c-.21,.09-.39,.22-.54,.4-.18,.21-.31,.49-.39,.82-.08,.33-.12,.72-.12,1.17v2.25l3.58-2.73Zm.02,2.07v-.81l-3.57,2.71c.03,.33,.09,.62,.18,.87s.21,.46,.36,.62c.14,.17,.32,.29,.53,.38,.21,.09,.44,.13,.71,.13s.51-.04,.72-.13c.21-.09,.38-.21,.53-.38,.19-.21,.32-.49,.41-.83,.09-.34,.13-.74,.13-1.2v-1.36Z"/><path class="cls-1" d="M348.79,41.85c-.15,.5-.36,.92-.64,1.25-.28,.34-.62,.6-1.03,.77-.4,.17-.86,.26-1.38,.26s-.97-.09-1.38-.26-.75-.43-1.03-.78c-.28-.34-.5-.76-.65-1.25-.15-.5-.23-1.07-.23-1.71v-2.38c0-.65,.07-1.22,.22-1.72,.15-.5,.37-.92,.65-1.25,.28-.34,.62-.6,1.02-.78,.4-.18,.86-.26,1.37-.26s.98,.09,1.39,.26c.41,.18,.75,.43,1.03,.78,.28,.34,.5,.76,.65,1.25,.15,.5,.22,1.07,.22,1.72v2.38c0,.64-.07,1.21-.22,1.71Zm-1.28-4.86c-.03-.35-.09-.65-.17-.91-.09-.26-.21-.47-.37-.65-.14-.16-.32-.28-.52-.36s-.45-.12-.72-.12-.52,.04-.74,.13c-.21,.09-.39,.22-.54,.4-.18,.21-.31,.49-.39,.82-.08,.33-.12,.72-.12,1.17v2.25l3.58-2.73Zm.02,2.07v-.81l-3.57,2.71c.03,.33,.09,.62,.18,.87s.21,.46,.36,.62c.14,.17,.32,.29,.53,.38,.21,.09,.44,.13,.71,.13s.51-.04,.72-.13c.21-.09,.38-.21,.53-.38,.19-.21,.32-.49,.41-.83,.09-.34,.13-.74,.13-1.2v-1.36Z"/><path class="cls-1" d="M357.47,41.85c-.15,.5-.36,.92-.64,1.25-.28,.34-.62,.6-1.03,.77-.4,.17-.86,.26-1.38,.26s-.97-.09-1.38-.26-.75-.43-1.03-.78c-.28-.34-.5-.76-.65-1.25-.15-.5-.23-1.07-.23-1.71v-2.38c0-.65,.07-1.22,.22-1.72,.15-.5,.37-.92,.65-1.25,.28-.34,.62-.6,1.02-.78,.4-.18,.86-.26,1.37-.26s.98,.09,1.39,.26c.41,.18,.75,.43,1.03,.78,.28,.34,.5,.76,.65,1.25,.15,.5,.22,1.07,.22,1.72v2.38c0,.64-.07,1.21-.22,1.71Zm-1.28-4.86c-.03-.35-.09-.65-.17-.91-.09-.26-.21-.47-.37-.65-.14-.16-.32-.28-.52-.36s-.45-.12-.72-.12-.52,.04-.74,.13c-.21,.09-.39,.22-.54,.4-.18,.21-.31,.49-.39,.82-.08,.33-.12,.72-.12,1.17v2.25l3.58-2.73Zm.02,2.07v-.81l-3.57,2.71c.03,.33,.09,.62,.18,.87s.21,.46,.36,.62c.14,.17,.32,.29,.53,.38,.21,.09,.44,.13,.71,.13s.51-.04,.72-.13c.21-.09,.38-.21,.53-.38,.19-.21,.32-.49,.41-.83,.09-.34,.13-.74,.13-1.2v-1.36Z"/><path class="cls-1" d="M366.14,41.85c-.15,.5-.36,.92-.64,1.25-.28,.34-.62,.6-1.03,.77-.4,.17-.86,.26-1.38,.26s-.97-.09-1.38-.26-.75-.43-1.03-.78c-.28-.34-.5-.76-.65-1.25-.15-.5-.23-1.07-.23-1.71v-2.38c0-.65,.07-1.22,.22-1.72,.15-.5,.37-.92,.65-1.25,.28-.34,.62-.6,1.02-.78,.4-.18,.86-.26,1.37-.26s.98,.09,1.39,.26c.41,.18,.75,.43,1.03,.78,.28,.34,.5,.76,.65,1.25,.15,.5,.22,1.07,.22,1.72v2.38c0,.64-.07,1.21-.22,1.71Zm-1.28-4.86c-.03-.35-.09-.65-.17-.91-.09-.26-.21-.47-.37-.65-.14-.16-.32-.28-.52-.36s-.45-.12-.72-.12-.52,.04-.74,.13c-.21,.09-.39,.22-.54,.4-.18,.21-.31,.49-.39,.82-.08,.33-.12,.72-.12,1.17v2.25l3.58-2.73Zm.02,2.07v-.81l-3.57,2.71c.03,.33,.09,.62,.18,.87s.21,.46,.36,.62c.14,.17,.32,.29,.53,.38,.21,.09,.44,.13,.71,.13s.51-.04,.72-.13c.21-.09,.38-.21,.53-.38,.19-.21,.32-.49,.41-.83,.09-.34,.13-.74,.13-1.2v-1.36Z"/><path class="cls-1" d="M374.82,41.85c-.15,.5-.36,.92-.64,1.25-.28,.34-.62,.6-1.03,.77-.4,.17-.86,.26-1.38,.26s-.97-.09-1.38-.26-.75-.43-1.03-.78c-.28-.34-.5-.76-.65-1.25-.15-.5-.23-1.07-.23-1.71v-2.38c0-.65,.07-1.22,.22-1.72,.15-.5,.37-.92,.65-1.25,.28-.34,.62-.6,1.02-.78,.4-.18,.86-.26,1.37-.26s.98,.09,1.39,.26c.41,.18,.75,.43,1.03,.78,.28,.34,.5,.76,.65,1.25,.15,.5,.22,1.07,.22,1.72v2.38c0,.64-.07,1.21-.22,1.71Zm-1.28-4.86c-.03-.35-.09-.65-.17-.91-.09-.26-.21-.47-.37-.65-.14-.16-.32-.28-.52-.36s-.45-.12-.72-.12-.52,.04-.74,.13c-.21,.09-.39,.22-.54,.4-.18,.21-.31,.49-.39,.82-.08,.33-.12,.72-.12,1.17v2.25l3.58-2.73Zm.02,2.07v-.81l-3.57,2.71c.03,.33,.09,.62,.18,.87s.21,.46,.36,.62c.14,.17,.32,.29,.53,.38,.21,.09,.44,.13,.71,.13s.51-.04,.72-.13c.21-.09,.38-.21,.53-.38,.19-.21,.32-.49,.41-.83,.09-.34,.13-.74,.13-1.2v-1.36Z"/><path class="cls-1" d="M376.92,44v-1.04l3.3-3.63c.29-.31,.53-.59,.72-.84,.19-.25,.35-.48,.46-.68,.12-.2,.2-.4,.25-.58,.05-.19,.07-.37,.07-.56,0-.25-.04-.47-.11-.68-.08-.21-.18-.39-.32-.54-.15-.15-.32-.27-.53-.36-.2-.08-.43-.13-.69-.13-.31,0-.59,.04-.82,.14-.23,.09-.43,.22-.58,.38-.16,.17-.27,.37-.35,.61-.08,.24-.11,.52-.11,.82h-1.48c0-.44,.08-.84,.23-1.23,.16-.38,.38-.72,.67-1.01,.29-.29,.64-.51,1.05-.68,.41-.17,.88-.25,1.41-.25,.49,0,.93,.07,1.31,.21,.38,.14,.71,.34,.98,.59,.26,.25,.47,.55,.6,.9s.21,.73,.21,1.14c0,.31-.05,.61-.15,.91-.1,.3-.24,.59-.42,.88-.18,.29-.39,.58-.63,.87-.24,.29-.5,.58-.78,.88l-2.48,2.67h4.9v1.19h-6.71Z"/><path class="cls-1" d="M389.89,45.21c-.23,.5-.54,.92-.92,1.26l-.86-.46c.21-.33,.36-.68,.46-1.04,.1-.37,.15-.76,.15-1.19v-1.35h1.52v1.31c0,.48-.12,.97-.35,1.47Zm-1.18-8.87c.19-.21,.46-.32,.82-.32s.64,.1,.83,.31c.19,.21,.29,.46,.29,.76s-.1,.55-.29,.75-.47,.3-.82,.3-.62-.1-.81-.3-.28-.45-.28-.75,.09-.55,.28-.76Z"/></g><line class="cls-2" x1="200" y1="-15" x2="200" y2="52"/></g></svg>