<?xml version="1.0" encoding="UTF-8"?><svg id="images" xmlns="http://www.w3.org/2000/svg" viewBox="0 0 584 316"><defs><style>.cls-1{fill:#fcba28;}.Graphic_Style,.cls-2{stroke:#fcba28;stroke-dasharray:0 0 2 2;stroke-miterlimit:10;}.cls-2{fill:none;}</style></defs><g id="foreground"><g><path class="cls-1" d="M10.06,164.85c-.06-.16-.17-.31-.32-.44-.15-.13-.35-.26-.59-.37s-.54-.22-.91-.32c-.56-.15-1.05-.34-1.48-.56-.42-.22-.77-.46-1.04-.71-.27-.26-.47-.55-.61-.86-.14-.31-.2-.66-.2-1.03,0-.43,.09-.81,.27-1.16,.18-.35,.43-.64,.75-.89s.7-.43,1.13-.57c.43-.13,.91-.2,1.42-.2s1.01,.08,1.45,.23c.44,.15,.81,.37,1.13,.64,.31,.28,.56,.61,.74,.99,.18,.38,.26,.8,.26,1.25h-1.9c0-.23-.05-.44-.12-.62-.07-.19-.18-.35-.32-.49-.14-.13-.32-.24-.53-.32-.21-.08-.46-.12-.74-.12-.26,0-.49,.03-.69,.09s-.37,.15-.51,.26c-.14,.12-.24,.25-.32,.41s-.11,.32-.11,.5c0,.19,.05,.36,.14,.51,.09,.15,.23,.29,.41,.41,.18,.12,.4,.24,.66,.34,.26,.1,.55,.2,.87,.29,.35,.1,.68,.21,.99,.35,.31,.14,.6,.3,.87,.48,.4,.3,.72,.64,.95,1.03,.24,.39,.35,.85,.35,1.36,0,.44-.09,.84-.27,1.18-.18,.34-.42,.64-.74,.87-.31,.24-.69,.42-1.12,.54-.43,.12-.91,.18-1.42,.18s-1-.08-1.5-.23-.92-.37-1.29-.66c-.35-.29-.62-.62-.82-1.01s-.3-.84-.3-1.37h1.92c0,.31,.06,.57,.16,.79,.1,.22,.23,.4,.41,.53,.17,.14,.38,.24,.62,.31s.51,.1,.8,.1c.26,0,.49-.03,.69-.09,.2-.06,.37-.14,.51-.25,.14-.11,.25-.23,.32-.38,.07-.15,.11-.32,.11-.5s-.03-.35-.09-.51Z"/><path class="cls-1" d="M15.91,161.12c.12-.12,.24-.23,.37-.32,.2-.14,.42-.25,.66-.33,.24-.08,.5-.12,.76-.12,.39,0,.75,.06,1.08,.18s.61,.3,.85,.55,.42,.57,.55,.96c.13,.39,.2,.86,.2,1.41v4.55h-1.93v-4.56c0-.27-.03-.5-.1-.69-.07-.19-.16-.35-.29-.47-.12-.12-.28-.21-.45-.27-.18-.06-.38-.09-.6-.09-.17,0-.33,.02-.48,.05-.15,.03-.28,.08-.4,.15-.11,.06-.21,.12-.3,.2-.09,.08-.17,.17-.25,.26v5.42h-1.93v-10.67h1.93v4.19c.1-.14,.2-.28,.32-.4Z"/><path class="cls-1" d="M26.91,167.68c-.03-.12-.06-.25-.08-.38-.11,.12-.23,.22-.37,.33-.14,.1-.29,.19-.46,.26-.17,.08-.36,.14-.56,.18-.2,.04-.42,.07-.66,.07-.38,0-.74-.06-1.06-.17-.32-.11-.6-.27-.83-.47s-.41-.44-.54-.71c-.13-.28-.19-.57-.19-.9,0-.42,.08-.79,.24-1.11,.16-.32,.41-.59,.73-.79,.29-.19,.65-.33,1.08-.43,.43-.1,.92-.15,1.48-.15h1.08v-.44c0-.18-.03-.33-.08-.48-.06-.14-.14-.26-.25-.36-.12-.11-.26-.19-.43-.25-.17-.06-.38-.09-.61-.09-.2,0-.38,.02-.53,.07-.15,.05-.27,.12-.36,.21-.08,.08-.14,.17-.18,.29-.04,.11-.06,.23-.06,.37h-1.93c0-.32,.07-.62,.21-.91,.14-.29,.35-.54,.62-.76,.27-.22,.6-.39,.99-.52,.39-.13,.84-.19,1.34-.19,.45,0,.88,.06,1.27,.17,.39,.11,.73,.28,1.02,.49s.51,.49,.67,.82,.24,.71,.24,1.15v3.22c0,.4,.03,.74,.08,1,.05,.26,.12,.49,.22,.68v.12h-1.96c-.05-.09-.09-.2-.12-.32Zm-1.18-1.1c.17-.05,.32-.11,.45-.18,.13-.07,.25-.16,.35-.25s.17-.19,.23-.29v-1.29h-.99c-.3,0-.56,.03-.77,.09-.21,.06-.39,.14-.52,.24-.13,.11-.23,.23-.3,.38-.06,.15-.1,.3-.1,.48,0,.13,.02,.26,.07,.37,.05,.11,.12,.21,.21,.29,.09,.07,.21,.13,.34,.18s.29,.07,.48,.07c.19,0,.38-.02,.54-.07Z"/><path class="cls-1" d="M35.61,157.33v9.1h2.15v1.57h-6.35v-1.57h2.25v-7.52h-2.25v-1.58h4.2Z"/><path class="cls-1" d="M44.29,157.33v9.1h2.15v1.57h-6.35v-1.57h2.25v-7.52h-2.25v-1.58h4.2Z"/><path class="cls-1" d="M48.33,162.66c.16-.47,.39-.87,.69-1.21,.3-.34,.67-.61,1.11-.81s.94-.29,1.5-.29,1.07,.1,1.51,.29c.44,.19,.81,.46,1.12,.81,.3,.34,.53,.75,.69,1.21,.16,.46,.24,.97,.24,1.52v.15c0,.55-.08,1.06-.24,1.52-.16,.47-.39,.87-.69,1.21s-.67,.61-1.11,.8c-.44,.19-.94,.29-1.5,.29s-1.07-.1-1.51-.29c-.44-.19-.81-.46-1.11-.8-.31-.34-.54-.75-.69-1.21-.16-.46-.24-.97-.24-1.52v-.15c0-.55,.08-1.05,.24-1.52Zm1.78,2.55c.06,.28,.16,.52,.29,.72,.13,.21,.3,.37,.5,.49s.46,.18,.75,.18,.52-.06,.73-.18c.2-.12,.37-.29,.5-.49,.12-.2,.22-.44,.28-.72s.09-.57,.09-.88v-.15c0-.3-.03-.59-.09-.87-.06-.27-.15-.51-.28-.72-.13-.21-.3-.37-.5-.49-.2-.12-.45-.18-.74-.18s-.53,.06-.74,.18c-.2,.12-.37,.29-.5,.49-.13,.21-.22,.45-.29,.72-.06,.27-.09,.56-.09,.87v.15c0,.31,.03,.61,.09,.88Z"/><path class="cls-1" d="M56.24,160.49h1.76l.56,4.46,.09,.71,.13-.71,.81-4.46h1.29l.81,4.44,.13,.72,.1-.73,.56-4.43h1.77l-1.35,7.51h-1.69l-.83-4.01-.16-.76-.15,.76-.8,4.01h-1.69l-1.35-7.51Z"/><path class="cls-1" d="M81,166.21c-.19,.41-.44,.75-.75,1.04-.31,.29-.69,.51-1.12,.66-.44,.16-.92,.23-1.44,.23-.42,0-.8-.05-1.16-.16-.35-.11-.67-.26-.95-.47-.26-.19-.49-.42-.69-.69-.2-.27-.37-.56-.51-.89-.13-.32-.24-.68-.31-1.07-.07-.39-.11-.8-.11-1.24v-1.36c0-.41,.03-.79,.1-1.16,.06-.37,.16-.71,.29-1.02,.15-.38,.34-.73,.58-1.03s.51-.55,.82-.76c.27-.18,.57-.31,.9-.41,.33-.09,.68-.14,1.05-.14,.56,0,1.05,.08,1.48,.24,.43,.16,.8,.38,1.11,.67s.55,.65,.72,1.07,.29,.9,.33,1.42h-1.94c-.02-.3-.06-.56-.14-.79-.07-.23-.17-.42-.31-.57-.14-.15-.31-.26-.52-.34-.21-.08-.45-.11-.74-.11-.15,0-.3,.02-.43,.05-.13,.03-.25,.08-.36,.15-.19,.11-.35,.27-.48,.48s-.24,.45-.32,.72c-.06,.21-.1,.45-.13,.7-.03,.26-.04,.53-.04,.83v1.38c0,.4,.02,.76,.07,1.08,.04,.32,.11,.59,.21,.83,.06,.16,.14,.31,.23,.43s.19,.23,.31,.31c.12,.09,.27,.16,.42,.21s.33,.07,.52,.07c.25,0,.48-.03,.69-.1,.2-.07,.38-.17,.52-.31,.14-.14,.26-.32,.34-.54,.08-.22,.13-.48,.15-.78h1.95c-.03,.51-.14,.97-.33,1.38Z"/><path class="cls-1" d="M83.03,162.66c.16-.47,.39-.87,.69-1.21,.3-.34,.67-.61,1.11-.81,.44-.19,.94-.29,1.5-.29s1.07,.1,1.51,.29,.81,.46,1.12,.81c.3,.34,.53,.75,.69,1.21,.16,.46,.24,.97,.24,1.52v.15c0,.55-.08,1.06-.24,1.52-.16,.47-.39,.87-.69,1.21s-.67,.61-1.11,.8c-.44,.19-.94,.29-1.5,.29s-1.07-.1-1.51-.29c-.44-.19-.81-.46-1.11-.8-.31-.34-.54-.75-.69-1.21-.16-.46-.24-.97-.24-1.52v-.15c0-.55,.08-1.05,.24-1.52Zm1.78,2.55c.06,.28,.15,.52,.28,.72,.13,.21,.3,.37,.5,.49s.45,.18,.75,.18,.53-.06,.73-.18,.37-.29,.5-.49c.12-.2,.22-.44,.28-.72,.06-.28,.09-.57,.09-.88v-.15c0-.3-.03-.59-.09-.87-.06-.27-.15-.51-.28-.72-.13-.21-.3-.37-.5-.49-.2-.12-.45-.18-.74-.18s-.53,.06-.74,.18c-.2,.12-.37,.29-.5,.49-.13,.21-.22,.45-.28,.72-.06,.27-.09,.56-.09,.87v.15c0,.31,.03,.61,.09,.88Z"/><path class="cls-1" d="M91.76,160.49h1.78l.07,.74c.1-.12,.21-.24,.33-.34s.25-.19,.39-.26c.17-.09,.35-.16,.55-.21,.2-.05,.42-.07,.65-.07,.48,0,.9,.09,1.26,.27,.37,.18,.67,.44,.92,.77,.25,.34,.44,.74,.57,1.21,.13,.47,.19,.99,.19,1.56v.15c0,.55-.06,1.05-.19,1.52-.13,.47-.31,.87-.56,1.21-.25,.34-.56,.61-.92,.81-.37,.19-.78,.29-1.26,.29-.25,0-.48-.03-.69-.08-.21-.05-.41-.13-.59-.23-.11-.06-.21-.14-.31-.21-.1-.08-.19-.17-.28-.26v3.54h-1.93v-10.4Zm4.7,2.79c-.06-.28-.15-.51-.27-.72-.12-.2-.28-.36-.48-.47-.19-.12-.42-.17-.7-.17-.16,0-.3,.01-.43,.04-.13,.03-.25,.07-.35,.13-.12,.07-.23,.15-.32,.24-.09,.1-.17,.21-.23,.34v3.14c.06,.12,.13,.23,.22,.33,.09,.1,.18,.18,.3,.25,.11,.07,.23,.12,.37,.15,.14,.04,.29,.05,.47,.05,.27,0,.51-.06,.7-.18s.35-.29,.47-.49c.12-.21,.21-.45,.26-.73,.06-.28,.08-.57,.08-.88v-.15c0-.31-.03-.61-.09-.88Z"/><path class="cls-1" d="M101.12,171c-.14-.02-.29-.06-.46-.1l.24-1.47c.08,0,.18,0,.3,0,.12,0,.22,.01,.3,.01,.15,0,.29-.05,.41-.14,.12-.09,.22-.2,.3-.31,.08-.11,.14-.19,.18-.25s.09-.13,.14-.24l.44-.83-3.18-7.19h2.11l1.72,4.4,.21,.76,.28-.75,1.71-4.42h2.13l-3.81,8.64c-.08,.19-.19,.4-.32,.62-.13,.22-.3,.43-.5,.62-.2,.19-.44,.35-.73,.48s-.62,.19-1.01,.19c-.19,0-.35-.01-.48-.03Z"/></g><g><path class="cls-1" d="M324.87,157.89h2.62c.47,0,.91,.06,1.31,.17s.78,.27,1.11,.48c.29,.17,.55,.38,.78,.63,.23,.25,.43,.52,.6,.81,.2,.36,.35,.75,.46,1.18,.11,.43,.16,.89,.16,1.37v.83c0,.47-.05,.91-.15,1.33-.1,.42-.25,.8-.43,1.15-.18,.31-.38,.6-.62,.86-.24,.26-.5,.48-.78,.66-.33,.21-.69,.37-1.09,.48-.4,.11-.82,.17-1.27,.17h-2.71v-10.11Zm1.96,8.54h.75c.24,0,.46-.03,.67-.09,.21-.06,.4-.15,.57-.26,.18-.12,.33-.27,.48-.46s.26-.41,.36-.66c.08-.22,.15-.46,.19-.73,.04-.27,.07-.55,.07-.86v-.85c0-.29-.02-.57-.07-.83-.04-.26-.11-.5-.19-.72-.1-.26-.24-.49-.4-.69-.16-.2-.36-.37-.57-.5-.17-.1-.35-.17-.55-.23-.2-.05-.42-.08-.66-.08h-.65v6.96Z"/><path class="cls-1" d="M335.72,167.85c-.47-.19-.88-.45-1.21-.78-.34-.32-.6-.71-.78-1.15-.18-.44-.27-.92-.27-1.42v-.28c0-.57,.09-1.1,.27-1.57,.18-.47,.43-.88,.76-1.23,.32-.34,.71-.61,1.15-.8,.44-.19,.93-.28,1.45-.28s1.02,.09,1.45,.27c.42,.18,.78,.43,1.08,.75,.29,.32,.51,.71,.67,1.17,.15,.46,.23,.96,.23,1.51v.82h-5.1v.02c.06,.3,.15,.54,.25,.73s.24,.35,.41,.5c.18,.15,.38,.27,.6,.35,.23,.08,.47,.12,.74,.12,.38,0,.75-.07,1.1-.22s.65-.36,.87-.65l.97,1.04c-.25,.35-.63,.66-1.17,.94-.53,.28-1.16,.42-1.89,.42-.58,0-1.1-.09-1.58-.28Zm.75-5.83c-.18,.08-.34,.19-.47,.33-.14,.14-.25,.31-.35,.51s-.16,.42-.21,.67h3.17v-.15c0-.2-.04-.4-.11-.58s-.18-.34-.31-.47c-.13-.13-.29-.23-.48-.31s-.4-.11-.65-.11c-.22,0-.42,.04-.6,.11Z"/><path class="cls-1" d="M344.4,167.85c-.47-.19-.88-.45-1.22-.78-.34-.32-.6-.71-.78-1.15-.18-.44-.27-.92-.27-1.42v-.28c0-.57,.09-1.1,.27-1.57s.43-.88,.76-1.23,.71-.61,1.15-.8c.44-.19,.93-.28,1.45-.28s1.02,.09,1.45,.27c.42,.18,.78,.43,1.08,.75,.29,.32,.51,.71,.67,1.17,.15,.46,.23,.96,.23,1.51v.82h-5.1v.02c.06,.3,.15,.54,.25,.73,.1,.18,.24,.35,.41,.5,.18,.15,.38,.27,.6,.35,.23,.08,.47,.12,.74,.12,.38,0,.75-.07,1.1-.22s.65-.36,.87-.65l.96,1.04c-.25,.35-.63,.66-1.17,.94-.53,.28-1.16,.42-1.89,.42-.58,0-1.1-.09-1.58-.28Zm.75-5.83c-.18,.08-.34,.19-.47,.33-.14,.14-.25,.31-.35,.51-.09,.2-.16,.42-.21,.67h3.17v-.15c0-.2-.04-.4-.11-.58-.07-.18-.18-.34-.31-.47-.13-.13-.29-.23-.48-.31s-.4-.11-.65-.11c-.22,0-.42,.04-.6,.11Z"/><path class="cls-1" d="M351.03,160.49h1.78l.07,.74c.1-.12,.21-.24,.33-.34s.25-.19,.39-.26c.17-.09,.35-.16,.55-.21,.2-.05,.42-.07,.65-.07,.48,0,.9,.09,1.26,.27,.37,.18,.67,.44,.92,.77,.25,.34,.44,.74,.57,1.21s.19,.99,.19,1.56v.15c0,.55-.06,1.05-.19,1.52-.13,.47-.31,.87-.56,1.21-.25,.34-.56,.61-.92,.81-.37,.19-.78,.29-1.26,.29-.25,0-.48-.03-.69-.08-.21-.05-.41-.13-.59-.23-.11-.06-.21-.14-.31-.21-.1-.08-.19-.17-.28-.26v3.54h-1.93v-10.4Zm4.7,2.79c-.06-.28-.15-.51-.27-.72-.12-.2-.28-.36-.48-.47-.19-.12-.42-.17-.7-.17-.16,0-.3,.01-.43,.04-.13,.03-.25,.07-.35,.13-.12,.07-.23,.15-.32,.24-.09,.1-.17,.21-.23,.34v3.14c.06,.12,.13,.23,.22,.33,.09,.1,.18,.18,.29,.25,.11,.07,.23,.12,.37,.15,.14,.04,.29,.05,.46,.05,.27,0,.51-.06,.7-.18,.19-.12,.35-.29,.47-.49,.12-.21,.21-.45,.26-.73s.08-.57,.08-.88v-.15c0-.31-.03-.61-.09-.88Z"/><path class="cls-1" d="M374.98,166.21c-.19,.41-.44,.75-.75,1.04s-.69,.51-1.12,.66c-.44,.16-.92,.23-1.44,.23-.42,0-.8-.05-1.16-.16-.35-.11-.67-.26-.96-.47-.26-.19-.49-.42-.69-.69-.2-.27-.37-.56-.51-.89-.13-.32-.24-.68-.31-1.07-.07-.39-.11-.8-.11-1.24v-1.36c0-.41,.03-.79,.1-1.16,.06-.37,.16-.71,.29-1.02,.15-.38,.34-.73,.58-1.03s.51-.55,.82-.76c.27-.18,.57-.31,.9-.41s.68-.14,1.05-.14c.56,0,1.05,.08,1.48,.24s.8,.38,1.11,.67,.55,.65,.72,1.07c.18,.42,.29,.9,.33,1.42h-1.94c-.02-.3-.06-.56-.14-.79-.07-.23-.17-.42-.31-.57-.14-.15-.31-.26-.52-.34s-.45-.11-.74-.11c-.15,0-.29,.02-.43,.05-.13,.03-.25,.08-.36,.15-.19,.11-.35,.27-.48,.48-.13,.21-.24,.45-.32,.72-.06,.21-.1,.45-.13,.7-.03,.26-.04,.53-.04,.83v1.38c0,.4,.02,.76,.07,1.08,.04,.32,.11,.59,.2,.83,.07,.16,.14,.31,.23,.43s.19,.23,.31,.31c.12,.09,.26,.16,.42,.21s.33,.07,.52,.07c.25,0,.48-.03,.69-.1,.2-.07,.38-.17,.52-.31s.26-.32,.34-.54c.08-.22,.13-.48,.15-.78h1.95c-.03,.51-.14,.97-.33,1.38Z"/><path class="cls-1" d="M377,162.66c.16-.47,.39-.87,.69-1.21,.3-.34,.67-.61,1.11-.81s.94-.29,1.5-.29,1.07,.1,1.51,.29,.81,.46,1.12,.81c.3,.34,.53,.75,.69,1.21,.16,.46,.24,.97,.24,1.52v.15c0,.55-.08,1.06-.24,1.52-.16,.47-.39,.87-.69,1.21-.3,.34-.67,.61-1.11,.8-.44,.19-.94,.29-1.5,.29s-1.07-.1-1.51-.29c-.44-.19-.81-.46-1.11-.8-.31-.34-.54-.75-.69-1.21-.16-.46-.24-.97-.24-1.52v-.15c0-.55,.08-1.05,.24-1.52Zm1.78,2.55c.06,.28,.16,.52,.28,.72,.13,.21,.3,.37,.5,.49s.46,.18,.75,.18,.52-.06,.73-.18c.2-.12,.37-.29,.5-.49,.12-.2,.22-.44,.28-.72,.06-.28,.09-.57,.09-.88v-.15c0-.3-.03-.59-.09-.87-.06-.27-.15-.51-.28-.72-.13-.21-.3-.37-.5-.49-.2-.12-.45-.18-.74-.18s-.53,.06-.74,.18c-.2,.12-.37,.29-.5,.49-.13,.21-.22,.45-.28,.72-.06,.27-.09,.56-.09,.87v.15c0,.31,.03,.61,.09,.88Z"/><path class="cls-1" d="M385.74,160.49h1.78l.07,.74c.1-.12,.21-.24,.33-.34s.25-.19,.39-.26c.17-.09,.35-.16,.55-.21,.2-.05,.42-.07,.65-.07,.48,0,.9,.09,1.26,.27,.37,.18,.67,.44,.92,.77,.25,.34,.44,.74,.57,1.21s.19,.99,.19,1.56v.15c0,.55-.06,1.05-.19,1.52-.13,.47-.31,.87-.56,1.21-.25,.34-.56,.61-.92,.81-.37,.19-.78,.29-1.26,.29-.25,0-.48-.03-.69-.08-.21-.05-.41-.13-.59-.23-.11-.06-.21-.14-.31-.21-.1-.08-.19-.17-.28-.26v3.54h-1.93v-10.4Zm4.7,2.79c-.06-.28-.15-.51-.27-.72-.12-.2-.28-.36-.48-.47-.19-.12-.42-.17-.7-.17-.16,0-.3,.01-.43,.04-.13,.03-.25,.07-.35,.13-.12,.07-.23,.15-.32,.24-.09,.1-.17,.21-.23,.34v3.14c.06,.12,.13,.23,.22,.33,.09,.1,.18,.18,.29,.25,.11,.07,.23,.12,.37,.15,.14,.04,.29,.05,.46,.05,.27,0,.51-.06,.7-.18,.19-.12,.35-.29,.47-.49,.12-.21,.21-.45,.26-.73s.08-.57,.08-.88v-.15c0-.31-.03-.61-.09-.88Z"/><path class="cls-1" d="M395.09,171c-.14-.02-.29-.06-.46-.1l.24-1.47c.08,0,.18,0,.3,0,.12,0,.22,.01,.29,.01,.15,0,.29-.05,.41-.14s.22-.2,.3-.31c.08-.11,.14-.19,.18-.25,.04-.06,.09-.13,.14-.24l.44-.83-3.18-7.19h2.11l1.72,4.4,.21,.76,.29-.75,1.71-4.42h2.13l-3.81,8.64c-.08,.19-.19,.4-.32,.62-.13,.22-.3,.43-.5,.62-.2,.19-.44,.35-.73,.48-.28,.13-.62,.19-1.01,.19-.19,0-.35-.01-.48-.03Z"/></g><g><path class="cls-1" d="M204.46,22.98c.18-.06,.34-.15,.48-.26,.14-.11,.26-.23,.34-.38,.08-.15,.13-.31,.13-.49h1.23c0,.31-.08,.6-.23,.88-.15,.28-.35,.52-.61,.73-.25,.21-.54,.37-.87,.49-.33,.12-.68,.18-1.04,.18-.51,0-.96-.09-1.34-.27-.38-.18-.7-.42-.95-.73-.26-.3-.45-.66-.58-1.06-.13-.4-.19-.83-.19-1.28v-.24c0-.45,.06-.88,.19-1.28,.13-.41,.32-.76,.58-1.07,.25-.3,.57-.55,.95-.73,.38-.18,.83-.27,1.34-.27,.4,0,.77,.06,1.1,.19,.33,.13,.63,.29,.87,.51,.24,.22,.43,.48,.57,.79,.14,.3,.21,.63,.2,.98h-1.23c0-.19-.04-.37-.12-.54-.08-.17-.18-.32-.31-.45-.14-.13-.3-.23-.48-.3-.19-.07-.39-.11-.61-.11-.33,0-.6,.07-.83,.2s-.4,.31-.54,.52c-.14,.22-.23,.46-.29,.73s-.09,.54-.09,.82v.24c0,.28,.03,.56,.09,.83,.06,.27,.15,.52,.29,.73,.13,.21,.31,.39,.53,.52s.5,.2,.84,.2c.19,0,.38-.03,.56-.09Z"/><path class="cls-1" d="M208.64,19.26c.14-.41,.34-.77,.61-1.08,.26-.3,.58-.54,.96-.72s.81-.26,1.28-.26,.91,.09,1.29,.26c.38,.17,.7,.41,.97,.72,.26,.3,.46,.66,.6,1.08,.14,.41,.21,.86,.21,1.34v.14c0,.48-.07,.93-.21,1.34-.14,.41-.34,.77-.6,1.08-.27,.3-.59,.54-.97,.71-.38,.17-.81,.26-1.28,.26s-.91-.08-1.29-.26c-.38-.17-.7-.41-.97-.71-.27-.3-.47-.66-.61-1.08-.14-.41-.21-.86-.21-1.34v-.14c0-.48,.07-.93,.21-1.34Zm1.21,2.37c.07,.28,.18,.53,.33,.74,.14,.22,.33,.39,.55,.51s.48,.19,.78,.19,.55-.06,.77-.19,.4-.29,.55-.51c.14-.21,.25-.46,.32-.74s.11-.58,.11-.89v-.14c0-.31-.04-.6-.11-.89-.07-.28-.18-.53-.32-.74-.15-.22-.33-.39-.55-.52-.22-.12-.48-.19-.78-.19s-.56,.06-.78,.19c-.22,.13-.4,.3-.54,.52-.15,.21-.26,.46-.33,.74-.07,.28-.11,.58-.11,.89v.14c0,.31,.04,.61,.11,.89Z"/><path class="cls-1" d="M216.44,17.32h1.18l.09,.97c.09-.14,.2-.26,.31-.37s.23-.21,.35-.29c.2-.14,.41-.24,.65-.31,.23-.07,.48-.11,.74-.11,.35,0,.66,.05,.94,.15,.28,.1,.53,.25,.73,.46,.2,.21,.36,.48,.47,.81s.16,.72,.16,1.18v4.2h-1.31v-4.18c0-.29-.03-.53-.1-.72-.06-.2-.16-.35-.28-.47-.12-.12-.27-.2-.45-.26-.18-.05-.38-.08-.61-.08-.2,0-.38,.03-.55,.08s-.32,.13-.46,.22c-.12,.08-.22,.17-.31,.28-.09,.11-.18,.22-.25,.35v4.78h-1.31v-6.68Z"/><path class="cls-1" d="M228.47,21.87c-.05-.1-.14-.19-.26-.28-.13-.08-.3-.16-.5-.23-.21-.07-.47-.14-.77-.2-.39-.08-.74-.17-1.06-.29s-.59-.25-.81-.41c-.23-.16-.4-.34-.53-.55-.13-.21-.19-.45-.19-.73s.06-.53,.19-.77c.13-.24,.31-.45,.55-.63,.23-.18,.52-.32,.85-.43,.33-.11,.69-.16,1.09-.16,.43,0,.81,.05,1.15,.16,.34,.11,.63,.25,.87,.44,.24,.19,.42,.42,.55,.67,.13,.25,.19,.53,.19,.83h-1.31c0-.13-.03-.26-.1-.39s-.15-.24-.27-.34c-.12-.1-.28-.19-.46-.25-.18-.07-.39-.1-.63-.1s-.43,.03-.61,.07c-.18,.05-.32,.12-.43,.2-.12,.09-.2,.18-.26,.29s-.09,.22-.09,.34,.02,.23,.07,.33c.05,.1,.13,.18,.25,.26,.12,.08,.27,.15,.47,.21,.2,.06,.45,.12,.75,.18,.41,.08,.78,.18,1.11,.29,.33,.11,.61,.24,.84,.4,.23,.16,.41,.35,.54,.56,.12,.22,.19,.47,.19,.76s-.07,.57-.2,.81c-.14,.25-.33,.46-.57,.63-.24,.17-.54,.31-.88,.4-.35,.1-.72,.14-1.14,.14-.47,0-.88-.06-1.24-.18-.36-.12-.67-.29-.92-.49-.25-.2-.44-.43-.57-.7-.13-.27-.19-.54-.19-.82h1.28c.02,.22,.07,.4,.18,.56,.1,.15,.23,.28,.39,.37,.16,.09,.33,.16,.52,.2,.19,.04,.38,.06,.57,.06,.28,0,.52-.03,.73-.1s.37-.15,.49-.26c.09-.07,.15-.16,.19-.25,.04-.09,.06-.19,.06-.3,0-.13-.03-.24-.08-.34Z"/><path class="cls-1" d="M234.69,17.32h2.53v.99h-2.53v3.41c0,.25,.03,.47,.1,.63,.06,.17,.15,.3,.26,.4,.11,.1,.24,.17,.39,.22,.15,.04,.31,.06,.48,.06,.13,0,.26,0,.39-.02,.13-.01,.26-.03,.39-.05,.12-.02,.24-.04,.35-.06,.11-.02,.2-.04,.27-.06l.17,.92c-.1,.06-.23,.12-.37,.16-.14,.04-.3,.08-.47,.11-.16,.03-.34,.06-.52,.07s-.37,.02-.55,.02c-.32,0-.61-.04-.88-.13-.27-.09-.5-.23-.7-.42-.2-.19-.35-.43-.46-.73-.11-.3-.16-.66-.16-1.08v-3.46h-1.69v-.99h1.69v-1.62h1.31v1.62Z"/><path class="cls-1" d="M247.2,19.26c.14-.41,.34-.77,.61-1.08,.26-.3,.58-.54,.96-.72s.81-.26,1.28-.26,.91,.09,1.29,.26c.38,.17,.7,.41,.97,.72,.26,.3,.46,.66,.6,1.08,.14,.41,.21,.86,.21,1.34v.14c0,.48-.07,.93-.21,1.34-.14,.41-.34,.77-.6,1.08-.27,.3-.59,.54-.97,.71-.38,.17-.81,.26-1.28,.26s-.91-.08-1.29-.26c-.38-.17-.7-.41-.97-.71-.27-.3-.47-.66-.61-1.08-.14-.41-.21-.86-.21-1.34v-.14c0-.48,.07-.93,.21-1.34Zm1.21,2.37c.07,.28,.18,.53,.33,.74,.14,.22,.33,.39,.55,.51s.48,.19,.78,.19,.55-.06,.77-.19,.4-.29,.55-.51c.14-.21,.25-.46,.32-.74s.11-.58,.11-.89v-.14c0-.31-.04-.6-.11-.89-.07-.28-.18-.53-.32-.74-.15-.22-.33-.39-.55-.52-.22-.12-.48-.19-.78-.19s-.56,.06-.78,.19c-.22,.13-.4,.3-.54,.52-.15,.21-.26,.46-.33,.74-.07,.28-.11,.58-.11,.89v.14c0,.31,.04,.61,.11,.89Z"/><path class="cls-1" d="M257.83,17.32h2.53v.99h-2.53v3.41c0,.25,.03,.47,.1,.63,.06,.17,.15,.3,.26,.4,.11,.1,.24,.17,.39,.22,.15,.04,.31,.06,.48,.06,.13,0,.26,0,.39-.02,.13-.01,.26-.03,.39-.05,.12-.02,.24-.04,.35-.06,.11-.02,.2-.04,.27-.06l.17,.92c-.1,.06-.23,.12-.37,.16-.14,.04-.3,.08-.47,.11-.16,.03-.34,.06-.52,.07s-.37,.02-.55,.02c-.32,0-.61-.04-.88-.13-.27-.09-.5-.23-.7-.42-.2-.19-.35-.43-.46-.73-.11-.3-.16-.66-.16-1.08v-3.46h-1.69v-.99h1.69v-1.62h1.31v1.62Z"/><path class="cls-1" d="M264.31,17.93c.11-.11,.23-.21,.35-.3,.19-.14,.4-.25,.63-.32,.23-.07,.48-.11,.73-.11,.35,0,.67,.05,.96,.15,.29,.1,.53,.26,.73,.48,.21,.22,.36,.49,.48,.83,.11,.33,.17,.73,.17,1.19v4.15h-1.31v-4.17c0-.26-.03-.48-.09-.68s-.15-.35-.27-.47c-.12-.14-.28-.24-.46-.3-.18-.07-.39-.1-.63-.09-.19,0-.37,.02-.54,.07-.17,.05-.33,.12-.47,.21-.12,.07-.22,.16-.32,.26s-.19,.21-.27,.32v4.84h-1.31V14.52h1.31v3.78c.09-.14,.19-.26,.3-.37Z"/><path class="cls-1" d="M272.13,23.88c-.4-.16-.74-.39-1.03-.68-.29-.29-.51-.63-.67-1.02-.16-.4-.24-.82-.24-1.28v-.25c0-.53,.09-1.01,.26-1.43,.17-.43,.4-.79,.69-1.08,.28-.3,.61-.52,.98-.68,.37-.16,.76-.24,1.17-.24,.48,0,.9,.08,1.27,.25,.36,.17,.67,.39,.92,.69,.25,.29,.43,.64,.55,1.04,.12,.4,.18,.84,.18,1.31v.57h-4.7v.04c.04,.31,.1,.57,.2,.8,.1,.22,.23,.42,.4,.59,.18,.18,.38,.32,.62,.43,.24,.1,.5,.15,.79,.15,.39,0,.74-.08,1.06-.23s.58-.37,.78-.63l.75,.65c-.22,.33-.56,.62-1.01,.88-.45,.26-1,.39-1.65,.39-.48,0-.92-.08-1.32-.24Zm.54-5.49c-.19,.08-.36,.2-.51,.35-.15,.15-.28,.34-.39,.56-.1,.22-.18,.47-.23,.75h3.37v-.08c0-.2-.04-.4-.11-.62s-.18-.4-.31-.56c-.13-.16-.3-.28-.5-.38-.2-.1-.44-.14-.71-.14-.22,0-.42,.04-.62,.12Z"/><path class="cls-1" d="M283.3,17.25c.22,.03,.4,.07,.52,.11l-.19,1.29c-.22-.05-.44-.09-.65-.11-.21-.02-.42-.04-.64-.04-.26,0-.5,.03-.71,.09-.21,.06-.4,.15-.56,.26-.16,.11-.29,.25-.41,.4-.12,.16-.21,.34-.28,.54v4.2h-1.31v-6.68h1.23l.06,.91v.16c.28-.37,.6-.66,.98-.87,.38-.21,.81-.32,1.28-.32,.23,0,.45,.02,.68,.05Z"/><path class="cls-1" d="M291.7,21.07c-.06,.33-.14,.65-.26,.96-.12,.3-.26,.58-.44,.84-.18,.26-.39,.48-.63,.67-.23,.19-.49,.33-.79,.43-.3,.1-.62,.15-.98,.15s-.69-.05-.99-.16c-.3-.11-.56-.25-.8-.44-.23-.19-.43-.42-.61-.68-.17-.26-.32-.54-.44-.85-.11-.3-.19-.61-.25-.94-.06-.33-.09-.66-.09-.99v-1.11c0-.34,.03-.68,.09-1.02s.14-.65,.26-.95c.11-.3,.25-.58,.43-.83,.17-.25,.37-.48,.6-.67,.23-.19,.5-.34,.8-.44,.3-.11,.62-.16,.99-.16s.69,.05,.99,.16,.57,.25,.8,.44c.23,.18,.44,.4,.61,.66,.17,.25,.32,.53,.44,.82,.12,.3,.2,.62,.26,.96,.06,.34,.09,.68,.1,1.03v1.11c0,.34-.04,.67-.09,1.01Zm-1.26-2.79c-.02-.22-.06-.45-.12-.66-.06-.22-.14-.43-.24-.63-.1-.2-.22-.37-.37-.51-.14-.14-.3-.24-.48-.32-.18-.08-.39-.12-.63-.12s-.44,.04-.62,.12-.34,.19-.48,.32c-.14,.14-.27,.32-.36,.51-.1,.2-.18,.41-.23,.64-.05,.21-.09,.43-.12,.66-.02,.23-.04,.45-.04,.66v1.12c0,.21,.02,.43,.04,.65,.02,.23,.06,.44,.12,.65,.06,.23,.13,.44,.23,.64,.1,.2,.21,.37,.35,.51,.14,.14,.29,.26,.48,.34,.18,.08,.4,.12,.64,.12s.46-.04,.64-.12c.19-.08,.35-.19,.49-.34,.14-.14,.26-.31,.35-.51,.1-.2,.18-.41,.24-.64,.05-.21,.09-.43,.11-.65,.02-.23,.04-.45,.04-.66v-1.12c0-.22-.02-.44-.04-.66Z"/><path class="cls-1" d="M299.25,21.6c-.04,.27-.11,.53-.19,.77-.11,.3-.25,.56-.42,.8-.17,.24-.38,.43-.62,.59-.18,.12-.38,.21-.6,.27-.22,.06-.46,.1-.73,.1-.28,0-.53-.03-.76-.1-.23-.07-.44-.17-.62-.3-.09-.06-.18-.13-.26-.21-.08-.08-.16-.17-.23-.26l-.06,.75h-1.19V14.52h1.31v3.49c.09-.11,.19-.21,.3-.31,.11-.09,.23-.17,.35-.24,.16-.09,.34-.15,.53-.2s.4-.07,.62-.07c.29,0,.55,.04,.8,.11s.46,.18,.66,.32c.17,.13,.32,.28,.45,.45,.13,.17,.25,.37,.36,.59,.12,.26,.21,.56,.27,.89,.06,.33,.09,.67,.09,1.04v.13c0,.3-.02,.59-.06,.86Zm-1.28-1.58c-.02-.19-.06-.37-.11-.54-.07-.2-.15-.39-.26-.56s-.24-.3-.4-.41c-.12-.07-.24-.13-.38-.17-.14-.04-.3-.06-.47-.06-.2,0-.38,.03-.54,.08-.16,.05-.31,.13-.43,.22-.11,.08-.2,.18-.29,.29-.08,.11-.16,.23-.22,.35v2.84c.07,.14,.14,.26,.23,.37,.09,.11,.2,.21,.31,.3,.12,.09,.26,.16,.42,.21,.16,.05,.33,.07,.52,.07s.34-.02,.49-.07c.15-.04,.28-.11,.39-.19,.15-.11,.28-.24,.38-.41s.18-.35,.24-.56c.05-.16,.08-.33,.1-.51,.02-.18,.03-.37,.03-.56v-.13c0-.2-.01-.4-.03-.59Z"/><path class="cls-1" d="M305.5,17.32v6.75c0,.43-.06,.81-.18,1.14s-.3,.6-.52,.82c-.23,.22-.51,.39-.84,.5-.33,.11-.71,.17-1.13,.17-.12,0-.24,0-.35,0-.12,0-.23-.01-.34-.02-.09,0-.18-.02-.27-.03-.09-.01-.18-.03-.28-.05l.09-1.07c.06,.01,.14,.02,.25,.03,.1,0,.21,.02,.31,.02,.1,0,.2,.01,.29,.02,.1,0,.17,0,.23,0,.2,0,.38-.03,.56-.08s.33-.14,.46-.26c.13-.12,.23-.27,.31-.47,.08-.2,.11-.44,.11-.72v-5.64h-2.07v-1.11h3.39Zm-1.27-2.27c.13-.14,.32-.21,.57-.21s.44,.07,.58,.21c.13,.14,.2,.32,.2,.52s-.07,.38-.2,.52c-.13,.14-.33,.21-.58,.21s-.44-.07-.57-.21c-.13-.14-.19-.31-.19-.52s.06-.38,.19-.52Z"/><path class="cls-1" d="M316.72,19.3v-1.11h5.6v1.11h-5.6Zm0,2.59v-1.11h5.6v1.11h-5.6Z"/><path class="cls-1" d="M336.02,25.97c-.29-.17-.54-.4-.73-.68-.19-.28-.33-.58-.42-.92-.09-.33-.14-.67-.14-1v-1.03c0-.58-.14-1-.41-1.26-.27-.26-.69-.39-1.26-.4v-.99c.56,0,.98-.13,1.26-.39,.27-.26,.41-.68,.41-1.26v-1.04c0-.34,.05-.68,.14-1.04,.09-.36,.24-.67,.44-.95,.18-.25,.42-.46,.71-.63,.29-.16,.64-.25,1.05-.26l.15,.78c-.28,0-.51,.07-.67,.19-.16,.12-.29,.29-.36,.48-.08,.2-.13,.43-.15,.67-.02,.25-.03,.49-.03,.73v1.04c0,.49-.12,.93-.35,1.3s-.59,.66-1.08,.85c.49,.19,.85,.47,1.08,.85s.35,.81,.35,1.3v1.03c0,.25,.02,.49,.06,.74s.1,.47,.2,.66c.09,.2,.21,.37,.37,.49,.16,.12,.36,.19,.6,.19l-.15,.78c-.4,0-.75-.1-1.04-.27Z"/><path class="cls-1" d="M351.75,23.69c-.03-.12-.05-.25-.06-.38-.11,.11-.23,.22-.37,.31s-.29,.19-.45,.26c-.16,.08-.34,.14-.53,.18s-.39,.06-.61,.06c-.35,0-.67-.05-.95-.15-.29-.1-.53-.24-.73-.42s-.36-.39-.47-.63c-.11-.24-.17-.5-.17-.79,0-.37,.07-.69,.22-.97,.15-.28,.35-.51,.63-.7,.27-.18,.59-.31,.97-.4,.38-.09,.8-.13,1.27-.13h1.17v-.49c0-.19-.03-.36-.1-.51s-.16-.28-.29-.39c-.13-.11-.28-.19-.47-.25s-.39-.09-.63-.09c-.21,0-.4,.03-.56,.08-.17,.05-.31,.12-.42,.22-.11,.09-.19,.19-.25,.31s-.09,.25-.09,.38h-1.31c0-.26,.06-.5,.19-.74,.12-.24,.3-.45,.54-.65,.23-.19,.51-.34,.85-.45,.33-.12,.71-.17,1.14-.17,.39,0,.75,.05,1.08,.14,.33,.09,.62,.23,.86,.42,.24,.19,.43,.43,.57,.72,.14,.28,.21,.62,.21,.99v3.03c0,.26,.02,.52,.06,.76,.04,.24,.1,.46,.18,.64v.1h-1.35c-.04-.09-.08-.19-.1-.31Zm-1.22-.73c.18-.05,.34-.12,.49-.21,.15-.09,.28-.19,.38-.3,.11-.11,.19-.23,.25-.35v-1.29h-1.01c-.36,0-.67,.03-.93,.09-.26,.06-.47,.16-.63,.28-.12,.1-.22,.22-.28,.35-.06,.13-.09,.28-.09,.45,0,.15,.03,.29,.08,.42,.05,.13,.13,.24,.23,.33,.1,.09,.23,.16,.39,.21,.16,.05,.34,.08,.54,.08s.4-.03,.58-.08Z"/><path class="cls-1" d="M357.66,17.2c.16-.19,.41-.28,.73-.28s.57,.09,.74,.28,.26,.41,.26,.68-.09,.49-.26,.67c-.18,.18-.42,.27-.73,.27s-.55-.09-.72-.27c-.17-.18-.25-.4-.25-.66s.08-.49,.25-.68Zm0,5.31c.16-.19,.41-.28,.73-.28s.57,.09,.74,.28c.17,.18,.26,.41,.26,.68s-.09,.49-.26,.67c-.18,.18-.42,.27-.73,.27s-.55-.09-.72-.27c-.17-.18-.25-.4-.25-.66s.08-.49,.25-.68Z"/><path class="cls-1" d="M373.2,24v-7.34l-2.33,.87v-1.17l3.55-1.34h.09v8.99h-1.31Z"/><path class="cls-1" d="M387.68,25.27c.16-.13,.28-.29,.38-.49,.09-.2,.16-.42,.19-.66s.06-.49,.06-.74v-1.03c0-.3,.04-.58,.13-.84,.08-.26,.22-.48,.39-.68,.11-.13,.24-.25,.38-.35,.14-.1,.31-.19,.49-.27-.17-.07-.33-.15-.47-.25s-.27-.21-.37-.33c-.19-.21-.33-.44-.42-.71s-.13-.55-.13-.86v-1.04c0-.24-.01-.49-.03-.73-.02-.25-.07-.47-.15-.67-.08-.2-.2-.36-.37-.48-.16-.13-.39-.19-.67-.19l.15-.78c.41,0,.76,.09,1.05,.26,.29,.16,.53,.38,.72,.65,.2,.28,.35,.59,.43,.94,.09,.35,.13,.69,.13,1.03v1.04c0,.24,.02,.46,.07,.64,.05,.18,.12,.34,.21,.47,.13,.19,.31,.33,.55,.41,.23,.08,.51,.13,.84,.13v.99c-.31,0-.57,.04-.8,.12s-.4,.2-.53,.36c-.12,.13-.2,.29-.26,.49-.06,.19-.08,.42-.08,.68v1.03c0,.33-.05,.66-.14,1-.09,.34-.23,.65-.42,.92-.19,.28-.43,.5-.73,.68-.29,.18-.65,.27-1.05,.27l-.15-.78c.23,0,.43-.07,.59-.19Z"/><path class="cls-1" d="M204.46,62.98c.18-.06,.34-.15,.48-.26,.14-.11,.26-.23,.34-.38,.08-.15,.13-.31,.13-.49h1.23c0,.31-.08,.6-.23,.88-.15,.28-.35,.52-.61,.73-.25,.21-.54,.37-.87,.49-.33,.12-.68,.18-1.04,.18-.51,0-.96-.09-1.34-.27-.38-.18-.7-.42-.95-.73-.26-.3-.45-.66-.58-1.06-.13-.4-.19-.83-.19-1.28v-.24c0-.45,.06-.88,.19-1.28,.13-.41,.32-.76,.58-1.07,.25-.3,.57-.55,.95-.73,.38-.18,.83-.27,1.34-.27,.4,0,.77,.06,1.1,.19,.33,.13,.63,.29,.87,.51,.24,.22,.43,.48,.57,.79,.14,.3,.21,.63,.2,.98h-1.23c0-.19-.04-.37-.12-.54-.08-.17-.18-.32-.31-.45-.14-.13-.3-.23-.48-.3-.19-.07-.39-.11-.61-.11-.33,0-.6,.07-.83,.2s-.4,.31-.54,.52c-.14,.22-.23,.46-.29,.73s-.09,.54-.09,.82v.24c0,.28,.03,.56,.09,.83,.06,.27,.15,.52,.29,.73,.13,.21,.31,.39,.53,.52s.5,.2,.84,.2c.19,0,.38-.03,.56-.09Z"/><path class="cls-1" d="M208.64,59.26c.14-.41,.34-.77,.61-1.08,.26-.3,.58-.54,.96-.72s.81-.26,1.28-.26,.91,.09,1.29,.26c.38,.17,.7,.41,.97,.72,.26,.3,.46,.66,.6,1.08,.14,.41,.21,.86,.21,1.34v.14c0,.48-.07,.93-.21,1.34-.14,.41-.34,.77-.6,1.08-.27,.3-.59,.54-.97,.71-.38,.17-.81,.26-1.28,.26s-.91-.08-1.29-.26c-.38-.17-.7-.41-.97-.71-.27-.3-.47-.66-.61-1.08-.14-.41-.21-.86-.21-1.34v-.14c0-.48,.07-.93,.21-1.34Zm1.21,2.37c.07,.28,.18,.53,.33,.74,.14,.22,.33,.39,.55,.51s.48,.19,.78,.19,.55-.06,.77-.19,.4-.29,.55-.51c.14-.21,.25-.46,.32-.74s.11-.58,.11-.89v-.14c0-.31-.04-.6-.11-.89-.07-.28-.18-.53-.32-.74-.15-.22-.33-.39-.55-.52-.22-.12-.48-.19-.78-.19s-.56,.06-.78,.19c-.22,.13-.4,.3-.54,.52-.15,.21-.26,.46-.33,.74-.07,.28-.11,.58-.11,.89v.14c0,.31,.04,.61,.11,.89Z"/><path class="cls-1" d="M216.44,57.32h1.18l.09,.97c.09-.14,.2-.26,.31-.37s.23-.21,.35-.29c.2-.14,.41-.24,.65-.31,.23-.07,.48-.11,.74-.11,.35,0,.66,.05,.94,.15,.28,.1,.53,.25,.73,.46,.2,.21,.36,.48,.47,.81s.16,.72,.16,1.18v4.2h-1.31v-4.18c0-.29-.03-.53-.1-.72-.06-.2-.16-.35-.28-.47-.12-.12-.27-.2-.45-.26-.18-.05-.38-.08-.61-.08-.2,0-.38,.03-.55,.08s-.32,.13-.46,.22c-.12,.08-.22,.17-.31,.28-.09,.11-.18,.22-.25,.35v4.78h-1.31v-6.68Z"/><path class="cls-1" d="M228.47,61.87c-.05-.1-.14-.19-.26-.28-.13-.08-.3-.16-.5-.23-.21-.07-.47-.14-.77-.2-.39-.08-.74-.17-1.06-.29s-.59-.25-.81-.41c-.23-.16-.4-.34-.53-.55-.13-.21-.19-.45-.19-.73s.06-.53,.19-.77c.13-.24,.31-.45,.55-.63,.23-.18,.52-.32,.85-.43,.33-.11,.69-.16,1.09-.16,.43,0,.81,.05,1.15,.16,.34,.11,.63,.25,.87,.44,.24,.19,.42,.42,.55,.67,.13,.25,.19,.53,.19,.83h-1.31c0-.13-.03-.26-.1-.39s-.15-.24-.27-.34c-.12-.1-.28-.19-.46-.25-.18-.07-.39-.1-.63-.1s-.43,.03-.61,.07c-.18,.05-.32,.12-.43,.2-.12,.09-.2,.18-.26,.29s-.09,.22-.09,.34,.02,.23,.07,.33c.05,.1,.13,.18,.25,.26,.12,.08,.27,.15,.47,.21,.2,.06,.45,.12,.75,.18,.41,.08,.78,.18,1.11,.29,.33,.11,.61,.24,.84,.4,.23,.16,.41,.35,.54,.56,.12,.22,.19,.47,.19,.76s-.07,.57-.2,.81c-.14,.25-.33,.46-.57,.63-.24,.17-.54,.31-.88,.4-.35,.1-.72,.14-1.14,.14-.47,0-.88-.06-1.24-.18-.36-.12-.67-.29-.92-.49-.25-.2-.44-.43-.57-.7-.13-.27-.19-.54-.19-.82h1.28c.02,.22,.07,.4,.18,.56,.1,.15,.23,.28,.39,.37,.16,.09,.33,.16,.52,.2,.19,.04,.38,.06,.57,.06,.28,0,.52-.03,.73-.1s.37-.15,.49-.26c.09-.07,.15-.16,.19-.25,.04-.09,.06-.19,.06-.3,0-.13-.03-.24-.08-.34Z"/><path class="cls-1" d="M234.69,57.32h2.53v.99h-2.53v3.41c0,.25,.03,.47,.1,.63,.06,.17,.15,.3,.26,.4,.11,.1,.24,.17,.39,.22,.15,.04,.31,.06,.48,.06,.13,0,.26,0,.39-.02,.13-.01,.26-.03,.39-.05,.12-.02,.24-.04,.35-.06,.11-.02,.2-.04,.27-.06l.17,.92c-.1,.06-.23,.12-.37,.16-.14,.04-.3,.08-.47,.11-.16,.03-.34,.06-.52,.07s-.37,.02-.55,.02c-.32,0-.61-.04-.88-.13-.27-.09-.5-.23-.7-.42-.2-.19-.35-.43-.46-.73-.11-.3-.16-.66-.16-1.08v-3.46h-1.69v-.99h1.69v-1.62h1.31v1.62Z"/><path class="cls-1" d="M247.2,59.26c.14-.41,.34-.77,.61-1.08,.26-.3,.58-.54,.96-.72s.81-.26,1.28-.26,.91,.09,1.29,.26c.38,.17,.7,.41,.97,.72,.26,.3,.46,.66,.6,1.08,.14,.41,.21,.86,.21,1.34v.14c0,.48-.07,.93-.21,1.34-.14,.41-.34,.77-.6,1.08-.27,.3-.59,.54-.97,.71-.38,.17-.81,.26-1.28,.26s-.91-.08-1.29-.26c-.38-.17-.7-.41-.97-.71-.27-.3-.47-.66-.61-1.08-.14-.41-.21-.86-.21-1.34v-.14c0-.48,.07-.93,.21-1.34Zm1.21,2.37c.07,.28,.18,.53,.33,.74,.14,.22,.33,.39,.55,.51s.48,.19,.78,.19,.55-.06,.77-.19,.4-.29,.55-.51c.14-.21,.25-.46,.32-.74s.11-.58,.11-.89v-.14c0-.31-.04-.6-.11-.89-.07-.28-.18-.53-.32-.74-.15-.22-.33-.39-.55-.52-.22-.12-.48-.19-.78-.19s-.56,.06-.78,.19c-.22,.13-.4,.3-.54,.52-.15,.21-.26,.46-.33,.74-.07,.28-.11,.58-.11,.89v.14c0,.31,.04,.61,.11,.89Z"/><path class="cls-1" d="M260.69,61.6c-.04,.27-.11,.53-.19,.77-.11,.3-.25,.56-.42,.8-.17,.24-.38,.43-.62,.59-.18,.12-.38,.21-.6,.27-.22,.06-.46,.1-.73,.1-.28,0-.53-.03-.76-.1-.23-.07-.44-.17-.62-.3-.09-.06-.18-.13-.26-.21-.08-.08-.16-.17-.23-.26l-.06,.75h-1.19v-9.48h1.31v3.49c.09-.11,.19-.21,.3-.31,.11-.09,.23-.17,.35-.24,.16-.09,.34-.15,.53-.2s.4-.07,.62-.07c.29,0,.55,.04,.8,.11s.46,.18,.66,.32c.17,.13,.32,.28,.45,.45,.13,.17,.25,.37,.36,.59,.12,.26,.21,.56,.27,.89,.06,.33,.09,.67,.09,1.04v.13c0,.3-.02,.59-.06,.86Zm-1.28-1.58c-.02-.19-.06-.37-.11-.54-.07-.2-.15-.39-.26-.56s-.24-.3-.4-.41c-.12-.07-.24-.13-.38-.17-.14-.04-.3-.06-.47-.06-.2,0-.38,.03-.54,.08-.16,.05-.31,.13-.43,.22-.11,.08-.2,.18-.29,.29-.08,.11-.16,.23-.22,.35v2.84c.07,.14,.14,.26,.23,.37,.09,.11,.2,.21,.31,.3,.12,.09,.26,.16,.42,.21,.16,.05,.33,.07,.52,.07s.34-.02,.49-.07c.15-.04,.28-.11,.39-.19,.15-.11,.28-.24,.38-.41s.18-.35,.24-.56c.05-.16,.08-.33,.1-.51,.02-.18,.03-.37,.03-.56v-.13c0-.2-.01-.4-.03-.59Z"/><path class="cls-1" d="M266.94,57.32v6.75c0,.43-.06,.81-.18,1.14s-.3,.6-.52,.82c-.23,.22-.51,.39-.84,.5-.33,.11-.71,.17-1.13,.17-.12,0-.24,0-.35,0-.12,0-.23-.01-.34-.02-.09,0-.18-.02-.27-.03-.09-.01-.18-.03-.28-.05l.09-1.07c.06,.01,.14,.02,.25,.03,.1,0,.21,.02,.31,.02,.1,0,.2,.01,.29,.02,.1,0,.17,0,.23,0,.2,0,.38-.03,.56-.08s.33-.14,.46-.26c.13-.12,.23-.27,.31-.47,.08-.2,.11-.44,.11-.72v-5.64h-2.07v-1.11h3.39Zm-1.27-2.27c.13-.14,.32-.21,.57-.21s.44,.07,.58,.21c.13,.14,.2,.32,.2,.52s-.07,.38-.2,.52c-.13,.14-.33,.21-.58,.21s-.44-.07-.57-.21c-.13-.14-.19-.31-.19-.52s.06-.38,.19-.52Z"/><path class="cls-1" d="M278.16,59.3v-1.11h5.6v1.11h-5.6Zm0,2.59v-1.11h5.6v1.11h-5.6Z"/><path class="cls-1" d="M297.46,65.97c-.29-.17-.54-.4-.73-.68-.19-.28-.33-.58-.42-.92-.09-.33-.14-.67-.14-1v-1.03c0-.58-.14-1-.41-1.26-.27-.26-.69-.39-1.26-.4v-.99c.56,0,.98-.13,1.26-.39,.27-.26,.41-.68,.41-1.26v-1.04c0-.34,.05-.68,.14-1.04,.09-.36,.24-.67,.44-.95,.18-.25,.42-.46,.71-.63,.29-.16,.64-.25,1.05-.26l.15,.78c-.28,0-.51,.07-.67,.19-.16,.12-.29,.29-.36,.48-.08,.2-.13,.43-.15,.67-.02,.25-.03,.49-.03,.73v1.04c0,.49-.12,.93-.35,1.3s-.59,.66-1.08,.85c.49,.19,.85,.47,1.08,.85s.35,.81,.35,1.3v1.03c0,.25,.02,.49,.06,.74s.1,.47,.2,.66c.09,.2,.21,.37,.37,.49,.16,.12,.36,.19,.6,.19l-.15,.78c-.4,0-.75-.1-1.04-.27Z"/><path class="cls-1" d="M237.56,81.6c-.04,.27-.11,.53-.19,.77-.11,.3-.25,.56-.42,.8-.17,.24-.38,.43-.62,.59-.18,.12-.38,.21-.6,.27-.22,.06-.46,.1-.73,.1-.28,0-.53-.03-.76-.1-.23-.07-.44-.17-.62-.3-.09-.06-.18-.13-.26-.21-.08-.08-.16-.17-.23-.26l-.06,.75h-1.19v-9.48h1.31v3.49c.09-.11,.19-.21,.3-.31,.11-.09,.23-.17,.35-.24,.16-.09,.34-.15,.53-.2s.4-.07,.62-.07c.29,0,.55,.04,.8,.11s.46,.18,.66,.32c.17,.13,.32,.28,.45,.45,.13,.17,.25,.37,.36,.59,.12,.26,.21,.56,.27,.89,.06,.33,.09,.67,.09,1.04v.13c0,.3-.02,.59-.06,.86Zm-1.28-1.58c-.02-.19-.06-.37-.11-.54-.07-.2-.15-.39-.26-.56s-.24-.3-.4-.41c-.12-.07-.24-.13-.38-.17-.14-.04-.3-.06-.47-.06-.2,0-.38,.03-.54,.08-.16,.05-.31,.13-.43,.22-.11,.08-.2,.18-.29,.29-.08,.11-.16,.23-.22,.35v2.84c.07,.14,.14,.26,.23,.37,.09,.11,.2,.21,.31,.3,.12,.09,.26,.16,.42,.21,.16,.05,.33,.07,.52,.07s.34-.02,.49-.07c.15-.04,.28-.11,.39-.19,.15-.11,.28-.24,.38-.41s.18-.35,.24-.56c.05-.16,.08-.33,.1-.51,.02-.18,.03-.37,.03-.56v-.13c0-.2-.01-.4-.03-.59Z"/><path class="cls-1" d="M241.98,77.2c.16-.19,.41-.28,.73-.28s.57,.09,.74,.28,.26,.41,.26,.68-.09,.49-.26,.67c-.18,.18-.42,.27-.73,.27s-.55-.09-.72-.27c-.17-.18-.25-.4-.25-.66s.08-.49,.25-.68Zm0,5.31c.16-.19,.41-.28,.73-.28s.57,.09,.74,.28c.17,.18,.26,.41,.26,.68s-.09,.49-.26,.67c-.18,.18-.42,.27-.73,.27s-.55-.09-.72-.27c-.17-.18-.25-.4-.25-.66s.08-.49,.25-.68Z"/><path class="cls-1" d="M254.65,84v-.93l2.93-3.23c.25-.28,.47-.52,.64-.74,.17-.22,.31-.42,.41-.61,.11-.18,.18-.35,.23-.52,.04-.17,.06-.33,.06-.49,0-.22-.03-.42-.1-.6-.07-.18-.16-.34-.29-.48-.13-.14-.29-.24-.47-.32-.18-.08-.38-.11-.61-.11-.28,0-.52,.04-.73,.12-.21,.08-.38,.19-.52,.34-.14,.15-.24,.33-.31,.55s-.1,.46-.1,.73h-1.31c0-.39,.07-.75,.21-1.09,.14-.34,.34-.64,.6-.89,.25-.25,.57-.46,.94-.61,.37-.15,.78-.22,1.25-.22,.44,0,.82,.06,1.17,.19,.34,.13,.63,.3,.87,.53,.23,.22,.41,.49,.54,.8,.12,.31,.19,.65,.19,1.02,0,.28-.05,.55-.14,.81-.09,.27-.21,.53-.37,.78-.16,.26-.35,.52-.56,.77-.21,.26-.44,.51-.69,.78l-2.2,2.38h4.35v1.06h-5.96Z"/><path class="cls-1" d="M265.47,85.08c-.2,.44-.48,.82-.82,1.12l-.77-.41c.19-.29,.32-.6,.41-.93,.09-.33,.13-.68,.13-1.06v-1.2h1.35v1.17c0,.43-.11,.86-.31,1.31Z"/><path class="cls-1" d="M235.31,102.98c.18-.06,.34-.15,.48-.26,.14-.11,.26-.23,.34-.38,.08-.15,.13-.31,.13-.49h1.23c0,.31-.08,.6-.23,.88-.15,.28-.35,.52-.61,.73-.25,.21-.54,.37-.87,.49-.33,.12-.68,.18-1.04,.18-.51,0-.96-.09-1.34-.27-.38-.18-.7-.42-.95-.73-.26-.3-.45-.66-.58-1.06-.13-.4-.19-.83-.19-1.28v-.24c0-.45,.06-.88,.19-1.28,.13-.41,.32-.76,.58-1.07,.25-.3,.57-.55,.95-.73,.38-.18,.83-.27,1.34-.27,.4,0,.77,.06,1.1,.19,.33,.13,.63,.29,.87,.51,.24,.22,.43,.48,.57,.79,.14,.3,.21,.63,.2,.98h-1.23c0-.19-.04-.37-.12-.54-.08-.17-.18-.32-.31-.45-.14-.13-.3-.23-.48-.3-.19-.07-.39-.11-.61-.11-.33,0-.6,.07-.83,.2s-.4,.31-.54,.52c-.14,.22-.23,.46-.29,.73s-.09,.54-.09,.82v.24c0,.28,.03,.56,.09,.83,.06,.27,.15,.52,.29,.73,.13,.21,.31,.39,.53,.52s.5,.2,.84,.2c.19,0,.38-.03,.56-.09Z"/><path class="cls-1" d="M241.98,97.2c.16-.19,.41-.28,.73-.28s.57,.09,.74,.28,.26,.41,.26,.68-.09,.49-.26,.67c-.18,.18-.42,.27-.73,.27s-.55-.09-.72-.27c-.17-.18-.25-.4-.25-.66s.08-.49,.25-.68Zm0,5.31c.16-.19,.41-.28,.73-.28s.57,.09,.74,.28c.17,.18,.26,.41,.26,.68s-.09,.49-.26,.67c-.18,.18-.42,.27-.73,.27s-.55-.09-.72-.27c-.17-.18-.25-.4-.25-.66s.08-.49,.25-.68Z"/><path class="cls-1" d="M254.91,99.26c.14-.41,.34-.77,.61-1.08,.26-.3,.58-.54,.96-.72s.81-.26,1.28-.26,.91,.09,1.29,.26c.38,.17,.7,.41,.97,.72,.26,.3,.46,.66,.6,1.08,.14,.41,.21,.86,.21,1.34v.14c0,.48-.07,.93-.21,1.34-.14,.41-.34,.77-.6,1.08-.27,.3-.59,.54-.97,.71-.38,.17-.81,.26-1.28,.26s-.91-.08-1.29-.26c-.38-.17-.7-.41-.97-.71-.27-.3-.47-.66-.61-1.08-.14-.41-.21-.86-.21-1.34v-.14c0-.48,.07-.93,.21-1.34Zm1.21,2.37c.07,.28,.18,.53,.33,.74,.14,.22,.33,.39,.55,.51s.48,.19,.78,.19,.55-.06,.77-.19,.4-.29,.55-.51c.14-.21,.25-.46,.32-.74s.11-.58,.11-.89v-.14c0-.31-.04-.6-.11-.89-.07-.28-.18-.53-.32-.74-.15-.22-.33-.39-.55-.52-.22-.12-.48-.19-.78-.19s-.56,.06-.78,.19c-.22,.13-.4,.3-.54,.52-.15,.21-.26,.46-.33,.74-.07,.28-.11,.58-.11,.89v.14c0,.31,.04,.61,.11,.89Z"/><path class="cls-1" d="M265.54,97.32h2.53v.99h-2.53v3.41c0,.25,.03,.47,.1,.63,.06,.17,.15,.3,.26,.4,.11,.1,.24,.17,.39,.22,.15,.04,.31,.06,.48,.06,.13,0,.26,0,.39-.02,.13-.01,.26-.03,.39-.05,.12-.02,.24-.04,.35-.06,.11-.02,.2-.04,.27-.06l.17,.92c-.1,.06-.23,.12-.37,.16-.14,.04-.3,.08-.47,.11-.16,.03-.34,.06-.52,.07s-.37,.02-.55,.02c-.32,0-.61-.04-.88-.13-.27-.09-.5-.23-.7-.42-.2-.19-.35-.43-.46-.73-.11-.3-.16-.66-.16-1.08v-3.46h-1.69v-.99h1.69v-1.62h1.31v1.62Z"/><path class="cls-1" d="M272.02,97.93c.11-.11,.23-.21,.35-.3,.19-.14,.4-.25,.63-.32,.23-.07,.48-.11,.73-.11,.35,0,.67,.05,.96,.15,.29,.1,.53,.26,.73,.48,.21,.22,.36,.49,.48,.83,.11,.33,.17,.73,.17,1.19v4.15h-1.31v-4.17c0-.26-.03-.48-.09-.68s-.15-.35-.27-.47c-.12-.14-.28-.24-.46-.3-.18-.07-.39-.1-.63-.09-.19,0-.37,.02-.54,.07-.17,.05-.33,.12-.47,.21-.12,.07-.22,.16-.32,.26s-.19,.21-.27,.32v4.84h-1.31v-9.48h1.31v3.78c.09-.14,.19-.26,.3-.37Z"/><path class="cls-1" d="M279.84,103.88c-.4-.16-.74-.39-1.03-.68-.29-.29-.51-.63-.67-1.02-.16-.4-.24-.82-.24-1.28v-.25c0-.53,.09-1.01,.26-1.43,.17-.43,.4-.79,.69-1.08,.28-.3,.61-.52,.98-.68,.37-.16,.76-.24,1.17-.24,.48,0,.9,.08,1.27,.25,.36,.17,.67,.39,.92,.69,.25,.29,.43,.64,.55,1.04,.12,.4,.18,.84,.18,1.31v.57h-4.7v.04c.04,.31,.1,.57,.2,.8,.1,.22,.23,.42,.4,.59,.18,.18,.38,.32,.62,.43,.24,.1,.5,.15,.79,.15,.39,0,.74-.08,1.06-.23s.58-.37,.78-.63l.75,.65c-.22,.33-.56,.62-1.01,.88-.45,.26-1,.39-1.65,.39-.48,0-.92-.08-1.32-.24Zm.54-5.49c-.19,.08-.36,.2-.51,.35-.15,.15-.28,.34-.39,.56-.1,.22-.18,.47-.23,.75h3.37v-.08c0-.2-.04-.4-.11-.62s-.18-.4-.31-.56c-.13-.16-.3-.28-.5-.38-.2-.1-.44-.14-.71-.14-.22,0-.42,.04-.62,.12Z"/><path class="cls-1" d="M291.02,97.25c.22,.03,.4,.07,.52,.11l-.19,1.29c-.22-.05-.44-.09-.65-.11-.21-.02-.42-.04-.64-.04-.26,0-.5,.03-.71,.09-.21,.06-.4,.15-.56,.26-.16,.11-.29,.25-.41,.4-.12,.16-.21,.34-.28,.54v4.2h-1.31v-6.68h1.23l.06,.91v.16c.28-.37,.6-.66,.98-.87,.38-.21,.81-.32,1.28-.32,.23,0,.45,.02,.68,.05Z"/><path class="cls-1" d="M299.42,101.07c-.06,.33-.14,.65-.26,.96-.12,.3-.26,.58-.44,.84-.18,.26-.39,.48-.63,.67-.23,.19-.49,.33-.79,.43-.3,.1-.62,.15-.98,.15s-.69-.05-.99-.16c-.3-.11-.56-.25-.8-.44-.23-.19-.43-.42-.61-.68-.17-.26-.32-.54-.44-.85-.11-.3-.19-.61-.25-.94-.06-.33-.09-.66-.09-.99v-1.11c0-.34,.03-.68,.09-1.02s.14-.65,.26-.95c.11-.3,.25-.58,.43-.83,.17-.25,.37-.48,.6-.67,.23-.19,.5-.34,.8-.44,.3-.11,.62-.16,.99-.16s.69,.05,.99,.16,.57,.25,.8,.44c.23,.18,.44,.4,.61,.66,.17,.25,.32,.53,.44,.82,.12,.3,.2,.62,.26,.96,.06,.34,.09,.68,.1,1.03v1.11c0,.34-.04,.67-.09,1.01Zm-1.26-2.79c-.02-.22-.06-.45-.12-.66-.06-.22-.14-.43-.24-.63-.1-.2-.22-.37-.37-.51-.14-.14-.3-.24-.48-.32-.18-.08-.39-.12-.63-.12s-.44,.04-.62,.12-.34,.19-.48,.32c-.14,.14-.27,.32-.36,.51-.1,.2-.18,.41-.23,.64-.05,.21-.09,.43-.12,.66-.02,.23-.04,.45-.04,.66v1.12c0,.21,.02,.43,.04,.65,.02,.23,.06,.44,.12,.65,.06,.23,.13,.44,.23,.64,.1,.2,.21,.37,.35,.51,.14,.14,.29,.26,.48,.34,.18,.08,.4,.12,.64,.12s.46-.04,.64-.12c.19-.08,.35-.19,.49-.34,.14-.14,.26-.31,.35-.51,.1-.2,.18-.41,.24-.64,.05-.21,.09-.43,.11-.65,.02-.23,.04-.45,.04-.66v-1.12c0-.22-.02-.44-.04-.66Z"/><path class="cls-1" d="M306.96,101.6c-.04,.27-.11,.53-.19,.77-.11,.3-.25,.56-.42,.8-.17,.24-.38,.43-.62,.59-.18,.12-.38,.21-.6,.27-.22,.06-.46,.1-.73,.1-.28,0-.53-.03-.76-.1-.23-.07-.44-.17-.62-.3-.09-.06-.18-.13-.26-.21-.08-.08-.16-.17-.23-.26l-.06,.75h-1.19v-9.48h1.31v3.49c.09-.11,.19-.21,.3-.31,.11-.09,.23-.17,.35-.24,.16-.09,.34-.15,.53-.2s.4-.07,.62-.07c.29,0,.55,.04,.8,.11s.46,.18,.66,.32c.17,.13,.32,.28,.45,.45,.13,.17,.25,.37,.36,.59,.12,.26,.21,.56,.27,.89,.06,.33,.09,.67,.09,1.04v.13c0,.3-.02,.59-.06,.86Zm-1.28-1.58c-.02-.19-.06-.37-.11-.54-.07-.2-.15-.39-.26-.56s-.24-.3-.4-.41c-.12-.07-.24-.13-.38-.17-.14-.04-.3-.06-.47-.06-.2,0-.38,.03-.54,.08-.16,.05-.31,.13-.43,.22-.11,.08-.2,.18-.29,.29-.08,.11-.16,.23-.22,.35v2.84c.07,.14,.14,.26,.23,.37,.09,.11,.2,.21,.31,.3,.12,.09,.26,.16,.42,.21,.16,.05,.33,.07,.52,.07s.34-.02,.49-.07c.15-.04,.28-.11,.39-.19,.15-.11,.28-.24,.38-.41s.18-.35,.24-.56c.05-.16,.08-.33,.1-.51,.02-.18,.03-.37,.03-.56v-.13c0-.2-.01-.4-.03-.59Z"/><path class="cls-1" d="M313.21,97.32v6.75c0,.43-.06,.81-.18,1.14s-.3,.6-.52,.82c-.23,.22-.51,.39-.84,.5-.33,.11-.71,.17-1.13,.17-.12,0-.24,0-.35,0-.12,0-.23-.01-.34-.02-.09,0-.18-.02-.27-.03-.09-.01-.18-.03-.28-.05l.09-1.07c.06,.01,.14,.02,.25,.03,.1,0,.21,.02,.31,.02,.1,0,.2,.01,.29,.02,.1,0,.17,0,.23,0,.2,0,.38-.03,.56-.08s.33-.14,.46-.26c.13-.12,.23-.27,.31-.47,.08-.2,.11-.44,.11-.72v-5.64h-2.07v-1.11h3.39Zm-1.27-2.27c.13-.14,.32-.21,.57-.21s.44,.07,.58,.21c.13,.14,.2,.32,.2,.52s-.07,.38-.2,.52c-.13,.14-.33,.21-.58,.21s-.44-.07-.57-.21c-.13-.14-.19-.31-.19-.52s.06-.38,.19-.52Z"/><path class="cls-1" d="M202.6,125.27c.16-.13,.28-.29,.38-.49,.09-.2,.16-.42,.19-.66s.06-.49,.06-.74v-1.03c0-.3,.04-.58,.13-.84,.08-.26,.22-.48,.39-.68,.11-.13,.24-.25,.38-.35,.14-.1,.31-.19,.49-.27-.17-.07-.33-.15-.47-.25s-.27-.21-.37-.33c-.19-.21-.33-.44-.42-.71s-.13-.55-.13-.86v-1.04c0-.24-.01-.49-.03-.73-.02-.25-.07-.47-.15-.67-.08-.2-.2-.36-.37-.48-.16-.13-.39-.19-.67-.19l.15-.78c.41,0,.76,.09,1.05,.26,.29,.16,.53,.38,.72,.65,.2,.28,.35,.59,.43,.94,.09,.35,.13,.69,.13,1.03v1.04c0,.24,.02,.46,.07,.64,.05,.18,.12,.34,.21,.47,.13,.19,.31,.33,.55,.41,.23,.08,.51,.13,.84,.13v.99c-.31,0-.57,.04-.8,.12s-.4,.2-.53,.36c-.12,.13-.2,.29-.26,.49-.06,.19-.08,.42-.08,.68v1.03c0,.33-.05,.66-.14,1-.09,.34-.23,.65-.42,.92-.19,.28-.43,.5-.73,.68-.29,.18-.65,.27-1.05,.27l-.15-.78c.23,0,.43-.07,.59-.19Z"/></g><g><path class="cls-1" d="M44.93,253.97c-.29-.17-.54-.4-.73-.68-.19-.28-.33-.58-.42-.92-.09-.33-.14-.67-.14-1v-1.03c0-.58-.14-1-.41-1.26-.27-.26-.69-.39-1.26-.4v-.99c.56,0,.98-.13,1.26-.39,.27-.26,.41-.68,.41-1.26v-1.04c0-.34,.05-.68,.14-1.04,.09-.36,.24-.67,.44-.95,.18-.25,.42-.46,.71-.63,.29-.16,.64-.25,1.05-.26l.15,.78c-.28,0-.51,.07-.67,.19-.16,.12-.29,.29-.36,.48-.08,.2-.13,.43-.15,.67-.02,.25-.03,.49-.03,.73v1.04c0,.49-.12,.93-.35,1.3s-.59,.66-1.08,.85c.49,.19,.85,.47,1.08,.85s.35,.81,.35,1.3v1.03c0,.25,.02,.49,.06,.74s.1,.47,.2,.66c.09,.2,.21,.37,.37,.49,.16,.12,.36,.19,.6,.19l-.15,.78c-.4,0-.75-.1-1.04-.27Z"/><path class="cls-1" d="M77.56,269.6c-.04,.27-.11,.53-.19,.77-.11,.3-.25,.56-.42,.8-.17,.24-.38,.43-.62,.59-.18,.12-.38,.21-.6,.27-.22,.06-.46,.1-.73,.1-.28,0-.53-.03-.76-.1-.23-.07-.44-.17-.62-.3-.09-.06-.18-.13-.26-.21-.08-.08-.16-.17-.23-.26l-.06,.75h-1.19v-9.48h1.31v3.49c.09-.11,.19-.21,.3-.31,.11-.09,.23-.17,.35-.24,.16-.09,.34-.15,.53-.2s.4-.07,.62-.07c.29,0,.55,.04,.8,.11s.46,.18,.66,.32c.17,.13,.32,.28,.45,.45,.13,.17,.25,.37,.36,.59,.12,.26,.21,.56,.27,.89,.06,.33,.09,.67,.09,1.04v.13c0,.3-.02,.59-.06,.86Zm-1.28-1.58c-.02-.19-.06-.37-.11-.54-.07-.2-.15-.39-.26-.56s-.24-.3-.4-.41c-.12-.07-.24-.13-.38-.17-.14-.04-.3-.06-.47-.06-.2,0-.38,.03-.54,.08-.16,.05-.31,.13-.43,.22-.11,.08-.2,.18-.29,.29-.08,.11-.16,.23-.22,.35v2.84c.07,.14,.14,.26,.23,.37,.09,.11,.2,.21,.31,.3,.12,.09,.26,.16,.42,.21,.16,.05,.33,.07,.52,.07s.34-.02,.49-.07c.15-.04,.28-.11,.39-.19,.15-.11,.28-.24,.38-.41s.18-.35,.24-.56c.05-.16,.08-.33,.1-.51,.02-.18,.03-.37,.03-.56v-.13c0-.2-.01-.4-.03-.59Z"/><path class="cls-1" d="M81.98,265.2c.16-.19,.41-.28,.73-.28s.57,.09,.74,.28,.26,.41,.26,.68-.09,.49-.26,.67c-.18,.18-.42,.27-.73,.27s-.55-.09-.72-.27c-.17-.18-.25-.4-.25-.66s.08-.49,.25-.68Zm0,5.31c.16-.19,.41-.28,.73-.28s.57,.09,.74,.28c.17,.18,.26,.41,.26,.68s-.09,.49-.26,.67c-.18,.18-.42,.27-.73,.27s-.55-.09-.72-.27c-.17-.18-.25-.4-.25-.66s.08-.49,.25-.68Z"/><path class="cls-1" d="M94.65,272v-.93l2.93-3.23c.25-.28,.47-.52,.64-.74,.17-.22,.31-.42,.41-.61,.11-.18,.18-.35,.23-.52,.04-.17,.06-.33,.06-.49,0-.22-.03-.42-.1-.6-.07-.18-.16-.34-.29-.48-.13-.14-.29-.24-.47-.32-.18-.08-.38-.11-.61-.11-.28,0-.52,.04-.73,.12-.21,.08-.38,.19-.52,.34-.14,.15-.24,.33-.31,.55s-.1,.46-.1,.73h-1.31c0-.39,.07-.75,.21-1.09,.14-.34,.34-.64,.6-.89,.25-.25,.57-.46,.94-.61,.37-.15,.78-.22,1.25-.22,.44,0,.82,.06,1.17,.19,.34,.13,.63,.3,.87,.53,.23,.22,.41,.49,.54,.8,.12,.31,.19,.65,.19,1.02,0,.28-.05,.55-.14,.81-.09,.27-.21,.53-.37,.78-.16,.26-.35,.52-.56,.77-.21,.26-.44,.51-.69,.78l-2.2,2.38h4.35v1.06h-5.96Z"/><path class="cls-1" d="M105.47,273.08c-.2,.44-.48,.82-.82,1.12l-.77-.41c.19-.29,.32-.6,.41-.93,.09-.33,.13-.68,.13-1.06v-1.2h1.35v1.17c0,.43-.11,.86-.31,1.31Z"/><path class="cls-1" d="M75.31,290.98c.18-.06,.34-.15,.48-.26,.14-.11,.26-.23,.34-.38,.08-.15,.13-.31,.13-.49h1.23c0,.31-.08,.6-.23,.88-.15,.28-.35,.52-.61,.73-.25,.21-.54,.37-.87,.49-.33,.12-.68,.18-1.04,.18-.51,0-.96-.09-1.34-.27-.38-.18-.7-.42-.95-.73-.26-.3-.45-.66-.58-1.06-.13-.4-.19-.83-.19-1.28v-.24c0-.45,.06-.88,.19-1.28,.13-.41,.32-.76,.58-1.07,.25-.3,.57-.55,.95-.73,.38-.18,.83-.27,1.34-.27,.4,0,.77,.06,1.1,.19,.33,.13,.63,.29,.87,.51,.24,.22,.43,.48,.57,.79,.14,.3,.21,.63,.2,.98h-1.23c0-.19-.04-.37-.12-.54-.08-.17-.18-.32-.31-.45-.14-.13-.3-.23-.48-.3-.19-.07-.39-.11-.61-.11-.33,0-.6,.07-.83,.2s-.4,.31-.54,.52c-.14,.22-.23,.46-.29,.73s-.09,.54-.09,.82v.24c0,.28,.03,.56,.09,.83,.06,.27,.15,.52,.29,.73,.13,.21,.31,.39,.53,.52s.5,.2,.84,.2c.19,0,.38-.03,.56-.09Z"/><path class="cls-1" d="M81.98,285.2c.16-.19,.41-.28,.73-.28s.57,.09,.74,.28,.26,.41,.26,.68-.09,.49-.26,.67c-.18,.18-.42,.27-.73,.27s-.55-.09-.72-.27c-.17-.18-.25-.4-.25-.66s.08-.49,.25-.68Zm0,5.31c.16-.19,.41-.28,.73-.28s.57,.09,.74,.28c.17,.18,.26,.41,.26,.68s-.09,.49-.26,.67c-.18,.18-.42,.27-.73,.27s-.55-.09-.72-.27c-.17-.18-.25-.4-.25-.66s.08-.49,.25-.68Z"/><path class="cls-1" d="M42.6,313.27c.16-.13,.28-.29,.38-.49,.09-.2,.16-.42,.19-.66s.06-.49,.06-.74v-1.03c0-.3,.04-.58,.13-.84,.08-.26,.22-.48,.39-.68,.11-.13,.24-.25,.38-.35,.14-.1,.31-.19,.49-.27-.17-.07-.33-.15-.47-.25s-.27-.21-.37-.33c-.19-.21-.33-.44-.42-.71s-.13-.55-.13-.86v-1.04c0-.24-.01-.49-.03-.73-.02-.25-.07-.47-.15-.67-.08-.2-.2-.36-.37-.48-.16-.13-.39-.19-.67-.19l.15-.78c.41,0,.76,.09,1.05,.26,.29,.16,.53,.38,.72,.65,.2,.28,.35,.59,.43,.94,.09,.35,.13,.69,.13,1.03v1.04c0,.24,.02,.46,.07,.64,.05,.18,.12,.34,.21,.47,.13,.19,.31,.33,.55,.41,.23,.08,.51,.13,.84,.13v.99c-.31,0-.57,.04-.8,.12s-.4,.2-.53,.36c-.12,.13-.2,.29-.26,.49-.06,.19-.08,.42-.08,.68v1.03c0,.33-.05,.66-.14,1-.09,.34-.23,.65-.42,.92-.19,.28-.43,.5-.73,.68-.29,.18-.65,.27-1.05,.27l-.15-.78c.23,0,.43-.07,.59-.19Z"/></g><g><path class="cls-1" d="M352.93,253.97c-.29-.17-.54-.4-.73-.68-.19-.28-.33-.58-.42-.92-.09-.33-.14-.67-.14-1v-1.03c0-.58-.14-1-.41-1.26-.27-.26-.69-.39-1.26-.4v-.99c.56,0,.98-.13,1.26-.39,.27-.26,.41-.68,.41-1.26v-1.04c0-.34,.05-.68,.14-1.04,.09-.36,.24-.67,.44-.95,.18-.25,.42-.46,.71-.63,.29-.16,.64-.25,1.05-.26l.15,.78c-.28,0-.51,.07-.67,.19-.16,.12-.29,.29-.36,.48-.08,.2-.13,.43-.15,.67-.02,.25-.03,.49-.03,.73v1.04c0,.49-.12,.93-.35,1.3s-.59,.66-1.08,.85c.49,.19,.85,.47,1.08,.85s.35,.81,.35,1.3v1.03c0,.25,.02,.49,.06,.74s.1,.47,.2,.66c.09,.2,.21,.37,.37,.49,.16,.12,.36,.19,.6,.19l-.15,.78c-.4,0-.75-.1-1.04-.27Z"/><path class="cls-1" d="M385.56,269.6c-.04,.27-.11,.53-.19,.77-.11,.3-.25,.56-.42,.8-.17,.24-.38,.43-.62,.59-.18,.12-.38,.21-.6,.27-.22,.06-.46,.1-.73,.1-.28,0-.53-.03-.76-.1-.23-.07-.44-.17-.62-.3-.09-.06-.18-.13-.26-.21-.08-.08-.16-.17-.23-.26l-.06,.75h-1.19v-9.48h1.31v3.49c.09-.11,.19-.21,.3-.31,.11-.09,.23-.17,.35-.24,.16-.09,.34-.15,.53-.2s.4-.07,.62-.07c.29,0,.55,.04,.8,.11s.46,.18,.66,.32c.17,.13,.32,.28,.45,.45,.13,.17,.25,.37,.36,.59,.12,.26,.21,.56,.27,.89,.06,.33,.09,.67,.09,1.04v.13c0,.3-.02,.59-.06,.86Zm-1.28-1.58c-.02-.19-.06-.37-.11-.54-.07-.2-.15-.39-.26-.56s-.24-.3-.4-.41c-.12-.07-.24-.13-.38-.17-.14-.04-.3-.06-.47-.06-.2,0-.38,.03-.54,.08-.16,.05-.31,.13-.43,.22-.11,.08-.2,.18-.29,.29-.08,.11-.16,.23-.22,.35v2.84c.07,.14,.14,.26,.23,.37,.09,.11,.2,.21,.31,.3,.12,.09,.26,.16,.42,.21,.16,.05,.33,.07,.52,.07s.34-.02,.49-.07c.15-.04,.28-.11,.39-.19,.15-.11,.28-.24,.38-.41s.18-.35,.24-.56c.05-.16,.08-.33,.1-.51,.02-.18,.03-.37,.03-.56v-.13c0-.2-.01-.4-.03-.59Z"/><path class="cls-1" d="M389.98,265.2c.16-.19,.41-.28,.73-.28s.57,.09,.74,.28,.26,.41,.26,.68-.09,.49-.26,.67c-.18,.18-.42,.27-.73,.27s-.55-.09-.72-.27c-.17-.18-.25-.4-.25-.66s.08-.49,.25-.68Zm0,5.31c.16-.19,.41-.28,.73-.28s.57,.09,.74,.28c.17,.18,.26,.41,.26,.68s-.09,.49-.26,.67c-.18,.18-.42,.27-.73,.27s-.55-.09-.72-.27c-.17-.18-.25-.4-.25-.66s.08-.49,.25-.68Z"/><path class="cls-1" d="M402.65,272v-.93l2.93-3.23c.25-.28,.47-.52,.64-.74,.17-.22,.31-.42,.41-.61,.11-.18,.18-.35,.23-.52,.04-.17,.06-.33,.06-.49,0-.22-.03-.42-.1-.6-.07-.18-.16-.34-.29-.48-.13-.14-.29-.24-.47-.32-.18-.08-.38-.11-.61-.11-.28,0-.52,.04-.73,.12-.21,.08-.38,.19-.52,.34-.14,.15-.24,.33-.31,.55s-.1,.46-.1,.73h-1.31c0-.39,.07-.75,.21-1.09,.14-.34,.34-.64,.6-.89,.25-.25,.57-.46,.94-.61,.37-.15,.78-.22,1.25-.22,.44,0,.82,.06,1.17,.19,.34,.13,.63,.3,.87,.53,.23,.22,.41,.49,.54,.8,.12,.31,.19,.65,.19,1.02,0,.28-.05,.55-.14,.81-.09,.27-.21,.53-.37,.78-.16,.26-.35,.52-.56,.77-.21,.26-.44,.51-.69,.78l-2.2,2.38h4.35v1.06h-5.96Z"/><path class="cls-1" d="M413.47,273.08c-.2,.44-.48,.82-.82,1.12l-.77-.41c.19-.29,.32-.6,.41-.93,.09-.33,.13-.68,.13-1.06v-1.2h1.35v1.17c0,.43-.11,.86-.31,1.31Z"/><path class="cls-1" d="M383.31,290.98c.18-.06,.34-.15,.48-.26,.14-.11,.26-.23,.34-.38,.08-.15,.13-.31,.13-.49h1.23c0,.31-.08,.6-.23,.88-.15,.28-.35,.52-.61,.73-.25,.21-.54,.37-.87,.49-.33,.12-.68,.18-1.04,.18-.51,0-.96-.09-1.34-.27-.38-.18-.7-.42-.95-.73-.26-.3-.45-.66-.58-1.06-.13-.4-.19-.83-.19-1.28v-.24c0-.45,.06-.88,.19-1.28,.13-.41,.32-.76,.58-1.07,.25-.3,.57-.55,.95-.73,.38-.18,.83-.27,1.34-.27,.4,0,.77,.06,1.1,.19,.33,.13,.63,.29,.87,.51,.24,.22,.43,.48,.57,.79,.14,.3,.21,.63,.2,.98h-1.23c0-.19-.04-.37-.12-.54-.08-.17-.18-.32-.31-.45-.14-.13-.3-.23-.48-.3-.19-.07-.39-.11-.61-.11-.33,0-.6,.07-.83,.2s-.4,.31-.54,.52c-.14,.22-.23,.46-.29,.73s-.09,.54-.09,.82v.24c0,.28,.03,.56,.09,.83,.06,.27,.15,.52,.29,.73,.13,.21,.31,.39,.53,.52s.5,.2,.84,.2c.19,0,.38-.03,.56-.09Z"/><path class="cls-1" d="M389.98,285.2c.16-.19,.41-.28,.73-.28s.57,.09,.74,.28,.26,.41,.26,.68-.09,.49-.26,.67c-.18,.18-.42,.27-.73,.27s-.55-.09-.72-.27c-.17-.18-.25-.4-.25-.66s.08-.49,.25-.68Zm0,5.31c.16-.19,.41-.28,.73-.28s.57,.09,.74,.28c.17,.18,.26,.41,.26,.68s-.09,.49-.26,.67c-.18,.18-.42,.27-.73,.27s-.55-.09-.72-.27c-.17-.18-.25-.4-.25-.66s.08-.49,.25-.68Z"/><path class="cls-1" d="M406.91,293.97c-.29-.17-.54-.4-.73-.68-.19-.28-.33-.58-.42-.92-.09-.33-.14-.67-.14-1v-1.03c0-.58-.14-1-.41-1.26-.27-.26-.69-.39-1.26-.4v-.99c.56,0,.98-.13,1.26-.39,.27-.26,.41-.68,.41-1.26v-1.04c0-.34,.05-.68,.14-1.04,.09-.36,.24-.67,.44-.95,.18-.25,.42-.46,.71-.63,.29-.16,.64-.25,1.05-.26l.15,.78c-.28,0-.51,.07-.67,.19-.16,.12-.29,.29-.36,.48-.08,.2-.13,.43-.15,.67-.02,.25-.03,.49-.03,.73v1.04c0,.49-.12,.93-.35,1.3s-.59,.66-1.08,.85c.49,.19,.85,.47,1.08,.85s.35,.81,.35,1.3v1.03c0,.25,.02,.49,.06,.74s.1,.47,.2,.66c.09,.2,.21,.37,.37,.49,.16,.12,.36,.19,.6,.19l-.15,.78c-.4,0-.75-.1-1.04-.27Z"/><path class="cls-1" d="M422.64,291.69c-.03-.12-.05-.25-.06-.38-.11,.11-.23,.22-.37,.31s-.29,.19-.45,.26c-.16,.08-.34,.14-.53,.18s-.39,.06-.61,.06c-.35,0-.67-.05-.95-.15-.29-.1-.53-.24-.73-.42s-.36-.39-.47-.63c-.11-.24-.17-.5-.17-.79,0-.37,.07-.69,.22-.97,.15-.28,.35-.51,.63-.7,.27-.18,.59-.31,.97-.4,.38-.09,.8-.13,1.27-.13h1.17v-.49c0-.19-.03-.36-.1-.51s-.16-.28-.29-.39c-.13-.11-.28-.19-.47-.25s-.39-.09-.63-.09c-.21,0-.4,.03-.56,.08-.17,.05-.31,.12-.42,.22-.11,.09-.19,.19-.25,.31s-.09,.25-.09,.38h-1.31c0-.26,.06-.5,.19-.74,.12-.24,.3-.45,.54-.65,.23-.19,.51-.34,.85-.45,.33-.12,.71-.17,1.14-.17,.39,0,.75,.05,1.08,.14,.33,.09,.62,.23,.86,.42,.24,.19,.43,.43,.57,.72,.14,.28,.21,.62,.21,.99v3.03c0,.26,.02,.52,.06,.76,.04,.24,.1,.46,.18,.64v.1h-1.35c-.04-.09-.08-.19-.1-.31Zm-1.22-.73c.18-.05,.34-.12,.49-.21,.15-.09,.28-.19,.38-.3,.11-.11,.19-.23,.25-.35v-1.29h-1.01c-.36,0-.67,.03-.93,.09-.26,.06-.47,.16-.63,.28-.12,.1-.22,.22-.28,.35-.06,.13-.09,.28-.09,.45,0,.15,.03,.29,.08,.42,.05,.13,.13,.24,.23,.33,.1,.09,.23,.16,.39,.21,.16,.05,.34,.08,.54,.08s.4-.03,.58-.08Z"/><path class="cls-1" d="M428.54,285.2c.16-.19,.41-.28,.73-.28s.57,.09,.74,.28,.26,.41,.26,.68-.09,.49-.26,.67c-.18,.18-.42,.27-.73,.27s-.55-.09-.72-.27c-.17-.18-.25-.4-.25-.66s.08-.49,.25-.68Zm0,5.31c.16-.19,.41-.28,.73-.28s.57,.09,.74,.28c.17,.18,.26,.41,.26,.68s-.09,.49-.26,.67c-.18,.18-.42,.27-.73,.27s-.55-.09-.72-.27c-.17-.18-.25-.4-.25-.66s.08-.49,.25-.68Z"/><path class="cls-1" d="M444.09,292v-7.34l-2.33,.87v-1.17l3.55-1.34h.09v8.99h-1.31Z"/><path class="cls-1" d="M458.56,293.27c.16-.13,.28-.29,.38-.49,.09-.2,.16-.42,.19-.66s.06-.49,.06-.74v-1.03c0-.3,.04-.58,.13-.84,.08-.26,.22-.48,.39-.68,.11-.13,.24-.25,.38-.35,.14-.1,.31-.19,.49-.27-.17-.07-.33-.15-.47-.25s-.27-.21-.37-.33c-.19-.21-.33-.44-.42-.71s-.13-.55-.13-.86v-1.04c0-.24-.01-.49-.03-.73-.02-.25-.07-.47-.15-.67-.08-.2-.2-.36-.37-.48-.16-.13-.39-.19-.67-.19l.15-.78c.41,0,.76,.09,1.05,.26,.29,.16,.53,.38,.72,.65,.2,.28,.35,.59,.43,.94,.09,.35,.13,.69,.13,1.03v1.04c0,.24,.02,.46,.07,.64,.05,.18,.12,.34,.21,.47,.13,.19,.31,.33,.55,.41,.23,.08,.51,.13,.84,.13v.99c-.31,0-.57,.04-.8,.12s-.4,.2-.53,.36c-.12,.13-.2,.29-.26,.49-.06,.19-.08,.42-.08,.68v1.03c0,.33-.05,.66-.14,1-.09,.34-.23,.65-.42,.92-.19,.28-.43,.5-.73,.68-.29,.18-.65,.27-1.05,.27l-.15-.78c.23,0,.43-.07,.59-.19Z"/><path class="cls-1" d="M350.6,313.27c.16-.13,.28-.29,.38-.49,.09-.2,.16-.42,.19-.66s.06-.49,.06-.74v-1.03c0-.3,.04-.58,.13-.84,.08-.26,.22-.48,.39-.68,.11-.13,.24-.25,.38-.35,.14-.1,.31-.19,.49-.27-.17-.07-.33-.15-.47-.25s-.27-.21-.37-.33c-.19-.21-.33-.44-.42-.71s-.13-.55-.13-.86v-1.04c0-.24-.01-.49-.03-.73-.02-.25-.07-.47-.15-.67-.08-.2-.2-.36-.37-.48-.16-.13-.39-.19-.67-.19l.15-.78c.41,0,.76,.09,1.05,.26,.29,.16,.53,.38,.72,.65,.2,.28,.35,.59,.43,.94,.09,.35,.13,.69,.13,1.03v1.04c0,.24,.02,.46,.07,.64,.05,.18,.12,.34,.21,.47,.13,.19,.31,.33,.55,.41,.23,.08,.51,.13,.84,.13v.99c-.31,0-.57,.04-.8,.12s-.4,.2-.53,.36c-.12,.13-.2,.29-.26,.49-.06,.19-.08,.42-.08,.68v1.03c0,.33-.05,.66-.14,1-.09,.34-.23,.65-.42,.92-.19,.28-.43,.5-.73,.68-.29,.18-.65,.27-1.05,.27l-.15-.78c.23,0,.43-.07,.59-.19Z"/></g><g><path class="cls-1" d="M8.46,190.98c.18-.06,.34-.15,.48-.26,.14-.11,.26-.23,.34-.38,.08-.15,.13-.31,.13-.49h1.23c0,.31-.08,.6-.23,.88-.15,.28-.35,.52-.61,.73-.25,.21-.54,.37-.87,.49-.33,.12-.68,.18-1.04,.18-.51,0-.96-.09-1.34-.27-.38-.18-.7-.42-.95-.73-.26-.3-.45-.66-.58-1.06-.13-.4-.19-.83-.19-1.28v-.24c0-.45,.06-.88,.19-1.28,.13-.41,.32-.76,.58-1.07,.25-.3,.57-.55,.95-.73,.38-.18,.83-.27,1.34-.27,.4,0,.77,.06,1.1,.19,.33,.13,.63,.29,.87,.51,.24,.22,.43,.48,.57,.79,.14,.3,.21,.63,.2,.98h-1.23c0-.19-.04-.37-.12-.54-.08-.17-.18-.32-.31-.45-.14-.13-.3-.23-.48-.3-.19-.07-.39-.11-.61-.11-.33,0-.6,.07-.83,.2s-.4,.31-.54,.52c-.14,.22-.23,.46-.29,.73s-.09,.54-.09,.82v.24c0,.28,.03,.56,.09,.83,.06,.27,.15,.52,.29,.73,.13,.21,.31,.39,.53,.52s.5,.2,.84,.2c.19,0,.38-.03,.56-.09Z"/><path class="cls-1" d="M12.64,187.26c.14-.41,.34-.77,.61-1.08,.26-.3,.58-.54,.96-.72s.81-.26,1.28-.26,.91,.09,1.29,.26c.38,.17,.7,.41,.97,.72,.26,.3,.46,.66,.6,1.08,.14,.41,.21,.86,.21,1.34v.14c0,.48-.07,.93-.21,1.34-.14,.41-.34,.77-.6,1.08-.27,.3-.59,.54-.97,.71-.38,.17-.81,.26-1.28,.26s-.91-.08-1.29-.26c-.38-.17-.7-.41-.97-.71-.27-.3-.47-.66-.61-1.08-.14-.41-.21-.86-.21-1.34v-.14c0-.48,.07-.93,.21-1.34Zm1.21,2.37c.07,.28,.18,.53,.33,.74,.14,.22,.33,.39,.55,.51s.48,.19,.78,.19,.55-.06,.77-.19,.4-.29,.55-.51c.14-.21,.25-.46,.32-.74s.11-.58,.11-.89v-.14c0-.31-.04-.6-.11-.89-.07-.28-.18-.53-.32-.74-.15-.22-.33-.39-.55-.52-.22-.12-.48-.19-.78-.19s-.56,.06-.78,.19c-.22,.13-.4,.3-.54,.52-.15,.21-.26,.46-.33,.74-.07,.28-.11,.58-.11,.89v.14c0,.31,.04,.61,.11,.89Z"/><path class="cls-1" d="M20.44,185.32h1.18l.09,.97c.09-.14,.2-.26,.31-.37s.23-.21,.35-.29c.2-.14,.41-.24,.65-.31,.23-.07,.48-.11,.74-.11,.35,0,.66,.05,.94,.15,.28,.1,.53,.25,.73,.46,.2,.21,.36,.48,.47,.81s.16,.72,.16,1.18v4.2h-1.31v-4.18c0-.29-.03-.53-.1-.72-.06-.2-.16-.35-.28-.47-.12-.12-.27-.2-.45-.26-.18-.05-.38-.08-.61-.08-.2,0-.38,.03-.55,.08s-.32,.13-.46,.22c-.12,.08-.22,.17-.31,.28-.09,.11-.18,.22-.25,.35v4.78h-1.31v-6.68Z"/><path class="cls-1" d="M32.47,189.87c-.05-.1-.14-.19-.26-.28-.13-.08-.3-.16-.5-.23-.21-.07-.47-.14-.77-.2-.39-.08-.74-.17-1.06-.29s-.59-.25-.81-.41c-.23-.16-.4-.34-.53-.55-.13-.21-.19-.45-.19-.73s.06-.53,.19-.77c.13-.24,.31-.45,.55-.63,.23-.18,.52-.32,.85-.43,.33-.11,.69-.16,1.09-.16,.43,0,.81,.05,1.15,.16,.34,.11,.63,.25,.87,.44,.24,.19,.42,.42,.55,.67,.13,.25,.19,.53,.19,.83h-1.31c0-.13-.03-.26-.1-.39s-.15-.24-.27-.34c-.12-.1-.28-.19-.46-.25-.18-.07-.39-.1-.63-.1s-.43,.03-.61,.07c-.18,.05-.32,.12-.43,.2-.12,.09-.2,.18-.26,.29s-.09,.22-.09,.34,.02,.23,.07,.33c.05,.1,.13,.18,.25,.26,.12,.08,.27,.15,.47,.21,.2,.06,.45,.12,.75,.18,.41,.08,.78,.18,1.11,.29,.33,.11,.61,.24,.84,.4,.23,.16,.41,.35,.54,.56,.12,.22,.19,.47,.19,.76s-.07,.57-.2,.81c-.14,.25-.33,.46-.57,.63-.24,.17-.54,.31-.88,.4-.35,.1-.72,.14-1.14,.14-.47,0-.88-.06-1.24-.18-.36-.12-.67-.29-.92-.49-.25-.2-.44-.43-.57-.7-.13-.27-.19-.54-.19-.82h1.28c.02,.22,.07,.4,.18,.56,.1,.15,.23,.28,.39,.37,.16,.09,.33,.16,.52,.2,.19,.04,.38,.06,.57,.06,.28,0,.52-.03,.73-.1s.37-.15,.49-.26c.09-.07,.15-.16,.19-.25,.04-.09,.06-.19,.06-.3,0-.13-.03-.24-.08-.34Z"/><path class="cls-1" d="M38.69,185.32h2.53v.99h-2.53v3.41c0,.25,.03,.47,.1,.63,.06,.17,.15,.3,.26,.4,.11,.1,.24,.17,.39,.22,.15,.04,.31,.06,.48,.06,.13,0,.26,0,.39-.02,.13-.01,.26-.03,.39-.05,.12-.02,.24-.04,.35-.06,.11-.02,.2-.04,.27-.06l.17,.92c-.1,.06-.23,.12-.37,.16-.14,.04-.3,.08-.47,.11-.16,.03-.34,.06-.52,.07s-.37,.02-.55,.02c-.32,0-.61-.04-.88-.13-.27-.09-.5-.23-.7-.42-.2-.19-.35-.43-.46-.73-.11-.3-.16-.66-.16-1.08v-3.46h-1.69v-.99h1.69v-1.62h1.31v1.62Z"/><path class="cls-1" d="M54.73,190.98c.18-.06,.34-.15,.48-.26,.14-.11,.26-.23,.34-.38,.08-.15,.13-.31,.13-.49h1.23c0,.31-.08,.6-.23,.88-.15,.28-.35,.52-.61,.73-.25,.21-.54,.37-.87,.49-.33,.12-.68,.18-1.04,.18-.51,0-.96-.09-1.34-.27-.38-.18-.7-.42-.95-.73-.26-.3-.45-.66-.58-1.06-.13-.4-.19-.83-.19-1.28v-.24c0-.45,.06-.88,.19-1.28,.13-.41,.32-.76,.58-1.07,.25-.3,.57-.55,.95-.73,.38-.18,.83-.27,1.34-.27,.4,0,.77,.06,1.1,.19,.33,.13,.63,.29,.87,.51,.24,.22,.43,.48,.57,.79,.14,.3,.21,.63,.2,.98h-1.23c0-.19-.04-.37-.12-.54-.08-.17-.18-.32-.31-.45-.14-.13-.3-.23-.48-.3-.19-.07-.39-.11-.61-.11-.33,0-.6,.07-.83,.2s-.4,.31-.54,.52c-.14,.22-.23,.46-.29,.73s-.09,.54-.09,.82v.24c0,.28,.03,.56,.09,.83,.06,.27,.15,.52,.29,.73,.13,.21,.31,.39,.53,.52s.5,.2,.84,.2c.19,0,.38-.03,.56-.09Z"/><path class="cls-1" d="M58.91,187.26c.14-.41,.34-.77,.61-1.08,.26-.3,.58-.54,.96-.72s.81-.26,1.28-.26,.91,.09,1.29,.26c.38,.17,.7,.41,.97,.72,.26,.3,.46,.66,.6,1.08,.14,.41,.21,.86,.21,1.34v.14c0,.48-.07,.93-.21,1.34-.14,.41-.34,.77-.6,1.08-.27,.3-.59,.54-.97,.71-.38,.17-.81,.26-1.28,.26s-.91-.08-1.29-.26c-.38-.17-.7-.41-.97-.71-.27-.3-.47-.66-.61-1.08-.14-.41-.21-.86-.21-1.34v-.14c0-.48,.07-.93,.21-1.34Zm1.21,2.37c.07,.28,.18,.53,.33,.74,.14,.22,.33,.39,.55,.51s.48,.19,.78,.19,.55-.06,.77-.19,.4-.29,.55-.51c.14-.21,.25-.46,.32-.74s.11-.58,.11-.89v-.14c0-.31-.04-.6-.11-.89-.07-.28-.18-.53-.32-.74-.15-.22-.33-.39-.55-.52-.22-.12-.48-.19-.78-.19s-.56,.06-.78,.19c-.22,.13-.4,.3-.54,.52-.15,.21-.26,.46-.33,.74-.07,.28-.11,.58-.11,.89v.14c0,.31,.04,.61,.11,.89Z"/><path class="cls-1" d="M66.71,185.32h1.2l.06,.71c.09-.12,.19-.22,.3-.31,.11-.09,.22-.17,.35-.24,.16-.09,.35-.16,.55-.21,.2-.05,.42-.07,.65-.07,.43,0,.81,.08,1.13,.25,.33,.17,.6,.4,.82,.7,.22,.3,.39,.66,.51,1.08,.12,.42,.17,.88,.17,1.37v.14c0,.48-.06,.92-.17,1.34s-.28,.77-.51,1.08-.5,.54-.82,.72-.7,.26-1.12,.26c-.24,0-.47-.03-.68-.08-.21-.05-.4-.12-.58-.22-.1-.06-.2-.13-.29-.2-.09-.07-.18-.16-.26-.25v3.19h-1.31v-9.25Zm4.33,2.39c-.07-.28-.17-.53-.31-.74-.14-.21-.32-.38-.53-.5-.21-.12-.47-.19-.77-.19-.16,0-.32,.02-.46,.06s-.27,.09-.38,.16c-.12,.07-.23,.16-.33,.27-.1,.11-.18,.23-.25,.36v3.09c.07,.12,.14,.23,.23,.33,.09,.1,.19,.19,.3,.26,.12,.08,.25,.14,.41,.18s.32,.06,.5,.06c.3,0,.55-.06,.77-.19,.21-.13,.39-.3,.52-.51,.14-.21,.24-.46,.3-.74,.07-.28,.1-.58,.1-.89v-.13c0-.31-.03-.6-.1-.88Z"/><path class="cls-1" d="M74.72,194.66c-.14-.02-.25-.05-.35-.07l.19-1.04c.09,0,.19,.02,.3,.02,.1,0,.18,0,.24,0,.15,0,.29-.04,.41-.13,.12-.09,.23-.19,.32-.3,.09-.11,.17-.22,.23-.32,.06-.11,.11-.2,.16-.29l.44-.85-2.86-6.37h1.45l1.75,4.19,.27,.77,.3-.75,1.67-4.21h1.46l-3.39,7.7c-.08,.17-.18,.35-.3,.55-.12,.2-.27,.38-.44,.54-.17,.17-.38,.3-.61,.42s-.51,.17-.82,.17c-.12,0-.25-.01-.39-.03Z"/><path class="cls-1" d="M84.67,192v-7.34l-2.33,.87v-1.17l3.55-1.34h.09v8.99h-1.31Z"/><path class="cls-1" d="M97.58,187.3v-1.11h5.6v1.11h-5.6Zm0,2.59v-1.11h5.6v1.11h-5.6Z"/><path class="cls-1" d="M116.89,193.97c-.29-.17-.54-.4-.73-.68-.19-.28-.33-.58-.42-.92-.09-.33-.14-.67-.14-1v-1.03c0-.58-.14-1-.41-1.26-.27-.26-.69-.39-1.26-.4v-.99c.56,0,.98-.13,1.26-.39,.27-.26,.41-.68,.41-1.26v-1.04c0-.34,.05-.68,.14-1.04,.09-.36,.24-.67,.44-.95,.18-.25,.42-.46,.71-.63,.29-.16,.64-.25,1.05-.26l.15,.78c-.28,0-.51,.07-.67,.19-.16,.12-.29,.29-.36,.48-.08,.2-.13,.43-.15,.67-.02,.25-.03,.49-.03,.73v1.04c0,.49-.12,.93-.35,1.3s-.59,.66-1.08,.85c.49,.19,.85,.47,1.08,.85s.35,.81,.35,1.3v1.03c0,.25,.02,.49,.06,.74s.1,.47,.2,.66c.09,.2,.21,.37,.37,.49,.16,.12,.36,.19,.6,.19l-.15,.78c-.4,0-.75-.1-1.04-.27Z"/><path class="cls-1" d="M130.56,190.51c.16-.19,.41-.28,.73-.28s.57,.09,.74,.28c.17,.18,.26,.41,.26,.68s-.09,.49-.26,.67-.42,.27-.73,.27-.55-.09-.72-.27c-.17-.18-.25-.4-.25-.66s.08-.49,.25-.68Z"/><path class="cls-1" d="M138.28,190.51c.16-.19,.41-.28,.73-.28s.57,.09,.74,.28c.17,.18,.26,.41,.26,.68s-.09,.49-.26,.67-.42,.27-.73,.27-.55-.09-.72-.27c-.17-.18-.25-.4-.25-.66s.08-.49,.25-.68Z"/><path class="cls-1" d="M145.99,190.51c.16-.19,.41-.28,.73-.28s.57,.09,.74,.28c.17,.18,.26,.41,.26,.68s-.09,.49-.26,.67-.42,.27-.73,.27-.55-.09-.72-.27c-.17-.18-.25-.4-.25-.66s.08-.49,.25-.68Z"/><path class="cls-1" d="M151.45,187.26c.14-.41,.34-.77,.61-1.08,.26-.3,.58-.54,.96-.72s.81-.26,1.28-.26,.91,.09,1.29,.26c.38,.17,.7,.41,.97,.72,.26,.3,.46,.66,.6,1.08,.14,.41,.21,.86,.21,1.34v.14c0,.48-.07,.93-.21,1.34-.14,.41-.34,.77-.6,1.08-.27,.3-.59,.54-.97,.71-.38,.17-.81,.26-1.28,.26s-.91-.08-1.29-.26c-.38-.17-.7-.41-.97-.71-.27-.3-.47-.66-.61-1.08-.14-.41-.21-.86-.21-1.34v-.14c0-.48,.07-.93,.21-1.34Zm1.21,2.37c.07,.28,.18,.53,.33,.74,.14,.22,.33,.39,.55,.51s.48,.19,.78,.19,.55-.06,.77-.19,.4-.29,.55-.51c.14-.21,.25-.46,.32-.74s.11-.58,.11-.89v-.14c0-.31-.04-.6-.11-.89-.07-.28-.18-.53-.32-.74-.15-.22-.33-.39-.55-.52-.22-.12-.48-.19-.78-.19s-.56,.06-.78,.19c-.22,.13-.4,.3-.54,.52-.15,.21-.26,.46-.33,.74-.07,.28-.11,.58-.11,.89v.14c0,.31,.04,.61,.11,.89Z"/><path class="cls-1" d="M164.94,189.6c-.04,.27-.11,.53-.19,.77-.11,.3-.25,.56-.42,.8-.17,.24-.38,.43-.62,.59-.18,.12-.38,.21-.6,.27-.22,.06-.46,.1-.73,.1-.28,0-.53-.03-.76-.1-.23-.07-.44-.17-.62-.3-.09-.06-.18-.13-.26-.21-.08-.08-.16-.17-.23-.26l-.06,.75h-1.19v-9.48h1.31v3.49c.09-.11,.19-.21,.3-.31,.11-.09,.23-.17,.35-.24,.16-.09,.34-.15,.53-.2s.4-.07,.62-.07c.29,0,.55,.04,.8,.11s.46,.18,.66,.32c.17,.13,.32,.28,.45,.45,.13,.17,.25,.37,.36,.59,.12,.26,.21,.56,.27,.89,.06,.33,.09,.67,.09,1.04v.13c0,.3-.02,.59-.06,.86Zm-1.28-1.58c-.02-.19-.06-.37-.11-.54-.07-.2-.15-.39-.26-.56s-.24-.3-.4-.41c-.12-.07-.24-.13-.38-.17-.14-.04-.3-.06-.47-.06-.2,0-.38,.03-.54,.08-.16,.05-.31,.13-.43,.22-.11,.08-.2,.18-.29,.29-.08,.11-.16,.23-.22,.35v2.84c.07,.14,.14,.26,.23,.37,.09,.11,.2,.21,.31,.3,.12,.09,.26,.16,.42,.21,.16,.05,.33,.07,.52,.07s.34-.02,.49-.07c.15-.04,.28-.11,.39-.19,.15-.11,.28-.24,.38-.41s.18-.35,.24-.56c.05-.16,.08-.33,.1-.51,.02-.18,.03-.37,.03-.56v-.13c0-.2-.01-.4-.03-.59Z"/><path class="cls-1" d="M171.19,185.32v6.75c0,.43-.06,.81-.18,1.14s-.3,.6-.52,.82c-.23,.22-.51,.39-.84,.5-.33,.11-.71,.17-1.13,.17-.12,0-.24,0-.35,0-.12,0-.23-.01-.34-.02-.09,0-.18-.02-.27-.03-.09-.01-.18-.03-.28-.05l.09-1.07c.06,.01,.14,.02,.25,.03,.1,0,.21,.02,.31,.02,.1,0,.2,.01,.29,.02,.1,0,.17,0,.23,0,.2,0,.38-.03,.56-.08s.33-.14,.46-.26c.13-.12,.23-.27,.31-.47,.08-.2,.11-.44,.11-.72v-5.64h-2.07v-1.11h3.39Zm-1.27-2.27c.13-.14,.32-.21,.57-.21s.44,.07,.58,.21c.13,.14,.2,.32,.2,.52s-.07,.38-.2,.52c-.13,.14-.33,.21-.58,.21s-.44-.07-.57-.21c-.13-.14-.19-.31-.19-.52s.06-.38,.19-.52Z"/><path class="cls-1" d="M183.97,193.27c.16-.13,.28-.29,.38-.49,.09-.2,.16-.42,.19-.66s.06-.49,.06-.74v-1.03c0-.3,.04-.58,.13-.84,.08-.26,.22-.48,.39-.68,.11-.13,.24-.25,.38-.35,.14-.1,.31-.19,.49-.27-.17-.07-.33-.15-.47-.25s-.27-.21-.37-.33c-.19-.21-.33-.44-.42-.71s-.13-.55-.13-.86v-1.04c0-.24-.01-.49-.03-.73-.02-.25-.07-.47-.15-.67-.08-.2-.2-.36-.37-.48-.16-.13-.39-.19-.67-.19l.15-.78c.41,0,.76,.09,1.05,.26,.29,.16,.53,.38,.72,.65,.2,.28,.35,.59,.43,.94,.09,.35,.13,.69,.13,1.03v1.04c0,.24,.02,.46,.07,.64,.05,.18,.12,.34,.21,.47,.13,.19,.31,.33,.55,.41,.23,.08,.51,.13,.84,.13v.99c-.31,0-.57,.04-.8,.12s-.4,.2-.53,.36c-.12,.13-.2,.29-.26,.49-.06,.19-.08,.42-.08,.68v1.03c0,.33-.05,.66-.14,1-.09,.34-.23,.65-.42,.92-.19,.28-.43,.5-.73,.68-.29,.18-.65,.27-1.05,.27l-.15-.78c.23,0,.43-.07,.59-.19Z"/></g><g><path class="cls-1" d="M328.46,190.98c.18-.06,.34-.15,.48-.26,.14-.11,.26-.23,.34-.38,.08-.15,.13-.31,.13-.49h1.23c0,.31-.08,.6-.23,.88-.15,.28-.35,.52-.61,.73-.25,.21-.54,.37-.87,.49-.33,.12-.68,.18-1.04,.18-.51,0-.96-.09-1.34-.27-.38-.18-.7-.42-.95-.73-.26-.3-.45-.66-.58-1.06-.13-.4-.19-.83-.19-1.28v-.24c0-.45,.06-.88,.19-1.28,.13-.41,.32-.76,.58-1.07,.25-.3,.57-.55,.95-.73,.38-.18,.83-.27,1.34-.27,.4,0,.77,.06,1.1,.19,.33,.13,.63,.29,.87,.51,.24,.22,.43,.48,.57,.79,.14,.3,.21,.63,.2,.98h-1.23c0-.19-.04-.37-.12-.54-.08-.17-.18-.32-.31-.45-.14-.13-.3-.23-.48-.3-.19-.07-.39-.11-.61-.11-.33,0-.6,.07-.83,.2s-.4,.31-.54,.52c-.14,.22-.23,.46-.29,.73s-.09,.54-.09,.82v.24c0,.28,.03,.56,.09,.83,.06,.27,.15,.52,.29,.73,.13,.21,.31,.39,.53,.52s.5,.2,.84,.2c.19,0,.38-.03,.56-.09Z"/><path class="cls-1" d="M332.64,187.26c.14-.41,.34-.77,.61-1.08,.26-.3,.58-.54,.96-.72s.81-.26,1.28-.26,.91,.09,1.29,.26c.38,.17,.7,.41,.97,.72,.26,.3,.46,.66,.6,1.08,.14,.41,.21,.86,.21,1.34v.14c0,.48-.07,.93-.21,1.34-.14,.41-.34,.77-.6,1.08-.27,.3-.59,.54-.97,.71-.38,.17-.81,.26-1.28,.26s-.91-.08-1.29-.26c-.38-.17-.7-.41-.97-.71-.27-.3-.47-.66-.61-1.08-.14-.41-.21-.86-.21-1.34v-.14c0-.48,.07-.93,.21-1.34Zm1.21,2.37c.07,.28,.18,.53,.33,.74,.14,.22,.33,.39,.55,.51s.48,.19,.78,.19,.55-.06,.77-.19,.4-.29,.55-.51c.14-.21,.25-.46,.32-.74s.11-.58,.11-.89v-.14c0-.31-.04-.6-.11-.89-.07-.28-.18-.53-.32-.74-.15-.22-.33-.39-.55-.52-.22-.12-.48-.19-.78-.19s-.56,.06-.78,.19c-.22,.13-.4,.3-.54,.52-.15,.21-.26,.46-.33,.74-.07,.28-.11,.58-.11,.89v.14c0,.31,.04,.61,.11,.89Z"/><path class="cls-1" d="M340.44,185.32h1.18l.09,.97c.09-.14,.2-.26,.31-.37s.23-.21,.35-.29c.2-.14,.41-.24,.65-.31,.23-.07,.48-.11,.74-.11,.35,0,.66,.05,.94,.15,.28,.1,.53,.25,.73,.46,.2,.21,.36,.48,.47,.81s.16,.72,.16,1.18v4.2h-1.31v-4.18c0-.29-.03-.53-.1-.72-.06-.2-.16-.35-.28-.47-.12-.12-.27-.2-.45-.26-.18-.05-.38-.08-.61-.08-.2,0-.38,.03-.55,.08s-.32,.13-.46,.22c-.12,.08-.22,.17-.31,.28-.09,.11-.18,.22-.25,.35v4.78h-1.31v-6.68Z"/><path class="cls-1" d="M352.47,189.87c-.05-.1-.14-.19-.26-.28-.13-.08-.3-.16-.5-.23-.21-.07-.47-.14-.77-.2-.39-.08-.74-.17-1.06-.29s-.59-.25-.81-.41c-.23-.16-.4-.34-.53-.55-.13-.21-.19-.45-.19-.73s.06-.53,.19-.77c.13-.24,.31-.45,.55-.63,.23-.18,.52-.32,.85-.43,.33-.11,.69-.16,1.09-.16,.43,0,.81,.05,1.15,.16,.34,.11,.63,.25,.87,.44,.24,.19,.42,.42,.55,.67,.13,.25,.19,.53,.19,.83h-1.31c0-.13-.03-.26-.1-.39s-.15-.24-.27-.34c-.12-.1-.28-.19-.46-.25-.18-.07-.39-.1-.63-.1s-.43,.03-.61,.07c-.18,.05-.32,.12-.43,.2-.12,.09-.2,.18-.26,.29s-.09,.22-.09,.34,.02,.23,.07,.33c.05,.1,.13,.18,.25,.26,.12,.08,.27,.15,.47,.21,.2,.06,.45,.12,.75,.18,.41,.08,.78,.18,1.11,.29,.33,.11,.61,.24,.84,.4,.23,.16,.41,.35,.54,.56,.12,.22,.19,.47,.19,.76s-.07,.57-.2,.81c-.14,.25-.33,.46-.57,.63-.24,.17-.54,.31-.88,.4-.35,.1-.72,.14-1.14,.14-.47,0-.88-.06-1.24-.18-.36-.12-.67-.29-.92-.49-.25-.2-.44-.43-.57-.7-.13-.27-.19-.54-.19-.82h1.28c.02,.22,.07,.4,.18,.56,.1,.15,.23,.28,.39,.37,.16,.09,.33,.16,.52,.2,.19,.04,.38,.06,.57,.06,.28,0,.52-.03,.73-.1s.37-.15,.49-.26c.09-.07,.15-.16,.19-.25,.04-.09,.06-.19,.06-.3,0-.13-.03-.24-.08-.34Z"/><path class="cls-1" d="M358.69,185.32h2.53v.99h-2.53v3.41c0,.25,.03,.47,.1,.63,.06,.17,.15,.3,.26,.4,.11,.1,.24,.17,.39,.22,.15,.04,.31,.06,.48,.06,.13,0,.26,0,.39-.02,.13-.01,.26-.03,.39-.05,.12-.02,.24-.04,.35-.06,.11-.02,.2-.04,.27-.06l.17,.92c-.1,.06-.23,.12-.37,.16-.14,.04-.3,.08-.47,.11-.16,.03-.34,.06-.52,.07s-.37,.02-.55,.02c-.32,0-.61-.04-.88-.13-.27-.09-.5-.23-.7-.42-.2-.19-.35-.43-.46-.73-.11-.3-.16-.66-.16-1.08v-3.46h-1.69v-.99h1.69v-1.62h1.31v1.62Z"/><path class="cls-1" d="M374.73,190.98c.18-.06,.34-.15,.48-.26,.14-.11,.26-.23,.34-.38,.08-.15,.13-.31,.13-.49h1.23c0,.31-.08,.6-.23,.88-.15,.28-.35,.52-.61,.73-.25,.21-.54,.37-.87,.49-.33,.12-.68,.18-1.04,.18-.51,0-.96-.09-1.34-.27-.38-.18-.7-.42-.95-.73-.26-.3-.45-.66-.58-1.06-.13-.4-.19-.83-.19-1.28v-.24c0-.45,.06-.88,.19-1.28,.13-.41,.32-.76,.58-1.07,.25-.3,.57-.55,.95-.73,.38-.18,.83-.27,1.34-.27,.4,0,.77,.06,1.1,.19,.33,.13,.63,.29,.87,.51,.24,.22,.43,.48,.57,.79,.14,.3,.21,.63,.2,.98h-1.23c0-.19-.04-.37-.12-.54-.08-.17-.18-.32-.31-.45-.14-.13-.3-.23-.48-.3-.19-.07-.39-.11-.61-.11-.33,0-.6,.07-.83,.2s-.4,.31-.54,.52c-.14,.22-.23,.46-.29,.73s-.09,.54-.09,.82v.24c0,.28,.03,.56,.09,.83,.06,.27,.15,.52,.29,.73,.13,.21,.31,.39,.53,.52s.5,.2,.84,.2c.19,0,.38-.03,.56-.09Z"/><path class="cls-1" d="M378.91,187.26c.14-.41,.34-.77,.61-1.08,.26-.3,.58-.54,.96-.72s.81-.26,1.28-.26,.91,.09,1.29,.26c.38,.17,.7,.41,.97,.72,.26,.3,.46,.66,.6,1.08,.14,.41,.21,.86,.21,1.34v.14c0,.48-.07,.93-.21,1.34-.14,.41-.34,.77-.6,1.08-.27,.3-.59,.54-.97,.71-.38,.17-.81,.26-1.28,.26s-.91-.08-1.29-.26c-.38-.17-.7-.41-.97-.71-.27-.3-.47-.66-.61-1.08-.14-.41-.21-.86-.21-1.34v-.14c0-.48,.07-.93,.21-1.34Zm1.21,2.37c.07,.28,.18,.53,.33,.74,.14,.22,.33,.39,.55,.51s.48,.19,.78,.19,.55-.06,.77-.19,.4-.29,.55-.51c.14-.21,.25-.46,.32-.74s.11-.58,.11-.89v-.14c0-.31-.04-.6-.11-.89-.07-.28-.18-.53-.32-.74-.15-.22-.33-.39-.55-.52-.22-.12-.48-.19-.78-.19s-.56,.06-.78,.19c-.22,.13-.4,.3-.54,.52-.15,.21-.26,.46-.33,.74-.07,.28-.11,.58-.11,.89v.14c0,.31,.04,.61,.11,.89Z"/><path class="cls-1" d="M386.71,185.32h1.2l.06,.71c.09-.12,.19-.22,.3-.31,.11-.09,.22-.17,.35-.24,.16-.09,.35-.16,.55-.21,.2-.05,.42-.07,.65-.07,.43,0,.81,.08,1.13,.25,.33,.17,.6,.4,.82,.7,.22,.3,.39,.66,.51,1.08,.12,.42,.17,.88,.17,1.37v.14c0,.48-.06,.92-.17,1.34s-.28,.77-.51,1.08-.5,.54-.82,.72-.7,.26-1.12,.26c-.24,0-.47-.03-.68-.08-.21-.05-.4-.12-.58-.22-.1-.06-.2-.13-.29-.2-.09-.07-.18-.16-.26-.25v3.19h-1.31v-9.25Zm4.33,2.39c-.07-.28-.17-.53-.31-.74-.14-.21-.32-.38-.53-.5-.21-.12-.47-.19-.77-.19-.16,0-.32,.02-.46,.06s-.27,.09-.38,.16c-.12,.07-.23,.16-.33,.27-.1,.11-.18,.23-.25,.36v3.09c.07,.12,.14,.23,.23,.33,.09,.1,.19,.19,.3,.26,.12,.08,.25,.14,.41,.18s.32,.06,.5,.06c.3,0,.55-.06,.77-.19,.21-.13,.39-.3,.52-.51,.14-.21,.24-.46,.3-.74,.07-.28,.1-.58,.1-.89v-.13c0-.31-.03-.6-.1-.88Z"/><path class="cls-1" d="M394.72,194.66c-.14-.02-.25-.05-.35-.07l.19-1.04c.09,0,.19,.02,.3,.02,.1,0,.18,0,.24,0,.15,0,.29-.04,.41-.13,.12-.09,.23-.19,.32-.3,.09-.11,.17-.22,.23-.32,.06-.11,.11-.2,.16-.29l.44-.85-2.86-6.37h1.45l1.75,4.19,.27,.77,.3-.75,1.67-4.21h1.46l-3.39,7.7c-.08,.17-.18,.35-.3,.55-.12,.2-.27,.38-.44,.54-.17,.17-.38,.3-.61,.42s-.51,.17-.82,.17c-.12,0-.25-.01-.39-.03Z"/><path class="cls-1" d="M401.79,192v-.93l2.93-3.23c.25-.28,.47-.52,.64-.74,.17-.22,.31-.42,.41-.61,.11-.18,.18-.35,.23-.52,.04-.17,.06-.33,.06-.49,0-.22-.03-.42-.1-.6-.07-.18-.16-.34-.29-.48-.13-.14-.29-.24-.47-.32-.18-.08-.38-.11-.61-.11-.28,0-.52,.04-.73,.12-.21,.08-.38,.19-.52,.34-.14,.15-.24,.33-.31,.55s-.1,.46-.1,.73h-1.31c0-.39,.07-.75,.21-1.09,.14-.34,.34-.64,.6-.89,.25-.25,.57-.46,.94-.61,.37-.15,.78-.22,1.25-.22,.44,0,.82,.06,1.17,.19,.34,.13,.63,.3,.87,.53,.23,.22,.41,.49,.54,.8,.12,.31,.19,.65,.19,1.02,0,.28-.05,.55-.14,.81-.09,.27-.21,.53-.37,.78-.16,.26-.35,.52-.56,.77-.21,.26-.44,.51-.69,.78l-2.2,2.38h4.35v1.06h-5.96Z"/><path class="cls-1" d="M417.58,187.3v-1.11h5.6v1.11h-5.6Zm0,2.59v-1.11h5.6v1.11h-5.6Z"/><path class="cls-1" d="M437.3,189.87c-.05-.1-.14-.19-.26-.28-.13-.08-.3-.16-.5-.23-.21-.07-.47-.14-.77-.2-.39-.08-.74-.17-1.06-.29s-.59-.25-.81-.41c-.23-.16-.4-.34-.53-.55-.13-.21-.19-.45-.19-.73s.06-.53,.19-.77c.13-.24,.31-.45,.55-.63,.23-.18,.52-.32,.85-.43,.33-.11,.69-.16,1.09-.16,.43,0,.81,.05,1.15,.16,.34,.11,.63,.25,.87,.44,.24,.19,.42,.42,.55,.67,.13,.25,.19,.53,.19,.83h-1.31c0-.13-.03-.26-.1-.39s-.15-.24-.27-.34c-.12-.1-.28-.19-.46-.25-.18-.07-.39-.1-.63-.1s-.43,.03-.61,.07c-.18,.05-.32,.12-.43,.2-.12,.09-.2,.18-.26,.29s-.09,.22-.09,.34,.02,.23,.07,.33c.05,.1,.13,.18,.25,.26,.12,.08,.27,.15,.47,.21,.2,.06,.45,.12,.75,.18,.41,.08,.78,.18,1.11,.29,.33,.11,.61,.24,.84,.4,.23,.16,.41,.35,.54,.56,.12,.22,.19,.47,.19,.76s-.07,.57-.2,.81c-.14,.25-.33,.46-.57,.63-.24,.17-.54,.31-.88,.4-.35,.1-.72,.14-1.14,.14-.47,0-.88-.06-1.24-.18-.36-.12-.67-.29-.92-.49-.25-.2-.44-.43-.57-.7-.13-.27-.19-.54-.19-.82h1.28c.02,.22,.07,.4,.18,.56,.1,.15,.23,.28,.39,.37,.16,.09,.33,.16,.52,.2,.19,.04,.38,.06,.57,.06,.28,0,.52-.03,.73-.1s.37-.15,.49-.26c.09-.07,.15-.16,.19-.25,.04-.09,.06-.19,.06-.3,0-.13-.03-.24-.08-.34Z"/><path class="cls-1" d="M443.52,185.32h2.53v.99h-2.53v3.41c0,.25,.03,.47,.1,.63,.06,.17,.15,.3,.26,.4,.11,.1,.24,.17,.39,.22,.15,.04,.31,.06,.48,.06,.13,0,.26,0,.39-.02,.13-.01,.26-.03,.39-.05,.12-.02,.24-.04,.35-.06,.11-.02,.2-.04,.27-.06l.17,.92c-.1,.06-.23,.12-.37,.16-.14,.04-.3,.08-.47,.11-.16,.03-.34,.06-.52,.07s-.37,.02-.55,.02c-.32,0-.61-.04-.88-.13-.27-.09-.5-.23-.7-.42-.2-.19-.35-.43-.46-.73-.11-.3-.16-.66-.16-1.08v-3.46h-1.69v-.99h1.69v-1.62h1.31v1.62Z"/><path class="cls-1" d="M453.57,185.25c.22,.03,.4,.07,.52,.11l-.19,1.29c-.22-.05-.44-.09-.65-.11-.21-.02-.42-.04-.64-.04-.26,0-.5,.03-.71,.09-.21,.06-.4,.15-.56,.26-.16,.11-.29,.25-.41,.4-.12,.16-.21,.34-.28,.54v4.2h-1.31v-6.68h1.23l.06,.91v.16c.28-.37,.6-.66,.98-.87,.38-.21,.81-.32,1.28-.32,.23,0,.45,.02,.68,.05Z"/><path class="cls-1" d="M460.42,191.07c-.22,.33-.5,.59-.83,.77-.33,.19-.7,.28-1.12,.28-.35,0-.67-.05-.95-.16-.29-.11-.53-.28-.73-.51-.2-.23-.36-.52-.47-.88-.11-.36-.17-.79-.17-1.29v-3.96h1.31v3.97c0,.34,.03,.62,.08,.84,.05,.22,.13,.4,.24,.53,.11,.14,.24,.23,.4,.29,.16,.06,.34,.08,.56,.08,.23,0,.44-.03,.63-.08,.19-.05,.35-.13,.48-.22,.12-.08,.22-.17,.3-.29,.09-.11,.16-.24,.22-.37v-4.76h1.31v6.68h-1.19l-.07-.93Z"/><path class="cls-1" d="M467.27,190.98c.18-.06,.34-.15,.48-.26,.14-.11,.26-.23,.34-.38,.08-.15,.13-.31,.13-.49h1.23c0,.31-.08,.6-.23,.88-.15,.28-.35,.52-.61,.73-.25,.21-.54,.37-.87,.49-.33,.12-.68,.18-1.04,.18-.51,0-.96-.09-1.34-.27-.38-.18-.7-.42-.95-.73-.26-.3-.45-.66-.58-1.06-.13-.4-.19-.83-.19-1.28v-.24c0-.45,.06-.88,.19-1.28,.13-.41,.32-.76,.58-1.07,.25-.3,.57-.55,.95-.73,.38-.18,.83-.27,1.34-.27,.4,0,.77,.06,1.1,.19,.33,.13,.63,.29,.87,.51,.24,.22,.43,.48,.57,.79,.14,.3,.21,.63,.2,.98h-1.23c0-.19-.04-.37-.12-.54-.08-.17-.18-.32-.31-.45-.14-.13-.3-.23-.48-.3-.19-.07-.39-.11-.61-.11-.33,0-.6,.07-.83,.2s-.4,.31-.54,.52c-.14,.22-.23,.46-.29,.73s-.09,.54-.09,.82v.24c0,.28,.03,.56,.09,.83,.06,.27,.15,.52,.29,.73,.13,.21,.31,.39,.53,.52s.5,.2,.84,.2c.19,0,.38-.03,.56-.09Z"/><path class="cls-1" d="M474.37,185.32h2.53v.99h-2.53v3.41c0,.25,.03,.47,.1,.63,.06,.17,.15,.3,.26,.4,.11,.1,.24,.17,.39,.22,.15,.04,.31,.06,.48,.06,.13,0,.26,0,.39-.02,.13-.01,.26-.03,.39-.05,.12-.02,.24-.04,.35-.06,.11-.02,.2-.04,.27-.06l.17,.92c-.1,.06-.23,.12-.37,.16-.14,.04-.3,.08-.47,.11-.16,.03-.34,.06-.52,.07s-.37,.02-.55,.02c-.32,0-.61-.04-.88-.13-.27-.09-.5-.23-.7-.42-.2-.19-.35-.43-.46-.73-.11-.3-.16-.66-.16-1.08v-3.46h-1.69v-.99h1.69v-1.62h1.31v1.62Z"/><path class="cls-1" d="M483.56,191.07c-.22,.33-.5,.59-.83,.77-.33,.19-.7,.28-1.12,.28-.35,0-.67-.05-.95-.16-.29-.11-.53-.28-.73-.51-.2-.23-.36-.52-.47-.88-.11-.36-.17-.79-.17-1.29v-3.96h1.31v3.97c0,.34,.03,.62,.08,.84,.05,.22,.13,.4,.24,.53,.11,.14,.24,.23,.4,.29,.16,.06,.34,.08,.56,.08,.23,0,.44-.03,.63-.08,.19-.05,.35-.13,.48-.22,.12-.08,.22-.17,.3-.29,.09-.11,.16-.24,.22-.37v-4.76h1.31v6.68h-1.19l-.07-.93Z"/><path class="cls-1" d="M492.13,185.25c.22,.03,.4,.07,.52,.11l-.19,1.29c-.22-.05-.44-.09-.65-.11-.21-.02-.42-.04-.64-.04-.26,0-.5,.03-.71,.09-.21,.06-.4,.15-.56,.26-.16,.11-.29,.25-.41,.4-.12,.16-.21,.34-.28,.54v4.2h-1.31v-6.68h1.23l.06,.91v.16c.28-.37,.6-.66,.98-.87,.38-.21,.81-.32,1.28-.32,.23,0,.45,.02,.68,.05Z"/><path class="cls-1" d="M496.38,191.88c-.4-.16-.74-.39-1.03-.68-.29-.29-.51-.63-.67-1.02-.16-.4-.24-.82-.24-1.28v-.25c0-.53,.09-1.01,.26-1.43,.17-.43,.4-.79,.69-1.08,.28-.3,.61-.52,.98-.68,.37-.16,.76-.24,1.17-.24,.48,0,.9,.08,1.27,.25,.36,.17,.67,.39,.92,.69,.25,.29,.43,.64,.55,1.04,.12,.4,.18,.84,.18,1.31v.57h-4.7v.04c.04,.31,.1,.57,.2,.8,.1,.22,.23,.42,.4,.59,.18,.18,.38,.32,.62,.43,.24,.1,.5,.15,.79,.15,.39,0,.74-.08,1.06-.23s.58-.37,.78-.63l.75,.65c-.22,.33-.56,.62-1.01,.88-.45,.26-1,.39-1.65,.39-.48,0-.92-.08-1.32-.24Zm.54-5.49c-.19,.08-.36,.2-.51,.35-.15,.15-.28,.34-.39,.56-.1,.22-.18,.47-.23,.75h3.37v-.08c0-.2-.04-.4-.11-.62s-.18-.4-.31-.56c-.13-.16-.3-.28-.5-.38-.2-.1-.44-.14-.71-.14-.22,0-.42,.04-.62,.12Z"/><path class="cls-1" d="M502.36,187.23c.12-.42,.3-.78,.53-1.08,.23-.3,.51-.53,.84-.7,.33-.17,.7-.25,1.11-.25,.38,0,.72,.07,1.01,.2,.29,.13,.54,.32,.76,.57v-3.44h1.31v9.48h-1.19l-.06-.7c-.22,.27-.48,.47-.78,.61-.3,.14-.65,.21-1.05,.21s-.77-.09-1.1-.26-.6-.41-.83-.71c-.23-.3-.41-.66-.53-1.08-.13-.41-.19-.86-.19-1.34v-.13c0-.5,.06-.96,.19-1.38Zm1.22,2.39c.06,.28,.16,.52,.3,.73,.13,.21,.3,.38,.51,.5,.21,.12,.46,.18,.76,.18,.36,0,.65-.08,.89-.24,.23-.16,.42-.38,.56-.65v-2.98c-.14-.26-.33-.47-.56-.63-.23-.16-.53-.24-.88-.24-.3,0-.55,.06-.76,.19-.21,.12-.39,.29-.52,.5-.14,.21-.24,.46-.3,.74-.06,.28-.1,.58-.1,.89v.13c0,.31,.03,.61,.1,.89Z"/><path class="cls-1" d="M515.7,190.43c-.16,.35-.38,.65-.64,.9-.26,.25-.58,.45-.94,.58-.36,.14-.77,.21-1.21,.21-.37,0-.71-.05-1.01-.15-.3-.1-.58-.24-.82-.43-.23-.18-.44-.39-.61-.64s-.32-.52-.43-.81c-.12-.29-.2-.6-.26-.94-.06-.33-.09-.67-.09-1.02v-1.24c0-.34,.03-.67,.09-1,.06-.33,.14-.63,.26-.93,.12-.31,.26-.59,.45-.85,.18-.26,.4-.48,.65-.66,.23-.18,.5-.32,.8-.41s.63-.15,.99-.15c.46,0,.87,.07,1.24,.21,.36,.14,.68,.33,.94,.59s.47,.56,.62,.92,.26,.76,.31,1.2h-1.31c-.03-.27-.09-.52-.17-.74-.08-.22-.19-.42-.33-.58-.14-.16-.32-.29-.53-.39s-.46-.14-.75-.14c-.23,0-.44,.04-.62,.11-.18,.07-.34,.17-.47,.29-.16,.14-.29,.3-.4,.5-.11,.2-.19,.41-.25,.64-.06,.21-.1,.44-.13,.67-.02,.23-.04,.47-.04,.7v1.25c0,.26,.01,.52,.04,.77s.08,.48,.15,.71c.06,.21,.13,.4,.23,.57,.09,.18,.21,.33,.35,.46,.14,.13,.31,.23,.49,.31,.19,.07,.4,.11,.64,.11,.28,0,.52-.04,.73-.12,.21-.08,.39-.2,.53-.36,.14-.16,.26-.34,.35-.57,.09-.22,.14-.47,.17-.74h1.31c-.04,.42-.15,.81-.31,1.16Z"/><path class="cls-1" d="M521.54,182.52v8.38h2.1v1.1h-5.6v-1.1h2.19v-7.26h-2.19v-1.11h3.51Z"/><path class="cls-1" d="M525.43,187.26c.14-.41,.34-.77,.61-1.08,.26-.3,.58-.54,.96-.72s.81-.26,1.28-.26,.91,.09,1.29,.26c.38,.17,.7,.41,.97,.72,.26,.3,.46,.66,.6,1.08,.14,.41,.21,.86,.21,1.34v.14c0,.48-.07,.93-.21,1.34-.14,.41-.34,.77-.6,1.08-.27,.3-.59,.54-.97,.71-.38,.17-.81,.26-1.28,.26s-.91-.08-1.29-.26c-.38-.17-.7-.41-.97-.71-.27-.3-.47-.66-.61-1.08-.14-.41-.21-.86-.21-1.34v-.14c0-.48,.07-.93,.21-1.34Zm1.21,2.37c.07,.28,.18,.53,.33,.74,.14,.22,.33,.39,.55,.51s.48,.19,.78,.19,.55-.06,.77-.19,.4-.29,.55-.51c.14-.21,.25-.46,.32-.74s.11-.58,.11-.89v-.14c0-.31-.04-.6-.11-.89-.07-.28-.18-.53-.32-.74-.15-.22-.33-.39-.55-.52-.22-.12-.48-.19-.78-.19s-.56,.06-.78,.19c-.22,.13-.4,.3-.54,.52-.15,.21-.26,.46-.33,.74-.07,.28-.11,.58-.11,.89v.14c0,.31,.04,.61,.11,.89Z"/><path class="cls-1" d="M533.23,185.32h1.18l.09,.97c.09-.14,.2-.26,.31-.37s.23-.21,.35-.29c.2-.14,.41-.24,.65-.31,.23-.07,.48-.11,.74-.11,.35,0,.66,.05,.94,.15,.28,.1,.53,.25,.73,.46,.2,.21,.36,.48,.47,.81s.16,.72,.16,1.18v4.2h-1.31v-4.18c0-.29-.03-.53-.1-.72-.06-.2-.16-.35-.28-.47-.12-.12-.27-.2-.45-.26-.18-.05-.38-.08-.61-.08-.2,0-.38,.03-.55,.08s-.32,.13-.46,.22c-.12,.08-.22,.17-.31,.28-.09,.11-.18,.22-.25,.35v4.78h-1.31v-6.68Z"/><path class="cls-1" d="M542.65,191.88c-.4-.16-.74-.39-1.03-.68-.29-.29-.51-.63-.67-1.02-.16-.4-.24-.82-.24-1.28v-.25c0-.53,.09-1.01,.26-1.43,.17-.43,.4-.79,.69-1.08,.28-.3,.61-.52,.98-.68,.37-.16,.76-.24,1.17-.24,.48,0,.9,.08,1.27,.25,.36,.17,.67,.39,.92,.69,.25,.29,.43,.64,.55,1.04,.12,.4,.18,.84,.18,1.31v.57h-4.7v.04c.04,.31,.1,.57,.2,.8,.1,.22,.23,.42,.4,.59,.18,.18,.38,.32,.62,.43,.24,.1,.5,.15,.79,.15,.39,0,.74-.08,1.06-.23s.58-.37,.78-.63l.75,.65c-.22,.33-.56,.62-1.01,.88-.45,.26-1,.39-1.65,.39-.48,0-.92-.08-1.32-.24Zm.54-5.49c-.19,.08-.36,.2-.51,.35-.15,.15-.28,.34-.39,.56-.1,.22-.18,.47-.23,.75h3.37v-.08c0-.2-.04-.4-.11-.62s-.18-.4-.31-.56c-.13-.16-.3-.28-.5-.38-.2-.1-.44-.14-.71-.14-.22,0-.42,.04-.62,.12Z"/><path class="cls-1" d="M549.96,186.7c.09-.52,.21-1,.37-1.43,.15-.44,.33-.84,.53-1.21,.2-.36,.42-.69,.65-.97,.23-.28,.45-.52,.69-.72,.23-.2,.45-.36,.66-.47l.27,.81c-.13,.1-.26,.22-.4,.36-.13,.14-.26,.3-.39,.47-.18,.26-.35,.56-.52,.91-.16,.35-.3,.73-.42,1.15-.1,.38-.19,.8-.25,1.26-.06,.46-.09,.96-.09,1.49v.11c0,.51,.03,.99,.09,1.44,.06,.44,.13,.84,.22,1.19,.1,.38,.22,.73,.35,1.05s.28,.61,.43,.86c.15,.25,.31,.46,.48,.65,.17,.19,.33,.35,.5,.48l-.27,.77c-.21-.11-.43-.27-.66-.46s-.46-.44-.68-.72c-.23-.28-.44-.6-.65-.96-.2-.36-.38-.77-.53-1.21-.16-.44-.28-.91-.37-1.43-.09-.52-.14-1.07-.14-1.66v-.08c0-.59,.04-1.14,.14-1.66Z"/><path class="cls-1" d="M556.27,187.26c.14-.41,.34-.77,.61-1.08,.26-.3,.58-.54,.96-.72s.81-.26,1.28-.26,.91,.09,1.29,.26c.38,.17,.7,.41,.97,.72,.26,.3,.46,.66,.6,1.08,.14,.41,.21,.86,.21,1.34v.14c0,.48-.07,.93-.21,1.34-.14,.41-.34,.77-.6,1.08-.27,.3-.59,.54-.97,.71-.38,.17-.81,.26-1.28,.26s-.91-.08-1.29-.26c-.38-.17-.7-.41-.97-.71-.27-.3-.47-.66-.61-1.08-.14-.41-.21-.86-.21-1.34v-.14c0-.48,.07-.93,.21-1.34Zm1.21,2.37c.07,.28,.18,.53,.33,.74,.14,.22,.33,.39,.55,.51s.48,.19,.78,.19,.55-.06,.77-.19,.4-.29,.55-.51c.14-.21,.25-.46,.32-.74s.11-.58,.11-.89v-.14c0-.31-.04-.6-.11-.89-.07-.28-.18-.53-.32-.74-.15-.22-.33-.39-.55-.52-.22-.12-.48-.19-.78-.19s-.56,.06-.78,.19c-.22,.13-.4,.3-.54,.52-.15,.21-.26,.46-.33,.74-.07,.28-.11,.58-.11,.89v.14c0,.31,.04,.61,.11,.89Z"/><path class="cls-1" d="M569.77,189.6c-.04,.27-.11,.53-.19,.77-.11,.3-.25,.56-.42,.8-.17,.24-.38,.43-.62,.59-.18,.12-.38,.21-.6,.27-.22,.06-.46,.1-.73,.1-.28,0-.53-.03-.76-.1-.23-.07-.44-.17-.62-.3-.09-.06-.18-.13-.26-.21-.08-.08-.16-.17-.23-.26l-.06,.75h-1.19v-9.48h1.31v3.49c.09-.11,.19-.21,.3-.31,.11-.09,.23-.17,.35-.24,.16-.09,.34-.15,.53-.2s.4-.07,.62-.07c.29,0,.55,.04,.8,.11s.46,.18,.66,.32c.17,.13,.32,.28,.45,.45,.13,.17,.25,.37,.36,.59,.12,.26,.21,.56,.27,.89,.06,.33,.09,.67,.09,1.04v.13c0,.3-.02,.59-.06,.86Zm-1.28-1.58c-.02-.19-.06-.37-.11-.54-.07-.2-.15-.39-.26-.56s-.24-.3-.4-.41c-.12-.07-.24-.13-.38-.17-.14-.04-.3-.06-.47-.06-.2,0-.38,.03-.54,.08-.16,.05-.31,.13-.43,.22-.11,.08-.2,.18-.29,.29-.08,.11-.16,.23-.22,.35v2.84c.07,.14,.14,.26,.23,.37,.09,.11,.2,.21,.31,.3,.12,.09,.26,.16,.42,.21,.16,.05,.33,.07,.52,.07s.34-.02,.49-.07c.15-.04,.28-.11,.39-.19,.15-.11,.28-.24,.38-.41s.18-.35,.24-.56c.05-.16,.08-.33,.1-.51,.02-.18,.03-.37,.03-.56v-.13c0-.2-.01-.4-.03-.59Z"/><path class="cls-1" d="M576.02,185.32v6.75c0,.43-.06,.81-.18,1.14s-.3,.6-.52,.82c-.23,.22-.51,.39-.84,.5-.33,.11-.71,.17-1.13,.17-.12,0-.24,0-.35,0-.12,0-.23-.01-.34-.02-.09,0-.18-.02-.27-.03-.09-.01-.18-.03-.28-.05l.09-1.07c.06,.01,.14,.02,.25,.03,.1,0,.21,.02,.31,.02,.1,0,.2,.01,.29,.02,.1,0,.17,0,.23,0,.2,0,.38-.03,.56-.08s.33-.14,.46-.26c.13-.12,.23-.27,.31-.47,.08-.2,.11-.44,.11-.72v-5.64h-2.07v-1.11h3.39Zm-1.27-2.27c.13-.14,.32-.21,.57-.21s.44,.07,.58,.21c.13,.14,.2,.32,.2,.52s-.07,.38-.2,.52c-.13,.14-.33,.21-.58,.21s-.44-.07-.57-.21c-.13-.14-.19-.31-.19-.52s.06-.38,.19-.52Z"/><path class="cls-1" d="M583.64,190.07c-.09,.51-.21,.99-.37,1.43-.16,.44-.34,.85-.54,1.21-.21,.36-.42,.69-.65,.97-.23,.28-.46,.53-.69,.73-.23,.2-.46,.35-.67,.47l-.27-.77c.16-.12,.33-.27,.5-.46,.17-.19,.33-.41,.48-.65,.16-.26,.3-.56,.44-.89,.14-.33,.26-.69,.35-1.09,.09-.37,.16-.76,.21-1.19,.05-.43,.08-.89,.08-1.38v-.11c0-.53-.03-1.02-.1-1.47s-.14-.83-.22-1.15c-.12-.45-.26-.85-.42-1.21-.17-.36-.34-.67-.52-.93-.13-.2-.27-.37-.4-.52s-.27-.28-.4-.39l.27-.76c.21,.11,.44,.27,.67,.47,.23,.2,.47,.44,.69,.72,.23,.29,.45,.62,.65,.98,.2,.36,.38,.76,.54,1.2,.15,.43,.27,.9,.36,1.4s.14,1.06,.14,1.68v.08c0,.58-.05,1.13-.14,1.64Z"/></g><line class="cls-2" x1="72" y1="204" x2="72" y2="240"/><line class="cls-2" x1="388" y1="204" x2="388" y2="240"/><polyline class="cls-2" points="96 288 192.26 288 192.26 4 260 4 260 11.28"/></g></svg>